G75*
%MOIN*%
%OFA0B0*%
%FSLAX25Y25*%
%IPPOS*%
%LPD*%
%AMOC8*
5,1,8,0,0,1.08239X$1,22.5*
%
%ADD10C,0.00000*%
%ADD11R,0.05906X0.05118*%
%ADD12R,0.06299X0.05118*%
D10*
X0009674Y0017431D02*
X0009674Y0411132D01*
X0069674Y0411132D01*
X0069674Y0017431D01*
X0009674Y0017431D01*
X0012429Y0099321D02*
X0012431Y0099474D01*
X0012437Y0099628D01*
X0012447Y0099781D01*
X0012461Y0099933D01*
X0012479Y0100086D01*
X0012501Y0100237D01*
X0012526Y0100388D01*
X0012556Y0100539D01*
X0012590Y0100689D01*
X0012627Y0100837D01*
X0012668Y0100985D01*
X0012713Y0101131D01*
X0012762Y0101277D01*
X0012815Y0101421D01*
X0012871Y0101563D01*
X0012931Y0101704D01*
X0012995Y0101844D01*
X0013062Y0101982D01*
X0013133Y0102118D01*
X0013208Y0102252D01*
X0013285Y0102384D01*
X0013367Y0102514D01*
X0013451Y0102642D01*
X0013539Y0102768D01*
X0013630Y0102891D01*
X0013724Y0103012D01*
X0013822Y0103130D01*
X0013922Y0103246D01*
X0014026Y0103359D01*
X0014132Y0103470D01*
X0014241Y0103578D01*
X0014353Y0103683D01*
X0014467Y0103784D01*
X0014585Y0103883D01*
X0014704Y0103979D01*
X0014826Y0104072D01*
X0014951Y0104161D01*
X0015078Y0104248D01*
X0015207Y0104330D01*
X0015338Y0104410D01*
X0015471Y0104486D01*
X0015606Y0104559D01*
X0015743Y0104628D01*
X0015882Y0104693D01*
X0016022Y0104755D01*
X0016164Y0104813D01*
X0016307Y0104868D01*
X0016452Y0104919D01*
X0016598Y0104966D01*
X0016745Y0105009D01*
X0016893Y0105048D01*
X0017042Y0105084D01*
X0017192Y0105115D01*
X0017343Y0105143D01*
X0017494Y0105167D01*
X0017647Y0105187D01*
X0017799Y0105203D01*
X0017952Y0105215D01*
X0018105Y0105223D01*
X0018258Y0105227D01*
X0018412Y0105227D01*
X0018565Y0105223D01*
X0018718Y0105215D01*
X0018871Y0105203D01*
X0019023Y0105187D01*
X0019176Y0105167D01*
X0019327Y0105143D01*
X0019478Y0105115D01*
X0019628Y0105084D01*
X0019777Y0105048D01*
X0019925Y0105009D01*
X0020072Y0104966D01*
X0020218Y0104919D01*
X0020363Y0104868D01*
X0020506Y0104813D01*
X0020648Y0104755D01*
X0020788Y0104693D01*
X0020927Y0104628D01*
X0021064Y0104559D01*
X0021199Y0104486D01*
X0021332Y0104410D01*
X0021463Y0104330D01*
X0021592Y0104248D01*
X0021719Y0104161D01*
X0021844Y0104072D01*
X0021966Y0103979D01*
X0022085Y0103883D01*
X0022203Y0103784D01*
X0022317Y0103683D01*
X0022429Y0103578D01*
X0022538Y0103470D01*
X0022644Y0103359D01*
X0022748Y0103246D01*
X0022848Y0103130D01*
X0022946Y0103012D01*
X0023040Y0102891D01*
X0023131Y0102768D01*
X0023219Y0102642D01*
X0023303Y0102514D01*
X0023385Y0102384D01*
X0023462Y0102252D01*
X0023537Y0102118D01*
X0023608Y0101982D01*
X0023675Y0101844D01*
X0023739Y0101704D01*
X0023799Y0101563D01*
X0023855Y0101421D01*
X0023908Y0101277D01*
X0023957Y0101131D01*
X0024002Y0100985D01*
X0024043Y0100837D01*
X0024080Y0100689D01*
X0024114Y0100539D01*
X0024144Y0100388D01*
X0024169Y0100237D01*
X0024191Y0100086D01*
X0024209Y0099933D01*
X0024223Y0099781D01*
X0024233Y0099628D01*
X0024239Y0099474D01*
X0024241Y0099321D01*
X0024239Y0099168D01*
X0024233Y0099014D01*
X0024223Y0098861D01*
X0024209Y0098709D01*
X0024191Y0098556D01*
X0024169Y0098405D01*
X0024144Y0098254D01*
X0024114Y0098103D01*
X0024080Y0097953D01*
X0024043Y0097805D01*
X0024002Y0097657D01*
X0023957Y0097511D01*
X0023908Y0097365D01*
X0023855Y0097221D01*
X0023799Y0097079D01*
X0023739Y0096938D01*
X0023675Y0096798D01*
X0023608Y0096660D01*
X0023537Y0096524D01*
X0023462Y0096390D01*
X0023385Y0096258D01*
X0023303Y0096128D01*
X0023219Y0096000D01*
X0023131Y0095874D01*
X0023040Y0095751D01*
X0022946Y0095630D01*
X0022848Y0095512D01*
X0022748Y0095396D01*
X0022644Y0095283D01*
X0022538Y0095172D01*
X0022429Y0095064D01*
X0022317Y0094959D01*
X0022203Y0094858D01*
X0022085Y0094759D01*
X0021966Y0094663D01*
X0021844Y0094570D01*
X0021719Y0094481D01*
X0021592Y0094394D01*
X0021463Y0094312D01*
X0021332Y0094232D01*
X0021199Y0094156D01*
X0021064Y0094083D01*
X0020927Y0094014D01*
X0020788Y0093949D01*
X0020648Y0093887D01*
X0020506Y0093829D01*
X0020363Y0093774D01*
X0020218Y0093723D01*
X0020072Y0093676D01*
X0019925Y0093633D01*
X0019777Y0093594D01*
X0019628Y0093558D01*
X0019478Y0093527D01*
X0019327Y0093499D01*
X0019176Y0093475D01*
X0019023Y0093455D01*
X0018871Y0093439D01*
X0018718Y0093427D01*
X0018565Y0093419D01*
X0018412Y0093415D01*
X0018258Y0093415D01*
X0018105Y0093419D01*
X0017952Y0093427D01*
X0017799Y0093439D01*
X0017647Y0093455D01*
X0017494Y0093475D01*
X0017343Y0093499D01*
X0017192Y0093527D01*
X0017042Y0093558D01*
X0016893Y0093594D01*
X0016745Y0093633D01*
X0016598Y0093676D01*
X0016452Y0093723D01*
X0016307Y0093774D01*
X0016164Y0093829D01*
X0016022Y0093887D01*
X0015882Y0093949D01*
X0015743Y0094014D01*
X0015606Y0094083D01*
X0015471Y0094156D01*
X0015338Y0094232D01*
X0015207Y0094312D01*
X0015078Y0094394D01*
X0014951Y0094481D01*
X0014826Y0094570D01*
X0014704Y0094663D01*
X0014585Y0094759D01*
X0014467Y0094858D01*
X0014353Y0094959D01*
X0014241Y0095064D01*
X0014132Y0095172D01*
X0014026Y0095283D01*
X0013922Y0095396D01*
X0013822Y0095512D01*
X0013724Y0095630D01*
X0013630Y0095751D01*
X0013539Y0095874D01*
X0013451Y0096000D01*
X0013367Y0096128D01*
X0013285Y0096258D01*
X0013208Y0096390D01*
X0013133Y0096524D01*
X0013062Y0096660D01*
X0012995Y0096798D01*
X0012931Y0096938D01*
X0012871Y0097079D01*
X0012815Y0097221D01*
X0012762Y0097365D01*
X0012713Y0097511D01*
X0012668Y0097657D01*
X0012627Y0097805D01*
X0012590Y0097953D01*
X0012556Y0098103D01*
X0012526Y0098254D01*
X0012501Y0098405D01*
X0012479Y0098556D01*
X0012461Y0098709D01*
X0012447Y0098861D01*
X0012437Y0099014D01*
X0012431Y0099168D01*
X0012429Y0099321D01*
X0033690Y0252864D02*
X0033692Y0253048D01*
X0033699Y0253231D01*
X0033710Y0253414D01*
X0033726Y0253597D01*
X0033746Y0253780D01*
X0033771Y0253962D01*
X0033800Y0254143D01*
X0033834Y0254323D01*
X0033872Y0254503D01*
X0033914Y0254681D01*
X0033961Y0254859D01*
X0034012Y0255035D01*
X0034068Y0255210D01*
X0034127Y0255384D01*
X0034191Y0255556D01*
X0034259Y0255726D01*
X0034332Y0255895D01*
X0034408Y0256062D01*
X0034489Y0256227D01*
X0034573Y0256390D01*
X0034662Y0256551D01*
X0034754Y0256709D01*
X0034850Y0256866D01*
X0034951Y0257020D01*
X0035054Y0257171D01*
X0035162Y0257320D01*
X0035273Y0257466D01*
X0035388Y0257609D01*
X0035506Y0257750D01*
X0035628Y0257887D01*
X0035753Y0258022D01*
X0035881Y0258153D01*
X0036012Y0258281D01*
X0036147Y0258406D01*
X0036284Y0258528D01*
X0036425Y0258646D01*
X0036568Y0258761D01*
X0036714Y0258872D01*
X0036863Y0258980D01*
X0037014Y0259083D01*
X0037168Y0259184D01*
X0037325Y0259280D01*
X0037483Y0259372D01*
X0037644Y0259461D01*
X0037807Y0259545D01*
X0037972Y0259626D01*
X0038139Y0259702D01*
X0038308Y0259775D01*
X0038478Y0259843D01*
X0038650Y0259907D01*
X0038824Y0259966D01*
X0038999Y0260022D01*
X0039175Y0260073D01*
X0039353Y0260120D01*
X0039531Y0260162D01*
X0039711Y0260200D01*
X0039891Y0260234D01*
X0040072Y0260263D01*
X0040254Y0260288D01*
X0040437Y0260308D01*
X0040620Y0260324D01*
X0040803Y0260335D01*
X0040986Y0260342D01*
X0041170Y0260344D01*
X0041354Y0260342D01*
X0041537Y0260335D01*
X0041720Y0260324D01*
X0041903Y0260308D01*
X0042086Y0260288D01*
X0042268Y0260263D01*
X0042449Y0260234D01*
X0042629Y0260200D01*
X0042809Y0260162D01*
X0042987Y0260120D01*
X0043165Y0260073D01*
X0043341Y0260022D01*
X0043516Y0259966D01*
X0043690Y0259907D01*
X0043862Y0259843D01*
X0044032Y0259775D01*
X0044201Y0259702D01*
X0044368Y0259626D01*
X0044533Y0259545D01*
X0044696Y0259461D01*
X0044857Y0259372D01*
X0045015Y0259280D01*
X0045172Y0259184D01*
X0045326Y0259083D01*
X0045477Y0258980D01*
X0045626Y0258872D01*
X0045772Y0258761D01*
X0045915Y0258646D01*
X0046056Y0258528D01*
X0046193Y0258406D01*
X0046328Y0258281D01*
X0046459Y0258153D01*
X0046587Y0258022D01*
X0046712Y0257887D01*
X0046834Y0257750D01*
X0046952Y0257609D01*
X0047067Y0257466D01*
X0047178Y0257320D01*
X0047286Y0257171D01*
X0047389Y0257020D01*
X0047490Y0256866D01*
X0047586Y0256709D01*
X0047678Y0256551D01*
X0047767Y0256390D01*
X0047851Y0256227D01*
X0047932Y0256062D01*
X0048008Y0255895D01*
X0048081Y0255726D01*
X0048149Y0255556D01*
X0048213Y0255384D01*
X0048272Y0255210D01*
X0048328Y0255035D01*
X0048379Y0254859D01*
X0048426Y0254681D01*
X0048468Y0254503D01*
X0048506Y0254323D01*
X0048540Y0254143D01*
X0048569Y0253962D01*
X0048594Y0253780D01*
X0048614Y0253597D01*
X0048630Y0253414D01*
X0048641Y0253231D01*
X0048648Y0253048D01*
X0048650Y0252864D01*
X0048648Y0252680D01*
X0048641Y0252497D01*
X0048630Y0252314D01*
X0048614Y0252131D01*
X0048594Y0251948D01*
X0048569Y0251766D01*
X0048540Y0251585D01*
X0048506Y0251405D01*
X0048468Y0251225D01*
X0048426Y0251047D01*
X0048379Y0250869D01*
X0048328Y0250693D01*
X0048272Y0250518D01*
X0048213Y0250344D01*
X0048149Y0250172D01*
X0048081Y0250002D01*
X0048008Y0249833D01*
X0047932Y0249666D01*
X0047851Y0249501D01*
X0047767Y0249338D01*
X0047678Y0249177D01*
X0047586Y0249019D01*
X0047490Y0248862D01*
X0047389Y0248708D01*
X0047286Y0248557D01*
X0047178Y0248408D01*
X0047067Y0248262D01*
X0046952Y0248119D01*
X0046834Y0247978D01*
X0046712Y0247841D01*
X0046587Y0247706D01*
X0046459Y0247575D01*
X0046328Y0247447D01*
X0046193Y0247322D01*
X0046056Y0247200D01*
X0045915Y0247082D01*
X0045772Y0246967D01*
X0045626Y0246856D01*
X0045477Y0246748D01*
X0045326Y0246645D01*
X0045172Y0246544D01*
X0045015Y0246448D01*
X0044857Y0246356D01*
X0044696Y0246267D01*
X0044533Y0246183D01*
X0044368Y0246102D01*
X0044201Y0246026D01*
X0044032Y0245953D01*
X0043862Y0245885D01*
X0043690Y0245821D01*
X0043516Y0245762D01*
X0043341Y0245706D01*
X0043165Y0245655D01*
X0042987Y0245608D01*
X0042809Y0245566D01*
X0042629Y0245528D01*
X0042449Y0245494D01*
X0042268Y0245465D01*
X0042086Y0245440D01*
X0041903Y0245420D01*
X0041720Y0245404D01*
X0041537Y0245393D01*
X0041354Y0245386D01*
X0041170Y0245384D01*
X0040986Y0245386D01*
X0040803Y0245393D01*
X0040620Y0245404D01*
X0040437Y0245420D01*
X0040254Y0245440D01*
X0040072Y0245465D01*
X0039891Y0245494D01*
X0039711Y0245528D01*
X0039531Y0245566D01*
X0039353Y0245608D01*
X0039175Y0245655D01*
X0038999Y0245706D01*
X0038824Y0245762D01*
X0038650Y0245821D01*
X0038478Y0245885D01*
X0038308Y0245953D01*
X0038139Y0246026D01*
X0037972Y0246102D01*
X0037807Y0246183D01*
X0037644Y0246267D01*
X0037483Y0246356D01*
X0037325Y0246448D01*
X0037168Y0246544D01*
X0037014Y0246645D01*
X0036863Y0246748D01*
X0036714Y0246856D01*
X0036568Y0246967D01*
X0036425Y0247082D01*
X0036284Y0247200D01*
X0036147Y0247322D01*
X0036012Y0247447D01*
X0035881Y0247575D01*
X0035753Y0247706D01*
X0035628Y0247841D01*
X0035506Y0247978D01*
X0035388Y0248119D01*
X0035273Y0248262D01*
X0035162Y0248408D01*
X0035054Y0248557D01*
X0034951Y0248708D01*
X0034850Y0248862D01*
X0034754Y0249019D01*
X0034662Y0249177D01*
X0034573Y0249338D01*
X0034489Y0249501D01*
X0034408Y0249666D01*
X0034332Y0249833D01*
X0034259Y0250002D01*
X0034191Y0250172D01*
X0034127Y0250344D01*
X0034068Y0250518D01*
X0034012Y0250693D01*
X0033961Y0250869D01*
X0033914Y0251047D01*
X0033872Y0251225D01*
X0033834Y0251405D01*
X0033800Y0251585D01*
X0033771Y0251766D01*
X0033746Y0251948D01*
X0033726Y0252131D01*
X0033710Y0252314D01*
X0033699Y0252497D01*
X0033692Y0252680D01*
X0033690Y0252864D01*
X0025816Y0289478D02*
X0025818Y0289662D01*
X0025825Y0289845D01*
X0025836Y0290028D01*
X0025852Y0290211D01*
X0025872Y0290394D01*
X0025897Y0290576D01*
X0025926Y0290757D01*
X0025960Y0290937D01*
X0025998Y0291117D01*
X0026040Y0291295D01*
X0026087Y0291473D01*
X0026138Y0291649D01*
X0026194Y0291824D01*
X0026253Y0291998D01*
X0026317Y0292170D01*
X0026385Y0292340D01*
X0026458Y0292509D01*
X0026534Y0292676D01*
X0026615Y0292841D01*
X0026699Y0293004D01*
X0026788Y0293165D01*
X0026880Y0293323D01*
X0026976Y0293480D01*
X0027077Y0293634D01*
X0027180Y0293785D01*
X0027288Y0293934D01*
X0027399Y0294080D01*
X0027514Y0294223D01*
X0027632Y0294364D01*
X0027754Y0294501D01*
X0027879Y0294636D01*
X0028007Y0294767D01*
X0028138Y0294895D01*
X0028273Y0295020D01*
X0028410Y0295142D01*
X0028551Y0295260D01*
X0028694Y0295375D01*
X0028840Y0295486D01*
X0028989Y0295594D01*
X0029140Y0295697D01*
X0029294Y0295798D01*
X0029451Y0295894D01*
X0029609Y0295986D01*
X0029770Y0296075D01*
X0029933Y0296159D01*
X0030098Y0296240D01*
X0030265Y0296316D01*
X0030434Y0296389D01*
X0030604Y0296457D01*
X0030776Y0296521D01*
X0030950Y0296580D01*
X0031125Y0296636D01*
X0031301Y0296687D01*
X0031479Y0296734D01*
X0031657Y0296776D01*
X0031837Y0296814D01*
X0032017Y0296848D01*
X0032198Y0296877D01*
X0032380Y0296902D01*
X0032563Y0296922D01*
X0032746Y0296938D01*
X0032929Y0296949D01*
X0033112Y0296956D01*
X0033296Y0296958D01*
X0033480Y0296956D01*
X0033663Y0296949D01*
X0033846Y0296938D01*
X0034029Y0296922D01*
X0034212Y0296902D01*
X0034394Y0296877D01*
X0034575Y0296848D01*
X0034755Y0296814D01*
X0034935Y0296776D01*
X0035113Y0296734D01*
X0035291Y0296687D01*
X0035467Y0296636D01*
X0035642Y0296580D01*
X0035816Y0296521D01*
X0035988Y0296457D01*
X0036158Y0296389D01*
X0036327Y0296316D01*
X0036494Y0296240D01*
X0036659Y0296159D01*
X0036822Y0296075D01*
X0036983Y0295986D01*
X0037141Y0295894D01*
X0037298Y0295798D01*
X0037452Y0295697D01*
X0037603Y0295594D01*
X0037752Y0295486D01*
X0037898Y0295375D01*
X0038041Y0295260D01*
X0038182Y0295142D01*
X0038319Y0295020D01*
X0038454Y0294895D01*
X0038585Y0294767D01*
X0038713Y0294636D01*
X0038838Y0294501D01*
X0038960Y0294364D01*
X0039078Y0294223D01*
X0039193Y0294080D01*
X0039304Y0293934D01*
X0039412Y0293785D01*
X0039515Y0293634D01*
X0039616Y0293480D01*
X0039712Y0293323D01*
X0039804Y0293165D01*
X0039893Y0293004D01*
X0039977Y0292841D01*
X0040058Y0292676D01*
X0040134Y0292509D01*
X0040207Y0292340D01*
X0040275Y0292170D01*
X0040339Y0291998D01*
X0040398Y0291824D01*
X0040454Y0291649D01*
X0040505Y0291473D01*
X0040552Y0291295D01*
X0040594Y0291117D01*
X0040632Y0290937D01*
X0040666Y0290757D01*
X0040695Y0290576D01*
X0040720Y0290394D01*
X0040740Y0290211D01*
X0040756Y0290028D01*
X0040767Y0289845D01*
X0040774Y0289662D01*
X0040776Y0289478D01*
X0040774Y0289294D01*
X0040767Y0289111D01*
X0040756Y0288928D01*
X0040740Y0288745D01*
X0040720Y0288562D01*
X0040695Y0288380D01*
X0040666Y0288199D01*
X0040632Y0288019D01*
X0040594Y0287839D01*
X0040552Y0287661D01*
X0040505Y0287483D01*
X0040454Y0287307D01*
X0040398Y0287132D01*
X0040339Y0286958D01*
X0040275Y0286786D01*
X0040207Y0286616D01*
X0040134Y0286447D01*
X0040058Y0286280D01*
X0039977Y0286115D01*
X0039893Y0285952D01*
X0039804Y0285791D01*
X0039712Y0285633D01*
X0039616Y0285476D01*
X0039515Y0285322D01*
X0039412Y0285171D01*
X0039304Y0285022D01*
X0039193Y0284876D01*
X0039078Y0284733D01*
X0038960Y0284592D01*
X0038838Y0284455D01*
X0038713Y0284320D01*
X0038585Y0284189D01*
X0038454Y0284061D01*
X0038319Y0283936D01*
X0038182Y0283814D01*
X0038041Y0283696D01*
X0037898Y0283581D01*
X0037752Y0283470D01*
X0037603Y0283362D01*
X0037452Y0283259D01*
X0037298Y0283158D01*
X0037141Y0283062D01*
X0036983Y0282970D01*
X0036822Y0282881D01*
X0036659Y0282797D01*
X0036494Y0282716D01*
X0036327Y0282640D01*
X0036158Y0282567D01*
X0035988Y0282499D01*
X0035816Y0282435D01*
X0035642Y0282376D01*
X0035467Y0282320D01*
X0035291Y0282269D01*
X0035113Y0282222D01*
X0034935Y0282180D01*
X0034755Y0282142D01*
X0034575Y0282108D01*
X0034394Y0282079D01*
X0034212Y0282054D01*
X0034029Y0282034D01*
X0033846Y0282018D01*
X0033663Y0282007D01*
X0033480Y0282000D01*
X0033296Y0281998D01*
X0033112Y0282000D01*
X0032929Y0282007D01*
X0032746Y0282018D01*
X0032563Y0282034D01*
X0032380Y0282054D01*
X0032198Y0282079D01*
X0032017Y0282108D01*
X0031837Y0282142D01*
X0031657Y0282180D01*
X0031479Y0282222D01*
X0031301Y0282269D01*
X0031125Y0282320D01*
X0030950Y0282376D01*
X0030776Y0282435D01*
X0030604Y0282499D01*
X0030434Y0282567D01*
X0030265Y0282640D01*
X0030098Y0282716D01*
X0029933Y0282797D01*
X0029770Y0282881D01*
X0029609Y0282970D01*
X0029451Y0283062D01*
X0029294Y0283158D01*
X0029140Y0283259D01*
X0028989Y0283362D01*
X0028840Y0283470D01*
X0028694Y0283581D01*
X0028551Y0283696D01*
X0028410Y0283814D01*
X0028273Y0283936D01*
X0028138Y0284061D01*
X0028007Y0284189D01*
X0027879Y0284320D01*
X0027754Y0284455D01*
X0027632Y0284592D01*
X0027514Y0284733D01*
X0027399Y0284876D01*
X0027288Y0285022D01*
X0027180Y0285171D01*
X0027077Y0285322D01*
X0026976Y0285476D01*
X0026880Y0285633D01*
X0026788Y0285791D01*
X0026699Y0285952D01*
X0026615Y0286115D01*
X0026534Y0286280D01*
X0026458Y0286447D01*
X0026385Y0286616D01*
X0026317Y0286786D01*
X0026253Y0286958D01*
X0026194Y0287132D01*
X0026138Y0287307D01*
X0026087Y0287483D01*
X0026040Y0287661D01*
X0025998Y0287839D01*
X0025960Y0288019D01*
X0025926Y0288199D01*
X0025897Y0288380D01*
X0025872Y0288562D01*
X0025852Y0288745D01*
X0025836Y0288928D01*
X0025825Y0289111D01*
X0025818Y0289294D01*
X0025816Y0289478D01*
X0025816Y0362707D02*
X0025818Y0362891D01*
X0025825Y0363074D01*
X0025836Y0363257D01*
X0025852Y0363440D01*
X0025872Y0363623D01*
X0025897Y0363805D01*
X0025926Y0363986D01*
X0025960Y0364166D01*
X0025998Y0364346D01*
X0026040Y0364524D01*
X0026087Y0364702D01*
X0026138Y0364878D01*
X0026194Y0365053D01*
X0026253Y0365227D01*
X0026317Y0365399D01*
X0026385Y0365569D01*
X0026458Y0365738D01*
X0026534Y0365905D01*
X0026615Y0366070D01*
X0026699Y0366233D01*
X0026788Y0366394D01*
X0026880Y0366552D01*
X0026976Y0366709D01*
X0027077Y0366863D01*
X0027180Y0367014D01*
X0027288Y0367163D01*
X0027399Y0367309D01*
X0027514Y0367452D01*
X0027632Y0367593D01*
X0027754Y0367730D01*
X0027879Y0367865D01*
X0028007Y0367996D01*
X0028138Y0368124D01*
X0028273Y0368249D01*
X0028410Y0368371D01*
X0028551Y0368489D01*
X0028694Y0368604D01*
X0028840Y0368715D01*
X0028989Y0368823D01*
X0029140Y0368926D01*
X0029294Y0369027D01*
X0029451Y0369123D01*
X0029609Y0369215D01*
X0029770Y0369304D01*
X0029933Y0369388D01*
X0030098Y0369469D01*
X0030265Y0369545D01*
X0030434Y0369618D01*
X0030604Y0369686D01*
X0030776Y0369750D01*
X0030950Y0369809D01*
X0031125Y0369865D01*
X0031301Y0369916D01*
X0031479Y0369963D01*
X0031657Y0370005D01*
X0031837Y0370043D01*
X0032017Y0370077D01*
X0032198Y0370106D01*
X0032380Y0370131D01*
X0032563Y0370151D01*
X0032746Y0370167D01*
X0032929Y0370178D01*
X0033112Y0370185D01*
X0033296Y0370187D01*
X0033480Y0370185D01*
X0033663Y0370178D01*
X0033846Y0370167D01*
X0034029Y0370151D01*
X0034212Y0370131D01*
X0034394Y0370106D01*
X0034575Y0370077D01*
X0034755Y0370043D01*
X0034935Y0370005D01*
X0035113Y0369963D01*
X0035291Y0369916D01*
X0035467Y0369865D01*
X0035642Y0369809D01*
X0035816Y0369750D01*
X0035988Y0369686D01*
X0036158Y0369618D01*
X0036327Y0369545D01*
X0036494Y0369469D01*
X0036659Y0369388D01*
X0036822Y0369304D01*
X0036983Y0369215D01*
X0037141Y0369123D01*
X0037298Y0369027D01*
X0037452Y0368926D01*
X0037603Y0368823D01*
X0037752Y0368715D01*
X0037898Y0368604D01*
X0038041Y0368489D01*
X0038182Y0368371D01*
X0038319Y0368249D01*
X0038454Y0368124D01*
X0038585Y0367996D01*
X0038713Y0367865D01*
X0038838Y0367730D01*
X0038960Y0367593D01*
X0039078Y0367452D01*
X0039193Y0367309D01*
X0039304Y0367163D01*
X0039412Y0367014D01*
X0039515Y0366863D01*
X0039616Y0366709D01*
X0039712Y0366552D01*
X0039804Y0366394D01*
X0039893Y0366233D01*
X0039977Y0366070D01*
X0040058Y0365905D01*
X0040134Y0365738D01*
X0040207Y0365569D01*
X0040275Y0365399D01*
X0040339Y0365227D01*
X0040398Y0365053D01*
X0040454Y0364878D01*
X0040505Y0364702D01*
X0040552Y0364524D01*
X0040594Y0364346D01*
X0040632Y0364166D01*
X0040666Y0363986D01*
X0040695Y0363805D01*
X0040720Y0363623D01*
X0040740Y0363440D01*
X0040756Y0363257D01*
X0040767Y0363074D01*
X0040774Y0362891D01*
X0040776Y0362707D01*
X0040774Y0362523D01*
X0040767Y0362340D01*
X0040756Y0362157D01*
X0040740Y0361974D01*
X0040720Y0361791D01*
X0040695Y0361609D01*
X0040666Y0361428D01*
X0040632Y0361248D01*
X0040594Y0361068D01*
X0040552Y0360890D01*
X0040505Y0360712D01*
X0040454Y0360536D01*
X0040398Y0360361D01*
X0040339Y0360187D01*
X0040275Y0360015D01*
X0040207Y0359845D01*
X0040134Y0359676D01*
X0040058Y0359509D01*
X0039977Y0359344D01*
X0039893Y0359181D01*
X0039804Y0359020D01*
X0039712Y0358862D01*
X0039616Y0358705D01*
X0039515Y0358551D01*
X0039412Y0358400D01*
X0039304Y0358251D01*
X0039193Y0358105D01*
X0039078Y0357962D01*
X0038960Y0357821D01*
X0038838Y0357684D01*
X0038713Y0357549D01*
X0038585Y0357418D01*
X0038454Y0357290D01*
X0038319Y0357165D01*
X0038182Y0357043D01*
X0038041Y0356925D01*
X0037898Y0356810D01*
X0037752Y0356699D01*
X0037603Y0356591D01*
X0037452Y0356488D01*
X0037298Y0356387D01*
X0037141Y0356291D01*
X0036983Y0356199D01*
X0036822Y0356110D01*
X0036659Y0356026D01*
X0036494Y0355945D01*
X0036327Y0355869D01*
X0036158Y0355796D01*
X0035988Y0355728D01*
X0035816Y0355664D01*
X0035642Y0355605D01*
X0035467Y0355549D01*
X0035291Y0355498D01*
X0035113Y0355451D01*
X0034935Y0355409D01*
X0034755Y0355371D01*
X0034575Y0355337D01*
X0034394Y0355308D01*
X0034212Y0355283D01*
X0034029Y0355263D01*
X0033846Y0355247D01*
X0033663Y0355236D01*
X0033480Y0355229D01*
X0033296Y0355227D01*
X0033112Y0355229D01*
X0032929Y0355236D01*
X0032746Y0355247D01*
X0032563Y0355263D01*
X0032380Y0355283D01*
X0032198Y0355308D01*
X0032017Y0355337D01*
X0031837Y0355371D01*
X0031657Y0355409D01*
X0031479Y0355451D01*
X0031301Y0355498D01*
X0031125Y0355549D01*
X0030950Y0355605D01*
X0030776Y0355664D01*
X0030604Y0355728D01*
X0030434Y0355796D01*
X0030265Y0355869D01*
X0030098Y0355945D01*
X0029933Y0356026D01*
X0029770Y0356110D01*
X0029609Y0356199D01*
X0029451Y0356291D01*
X0029294Y0356387D01*
X0029140Y0356488D01*
X0028989Y0356591D01*
X0028840Y0356699D01*
X0028694Y0356810D01*
X0028551Y0356925D01*
X0028410Y0357043D01*
X0028273Y0357165D01*
X0028138Y0357290D01*
X0028007Y0357418D01*
X0027879Y0357549D01*
X0027754Y0357684D01*
X0027632Y0357821D01*
X0027514Y0357962D01*
X0027399Y0358105D01*
X0027288Y0358251D01*
X0027180Y0358400D01*
X0027077Y0358551D01*
X0026976Y0358705D01*
X0026880Y0358862D01*
X0026788Y0359020D01*
X0026699Y0359181D01*
X0026615Y0359344D01*
X0026534Y0359509D01*
X0026458Y0359676D01*
X0026385Y0359845D01*
X0026317Y0360015D01*
X0026253Y0360187D01*
X0026194Y0360361D01*
X0026138Y0360536D01*
X0026087Y0360712D01*
X0026040Y0360890D01*
X0025998Y0361068D01*
X0025960Y0361248D01*
X0025926Y0361428D01*
X0025897Y0361609D01*
X0025872Y0361791D01*
X0025852Y0361974D01*
X0025836Y0362157D01*
X0025825Y0362340D01*
X0025818Y0362523D01*
X0025816Y0362707D01*
X0033690Y0399321D02*
X0033692Y0399505D01*
X0033699Y0399688D01*
X0033710Y0399871D01*
X0033726Y0400054D01*
X0033746Y0400237D01*
X0033771Y0400419D01*
X0033800Y0400600D01*
X0033834Y0400780D01*
X0033872Y0400960D01*
X0033914Y0401138D01*
X0033961Y0401316D01*
X0034012Y0401492D01*
X0034068Y0401667D01*
X0034127Y0401841D01*
X0034191Y0402013D01*
X0034259Y0402183D01*
X0034332Y0402352D01*
X0034408Y0402519D01*
X0034489Y0402684D01*
X0034573Y0402847D01*
X0034662Y0403008D01*
X0034754Y0403166D01*
X0034850Y0403323D01*
X0034951Y0403477D01*
X0035054Y0403628D01*
X0035162Y0403777D01*
X0035273Y0403923D01*
X0035388Y0404066D01*
X0035506Y0404207D01*
X0035628Y0404344D01*
X0035753Y0404479D01*
X0035881Y0404610D01*
X0036012Y0404738D01*
X0036147Y0404863D01*
X0036284Y0404985D01*
X0036425Y0405103D01*
X0036568Y0405218D01*
X0036714Y0405329D01*
X0036863Y0405437D01*
X0037014Y0405540D01*
X0037168Y0405641D01*
X0037325Y0405737D01*
X0037483Y0405829D01*
X0037644Y0405918D01*
X0037807Y0406002D01*
X0037972Y0406083D01*
X0038139Y0406159D01*
X0038308Y0406232D01*
X0038478Y0406300D01*
X0038650Y0406364D01*
X0038824Y0406423D01*
X0038999Y0406479D01*
X0039175Y0406530D01*
X0039353Y0406577D01*
X0039531Y0406619D01*
X0039711Y0406657D01*
X0039891Y0406691D01*
X0040072Y0406720D01*
X0040254Y0406745D01*
X0040437Y0406765D01*
X0040620Y0406781D01*
X0040803Y0406792D01*
X0040986Y0406799D01*
X0041170Y0406801D01*
X0041354Y0406799D01*
X0041537Y0406792D01*
X0041720Y0406781D01*
X0041903Y0406765D01*
X0042086Y0406745D01*
X0042268Y0406720D01*
X0042449Y0406691D01*
X0042629Y0406657D01*
X0042809Y0406619D01*
X0042987Y0406577D01*
X0043165Y0406530D01*
X0043341Y0406479D01*
X0043516Y0406423D01*
X0043690Y0406364D01*
X0043862Y0406300D01*
X0044032Y0406232D01*
X0044201Y0406159D01*
X0044368Y0406083D01*
X0044533Y0406002D01*
X0044696Y0405918D01*
X0044857Y0405829D01*
X0045015Y0405737D01*
X0045172Y0405641D01*
X0045326Y0405540D01*
X0045477Y0405437D01*
X0045626Y0405329D01*
X0045772Y0405218D01*
X0045915Y0405103D01*
X0046056Y0404985D01*
X0046193Y0404863D01*
X0046328Y0404738D01*
X0046459Y0404610D01*
X0046587Y0404479D01*
X0046712Y0404344D01*
X0046834Y0404207D01*
X0046952Y0404066D01*
X0047067Y0403923D01*
X0047178Y0403777D01*
X0047286Y0403628D01*
X0047389Y0403477D01*
X0047490Y0403323D01*
X0047586Y0403166D01*
X0047678Y0403008D01*
X0047767Y0402847D01*
X0047851Y0402684D01*
X0047932Y0402519D01*
X0048008Y0402352D01*
X0048081Y0402183D01*
X0048149Y0402013D01*
X0048213Y0401841D01*
X0048272Y0401667D01*
X0048328Y0401492D01*
X0048379Y0401316D01*
X0048426Y0401138D01*
X0048468Y0400960D01*
X0048506Y0400780D01*
X0048540Y0400600D01*
X0048569Y0400419D01*
X0048594Y0400237D01*
X0048614Y0400054D01*
X0048630Y0399871D01*
X0048641Y0399688D01*
X0048648Y0399505D01*
X0048650Y0399321D01*
X0048648Y0399137D01*
X0048641Y0398954D01*
X0048630Y0398771D01*
X0048614Y0398588D01*
X0048594Y0398405D01*
X0048569Y0398223D01*
X0048540Y0398042D01*
X0048506Y0397862D01*
X0048468Y0397682D01*
X0048426Y0397504D01*
X0048379Y0397326D01*
X0048328Y0397150D01*
X0048272Y0396975D01*
X0048213Y0396801D01*
X0048149Y0396629D01*
X0048081Y0396459D01*
X0048008Y0396290D01*
X0047932Y0396123D01*
X0047851Y0395958D01*
X0047767Y0395795D01*
X0047678Y0395634D01*
X0047586Y0395476D01*
X0047490Y0395319D01*
X0047389Y0395165D01*
X0047286Y0395014D01*
X0047178Y0394865D01*
X0047067Y0394719D01*
X0046952Y0394576D01*
X0046834Y0394435D01*
X0046712Y0394298D01*
X0046587Y0394163D01*
X0046459Y0394032D01*
X0046328Y0393904D01*
X0046193Y0393779D01*
X0046056Y0393657D01*
X0045915Y0393539D01*
X0045772Y0393424D01*
X0045626Y0393313D01*
X0045477Y0393205D01*
X0045326Y0393102D01*
X0045172Y0393001D01*
X0045015Y0392905D01*
X0044857Y0392813D01*
X0044696Y0392724D01*
X0044533Y0392640D01*
X0044368Y0392559D01*
X0044201Y0392483D01*
X0044032Y0392410D01*
X0043862Y0392342D01*
X0043690Y0392278D01*
X0043516Y0392219D01*
X0043341Y0392163D01*
X0043165Y0392112D01*
X0042987Y0392065D01*
X0042809Y0392023D01*
X0042629Y0391985D01*
X0042449Y0391951D01*
X0042268Y0391922D01*
X0042086Y0391897D01*
X0041903Y0391877D01*
X0041720Y0391861D01*
X0041537Y0391850D01*
X0041354Y0391843D01*
X0041170Y0391841D01*
X0040986Y0391843D01*
X0040803Y0391850D01*
X0040620Y0391861D01*
X0040437Y0391877D01*
X0040254Y0391897D01*
X0040072Y0391922D01*
X0039891Y0391951D01*
X0039711Y0391985D01*
X0039531Y0392023D01*
X0039353Y0392065D01*
X0039175Y0392112D01*
X0038999Y0392163D01*
X0038824Y0392219D01*
X0038650Y0392278D01*
X0038478Y0392342D01*
X0038308Y0392410D01*
X0038139Y0392483D01*
X0037972Y0392559D01*
X0037807Y0392640D01*
X0037644Y0392724D01*
X0037483Y0392813D01*
X0037325Y0392905D01*
X0037168Y0393001D01*
X0037014Y0393102D01*
X0036863Y0393205D01*
X0036714Y0393313D01*
X0036568Y0393424D01*
X0036425Y0393539D01*
X0036284Y0393657D01*
X0036147Y0393779D01*
X0036012Y0393904D01*
X0035881Y0394032D01*
X0035753Y0394163D01*
X0035628Y0394298D01*
X0035506Y0394435D01*
X0035388Y0394576D01*
X0035273Y0394719D01*
X0035162Y0394865D01*
X0035054Y0395014D01*
X0034951Y0395165D01*
X0034850Y0395319D01*
X0034754Y0395476D01*
X0034662Y0395634D01*
X0034573Y0395795D01*
X0034489Y0395958D01*
X0034408Y0396123D01*
X0034332Y0396290D01*
X0034259Y0396459D01*
X0034191Y0396629D01*
X0034127Y0396801D01*
X0034068Y0396975D01*
X0034012Y0397150D01*
X0033961Y0397326D01*
X0033914Y0397504D01*
X0033872Y0397682D01*
X0033834Y0397862D01*
X0033800Y0398042D01*
X0033771Y0398223D01*
X0033746Y0398405D01*
X0033726Y0398588D01*
X0033710Y0398771D01*
X0033699Y0398954D01*
X0033692Y0399137D01*
X0033690Y0399321D01*
X0033690Y0326093D02*
X0033692Y0326277D01*
X0033699Y0326460D01*
X0033710Y0326643D01*
X0033726Y0326826D01*
X0033746Y0327009D01*
X0033771Y0327191D01*
X0033800Y0327372D01*
X0033834Y0327552D01*
X0033872Y0327732D01*
X0033914Y0327910D01*
X0033961Y0328088D01*
X0034012Y0328264D01*
X0034068Y0328439D01*
X0034127Y0328613D01*
X0034191Y0328785D01*
X0034259Y0328955D01*
X0034332Y0329124D01*
X0034408Y0329291D01*
X0034489Y0329456D01*
X0034573Y0329619D01*
X0034662Y0329780D01*
X0034754Y0329938D01*
X0034850Y0330095D01*
X0034951Y0330249D01*
X0035054Y0330400D01*
X0035162Y0330549D01*
X0035273Y0330695D01*
X0035388Y0330838D01*
X0035506Y0330979D01*
X0035628Y0331116D01*
X0035753Y0331251D01*
X0035881Y0331382D01*
X0036012Y0331510D01*
X0036147Y0331635D01*
X0036284Y0331757D01*
X0036425Y0331875D01*
X0036568Y0331990D01*
X0036714Y0332101D01*
X0036863Y0332209D01*
X0037014Y0332312D01*
X0037168Y0332413D01*
X0037325Y0332509D01*
X0037483Y0332601D01*
X0037644Y0332690D01*
X0037807Y0332774D01*
X0037972Y0332855D01*
X0038139Y0332931D01*
X0038308Y0333004D01*
X0038478Y0333072D01*
X0038650Y0333136D01*
X0038824Y0333195D01*
X0038999Y0333251D01*
X0039175Y0333302D01*
X0039353Y0333349D01*
X0039531Y0333391D01*
X0039711Y0333429D01*
X0039891Y0333463D01*
X0040072Y0333492D01*
X0040254Y0333517D01*
X0040437Y0333537D01*
X0040620Y0333553D01*
X0040803Y0333564D01*
X0040986Y0333571D01*
X0041170Y0333573D01*
X0041354Y0333571D01*
X0041537Y0333564D01*
X0041720Y0333553D01*
X0041903Y0333537D01*
X0042086Y0333517D01*
X0042268Y0333492D01*
X0042449Y0333463D01*
X0042629Y0333429D01*
X0042809Y0333391D01*
X0042987Y0333349D01*
X0043165Y0333302D01*
X0043341Y0333251D01*
X0043516Y0333195D01*
X0043690Y0333136D01*
X0043862Y0333072D01*
X0044032Y0333004D01*
X0044201Y0332931D01*
X0044368Y0332855D01*
X0044533Y0332774D01*
X0044696Y0332690D01*
X0044857Y0332601D01*
X0045015Y0332509D01*
X0045172Y0332413D01*
X0045326Y0332312D01*
X0045477Y0332209D01*
X0045626Y0332101D01*
X0045772Y0331990D01*
X0045915Y0331875D01*
X0046056Y0331757D01*
X0046193Y0331635D01*
X0046328Y0331510D01*
X0046459Y0331382D01*
X0046587Y0331251D01*
X0046712Y0331116D01*
X0046834Y0330979D01*
X0046952Y0330838D01*
X0047067Y0330695D01*
X0047178Y0330549D01*
X0047286Y0330400D01*
X0047389Y0330249D01*
X0047490Y0330095D01*
X0047586Y0329938D01*
X0047678Y0329780D01*
X0047767Y0329619D01*
X0047851Y0329456D01*
X0047932Y0329291D01*
X0048008Y0329124D01*
X0048081Y0328955D01*
X0048149Y0328785D01*
X0048213Y0328613D01*
X0048272Y0328439D01*
X0048328Y0328264D01*
X0048379Y0328088D01*
X0048426Y0327910D01*
X0048468Y0327732D01*
X0048506Y0327552D01*
X0048540Y0327372D01*
X0048569Y0327191D01*
X0048594Y0327009D01*
X0048614Y0326826D01*
X0048630Y0326643D01*
X0048641Y0326460D01*
X0048648Y0326277D01*
X0048650Y0326093D01*
X0048648Y0325909D01*
X0048641Y0325726D01*
X0048630Y0325543D01*
X0048614Y0325360D01*
X0048594Y0325177D01*
X0048569Y0324995D01*
X0048540Y0324814D01*
X0048506Y0324634D01*
X0048468Y0324454D01*
X0048426Y0324276D01*
X0048379Y0324098D01*
X0048328Y0323922D01*
X0048272Y0323747D01*
X0048213Y0323573D01*
X0048149Y0323401D01*
X0048081Y0323231D01*
X0048008Y0323062D01*
X0047932Y0322895D01*
X0047851Y0322730D01*
X0047767Y0322567D01*
X0047678Y0322406D01*
X0047586Y0322248D01*
X0047490Y0322091D01*
X0047389Y0321937D01*
X0047286Y0321786D01*
X0047178Y0321637D01*
X0047067Y0321491D01*
X0046952Y0321348D01*
X0046834Y0321207D01*
X0046712Y0321070D01*
X0046587Y0320935D01*
X0046459Y0320804D01*
X0046328Y0320676D01*
X0046193Y0320551D01*
X0046056Y0320429D01*
X0045915Y0320311D01*
X0045772Y0320196D01*
X0045626Y0320085D01*
X0045477Y0319977D01*
X0045326Y0319874D01*
X0045172Y0319773D01*
X0045015Y0319677D01*
X0044857Y0319585D01*
X0044696Y0319496D01*
X0044533Y0319412D01*
X0044368Y0319331D01*
X0044201Y0319255D01*
X0044032Y0319182D01*
X0043862Y0319114D01*
X0043690Y0319050D01*
X0043516Y0318991D01*
X0043341Y0318935D01*
X0043165Y0318884D01*
X0042987Y0318837D01*
X0042809Y0318795D01*
X0042629Y0318757D01*
X0042449Y0318723D01*
X0042268Y0318694D01*
X0042086Y0318669D01*
X0041903Y0318649D01*
X0041720Y0318633D01*
X0041537Y0318622D01*
X0041354Y0318615D01*
X0041170Y0318613D01*
X0040986Y0318615D01*
X0040803Y0318622D01*
X0040620Y0318633D01*
X0040437Y0318649D01*
X0040254Y0318669D01*
X0040072Y0318694D01*
X0039891Y0318723D01*
X0039711Y0318757D01*
X0039531Y0318795D01*
X0039353Y0318837D01*
X0039175Y0318884D01*
X0038999Y0318935D01*
X0038824Y0318991D01*
X0038650Y0319050D01*
X0038478Y0319114D01*
X0038308Y0319182D01*
X0038139Y0319255D01*
X0037972Y0319331D01*
X0037807Y0319412D01*
X0037644Y0319496D01*
X0037483Y0319585D01*
X0037325Y0319677D01*
X0037168Y0319773D01*
X0037014Y0319874D01*
X0036863Y0319977D01*
X0036714Y0320085D01*
X0036568Y0320196D01*
X0036425Y0320311D01*
X0036284Y0320429D01*
X0036147Y0320551D01*
X0036012Y0320676D01*
X0035881Y0320804D01*
X0035753Y0320935D01*
X0035628Y0321070D01*
X0035506Y0321207D01*
X0035388Y0321348D01*
X0035273Y0321491D01*
X0035162Y0321637D01*
X0035054Y0321786D01*
X0034951Y0321937D01*
X0034850Y0322091D01*
X0034754Y0322248D01*
X0034662Y0322406D01*
X0034573Y0322567D01*
X0034489Y0322730D01*
X0034408Y0322895D01*
X0034332Y0323062D01*
X0034259Y0323231D01*
X0034191Y0323401D01*
X0034127Y0323573D01*
X0034068Y0323747D01*
X0034012Y0323922D01*
X0033961Y0324098D01*
X0033914Y0324276D01*
X0033872Y0324454D01*
X0033834Y0324634D01*
X0033800Y0324814D01*
X0033771Y0324995D01*
X0033746Y0325177D01*
X0033726Y0325360D01*
X0033710Y0325543D01*
X0033699Y0325726D01*
X0033692Y0325909D01*
X0033690Y0326093D01*
X0056918Y0350896D02*
X0056920Y0351049D01*
X0056926Y0351203D01*
X0056936Y0351356D01*
X0056950Y0351508D01*
X0056968Y0351661D01*
X0056990Y0351812D01*
X0057015Y0351963D01*
X0057045Y0352114D01*
X0057079Y0352264D01*
X0057116Y0352412D01*
X0057157Y0352560D01*
X0057202Y0352706D01*
X0057251Y0352852D01*
X0057304Y0352996D01*
X0057360Y0353138D01*
X0057420Y0353279D01*
X0057484Y0353419D01*
X0057551Y0353557D01*
X0057622Y0353693D01*
X0057697Y0353827D01*
X0057774Y0353959D01*
X0057856Y0354089D01*
X0057940Y0354217D01*
X0058028Y0354343D01*
X0058119Y0354466D01*
X0058213Y0354587D01*
X0058311Y0354705D01*
X0058411Y0354821D01*
X0058515Y0354934D01*
X0058621Y0355045D01*
X0058730Y0355153D01*
X0058842Y0355258D01*
X0058956Y0355359D01*
X0059074Y0355458D01*
X0059193Y0355554D01*
X0059315Y0355647D01*
X0059440Y0355736D01*
X0059567Y0355823D01*
X0059696Y0355905D01*
X0059827Y0355985D01*
X0059960Y0356061D01*
X0060095Y0356134D01*
X0060232Y0356203D01*
X0060371Y0356268D01*
X0060511Y0356330D01*
X0060653Y0356388D01*
X0060796Y0356443D01*
X0060941Y0356494D01*
X0061087Y0356541D01*
X0061234Y0356584D01*
X0061382Y0356623D01*
X0061531Y0356659D01*
X0061681Y0356690D01*
X0061832Y0356718D01*
X0061983Y0356742D01*
X0062136Y0356762D01*
X0062288Y0356778D01*
X0062441Y0356790D01*
X0062594Y0356798D01*
X0062747Y0356802D01*
X0062901Y0356802D01*
X0063054Y0356798D01*
X0063207Y0356790D01*
X0063360Y0356778D01*
X0063512Y0356762D01*
X0063665Y0356742D01*
X0063816Y0356718D01*
X0063967Y0356690D01*
X0064117Y0356659D01*
X0064266Y0356623D01*
X0064414Y0356584D01*
X0064561Y0356541D01*
X0064707Y0356494D01*
X0064852Y0356443D01*
X0064995Y0356388D01*
X0065137Y0356330D01*
X0065277Y0356268D01*
X0065416Y0356203D01*
X0065553Y0356134D01*
X0065688Y0356061D01*
X0065821Y0355985D01*
X0065952Y0355905D01*
X0066081Y0355823D01*
X0066208Y0355736D01*
X0066333Y0355647D01*
X0066455Y0355554D01*
X0066574Y0355458D01*
X0066692Y0355359D01*
X0066806Y0355258D01*
X0066918Y0355153D01*
X0067027Y0355045D01*
X0067133Y0354934D01*
X0067237Y0354821D01*
X0067337Y0354705D01*
X0067435Y0354587D01*
X0067529Y0354466D01*
X0067620Y0354343D01*
X0067708Y0354217D01*
X0067792Y0354089D01*
X0067874Y0353959D01*
X0067951Y0353827D01*
X0068026Y0353693D01*
X0068097Y0353557D01*
X0068164Y0353419D01*
X0068228Y0353279D01*
X0068288Y0353138D01*
X0068344Y0352996D01*
X0068397Y0352852D01*
X0068446Y0352706D01*
X0068491Y0352560D01*
X0068532Y0352412D01*
X0068569Y0352264D01*
X0068603Y0352114D01*
X0068633Y0351963D01*
X0068658Y0351812D01*
X0068680Y0351661D01*
X0068698Y0351508D01*
X0068712Y0351356D01*
X0068722Y0351203D01*
X0068728Y0351049D01*
X0068730Y0350896D01*
X0068728Y0350743D01*
X0068722Y0350589D01*
X0068712Y0350436D01*
X0068698Y0350284D01*
X0068680Y0350131D01*
X0068658Y0349980D01*
X0068633Y0349829D01*
X0068603Y0349678D01*
X0068569Y0349528D01*
X0068532Y0349380D01*
X0068491Y0349232D01*
X0068446Y0349086D01*
X0068397Y0348940D01*
X0068344Y0348796D01*
X0068288Y0348654D01*
X0068228Y0348513D01*
X0068164Y0348373D01*
X0068097Y0348235D01*
X0068026Y0348099D01*
X0067951Y0347965D01*
X0067874Y0347833D01*
X0067792Y0347703D01*
X0067708Y0347575D01*
X0067620Y0347449D01*
X0067529Y0347326D01*
X0067435Y0347205D01*
X0067337Y0347087D01*
X0067237Y0346971D01*
X0067133Y0346858D01*
X0067027Y0346747D01*
X0066918Y0346639D01*
X0066806Y0346534D01*
X0066692Y0346433D01*
X0066574Y0346334D01*
X0066455Y0346238D01*
X0066333Y0346145D01*
X0066208Y0346056D01*
X0066081Y0345969D01*
X0065952Y0345887D01*
X0065821Y0345807D01*
X0065688Y0345731D01*
X0065553Y0345658D01*
X0065416Y0345589D01*
X0065277Y0345524D01*
X0065137Y0345462D01*
X0064995Y0345404D01*
X0064852Y0345349D01*
X0064707Y0345298D01*
X0064561Y0345251D01*
X0064414Y0345208D01*
X0064266Y0345169D01*
X0064117Y0345133D01*
X0063967Y0345102D01*
X0063816Y0345074D01*
X0063665Y0345050D01*
X0063512Y0345030D01*
X0063360Y0345014D01*
X0063207Y0345002D01*
X0063054Y0344994D01*
X0062901Y0344990D01*
X0062747Y0344990D01*
X0062594Y0344994D01*
X0062441Y0345002D01*
X0062288Y0345014D01*
X0062136Y0345030D01*
X0061983Y0345050D01*
X0061832Y0345074D01*
X0061681Y0345102D01*
X0061531Y0345133D01*
X0061382Y0345169D01*
X0061234Y0345208D01*
X0061087Y0345251D01*
X0060941Y0345298D01*
X0060796Y0345349D01*
X0060653Y0345404D01*
X0060511Y0345462D01*
X0060371Y0345524D01*
X0060232Y0345589D01*
X0060095Y0345658D01*
X0059960Y0345731D01*
X0059827Y0345807D01*
X0059696Y0345887D01*
X0059567Y0345969D01*
X0059440Y0346056D01*
X0059315Y0346145D01*
X0059193Y0346238D01*
X0059074Y0346334D01*
X0058956Y0346433D01*
X0058842Y0346534D01*
X0058730Y0346639D01*
X0058621Y0346747D01*
X0058515Y0346858D01*
X0058411Y0346971D01*
X0058311Y0347087D01*
X0058213Y0347205D01*
X0058119Y0347326D01*
X0058028Y0347449D01*
X0057940Y0347575D01*
X0057856Y0347703D01*
X0057774Y0347833D01*
X0057697Y0347965D01*
X0057622Y0348099D01*
X0057551Y0348235D01*
X0057484Y0348373D01*
X0057420Y0348513D01*
X0057360Y0348654D01*
X0057304Y0348796D01*
X0057251Y0348940D01*
X0057202Y0349086D01*
X0057157Y0349232D01*
X0057116Y0349380D01*
X0057079Y0349528D01*
X0057045Y0349678D01*
X0057015Y0349829D01*
X0056990Y0349980D01*
X0056968Y0350131D01*
X0056950Y0350284D01*
X0056936Y0350436D01*
X0056926Y0350589D01*
X0056920Y0350743D01*
X0056918Y0350896D01*
X0054555Y0040266D02*
X0054557Y0040419D01*
X0054563Y0040573D01*
X0054573Y0040726D01*
X0054587Y0040878D01*
X0054605Y0041031D01*
X0054627Y0041182D01*
X0054652Y0041333D01*
X0054682Y0041484D01*
X0054716Y0041634D01*
X0054753Y0041782D01*
X0054794Y0041930D01*
X0054839Y0042076D01*
X0054888Y0042222D01*
X0054941Y0042366D01*
X0054997Y0042508D01*
X0055057Y0042649D01*
X0055121Y0042789D01*
X0055188Y0042927D01*
X0055259Y0043063D01*
X0055334Y0043197D01*
X0055411Y0043329D01*
X0055493Y0043459D01*
X0055577Y0043587D01*
X0055665Y0043713D01*
X0055756Y0043836D01*
X0055850Y0043957D01*
X0055948Y0044075D01*
X0056048Y0044191D01*
X0056152Y0044304D01*
X0056258Y0044415D01*
X0056367Y0044523D01*
X0056479Y0044628D01*
X0056593Y0044729D01*
X0056711Y0044828D01*
X0056830Y0044924D01*
X0056952Y0045017D01*
X0057077Y0045106D01*
X0057204Y0045193D01*
X0057333Y0045275D01*
X0057464Y0045355D01*
X0057597Y0045431D01*
X0057732Y0045504D01*
X0057869Y0045573D01*
X0058008Y0045638D01*
X0058148Y0045700D01*
X0058290Y0045758D01*
X0058433Y0045813D01*
X0058578Y0045864D01*
X0058724Y0045911D01*
X0058871Y0045954D01*
X0059019Y0045993D01*
X0059168Y0046029D01*
X0059318Y0046060D01*
X0059469Y0046088D01*
X0059620Y0046112D01*
X0059773Y0046132D01*
X0059925Y0046148D01*
X0060078Y0046160D01*
X0060231Y0046168D01*
X0060384Y0046172D01*
X0060538Y0046172D01*
X0060691Y0046168D01*
X0060844Y0046160D01*
X0060997Y0046148D01*
X0061149Y0046132D01*
X0061302Y0046112D01*
X0061453Y0046088D01*
X0061604Y0046060D01*
X0061754Y0046029D01*
X0061903Y0045993D01*
X0062051Y0045954D01*
X0062198Y0045911D01*
X0062344Y0045864D01*
X0062489Y0045813D01*
X0062632Y0045758D01*
X0062774Y0045700D01*
X0062914Y0045638D01*
X0063053Y0045573D01*
X0063190Y0045504D01*
X0063325Y0045431D01*
X0063458Y0045355D01*
X0063589Y0045275D01*
X0063718Y0045193D01*
X0063845Y0045106D01*
X0063970Y0045017D01*
X0064092Y0044924D01*
X0064211Y0044828D01*
X0064329Y0044729D01*
X0064443Y0044628D01*
X0064555Y0044523D01*
X0064664Y0044415D01*
X0064770Y0044304D01*
X0064874Y0044191D01*
X0064974Y0044075D01*
X0065072Y0043957D01*
X0065166Y0043836D01*
X0065257Y0043713D01*
X0065345Y0043587D01*
X0065429Y0043459D01*
X0065511Y0043329D01*
X0065588Y0043197D01*
X0065663Y0043063D01*
X0065734Y0042927D01*
X0065801Y0042789D01*
X0065865Y0042649D01*
X0065925Y0042508D01*
X0065981Y0042366D01*
X0066034Y0042222D01*
X0066083Y0042076D01*
X0066128Y0041930D01*
X0066169Y0041782D01*
X0066206Y0041634D01*
X0066240Y0041484D01*
X0066270Y0041333D01*
X0066295Y0041182D01*
X0066317Y0041031D01*
X0066335Y0040878D01*
X0066349Y0040726D01*
X0066359Y0040573D01*
X0066365Y0040419D01*
X0066367Y0040266D01*
X0066365Y0040113D01*
X0066359Y0039959D01*
X0066349Y0039806D01*
X0066335Y0039654D01*
X0066317Y0039501D01*
X0066295Y0039350D01*
X0066270Y0039199D01*
X0066240Y0039048D01*
X0066206Y0038898D01*
X0066169Y0038750D01*
X0066128Y0038602D01*
X0066083Y0038456D01*
X0066034Y0038310D01*
X0065981Y0038166D01*
X0065925Y0038024D01*
X0065865Y0037883D01*
X0065801Y0037743D01*
X0065734Y0037605D01*
X0065663Y0037469D01*
X0065588Y0037335D01*
X0065511Y0037203D01*
X0065429Y0037073D01*
X0065345Y0036945D01*
X0065257Y0036819D01*
X0065166Y0036696D01*
X0065072Y0036575D01*
X0064974Y0036457D01*
X0064874Y0036341D01*
X0064770Y0036228D01*
X0064664Y0036117D01*
X0064555Y0036009D01*
X0064443Y0035904D01*
X0064329Y0035803D01*
X0064211Y0035704D01*
X0064092Y0035608D01*
X0063970Y0035515D01*
X0063845Y0035426D01*
X0063718Y0035339D01*
X0063589Y0035257D01*
X0063458Y0035177D01*
X0063325Y0035101D01*
X0063190Y0035028D01*
X0063053Y0034959D01*
X0062914Y0034894D01*
X0062774Y0034832D01*
X0062632Y0034774D01*
X0062489Y0034719D01*
X0062344Y0034668D01*
X0062198Y0034621D01*
X0062051Y0034578D01*
X0061903Y0034539D01*
X0061754Y0034503D01*
X0061604Y0034472D01*
X0061453Y0034444D01*
X0061302Y0034420D01*
X0061149Y0034400D01*
X0060997Y0034384D01*
X0060844Y0034372D01*
X0060691Y0034364D01*
X0060538Y0034360D01*
X0060384Y0034360D01*
X0060231Y0034364D01*
X0060078Y0034372D01*
X0059925Y0034384D01*
X0059773Y0034400D01*
X0059620Y0034420D01*
X0059469Y0034444D01*
X0059318Y0034472D01*
X0059168Y0034503D01*
X0059019Y0034539D01*
X0058871Y0034578D01*
X0058724Y0034621D01*
X0058578Y0034668D01*
X0058433Y0034719D01*
X0058290Y0034774D01*
X0058148Y0034832D01*
X0058008Y0034894D01*
X0057869Y0034959D01*
X0057732Y0035028D01*
X0057597Y0035101D01*
X0057464Y0035177D01*
X0057333Y0035257D01*
X0057204Y0035339D01*
X0057077Y0035426D01*
X0056952Y0035515D01*
X0056830Y0035608D01*
X0056711Y0035704D01*
X0056593Y0035803D01*
X0056479Y0035904D01*
X0056367Y0036009D01*
X0056258Y0036117D01*
X0056152Y0036228D01*
X0056048Y0036341D01*
X0055948Y0036457D01*
X0055850Y0036575D01*
X0055756Y0036696D01*
X0055665Y0036819D01*
X0055577Y0036945D01*
X0055493Y0037073D01*
X0055411Y0037203D01*
X0055334Y0037335D01*
X0055259Y0037469D01*
X0055188Y0037605D01*
X0055121Y0037743D01*
X0055057Y0037883D01*
X0054997Y0038024D01*
X0054941Y0038166D01*
X0054888Y0038310D01*
X0054839Y0038456D01*
X0054794Y0038602D01*
X0054753Y0038750D01*
X0054716Y0038898D01*
X0054682Y0039048D01*
X0054652Y0039199D01*
X0054627Y0039350D01*
X0054605Y0039501D01*
X0054587Y0039654D01*
X0054573Y0039806D01*
X0054563Y0039959D01*
X0054557Y0040113D01*
X0054555Y0040266D01*
D11*
X0036052Y0082825D03*
X0036052Y0090305D03*
X0028572Y0131053D03*
X0028572Y0138533D03*
X0031328Y0194636D03*
X0031328Y0202116D03*
X0026997Y0037352D03*
X0026997Y0029872D03*
D12*
X0036839Y0028848D03*
X0036839Y0036722D03*
X0047076Y0083179D03*
X0047076Y0091053D03*
X0039989Y0129636D03*
X0039989Y0137510D03*
X0047076Y0195384D03*
X0047076Y0203258D03*
M02*
