%
M48
M72
T01C0.01969
T02C0.02362
T03C0.03200
T04C0.03937
T05C0.04000
T06C0.04331
T07C0.05906
T08C0.11811
T09C0.14961
%
T01
X22666Y311919
X23847Y214281
X40383Y150502
X27784Y96171
X15580Y40266
X45894Y38691
X54162Y89872
X54950Y204045
X51406Y341841
T02
X17548Y379636
X56918Y313494
X56918Y300502
T03
X57201Y376282
X64273Y369211
T04
X23454Y50305
X33296Y50305
X43139Y50305
X41170Y105187
X51013Y105187
X43139Y160069
X33296Y160069
X23454Y160069
X31328Y214675
X41170Y214675
X51013Y214675
X31328Y105187
T05
X26170Y233061
X26170Y223061
X36170Y223061
X36170Y233061
X46170Y233061
X46170Y223061
X56170Y223061
X56170Y233061
T06
X22420Y252864
X14546Y289478
X22420Y326093
X14546Y362707
X22420Y399321
X47046Y289478
X47046Y362707
X54920Y399321
X57046Y362707
X54920Y326093
X57046Y289478
X54920Y252864
X64920Y252864
X64920Y326093
X64920Y399321
T07
X14792Y22746
X22666Y77628
X14792Y132510
X22666Y187116
X59674Y187116
X51800Y132510
X59674Y77628
X51800Y22746
T08
X62824Y350896
X18335Y99321
X60461Y40266
T09
X41170Y252864
X33296Y289478
X33296Y362707
X41170Y399321
X41170Y326093
M30
