G75*
%MOIN*%
%OFA0B0*%
%FSLAX25Y25*%
%IPPOS*%
%LPD*%
%AMOC8*
5,1,8,0,0,1.08239X$1,22.5*
%
%ADD10C,0.00000*%
%ADD11C,0.01040*%
%ADD12R,0.07400X0.07400*%
%ADD13OC8,0.10000*%
%ADD14C,0.07600*%
%ADD15C,0.00500*%
%ADD16C,0.01200*%
%ADD17OC8,0.06000*%
%ADD18C,0.01600*%
%ADD19R,0.03962X0.03962*%
%ADD20OC8,0.03962*%
%ADD21OC8,0.03569*%
D10*
X0009674Y0017431D02*
X0009674Y0411132D01*
X0069674Y0411132D01*
X0069674Y0017431D01*
X0009674Y0017431D01*
X0012429Y0099321D02*
X0012431Y0099474D01*
X0012437Y0099628D01*
X0012447Y0099781D01*
X0012461Y0099933D01*
X0012479Y0100086D01*
X0012501Y0100237D01*
X0012526Y0100388D01*
X0012556Y0100539D01*
X0012590Y0100689D01*
X0012627Y0100837D01*
X0012668Y0100985D01*
X0012713Y0101131D01*
X0012762Y0101277D01*
X0012815Y0101421D01*
X0012871Y0101563D01*
X0012931Y0101704D01*
X0012995Y0101844D01*
X0013062Y0101982D01*
X0013133Y0102118D01*
X0013208Y0102252D01*
X0013285Y0102384D01*
X0013367Y0102514D01*
X0013451Y0102642D01*
X0013539Y0102768D01*
X0013630Y0102891D01*
X0013724Y0103012D01*
X0013822Y0103130D01*
X0013922Y0103246D01*
X0014026Y0103359D01*
X0014132Y0103470D01*
X0014241Y0103578D01*
X0014353Y0103683D01*
X0014467Y0103784D01*
X0014585Y0103883D01*
X0014704Y0103979D01*
X0014826Y0104072D01*
X0014951Y0104161D01*
X0015078Y0104248D01*
X0015207Y0104330D01*
X0015338Y0104410D01*
X0015471Y0104486D01*
X0015606Y0104559D01*
X0015743Y0104628D01*
X0015882Y0104693D01*
X0016022Y0104755D01*
X0016164Y0104813D01*
X0016307Y0104868D01*
X0016452Y0104919D01*
X0016598Y0104966D01*
X0016745Y0105009D01*
X0016893Y0105048D01*
X0017042Y0105084D01*
X0017192Y0105115D01*
X0017343Y0105143D01*
X0017494Y0105167D01*
X0017647Y0105187D01*
X0017799Y0105203D01*
X0017952Y0105215D01*
X0018105Y0105223D01*
X0018258Y0105227D01*
X0018412Y0105227D01*
X0018565Y0105223D01*
X0018718Y0105215D01*
X0018871Y0105203D01*
X0019023Y0105187D01*
X0019176Y0105167D01*
X0019327Y0105143D01*
X0019478Y0105115D01*
X0019628Y0105084D01*
X0019777Y0105048D01*
X0019925Y0105009D01*
X0020072Y0104966D01*
X0020218Y0104919D01*
X0020363Y0104868D01*
X0020506Y0104813D01*
X0020648Y0104755D01*
X0020788Y0104693D01*
X0020927Y0104628D01*
X0021064Y0104559D01*
X0021199Y0104486D01*
X0021332Y0104410D01*
X0021463Y0104330D01*
X0021592Y0104248D01*
X0021719Y0104161D01*
X0021844Y0104072D01*
X0021966Y0103979D01*
X0022085Y0103883D01*
X0022203Y0103784D01*
X0022317Y0103683D01*
X0022429Y0103578D01*
X0022538Y0103470D01*
X0022644Y0103359D01*
X0022748Y0103246D01*
X0022848Y0103130D01*
X0022946Y0103012D01*
X0023040Y0102891D01*
X0023131Y0102768D01*
X0023219Y0102642D01*
X0023303Y0102514D01*
X0023385Y0102384D01*
X0023462Y0102252D01*
X0023537Y0102118D01*
X0023608Y0101982D01*
X0023675Y0101844D01*
X0023739Y0101704D01*
X0023799Y0101563D01*
X0023855Y0101421D01*
X0023908Y0101277D01*
X0023957Y0101131D01*
X0024002Y0100985D01*
X0024043Y0100837D01*
X0024080Y0100689D01*
X0024114Y0100539D01*
X0024144Y0100388D01*
X0024169Y0100237D01*
X0024191Y0100086D01*
X0024209Y0099933D01*
X0024223Y0099781D01*
X0024233Y0099628D01*
X0024239Y0099474D01*
X0024241Y0099321D01*
X0024239Y0099168D01*
X0024233Y0099014D01*
X0024223Y0098861D01*
X0024209Y0098709D01*
X0024191Y0098556D01*
X0024169Y0098405D01*
X0024144Y0098254D01*
X0024114Y0098103D01*
X0024080Y0097953D01*
X0024043Y0097805D01*
X0024002Y0097657D01*
X0023957Y0097511D01*
X0023908Y0097365D01*
X0023855Y0097221D01*
X0023799Y0097079D01*
X0023739Y0096938D01*
X0023675Y0096798D01*
X0023608Y0096660D01*
X0023537Y0096524D01*
X0023462Y0096390D01*
X0023385Y0096258D01*
X0023303Y0096128D01*
X0023219Y0096000D01*
X0023131Y0095874D01*
X0023040Y0095751D01*
X0022946Y0095630D01*
X0022848Y0095512D01*
X0022748Y0095396D01*
X0022644Y0095283D01*
X0022538Y0095172D01*
X0022429Y0095064D01*
X0022317Y0094959D01*
X0022203Y0094858D01*
X0022085Y0094759D01*
X0021966Y0094663D01*
X0021844Y0094570D01*
X0021719Y0094481D01*
X0021592Y0094394D01*
X0021463Y0094312D01*
X0021332Y0094232D01*
X0021199Y0094156D01*
X0021064Y0094083D01*
X0020927Y0094014D01*
X0020788Y0093949D01*
X0020648Y0093887D01*
X0020506Y0093829D01*
X0020363Y0093774D01*
X0020218Y0093723D01*
X0020072Y0093676D01*
X0019925Y0093633D01*
X0019777Y0093594D01*
X0019628Y0093558D01*
X0019478Y0093527D01*
X0019327Y0093499D01*
X0019176Y0093475D01*
X0019023Y0093455D01*
X0018871Y0093439D01*
X0018718Y0093427D01*
X0018565Y0093419D01*
X0018412Y0093415D01*
X0018258Y0093415D01*
X0018105Y0093419D01*
X0017952Y0093427D01*
X0017799Y0093439D01*
X0017647Y0093455D01*
X0017494Y0093475D01*
X0017343Y0093499D01*
X0017192Y0093527D01*
X0017042Y0093558D01*
X0016893Y0093594D01*
X0016745Y0093633D01*
X0016598Y0093676D01*
X0016452Y0093723D01*
X0016307Y0093774D01*
X0016164Y0093829D01*
X0016022Y0093887D01*
X0015882Y0093949D01*
X0015743Y0094014D01*
X0015606Y0094083D01*
X0015471Y0094156D01*
X0015338Y0094232D01*
X0015207Y0094312D01*
X0015078Y0094394D01*
X0014951Y0094481D01*
X0014826Y0094570D01*
X0014704Y0094663D01*
X0014585Y0094759D01*
X0014467Y0094858D01*
X0014353Y0094959D01*
X0014241Y0095064D01*
X0014132Y0095172D01*
X0014026Y0095283D01*
X0013922Y0095396D01*
X0013822Y0095512D01*
X0013724Y0095630D01*
X0013630Y0095751D01*
X0013539Y0095874D01*
X0013451Y0096000D01*
X0013367Y0096128D01*
X0013285Y0096258D01*
X0013208Y0096390D01*
X0013133Y0096524D01*
X0013062Y0096660D01*
X0012995Y0096798D01*
X0012931Y0096938D01*
X0012871Y0097079D01*
X0012815Y0097221D01*
X0012762Y0097365D01*
X0012713Y0097511D01*
X0012668Y0097657D01*
X0012627Y0097805D01*
X0012590Y0097953D01*
X0012556Y0098103D01*
X0012526Y0098254D01*
X0012501Y0098405D01*
X0012479Y0098556D01*
X0012461Y0098709D01*
X0012447Y0098861D01*
X0012437Y0099014D01*
X0012431Y0099168D01*
X0012429Y0099321D01*
X0033690Y0252864D02*
X0033692Y0253048D01*
X0033699Y0253231D01*
X0033710Y0253414D01*
X0033726Y0253597D01*
X0033746Y0253780D01*
X0033771Y0253962D01*
X0033800Y0254143D01*
X0033834Y0254323D01*
X0033872Y0254503D01*
X0033914Y0254681D01*
X0033961Y0254859D01*
X0034012Y0255035D01*
X0034068Y0255210D01*
X0034127Y0255384D01*
X0034191Y0255556D01*
X0034259Y0255726D01*
X0034332Y0255895D01*
X0034408Y0256062D01*
X0034489Y0256227D01*
X0034573Y0256390D01*
X0034662Y0256551D01*
X0034754Y0256709D01*
X0034850Y0256866D01*
X0034951Y0257020D01*
X0035054Y0257171D01*
X0035162Y0257320D01*
X0035273Y0257466D01*
X0035388Y0257609D01*
X0035506Y0257750D01*
X0035628Y0257887D01*
X0035753Y0258022D01*
X0035881Y0258153D01*
X0036012Y0258281D01*
X0036147Y0258406D01*
X0036284Y0258528D01*
X0036425Y0258646D01*
X0036568Y0258761D01*
X0036714Y0258872D01*
X0036863Y0258980D01*
X0037014Y0259083D01*
X0037168Y0259184D01*
X0037325Y0259280D01*
X0037483Y0259372D01*
X0037644Y0259461D01*
X0037807Y0259545D01*
X0037972Y0259626D01*
X0038139Y0259702D01*
X0038308Y0259775D01*
X0038478Y0259843D01*
X0038650Y0259907D01*
X0038824Y0259966D01*
X0038999Y0260022D01*
X0039175Y0260073D01*
X0039353Y0260120D01*
X0039531Y0260162D01*
X0039711Y0260200D01*
X0039891Y0260234D01*
X0040072Y0260263D01*
X0040254Y0260288D01*
X0040437Y0260308D01*
X0040620Y0260324D01*
X0040803Y0260335D01*
X0040986Y0260342D01*
X0041170Y0260344D01*
X0041354Y0260342D01*
X0041537Y0260335D01*
X0041720Y0260324D01*
X0041903Y0260308D01*
X0042086Y0260288D01*
X0042268Y0260263D01*
X0042449Y0260234D01*
X0042629Y0260200D01*
X0042809Y0260162D01*
X0042987Y0260120D01*
X0043165Y0260073D01*
X0043341Y0260022D01*
X0043516Y0259966D01*
X0043690Y0259907D01*
X0043862Y0259843D01*
X0044032Y0259775D01*
X0044201Y0259702D01*
X0044368Y0259626D01*
X0044533Y0259545D01*
X0044696Y0259461D01*
X0044857Y0259372D01*
X0045015Y0259280D01*
X0045172Y0259184D01*
X0045326Y0259083D01*
X0045477Y0258980D01*
X0045626Y0258872D01*
X0045772Y0258761D01*
X0045915Y0258646D01*
X0046056Y0258528D01*
X0046193Y0258406D01*
X0046328Y0258281D01*
X0046459Y0258153D01*
X0046587Y0258022D01*
X0046712Y0257887D01*
X0046834Y0257750D01*
X0046952Y0257609D01*
X0047067Y0257466D01*
X0047178Y0257320D01*
X0047286Y0257171D01*
X0047389Y0257020D01*
X0047490Y0256866D01*
X0047586Y0256709D01*
X0047678Y0256551D01*
X0047767Y0256390D01*
X0047851Y0256227D01*
X0047932Y0256062D01*
X0048008Y0255895D01*
X0048081Y0255726D01*
X0048149Y0255556D01*
X0048213Y0255384D01*
X0048272Y0255210D01*
X0048328Y0255035D01*
X0048379Y0254859D01*
X0048426Y0254681D01*
X0048468Y0254503D01*
X0048506Y0254323D01*
X0048540Y0254143D01*
X0048569Y0253962D01*
X0048594Y0253780D01*
X0048614Y0253597D01*
X0048630Y0253414D01*
X0048641Y0253231D01*
X0048648Y0253048D01*
X0048650Y0252864D01*
X0048648Y0252680D01*
X0048641Y0252497D01*
X0048630Y0252314D01*
X0048614Y0252131D01*
X0048594Y0251948D01*
X0048569Y0251766D01*
X0048540Y0251585D01*
X0048506Y0251405D01*
X0048468Y0251225D01*
X0048426Y0251047D01*
X0048379Y0250869D01*
X0048328Y0250693D01*
X0048272Y0250518D01*
X0048213Y0250344D01*
X0048149Y0250172D01*
X0048081Y0250002D01*
X0048008Y0249833D01*
X0047932Y0249666D01*
X0047851Y0249501D01*
X0047767Y0249338D01*
X0047678Y0249177D01*
X0047586Y0249019D01*
X0047490Y0248862D01*
X0047389Y0248708D01*
X0047286Y0248557D01*
X0047178Y0248408D01*
X0047067Y0248262D01*
X0046952Y0248119D01*
X0046834Y0247978D01*
X0046712Y0247841D01*
X0046587Y0247706D01*
X0046459Y0247575D01*
X0046328Y0247447D01*
X0046193Y0247322D01*
X0046056Y0247200D01*
X0045915Y0247082D01*
X0045772Y0246967D01*
X0045626Y0246856D01*
X0045477Y0246748D01*
X0045326Y0246645D01*
X0045172Y0246544D01*
X0045015Y0246448D01*
X0044857Y0246356D01*
X0044696Y0246267D01*
X0044533Y0246183D01*
X0044368Y0246102D01*
X0044201Y0246026D01*
X0044032Y0245953D01*
X0043862Y0245885D01*
X0043690Y0245821D01*
X0043516Y0245762D01*
X0043341Y0245706D01*
X0043165Y0245655D01*
X0042987Y0245608D01*
X0042809Y0245566D01*
X0042629Y0245528D01*
X0042449Y0245494D01*
X0042268Y0245465D01*
X0042086Y0245440D01*
X0041903Y0245420D01*
X0041720Y0245404D01*
X0041537Y0245393D01*
X0041354Y0245386D01*
X0041170Y0245384D01*
X0040986Y0245386D01*
X0040803Y0245393D01*
X0040620Y0245404D01*
X0040437Y0245420D01*
X0040254Y0245440D01*
X0040072Y0245465D01*
X0039891Y0245494D01*
X0039711Y0245528D01*
X0039531Y0245566D01*
X0039353Y0245608D01*
X0039175Y0245655D01*
X0038999Y0245706D01*
X0038824Y0245762D01*
X0038650Y0245821D01*
X0038478Y0245885D01*
X0038308Y0245953D01*
X0038139Y0246026D01*
X0037972Y0246102D01*
X0037807Y0246183D01*
X0037644Y0246267D01*
X0037483Y0246356D01*
X0037325Y0246448D01*
X0037168Y0246544D01*
X0037014Y0246645D01*
X0036863Y0246748D01*
X0036714Y0246856D01*
X0036568Y0246967D01*
X0036425Y0247082D01*
X0036284Y0247200D01*
X0036147Y0247322D01*
X0036012Y0247447D01*
X0035881Y0247575D01*
X0035753Y0247706D01*
X0035628Y0247841D01*
X0035506Y0247978D01*
X0035388Y0248119D01*
X0035273Y0248262D01*
X0035162Y0248408D01*
X0035054Y0248557D01*
X0034951Y0248708D01*
X0034850Y0248862D01*
X0034754Y0249019D01*
X0034662Y0249177D01*
X0034573Y0249338D01*
X0034489Y0249501D01*
X0034408Y0249666D01*
X0034332Y0249833D01*
X0034259Y0250002D01*
X0034191Y0250172D01*
X0034127Y0250344D01*
X0034068Y0250518D01*
X0034012Y0250693D01*
X0033961Y0250869D01*
X0033914Y0251047D01*
X0033872Y0251225D01*
X0033834Y0251405D01*
X0033800Y0251585D01*
X0033771Y0251766D01*
X0033746Y0251948D01*
X0033726Y0252131D01*
X0033710Y0252314D01*
X0033699Y0252497D01*
X0033692Y0252680D01*
X0033690Y0252864D01*
X0025816Y0289478D02*
X0025818Y0289662D01*
X0025825Y0289845D01*
X0025836Y0290028D01*
X0025852Y0290211D01*
X0025872Y0290394D01*
X0025897Y0290576D01*
X0025926Y0290757D01*
X0025960Y0290937D01*
X0025998Y0291117D01*
X0026040Y0291295D01*
X0026087Y0291473D01*
X0026138Y0291649D01*
X0026194Y0291824D01*
X0026253Y0291998D01*
X0026317Y0292170D01*
X0026385Y0292340D01*
X0026458Y0292509D01*
X0026534Y0292676D01*
X0026615Y0292841D01*
X0026699Y0293004D01*
X0026788Y0293165D01*
X0026880Y0293323D01*
X0026976Y0293480D01*
X0027077Y0293634D01*
X0027180Y0293785D01*
X0027288Y0293934D01*
X0027399Y0294080D01*
X0027514Y0294223D01*
X0027632Y0294364D01*
X0027754Y0294501D01*
X0027879Y0294636D01*
X0028007Y0294767D01*
X0028138Y0294895D01*
X0028273Y0295020D01*
X0028410Y0295142D01*
X0028551Y0295260D01*
X0028694Y0295375D01*
X0028840Y0295486D01*
X0028989Y0295594D01*
X0029140Y0295697D01*
X0029294Y0295798D01*
X0029451Y0295894D01*
X0029609Y0295986D01*
X0029770Y0296075D01*
X0029933Y0296159D01*
X0030098Y0296240D01*
X0030265Y0296316D01*
X0030434Y0296389D01*
X0030604Y0296457D01*
X0030776Y0296521D01*
X0030950Y0296580D01*
X0031125Y0296636D01*
X0031301Y0296687D01*
X0031479Y0296734D01*
X0031657Y0296776D01*
X0031837Y0296814D01*
X0032017Y0296848D01*
X0032198Y0296877D01*
X0032380Y0296902D01*
X0032563Y0296922D01*
X0032746Y0296938D01*
X0032929Y0296949D01*
X0033112Y0296956D01*
X0033296Y0296958D01*
X0033480Y0296956D01*
X0033663Y0296949D01*
X0033846Y0296938D01*
X0034029Y0296922D01*
X0034212Y0296902D01*
X0034394Y0296877D01*
X0034575Y0296848D01*
X0034755Y0296814D01*
X0034935Y0296776D01*
X0035113Y0296734D01*
X0035291Y0296687D01*
X0035467Y0296636D01*
X0035642Y0296580D01*
X0035816Y0296521D01*
X0035988Y0296457D01*
X0036158Y0296389D01*
X0036327Y0296316D01*
X0036494Y0296240D01*
X0036659Y0296159D01*
X0036822Y0296075D01*
X0036983Y0295986D01*
X0037141Y0295894D01*
X0037298Y0295798D01*
X0037452Y0295697D01*
X0037603Y0295594D01*
X0037752Y0295486D01*
X0037898Y0295375D01*
X0038041Y0295260D01*
X0038182Y0295142D01*
X0038319Y0295020D01*
X0038454Y0294895D01*
X0038585Y0294767D01*
X0038713Y0294636D01*
X0038838Y0294501D01*
X0038960Y0294364D01*
X0039078Y0294223D01*
X0039193Y0294080D01*
X0039304Y0293934D01*
X0039412Y0293785D01*
X0039515Y0293634D01*
X0039616Y0293480D01*
X0039712Y0293323D01*
X0039804Y0293165D01*
X0039893Y0293004D01*
X0039977Y0292841D01*
X0040058Y0292676D01*
X0040134Y0292509D01*
X0040207Y0292340D01*
X0040275Y0292170D01*
X0040339Y0291998D01*
X0040398Y0291824D01*
X0040454Y0291649D01*
X0040505Y0291473D01*
X0040552Y0291295D01*
X0040594Y0291117D01*
X0040632Y0290937D01*
X0040666Y0290757D01*
X0040695Y0290576D01*
X0040720Y0290394D01*
X0040740Y0290211D01*
X0040756Y0290028D01*
X0040767Y0289845D01*
X0040774Y0289662D01*
X0040776Y0289478D01*
X0040774Y0289294D01*
X0040767Y0289111D01*
X0040756Y0288928D01*
X0040740Y0288745D01*
X0040720Y0288562D01*
X0040695Y0288380D01*
X0040666Y0288199D01*
X0040632Y0288019D01*
X0040594Y0287839D01*
X0040552Y0287661D01*
X0040505Y0287483D01*
X0040454Y0287307D01*
X0040398Y0287132D01*
X0040339Y0286958D01*
X0040275Y0286786D01*
X0040207Y0286616D01*
X0040134Y0286447D01*
X0040058Y0286280D01*
X0039977Y0286115D01*
X0039893Y0285952D01*
X0039804Y0285791D01*
X0039712Y0285633D01*
X0039616Y0285476D01*
X0039515Y0285322D01*
X0039412Y0285171D01*
X0039304Y0285022D01*
X0039193Y0284876D01*
X0039078Y0284733D01*
X0038960Y0284592D01*
X0038838Y0284455D01*
X0038713Y0284320D01*
X0038585Y0284189D01*
X0038454Y0284061D01*
X0038319Y0283936D01*
X0038182Y0283814D01*
X0038041Y0283696D01*
X0037898Y0283581D01*
X0037752Y0283470D01*
X0037603Y0283362D01*
X0037452Y0283259D01*
X0037298Y0283158D01*
X0037141Y0283062D01*
X0036983Y0282970D01*
X0036822Y0282881D01*
X0036659Y0282797D01*
X0036494Y0282716D01*
X0036327Y0282640D01*
X0036158Y0282567D01*
X0035988Y0282499D01*
X0035816Y0282435D01*
X0035642Y0282376D01*
X0035467Y0282320D01*
X0035291Y0282269D01*
X0035113Y0282222D01*
X0034935Y0282180D01*
X0034755Y0282142D01*
X0034575Y0282108D01*
X0034394Y0282079D01*
X0034212Y0282054D01*
X0034029Y0282034D01*
X0033846Y0282018D01*
X0033663Y0282007D01*
X0033480Y0282000D01*
X0033296Y0281998D01*
X0033112Y0282000D01*
X0032929Y0282007D01*
X0032746Y0282018D01*
X0032563Y0282034D01*
X0032380Y0282054D01*
X0032198Y0282079D01*
X0032017Y0282108D01*
X0031837Y0282142D01*
X0031657Y0282180D01*
X0031479Y0282222D01*
X0031301Y0282269D01*
X0031125Y0282320D01*
X0030950Y0282376D01*
X0030776Y0282435D01*
X0030604Y0282499D01*
X0030434Y0282567D01*
X0030265Y0282640D01*
X0030098Y0282716D01*
X0029933Y0282797D01*
X0029770Y0282881D01*
X0029609Y0282970D01*
X0029451Y0283062D01*
X0029294Y0283158D01*
X0029140Y0283259D01*
X0028989Y0283362D01*
X0028840Y0283470D01*
X0028694Y0283581D01*
X0028551Y0283696D01*
X0028410Y0283814D01*
X0028273Y0283936D01*
X0028138Y0284061D01*
X0028007Y0284189D01*
X0027879Y0284320D01*
X0027754Y0284455D01*
X0027632Y0284592D01*
X0027514Y0284733D01*
X0027399Y0284876D01*
X0027288Y0285022D01*
X0027180Y0285171D01*
X0027077Y0285322D01*
X0026976Y0285476D01*
X0026880Y0285633D01*
X0026788Y0285791D01*
X0026699Y0285952D01*
X0026615Y0286115D01*
X0026534Y0286280D01*
X0026458Y0286447D01*
X0026385Y0286616D01*
X0026317Y0286786D01*
X0026253Y0286958D01*
X0026194Y0287132D01*
X0026138Y0287307D01*
X0026087Y0287483D01*
X0026040Y0287661D01*
X0025998Y0287839D01*
X0025960Y0288019D01*
X0025926Y0288199D01*
X0025897Y0288380D01*
X0025872Y0288562D01*
X0025852Y0288745D01*
X0025836Y0288928D01*
X0025825Y0289111D01*
X0025818Y0289294D01*
X0025816Y0289478D01*
X0025816Y0362707D02*
X0025818Y0362891D01*
X0025825Y0363074D01*
X0025836Y0363257D01*
X0025852Y0363440D01*
X0025872Y0363623D01*
X0025897Y0363805D01*
X0025926Y0363986D01*
X0025960Y0364166D01*
X0025998Y0364346D01*
X0026040Y0364524D01*
X0026087Y0364702D01*
X0026138Y0364878D01*
X0026194Y0365053D01*
X0026253Y0365227D01*
X0026317Y0365399D01*
X0026385Y0365569D01*
X0026458Y0365738D01*
X0026534Y0365905D01*
X0026615Y0366070D01*
X0026699Y0366233D01*
X0026788Y0366394D01*
X0026880Y0366552D01*
X0026976Y0366709D01*
X0027077Y0366863D01*
X0027180Y0367014D01*
X0027288Y0367163D01*
X0027399Y0367309D01*
X0027514Y0367452D01*
X0027632Y0367593D01*
X0027754Y0367730D01*
X0027879Y0367865D01*
X0028007Y0367996D01*
X0028138Y0368124D01*
X0028273Y0368249D01*
X0028410Y0368371D01*
X0028551Y0368489D01*
X0028694Y0368604D01*
X0028840Y0368715D01*
X0028989Y0368823D01*
X0029140Y0368926D01*
X0029294Y0369027D01*
X0029451Y0369123D01*
X0029609Y0369215D01*
X0029770Y0369304D01*
X0029933Y0369388D01*
X0030098Y0369469D01*
X0030265Y0369545D01*
X0030434Y0369618D01*
X0030604Y0369686D01*
X0030776Y0369750D01*
X0030950Y0369809D01*
X0031125Y0369865D01*
X0031301Y0369916D01*
X0031479Y0369963D01*
X0031657Y0370005D01*
X0031837Y0370043D01*
X0032017Y0370077D01*
X0032198Y0370106D01*
X0032380Y0370131D01*
X0032563Y0370151D01*
X0032746Y0370167D01*
X0032929Y0370178D01*
X0033112Y0370185D01*
X0033296Y0370187D01*
X0033480Y0370185D01*
X0033663Y0370178D01*
X0033846Y0370167D01*
X0034029Y0370151D01*
X0034212Y0370131D01*
X0034394Y0370106D01*
X0034575Y0370077D01*
X0034755Y0370043D01*
X0034935Y0370005D01*
X0035113Y0369963D01*
X0035291Y0369916D01*
X0035467Y0369865D01*
X0035642Y0369809D01*
X0035816Y0369750D01*
X0035988Y0369686D01*
X0036158Y0369618D01*
X0036327Y0369545D01*
X0036494Y0369469D01*
X0036659Y0369388D01*
X0036822Y0369304D01*
X0036983Y0369215D01*
X0037141Y0369123D01*
X0037298Y0369027D01*
X0037452Y0368926D01*
X0037603Y0368823D01*
X0037752Y0368715D01*
X0037898Y0368604D01*
X0038041Y0368489D01*
X0038182Y0368371D01*
X0038319Y0368249D01*
X0038454Y0368124D01*
X0038585Y0367996D01*
X0038713Y0367865D01*
X0038838Y0367730D01*
X0038960Y0367593D01*
X0039078Y0367452D01*
X0039193Y0367309D01*
X0039304Y0367163D01*
X0039412Y0367014D01*
X0039515Y0366863D01*
X0039616Y0366709D01*
X0039712Y0366552D01*
X0039804Y0366394D01*
X0039893Y0366233D01*
X0039977Y0366070D01*
X0040058Y0365905D01*
X0040134Y0365738D01*
X0040207Y0365569D01*
X0040275Y0365399D01*
X0040339Y0365227D01*
X0040398Y0365053D01*
X0040454Y0364878D01*
X0040505Y0364702D01*
X0040552Y0364524D01*
X0040594Y0364346D01*
X0040632Y0364166D01*
X0040666Y0363986D01*
X0040695Y0363805D01*
X0040720Y0363623D01*
X0040740Y0363440D01*
X0040756Y0363257D01*
X0040767Y0363074D01*
X0040774Y0362891D01*
X0040776Y0362707D01*
X0040774Y0362523D01*
X0040767Y0362340D01*
X0040756Y0362157D01*
X0040740Y0361974D01*
X0040720Y0361791D01*
X0040695Y0361609D01*
X0040666Y0361428D01*
X0040632Y0361248D01*
X0040594Y0361068D01*
X0040552Y0360890D01*
X0040505Y0360712D01*
X0040454Y0360536D01*
X0040398Y0360361D01*
X0040339Y0360187D01*
X0040275Y0360015D01*
X0040207Y0359845D01*
X0040134Y0359676D01*
X0040058Y0359509D01*
X0039977Y0359344D01*
X0039893Y0359181D01*
X0039804Y0359020D01*
X0039712Y0358862D01*
X0039616Y0358705D01*
X0039515Y0358551D01*
X0039412Y0358400D01*
X0039304Y0358251D01*
X0039193Y0358105D01*
X0039078Y0357962D01*
X0038960Y0357821D01*
X0038838Y0357684D01*
X0038713Y0357549D01*
X0038585Y0357418D01*
X0038454Y0357290D01*
X0038319Y0357165D01*
X0038182Y0357043D01*
X0038041Y0356925D01*
X0037898Y0356810D01*
X0037752Y0356699D01*
X0037603Y0356591D01*
X0037452Y0356488D01*
X0037298Y0356387D01*
X0037141Y0356291D01*
X0036983Y0356199D01*
X0036822Y0356110D01*
X0036659Y0356026D01*
X0036494Y0355945D01*
X0036327Y0355869D01*
X0036158Y0355796D01*
X0035988Y0355728D01*
X0035816Y0355664D01*
X0035642Y0355605D01*
X0035467Y0355549D01*
X0035291Y0355498D01*
X0035113Y0355451D01*
X0034935Y0355409D01*
X0034755Y0355371D01*
X0034575Y0355337D01*
X0034394Y0355308D01*
X0034212Y0355283D01*
X0034029Y0355263D01*
X0033846Y0355247D01*
X0033663Y0355236D01*
X0033480Y0355229D01*
X0033296Y0355227D01*
X0033112Y0355229D01*
X0032929Y0355236D01*
X0032746Y0355247D01*
X0032563Y0355263D01*
X0032380Y0355283D01*
X0032198Y0355308D01*
X0032017Y0355337D01*
X0031837Y0355371D01*
X0031657Y0355409D01*
X0031479Y0355451D01*
X0031301Y0355498D01*
X0031125Y0355549D01*
X0030950Y0355605D01*
X0030776Y0355664D01*
X0030604Y0355728D01*
X0030434Y0355796D01*
X0030265Y0355869D01*
X0030098Y0355945D01*
X0029933Y0356026D01*
X0029770Y0356110D01*
X0029609Y0356199D01*
X0029451Y0356291D01*
X0029294Y0356387D01*
X0029140Y0356488D01*
X0028989Y0356591D01*
X0028840Y0356699D01*
X0028694Y0356810D01*
X0028551Y0356925D01*
X0028410Y0357043D01*
X0028273Y0357165D01*
X0028138Y0357290D01*
X0028007Y0357418D01*
X0027879Y0357549D01*
X0027754Y0357684D01*
X0027632Y0357821D01*
X0027514Y0357962D01*
X0027399Y0358105D01*
X0027288Y0358251D01*
X0027180Y0358400D01*
X0027077Y0358551D01*
X0026976Y0358705D01*
X0026880Y0358862D01*
X0026788Y0359020D01*
X0026699Y0359181D01*
X0026615Y0359344D01*
X0026534Y0359509D01*
X0026458Y0359676D01*
X0026385Y0359845D01*
X0026317Y0360015D01*
X0026253Y0360187D01*
X0026194Y0360361D01*
X0026138Y0360536D01*
X0026087Y0360712D01*
X0026040Y0360890D01*
X0025998Y0361068D01*
X0025960Y0361248D01*
X0025926Y0361428D01*
X0025897Y0361609D01*
X0025872Y0361791D01*
X0025852Y0361974D01*
X0025836Y0362157D01*
X0025825Y0362340D01*
X0025818Y0362523D01*
X0025816Y0362707D01*
X0033690Y0399321D02*
X0033692Y0399505D01*
X0033699Y0399688D01*
X0033710Y0399871D01*
X0033726Y0400054D01*
X0033746Y0400237D01*
X0033771Y0400419D01*
X0033800Y0400600D01*
X0033834Y0400780D01*
X0033872Y0400960D01*
X0033914Y0401138D01*
X0033961Y0401316D01*
X0034012Y0401492D01*
X0034068Y0401667D01*
X0034127Y0401841D01*
X0034191Y0402013D01*
X0034259Y0402183D01*
X0034332Y0402352D01*
X0034408Y0402519D01*
X0034489Y0402684D01*
X0034573Y0402847D01*
X0034662Y0403008D01*
X0034754Y0403166D01*
X0034850Y0403323D01*
X0034951Y0403477D01*
X0035054Y0403628D01*
X0035162Y0403777D01*
X0035273Y0403923D01*
X0035388Y0404066D01*
X0035506Y0404207D01*
X0035628Y0404344D01*
X0035753Y0404479D01*
X0035881Y0404610D01*
X0036012Y0404738D01*
X0036147Y0404863D01*
X0036284Y0404985D01*
X0036425Y0405103D01*
X0036568Y0405218D01*
X0036714Y0405329D01*
X0036863Y0405437D01*
X0037014Y0405540D01*
X0037168Y0405641D01*
X0037325Y0405737D01*
X0037483Y0405829D01*
X0037644Y0405918D01*
X0037807Y0406002D01*
X0037972Y0406083D01*
X0038139Y0406159D01*
X0038308Y0406232D01*
X0038478Y0406300D01*
X0038650Y0406364D01*
X0038824Y0406423D01*
X0038999Y0406479D01*
X0039175Y0406530D01*
X0039353Y0406577D01*
X0039531Y0406619D01*
X0039711Y0406657D01*
X0039891Y0406691D01*
X0040072Y0406720D01*
X0040254Y0406745D01*
X0040437Y0406765D01*
X0040620Y0406781D01*
X0040803Y0406792D01*
X0040986Y0406799D01*
X0041170Y0406801D01*
X0041354Y0406799D01*
X0041537Y0406792D01*
X0041720Y0406781D01*
X0041903Y0406765D01*
X0042086Y0406745D01*
X0042268Y0406720D01*
X0042449Y0406691D01*
X0042629Y0406657D01*
X0042809Y0406619D01*
X0042987Y0406577D01*
X0043165Y0406530D01*
X0043341Y0406479D01*
X0043516Y0406423D01*
X0043690Y0406364D01*
X0043862Y0406300D01*
X0044032Y0406232D01*
X0044201Y0406159D01*
X0044368Y0406083D01*
X0044533Y0406002D01*
X0044696Y0405918D01*
X0044857Y0405829D01*
X0045015Y0405737D01*
X0045172Y0405641D01*
X0045326Y0405540D01*
X0045477Y0405437D01*
X0045626Y0405329D01*
X0045772Y0405218D01*
X0045915Y0405103D01*
X0046056Y0404985D01*
X0046193Y0404863D01*
X0046328Y0404738D01*
X0046459Y0404610D01*
X0046587Y0404479D01*
X0046712Y0404344D01*
X0046834Y0404207D01*
X0046952Y0404066D01*
X0047067Y0403923D01*
X0047178Y0403777D01*
X0047286Y0403628D01*
X0047389Y0403477D01*
X0047490Y0403323D01*
X0047586Y0403166D01*
X0047678Y0403008D01*
X0047767Y0402847D01*
X0047851Y0402684D01*
X0047932Y0402519D01*
X0048008Y0402352D01*
X0048081Y0402183D01*
X0048149Y0402013D01*
X0048213Y0401841D01*
X0048272Y0401667D01*
X0048328Y0401492D01*
X0048379Y0401316D01*
X0048426Y0401138D01*
X0048468Y0400960D01*
X0048506Y0400780D01*
X0048540Y0400600D01*
X0048569Y0400419D01*
X0048594Y0400237D01*
X0048614Y0400054D01*
X0048630Y0399871D01*
X0048641Y0399688D01*
X0048648Y0399505D01*
X0048650Y0399321D01*
X0048648Y0399137D01*
X0048641Y0398954D01*
X0048630Y0398771D01*
X0048614Y0398588D01*
X0048594Y0398405D01*
X0048569Y0398223D01*
X0048540Y0398042D01*
X0048506Y0397862D01*
X0048468Y0397682D01*
X0048426Y0397504D01*
X0048379Y0397326D01*
X0048328Y0397150D01*
X0048272Y0396975D01*
X0048213Y0396801D01*
X0048149Y0396629D01*
X0048081Y0396459D01*
X0048008Y0396290D01*
X0047932Y0396123D01*
X0047851Y0395958D01*
X0047767Y0395795D01*
X0047678Y0395634D01*
X0047586Y0395476D01*
X0047490Y0395319D01*
X0047389Y0395165D01*
X0047286Y0395014D01*
X0047178Y0394865D01*
X0047067Y0394719D01*
X0046952Y0394576D01*
X0046834Y0394435D01*
X0046712Y0394298D01*
X0046587Y0394163D01*
X0046459Y0394032D01*
X0046328Y0393904D01*
X0046193Y0393779D01*
X0046056Y0393657D01*
X0045915Y0393539D01*
X0045772Y0393424D01*
X0045626Y0393313D01*
X0045477Y0393205D01*
X0045326Y0393102D01*
X0045172Y0393001D01*
X0045015Y0392905D01*
X0044857Y0392813D01*
X0044696Y0392724D01*
X0044533Y0392640D01*
X0044368Y0392559D01*
X0044201Y0392483D01*
X0044032Y0392410D01*
X0043862Y0392342D01*
X0043690Y0392278D01*
X0043516Y0392219D01*
X0043341Y0392163D01*
X0043165Y0392112D01*
X0042987Y0392065D01*
X0042809Y0392023D01*
X0042629Y0391985D01*
X0042449Y0391951D01*
X0042268Y0391922D01*
X0042086Y0391897D01*
X0041903Y0391877D01*
X0041720Y0391861D01*
X0041537Y0391850D01*
X0041354Y0391843D01*
X0041170Y0391841D01*
X0040986Y0391843D01*
X0040803Y0391850D01*
X0040620Y0391861D01*
X0040437Y0391877D01*
X0040254Y0391897D01*
X0040072Y0391922D01*
X0039891Y0391951D01*
X0039711Y0391985D01*
X0039531Y0392023D01*
X0039353Y0392065D01*
X0039175Y0392112D01*
X0038999Y0392163D01*
X0038824Y0392219D01*
X0038650Y0392278D01*
X0038478Y0392342D01*
X0038308Y0392410D01*
X0038139Y0392483D01*
X0037972Y0392559D01*
X0037807Y0392640D01*
X0037644Y0392724D01*
X0037483Y0392813D01*
X0037325Y0392905D01*
X0037168Y0393001D01*
X0037014Y0393102D01*
X0036863Y0393205D01*
X0036714Y0393313D01*
X0036568Y0393424D01*
X0036425Y0393539D01*
X0036284Y0393657D01*
X0036147Y0393779D01*
X0036012Y0393904D01*
X0035881Y0394032D01*
X0035753Y0394163D01*
X0035628Y0394298D01*
X0035506Y0394435D01*
X0035388Y0394576D01*
X0035273Y0394719D01*
X0035162Y0394865D01*
X0035054Y0395014D01*
X0034951Y0395165D01*
X0034850Y0395319D01*
X0034754Y0395476D01*
X0034662Y0395634D01*
X0034573Y0395795D01*
X0034489Y0395958D01*
X0034408Y0396123D01*
X0034332Y0396290D01*
X0034259Y0396459D01*
X0034191Y0396629D01*
X0034127Y0396801D01*
X0034068Y0396975D01*
X0034012Y0397150D01*
X0033961Y0397326D01*
X0033914Y0397504D01*
X0033872Y0397682D01*
X0033834Y0397862D01*
X0033800Y0398042D01*
X0033771Y0398223D01*
X0033746Y0398405D01*
X0033726Y0398588D01*
X0033710Y0398771D01*
X0033699Y0398954D01*
X0033692Y0399137D01*
X0033690Y0399321D01*
X0033690Y0326093D02*
X0033692Y0326277D01*
X0033699Y0326460D01*
X0033710Y0326643D01*
X0033726Y0326826D01*
X0033746Y0327009D01*
X0033771Y0327191D01*
X0033800Y0327372D01*
X0033834Y0327552D01*
X0033872Y0327732D01*
X0033914Y0327910D01*
X0033961Y0328088D01*
X0034012Y0328264D01*
X0034068Y0328439D01*
X0034127Y0328613D01*
X0034191Y0328785D01*
X0034259Y0328955D01*
X0034332Y0329124D01*
X0034408Y0329291D01*
X0034489Y0329456D01*
X0034573Y0329619D01*
X0034662Y0329780D01*
X0034754Y0329938D01*
X0034850Y0330095D01*
X0034951Y0330249D01*
X0035054Y0330400D01*
X0035162Y0330549D01*
X0035273Y0330695D01*
X0035388Y0330838D01*
X0035506Y0330979D01*
X0035628Y0331116D01*
X0035753Y0331251D01*
X0035881Y0331382D01*
X0036012Y0331510D01*
X0036147Y0331635D01*
X0036284Y0331757D01*
X0036425Y0331875D01*
X0036568Y0331990D01*
X0036714Y0332101D01*
X0036863Y0332209D01*
X0037014Y0332312D01*
X0037168Y0332413D01*
X0037325Y0332509D01*
X0037483Y0332601D01*
X0037644Y0332690D01*
X0037807Y0332774D01*
X0037972Y0332855D01*
X0038139Y0332931D01*
X0038308Y0333004D01*
X0038478Y0333072D01*
X0038650Y0333136D01*
X0038824Y0333195D01*
X0038999Y0333251D01*
X0039175Y0333302D01*
X0039353Y0333349D01*
X0039531Y0333391D01*
X0039711Y0333429D01*
X0039891Y0333463D01*
X0040072Y0333492D01*
X0040254Y0333517D01*
X0040437Y0333537D01*
X0040620Y0333553D01*
X0040803Y0333564D01*
X0040986Y0333571D01*
X0041170Y0333573D01*
X0041354Y0333571D01*
X0041537Y0333564D01*
X0041720Y0333553D01*
X0041903Y0333537D01*
X0042086Y0333517D01*
X0042268Y0333492D01*
X0042449Y0333463D01*
X0042629Y0333429D01*
X0042809Y0333391D01*
X0042987Y0333349D01*
X0043165Y0333302D01*
X0043341Y0333251D01*
X0043516Y0333195D01*
X0043690Y0333136D01*
X0043862Y0333072D01*
X0044032Y0333004D01*
X0044201Y0332931D01*
X0044368Y0332855D01*
X0044533Y0332774D01*
X0044696Y0332690D01*
X0044857Y0332601D01*
X0045015Y0332509D01*
X0045172Y0332413D01*
X0045326Y0332312D01*
X0045477Y0332209D01*
X0045626Y0332101D01*
X0045772Y0331990D01*
X0045915Y0331875D01*
X0046056Y0331757D01*
X0046193Y0331635D01*
X0046328Y0331510D01*
X0046459Y0331382D01*
X0046587Y0331251D01*
X0046712Y0331116D01*
X0046834Y0330979D01*
X0046952Y0330838D01*
X0047067Y0330695D01*
X0047178Y0330549D01*
X0047286Y0330400D01*
X0047389Y0330249D01*
X0047490Y0330095D01*
X0047586Y0329938D01*
X0047678Y0329780D01*
X0047767Y0329619D01*
X0047851Y0329456D01*
X0047932Y0329291D01*
X0048008Y0329124D01*
X0048081Y0328955D01*
X0048149Y0328785D01*
X0048213Y0328613D01*
X0048272Y0328439D01*
X0048328Y0328264D01*
X0048379Y0328088D01*
X0048426Y0327910D01*
X0048468Y0327732D01*
X0048506Y0327552D01*
X0048540Y0327372D01*
X0048569Y0327191D01*
X0048594Y0327009D01*
X0048614Y0326826D01*
X0048630Y0326643D01*
X0048641Y0326460D01*
X0048648Y0326277D01*
X0048650Y0326093D01*
X0048648Y0325909D01*
X0048641Y0325726D01*
X0048630Y0325543D01*
X0048614Y0325360D01*
X0048594Y0325177D01*
X0048569Y0324995D01*
X0048540Y0324814D01*
X0048506Y0324634D01*
X0048468Y0324454D01*
X0048426Y0324276D01*
X0048379Y0324098D01*
X0048328Y0323922D01*
X0048272Y0323747D01*
X0048213Y0323573D01*
X0048149Y0323401D01*
X0048081Y0323231D01*
X0048008Y0323062D01*
X0047932Y0322895D01*
X0047851Y0322730D01*
X0047767Y0322567D01*
X0047678Y0322406D01*
X0047586Y0322248D01*
X0047490Y0322091D01*
X0047389Y0321937D01*
X0047286Y0321786D01*
X0047178Y0321637D01*
X0047067Y0321491D01*
X0046952Y0321348D01*
X0046834Y0321207D01*
X0046712Y0321070D01*
X0046587Y0320935D01*
X0046459Y0320804D01*
X0046328Y0320676D01*
X0046193Y0320551D01*
X0046056Y0320429D01*
X0045915Y0320311D01*
X0045772Y0320196D01*
X0045626Y0320085D01*
X0045477Y0319977D01*
X0045326Y0319874D01*
X0045172Y0319773D01*
X0045015Y0319677D01*
X0044857Y0319585D01*
X0044696Y0319496D01*
X0044533Y0319412D01*
X0044368Y0319331D01*
X0044201Y0319255D01*
X0044032Y0319182D01*
X0043862Y0319114D01*
X0043690Y0319050D01*
X0043516Y0318991D01*
X0043341Y0318935D01*
X0043165Y0318884D01*
X0042987Y0318837D01*
X0042809Y0318795D01*
X0042629Y0318757D01*
X0042449Y0318723D01*
X0042268Y0318694D01*
X0042086Y0318669D01*
X0041903Y0318649D01*
X0041720Y0318633D01*
X0041537Y0318622D01*
X0041354Y0318615D01*
X0041170Y0318613D01*
X0040986Y0318615D01*
X0040803Y0318622D01*
X0040620Y0318633D01*
X0040437Y0318649D01*
X0040254Y0318669D01*
X0040072Y0318694D01*
X0039891Y0318723D01*
X0039711Y0318757D01*
X0039531Y0318795D01*
X0039353Y0318837D01*
X0039175Y0318884D01*
X0038999Y0318935D01*
X0038824Y0318991D01*
X0038650Y0319050D01*
X0038478Y0319114D01*
X0038308Y0319182D01*
X0038139Y0319255D01*
X0037972Y0319331D01*
X0037807Y0319412D01*
X0037644Y0319496D01*
X0037483Y0319585D01*
X0037325Y0319677D01*
X0037168Y0319773D01*
X0037014Y0319874D01*
X0036863Y0319977D01*
X0036714Y0320085D01*
X0036568Y0320196D01*
X0036425Y0320311D01*
X0036284Y0320429D01*
X0036147Y0320551D01*
X0036012Y0320676D01*
X0035881Y0320804D01*
X0035753Y0320935D01*
X0035628Y0321070D01*
X0035506Y0321207D01*
X0035388Y0321348D01*
X0035273Y0321491D01*
X0035162Y0321637D01*
X0035054Y0321786D01*
X0034951Y0321937D01*
X0034850Y0322091D01*
X0034754Y0322248D01*
X0034662Y0322406D01*
X0034573Y0322567D01*
X0034489Y0322730D01*
X0034408Y0322895D01*
X0034332Y0323062D01*
X0034259Y0323231D01*
X0034191Y0323401D01*
X0034127Y0323573D01*
X0034068Y0323747D01*
X0034012Y0323922D01*
X0033961Y0324098D01*
X0033914Y0324276D01*
X0033872Y0324454D01*
X0033834Y0324634D01*
X0033800Y0324814D01*
X0033771Y0324995D01*
X0033746Y0325177D01*
X0033726Y0325360D01*
X0033710Y0325543D01*
X0033699Y0325726D01*
X0033692Y0325909D01*
X0033690Y0326093D01*
X0056918Y0350896D02*
X0056920Y0351049D01*
X0056926Y0351203D01*
X0056936Y0351356D01*
X0056950Y0351508D01*
X0056968Y0351661D01*
X0056990Y0351812D01*
X0057015Y0351963D01*
X0057045Y0352114D01*
X0057079Y0352264D01*
X0057116Y0352412D01*
X0057157Y0352560D01*
X0057202Y0352706D01*
X0057251Y0352852D01*
X0057304Y0352996D01*
X0057360Y0353138D01*
X0057420Y0353279D01*
X0057484Y0353419D01*
X0057551Y0353557D01*
X0057622Y0353693D01*
X0057697Y0353827D01*
X0057774Y0353959D01*
X0057856Y0354089D01*
X0057940Y0354217D01*
X0058028Y0354343D01*
X0058119Y0354466D01*
X0058213Y0354587D01*
X0058311Y0354705D01*
X0058411Y0354821D01*
X0058515Y0354934D01*
X0058621Y0355045D01*
X0058730Y0355153D01*
X0058842Y0355258D01*
X0058956Y0355359D01*
X0059074Y0355458D01*
X0059193Y0355554D01*
X0059315Y0355647D01*
X0059440Y0355736D01*
X0059567Y0355823D01*
X0059696Y0355905D01*
X0059827Y0355985D01*
X0059960Y0356061D01*
X0060095Y0356134D01*
X0060232Y0356203D01*
X0060371Y0356268D01*
X0060511Y0356330D01*
X0060653Y0356388D01*
X0060796Y0356443D01*
X0060941Y0356494D01*
X0061087Y0356541D01*
X0061234Y0356584D01*
X0061382Y0356623D01*
X0061531Y0356659D01*
X0061681Y0356690D01*
X0061832Y0356718D01*
X0061983Y0356742D01*
X0062136Y0356762D01*
X0062288Y0356778D01*
X0062441Y0356790D01*
X0062594Y0356798D01*
X0062747Y0356802D01*
X0062901Y0356802D01*
X0063054Y0356798D01*
X0063207Y0356790D01*
X0063360Y0356778D01*
X0063512Y0356762D01*
X0063665Y0356742D01*
X0063816Y0356718D01*
X0063967Y0356690D01*
X0064117Y0356659D01*
X0064266Y0356623D01*
X0064414Y0356584D01*
X0064561Y0356541D01*
X0064707Y0356494D01*
X0064852Y0356443D01*
X0064995Y0356388D01*
X0065137Y0356330D01*
X0065277Y0356268D01*
X0065416Y0356203D01*
X0065553Y0356134D01*
X0065688Y0356061D01*
X0065821Y0355985D01*
X0065952Y0355905D01*
X0066081Y0355823D01*
X0066208Y0355736D01*
X0066333Y0355647D01*
X0066455Y0355554D01*
X0066574Y0355458D01*
X0066692Y0355359D01*
X0066806Y0355258D01*
X0066918Y0355153D01*
X0067027Y0355045D01*
X0067133Y0354934D01*
X0067237Y0354821D01*
X0067337Y0354705D01*
X0067435Y0354587D01*
X0067529Y0354466D01*
X0067620Y0354343D01*
X0067708Y0354217D01*
X0067792Y0354089D01*
X0067874Y0353959D01*
X0067951Y0353827D01*
X0068026Y0353693D01*
X0068097Y0353557D01*
X0068164Y0353419D01*
X0068228Y0353279D01*
X0068288Y0353138D01*
X0068344Y0352996D01*
X0068397Y0352852D01*
X0068446Y0352706D01*
X0068491Y0352560D01*
X0068532Y0352412D01*
X0068569Y0352264D01*
X0068603Y0352114D01*
X0068633Y0351963D01*
X0068658Y0351812D01*
X0068680Y0351661D01*
X0068698Y0351508D01*
X0068712Y0351356D01*
X0068722Y0351203D01*
X0068728Y0351049D01*
X0068730Y0350896D01*
X0068728Y0350743D01*
X0068722Y0350589D01*
X0068712Y0350436D01*
X0068698Y0350284D01*
X0068680Y0350131D01*
X0068658Y0349980D01*
X0068633Y0349829D01*
X0068603Y0349678D01*
X0068569Y0349528D01*
X0068532Y0349380D01*
X0068491Y0349232D01*
X0068446Y0349086D01*
X0068397Y0348940D01*
X0068344Y0348796D01*
X0068288Y0348654D01*
X0068228Y0348513D01*
X0068164Y0348373D01*
X0068097Y0348235D01*
X0068026Y0348099D01*
X0067951Y0347965D01*
X0067874Y0347833D01*
X0067792Y0347703D01*
X0067708Y0347575D01*
X0067620Y0347449D01*
X0067529Y0347326D01*
X0067435Y0347205D01*
X0067337Y0347087D01*
X0067237Y0346971D01*
X0067133Y0346858D01*
X0067027Y0346747D01*
X0066918Y0346639D01*
X0066806Y0346534D01*
X0066692Y0346433D01*
X0066574Y0346334D01*
X0066455Y0346238D01*
X0066333Y0346145D01*
X0066208Y0346056D01*
X0066081Y0345969D01*
X0065952Y0345887D01*
X0065821Y0345807D01*
X0065688Y0345731D01*
X0065553Y0345658D01*
X0065416Y0345589D01*
X0065277Y0345524D01*
X0065137Y0345462D01*
X0064995Y0345404D01*
X0064852Y0345349D01*
X0064707Y0345298D01*
X0064561Y0345251D01*
X0064414Y0345208D01*
X0064266Y0345169D01*
X0064117Y0345133D01*
X0063967Y0345102D01*
X0063816Y0345074D01*
X0063665Y0345050D01*
X0063512Y0345030D01*
X0063360Y0345014D01*
X0063207Y0345002D01*
X0063054Y0344994D01*
X0062901Y0344990D01*
X0062747Y0344990D01*
X0062594Y0344994D01*
X0062441Y0345002D01*
X0062288Y0345014D01*
X0062136Y0345030D01*
X0061983Y0345050D01*
X0061832Y0345074D01*
X0061681Y0345102D01*
X0061531Y0345133D01*
X0061382Y0345169D01*
X0061234Y0345208D01*
X0061087Y0345251D01*
X0060941Y0345298D01*
X0060796Y0345349D01*
X0060653Y0345404D01*
X0060511Y0345462D01*
X0060371Y0345524D01*
X0060232Y0345589D01*
X0060095Y0345658D01*
X0059960Y0345731D01*
X0059827Y0345807D01*
X0059696Y0345887D01*
X0059567Y0345969D01*
X0059440Y0346056D01*
X0059315Y0346145D01*
X0059193Y0346238D01*
X0059074Y0346334D01*
X0058956Y0346433D01*
X0058842Y0346534D01*
X0058730Y0346639D01*
X0058621Y0346747D01*
X0058515Y0346858D01*
X0058411Y0346971D01*
X0058311Y0347087D01*
X0058213Y0347205D01*
X0058119Y0347326D01*
X0058028Y0347449D01*
X0057940Y0347575D01*
X0057856Y0347703D01*
X0057774Y0347833D01*
X0057697Y0347965D01*
X0057622Y0348099D01*
X0057551Y0348235D01*
X0057484Y0348373D01*
X0057420Y0348513D01*
X0057360Y0348654D01*
X0057304Y0348796D01*
X0057251Y0348940D01*
X0057202Y0349086D01*
X0057157Y0349232D01*
X0057116Y0349380D01*
X0057079Y0349528D01*
X0057045Y0349678D01*
X0057015Y0349829D01*
X0056990Y0349980D01*
X0056968Y0350131D01*
X0056950Y0350284D01*
X0056936Y0350436D01*
X0056926Y0350589D01*
X0056920Y0350743D01*
X0056918Y0350896D01*
X0054555Y0040266D02*
X0054557Y0040419D01*
X0054563Y0040573D01*
X0054573Y0040726D01*
X0054587Y0040878D01*
X0054605Y0041031D01*
X0054627Y0041182D01*
X0054652Y0041333D01*
X0054682Y0041484D01*
X0054716Y0041634D01*
X0054753Y0041782D01*
X0054794Y0041930D01*
X0054839Y0042076D01*
X0054888Y0042222D01*
X0054941Y0042366D01*
X0054997Y0042508D01*
X0055057Y0042649D01*
X0055121Y0042789D01*
X0055188Y0042927D01*
X0055259Y0043063D01*
X0055334Y0043197D01*
X0055411Y0043329D01*
X0055493Y0043459D01*
X0055577Y0043587D01*
X0055665Y0043713D01*
X0055756Y0043836D01*
X0055850Y0043957D01*
X0055948Y0044075D01*
X0056048Y0044191D01*
X0056152Y0044304D01*
X0056258Y0044415D01*
X0056367Y0044523D01*
X0056479Y0044628D01*
X0056593Y0044729D01*
X0056711Y0044828D01*
X0056830Y0044924D01*
X0056952Y0045017D01*
X0057077Y0045106D01*
X0057204Y0045193D01*
X0057333Y0045275D01*
X0057464Y0045355D01*
X0057597Y0045431D01*
X0057732Y0045504D01*
X0057869Y0045573D01*
X0058008Y0045638D01*
X0058148Y0045700D01*
X0058290Y0045758D01*
X0058433Y0045813D01*
X0058578Y0045864D01*
X0058724Y0045911D01*
X0058871Y0045954D01*
X0059019Y0045993D01*
X0059168Y0046029D01*
X0059318Y0046060D01*
X0059469Y0046088D01*
X0059620Y0046112D01*
X0059773Y0046132D01*
X0059925Y0046148D01*
X0060078Y0046160D01*
X0060231Y0046168D01*
X0060384Y0046172D01*
X0060538Y0046172D01*
X0060691Y0046168D01*
X0060844Y0046160D01*
X0060997Y0046148D01*
X0061149Y0046132D01*
X0061302Y0046112D01*
X0061453Y0046088D01*
X0061604Y0046060D01*
X0061754Y0046029D01*
X0061903Y0045993D01*
X0062051Y0045954D01*
X0062198Y0045911D01*
X0062344Y0045864D01*
X0062489Y0045813D01*
X0062632Y0045758D01*
X0062774Y0045700D01*
X0062914Y0045638D01*
X0063053Y0045573D01*
X0063190Y0045504D01*
X0063325Y0045431D01*
X0063458Y0045355D01*
X0063589Y0045275D01*
X0063718Y0045193D01*
X0063845Y0045106D01*
X0063970Y0045017D01*
X0064092Y0044924D01*
X0064211Y0044828D01*
X0064329Y0044729D01*
X0064443Y0044628D01*
X0064555Y0044523D01*
X0064664Y0044415D01*
X0064770Y0044304D01*
X0064874Y0044191D01*
X0064974Y0044075D01*
X0065072Y0043957D01*
X0065166Y0043836D01*
X0065257Y0043713D01*
X0065345Y0043587D01*
X0065429Y0043459D01*
X0065511Y0043329D01*
X0065588Y0043197D01*
X0065663Y0043063D01*
X0065734Y0042927D01*
X0065801Y0042789D01*
X0065865Y0042649D01*
X0065925Y0042508D01*
X0065981Y0042366D01*
X0066034Y0042222D01*
X0066083Y0042076D01*
X0066128Y0041930D01*
X0066169Y0041782D01*
X0066206Y0041634D01*
X0066240Y0041484D01*
X0066270Y0041333D01*
X0066295Y0041182D01*
X0066317Y0041031D01*
X0066335Y0040878D01*
X0066349Y0040726D01*
X0066359Y0040573D01*
X0066365Y0040419D01*
X0066367Y0040266D01*
X0066365Y0040113D01*
X0066359Y0039959D01*
X0066349Y0039806D01*
X0066335Y0039654D01*
X0066317Y0039501D01*
X0066295Y0039350D01*
X0066270Y0039199D01*
X0066240Y0039048D01*
X0066206Y0038898D01*
X0066169Y0038750D01*
X0066128Y0038602D01*
X0066083Y0038456D01*
X0066034Y0038310D01*
X0065981Y0038166D01*
X0065925Y0038024D01*
X0065865Y0037883D01*
X0065801Y0037743D01*
X0065734Y0037605D01*
X0065663Y0037469D01*
X0065588Y0037335D01*
X0065511Y0037203D01*
X0065429Y0037073D01*
X0065345Y0036945D01*
X0065257Y0036819D01*
X0065166Y0036696D01*
X0065072Y0036575D01*
X0064974Y0036457D01*
X0064874Y0036341D01*
X0064770Y0036228D01*
X0064664Y0036117D01*
X0064555Y0036009D01*
X0064443Y0035904D01*
X0064329Y0035803D01*
X0064211Y0035704D01*
X0064092Y0035608D01*
X0063970Y0035515D01*
X0063845Y0035426D01*
X0063718Y0035339D01*
X0063589Y0035257D01*
X0063458Y0035177D01*
X0063325Y0035101D01*
X0063190Y0035028D01*
X0063053Y0034959D01*
X0062914Y0034894D01*
X0062774Y0034832D01*
X0062632Y0034774D01*
X0062489Y0034719D01*
X0062344Y0034668D01*
X0062198Y0034621D01*
X0062051Y0034578D01*
X0061903Y0034539D01*
X0061754Y0034503D01*
X0061604Y0034472D01*
X0061453Y0034444D01*
X0061302Y0034420D01*
X0061149Y0034400D01*
X0060997Y0034384D01*
X0060844Y0034372D01*
X0060691Y0034364D01*
X0060538Y0034360D01*
X0060384Y0034360D01*
X0060231Y0034364D01*
X0060078Y0034372D01*
X0059925Y0034384D01*
X0059773Y0034400D01*
X0059620Y0034420D01*
X0059469Y0034444D01*
X0059318Y0034472D01*
X0059168Y0034503D01*
X0059019Y0034539D01*
X0058871Y0034578D01*
X0058724Y0034621D01*
X0058578Y0034668D01*
X0058433Y0034719D01*
X0058290Y0034774D01*
X0058148Y0034832D01*
X0058008Y0034894D01*
X0057869Y0034959D01*
X0057732Y0035028D01*
X0057597Y0035101D01*
X0057464Y0035177D01*
X0057333Y0035257D01*
X0057204Y0035339D01*
X0057077Y0035426D01*
X0056952Y0035515D01*
X0056830Y0035608D01*
X0056711Y0035704D01*
X0056593Y0035803D01*
X0056479Y0035904D01*
X0056367Y0036009D01*
X0056258Y0036117D01*
X0056152Y0036228D01*
X0056048Y0036341D01*
X0055948Y0036457D01*
X0055850Y0036575D01*
X0055756Y0036696D01*
X0055665Y0036819D01*
X0055577Y0036945D01*
X0055493Y0037073D01*
X0055411Y0037203D01*
X0055334Y0037335D01*
X0055259Y0037469D01*
X0055188Y0037605D01*
X0055121Y0037743D01*
X0055057Y0037883D01*
X0054997Y0038024D01*
X0054941Y0038166D01*
X0054888Y0038310D01*
X0054839Y0038456D01*
X0054794Y0038602D01*
X0054753Y0038750D01*
X0054716Y0038898D01*
X0054682Y0039048D01*
X0054652Y0039199D01*
X0054627Y0039350D01*
X0054605Y0039501D01*
X0054587Y0039654D01*
X0054573Y0039806D01*
X0054563Y0039959D01*
X0054557Y0040113D01*
X0054555Y0040266D01*
D11*
X0063932Y0370770D02*
X0063412Y0371290D01*
X0065134Y0371290D01*
X0066352Y0370072D01*
X0066352Y0368350D01*
X0065134Y0367132D01*
X0063412Y0367132D01*
X0062194Y0368350D01*
X0062194Y0370072D01*
X0063412Y0371290D01*
X0063735Y0370510D01*
X0064811Y0370510D01*
X0065572Y0369749D01*
X0065572Y0368673D01*
X0064811Y0367912D01*
X0063735Y0367912D01*
X0062974Y0368673D01*
X0062974Y0369749D01*
X0063735Y0370510D01*
X0064058Y0369730D01*
X0064488Y0369730D01*
X0064792Y0369426D01*
X0064792Y0368996D01*
X0064488Y0368692D01*
X0064058Y0368692D01*
X0063754Y0368996D01*
X0063754Y0369426D01*
X0064058Y0369730D01*
X0056860Y0377841D02*
X0056340Y0378361D01*
X0058062Y0378361D01*
X0059280Y0377143D01*
X0059280Y0375421D01*
X0058062Y0374203D01*
X0056340Y0374203D01*
X0055122Y0375421D01*
X0055122Y0377143D01*
X0056340Y0378361D01*
X0056663Y0377581D01*
X0057739Y0377581D01*
X0058500Y0376820D01*
X0058500Y0375744D01*
X0057739Y0374983D01*
X0056663Y0374983D01*
X0055902Y0375744D01*
X0055902Y0376820D01*
X0056663Y0377581D01*
X0056986Y0376801D01*
X0057416Y0376801D01*
X0057720Y0376497D01*
X0057720Y0376067D01*
X0057416Y0375763D01*
X0056986Y0375763D01*
X0056682Y0376067D01*
X0056682Y0376497D01*
X0056986Y0376801D01*
D12*
X0051013Y0214675D03*
X0041170Y0214675D03*
X0031328Y0214675D03*
X0033296Y0160069D03*
X0023454Y0160069D03*
X0031328Y0105187D03*
X0041170Y0105187D03*
X0051013Y0105187D03*
X0043139Y0050305D03*
X0033296Y0050305D03*
X0023454Y0050305D03*
X0043139Y0160069D03*
D13*
X0051800Y0132510D03*
X0059674Y0187116D03*
X0059674Y0077628D03*
X0051800Y0022746D03*
X0022666Y0077628D03*
X0014792Y0132510D03*
X0022666Y0187116D03*
X0014792Y0022746D03*
D14*
X0022420Y0252864D03*
X0014546Y0289478D03*
X0022420Y0326093D03*
X0014546Y0362707D03*
X0022420Y0399321D03*
X0047046Y0362707D03*
X0054920Y0399321D03*
X0057046Y0362707D03*
X0054920Y0326093D03*
X0057046Y0289478D03*
X0054920Y0252864D03*
X0047046Y0289478D03*
X0064920Y0252864D03*
X0064920Y0326093D03*
X0064920Y0399321D03*
D15*
X0049072Y0405459D02*
X0049178Y0405760D01*
X0049209Y0406076D01*
X0049164Y0406392D01*
X0049046Y0406687D01*
X0048861Y0406946D01*
X0048719Y0407057D01*
X0048486Y0407301D01*
X0047335Y0408339D01*
X0046041Y0409192D01*
X0044635Y0409843D01*
X0043147Y0410276D01*
X0041611Y0410483D01*
X0040062Y0410457D01*
X0038534Y0410199D01*
X0037061Y0409717D01*
X0035678Y0409019D01*
X0034414Y0408123D01*
X0033298Y0407048D01*
X0032355Y0405818D01*
X0031607Y0404460D01*
X0031549Y0404136D01*
X0031568Y0403807D01*
X0031664Y0403492D01*
X0031831Y0403208D01*
X0032060Y0402971D01*
X0032338Y0402794D01*
X0032650Y0402687D01*
X0032978Y0402656D01*
X0033304Y0402703D01*
X0033610Y0402825D01*
X0033879Y0403015D01*
X0034096Y0403262D01*
X0034250Y0403554D01*
X0034935Y0404583D01*
X0035772Y0405493D01*
X0036741Y0406261D01*
X0037817Y0406869D01*
X0038975Y0407302D01*
X0040186Y0407550D01*
X0041422Y0407605D01*
X0042650Y0407468D01*
X0043843Y0407141D01*
X0044969Y0406632D01*
X0046003Y0405954D01*
X0046919Y0405124D01*
X0047166Y0404922D01*
X0047453Y0404785D01*
X0047765Y0404721D01*
X0048083Y0404732D01*
X0048389Y0404818D01*
X0048667Y0404975D01*
X0048899Y0405192D01*
X0049072Y0405459D01*
X0048951Y0405273D02*
X0046754Y0405273D01*
X0046205Y0405771D02*
X0049179Y0405771D01*
X0049182Y0406270D02*
X0045522Y0406270D01*
X0044668Y0406768D02*
X0048988Y0406768D01*
X0048518Y0407267D02*
X0043384Y0407267D01*
X0044816Y0409760D02*
X0037192Y0409760D01*
X0036157Y0409261D02*
X0045893Y0409261D01*
X0046692Y0408762D02*
X0035315Y0408762D01*
X0034613Y0408264D02*
X0047417Y0408264D01*
X0047970Y0407765D02*
X0034043Y0407765D01*
X0033525Y0407267D02*
X0038880Y0407267D01*
X0038882Y0410258D02*
X0043211Y0410258D01*
X0046678Y0393424D02*
X0046332Y0393254D01*
X0045386Y0392509D01*
X0044335Y0391924D01*
X0043204Y0391511D01*
X0042023Y0391282D01*
X0040820Y0391243D01*
X0039626Y0391394D01*
X0038471Y0391731D01*
X0037384Y0392247D01*
X0036555Y0392690D01*
X0035797Y0393244D01*
X0035123Y0393898D01*
X0034546Y0394640D01*
X0034079Y0395454D01*
X0034021Y0395714D01*
X0033901Y0395951D01*
X0033726Y0396151D01*
X0033507Y0396301D01*
X0033257Y0396393D01*
X0032928Y0396616D01*
X0032554Y0396754D01*
X0032159Y0396799D01*
X0031764Y0396749D01*
X0031392Y0396606D01*
X0031065Y0396379D01*
X0030802Y0396081D01*
X0030617Y0395728D01*
X0030521Y0395341D01*
X0031128Y0393886D01*
X0031937Y0392533D01*
X0032930Y0391309D01*
X0034088Y0390239D01*
X0035387Y0389346D01*
X0036800Y0388647D01*
X0038299Y0388158D01*
X0039852Y0387887D01*
X0041428Y0387841D01*
X0042994Y0388021D01*
X0044519Y0388423D01*
X0045970Y0389039D01*
X0047319Y0389855D01*
X0048537Y0390856D01*
X0048699Y0391010D01*
X0048813Y0391216D01*
X0048913Y0391588D01*
X0048926Y0391974D01*
X0048851Y0392352D01*
X0048692Y0392703D01*
X0048458Y0393009D01*
X0048160Y0393254D01*
X0047814Y0393424D01*
X0047439Y0393512D01*
X0047053Y0393512D01*
X0046678Y0393424D01*
X0046443Y0393309D02*
X0048049Y0393309D01*
X0048610Y0392810D02*
X0045768Y0392810D01*
X0045031Y0392312D02*
X0048859Y0392312D01*
X0048920Y0391813D02*
X0044032Y0391813D01*
X0044141Y0388324D02*
X0037791Y0388324D01*
X0038299Y0391813D02*
X0032521Y0391813D01*
X0032925Y0391315D02*
X0040254Y0391315D01*
X0042189Y0391315D02*
X0048839Y0391315D01*
X0048489Y0390816D02*
X0033463Y0390816D01*
X0034003Y0390318D02*
X0047882Y0390318D01*
X0047260Y0389819D02*
X0034699Y0389819D01*
X0035438Y0389321D02*
X0046436Y0389321D01*
X0045460Y0388822D02*
X0036446Y0388822D01*
X0037263Y0392312D02*
X0032116Y0392312D01*
X0031771Y0392810D02*
X0036391Y0392810D01*
X0035730Y0393309D02*
X0031473Y0393309D01*
X0031175Y0393807D02*
X0035217Y0393807D01*
X0034806Y0394306D02*
X0030953Y0394306D01*
X0030745Y0394804D02*
X0034452Y0394804D01*
X0034166Y0395303D02*
X0030538Y0395303D01*
X0030655Y0395801D02*
X0033977Y0395801D01*
X0033509Y0396300D02*
X0030995Y0396300D01*
X0031789Y0403279D02*
X0034105Y0403279D01*
X0034398Y0403777D02*
X0031577Y0403777D01*
X0031574Y0404276D02*
X0034730Y0404276D01*
X0035111Y0404774D02*
X0031780Y0404774D01*
X0032055Y0405273D02*
X0035569Y0405273D01*
X0036123Y0405771D02*
X0032330Y0405771D01*
X0032702Y0406270D02*
X0036756Y0406270D01*
X0037638Y0406768D02*
X0033084Y0406768D01*
X0033142Y0404361D02*
X0033292Y0394449D01*
X0028250Y0394449D01*
X0027950Y0394432D01*
X0028000Y0404361D01*
X0033142Y0404361D01*
X0033143Y0404276D02*
X0028000Y0404276D01*
X0027997Y0403777D02*
X0033151Y0403777D01*
X0033159Y0403279D02*
X0027995Y0403279D01*
X0027992Y0402780D02*
X0033166Y0402780D01*
X0033499Y0402780D02*
X0032378Y0402780D01*
X0033174Y0402282D02*
X0027990Y0402282D01*
X0027987Y0401783D02*
X0033181Y0401783D01*
X0033189Y0401285D02*
X0027985Y0401285D01*
X0027982Y0400786D02*
X0033196Y0400786D01*
X0033204Y0400288D02*
X0027980Y0400288D01*
X0027977Y0399789D02*
X0033211Y0399789D01*
X0033219Y0399291D02*
X0027975Y0399291D01*
X0027972Y0398792D02*
X0033226Y0398792D01*
X0033234Y0398294D02*
X0027970Y0398294D01*
X0027967Y0397795D02*
X0033242Y0397795D01*
X0033249Y0397297D02*
X0027965Y0397297D01*
X0027962Y0396798D02*
X0033257Y0396798D01*
X0033264Y0396300D02*
X0027960Y0396300D01*
X0027957Y0395801D02*
X0033272Y0395801D01*
X0033279Y0395303D02*
X0027955Y0395303D01*
X0027952Y0394804D02*
X0033287Y0394804D01*
X0032169Y0396798D02*
X0032149Y0396798D01*
X0032188Y0373842D02*
X0030660Y0373585D01*
X0029187Y0373103D01*
X0027804Y0372405D01*
X0026540Y0371509D01*
X0025424Y0370433D01*
X0024481Y0369203D01*
X0023733Y0367846D01*
X0023675Y0367522D01*
X0023694Y0367193D01*
X0023790Y0366878D01*
X0023957Y0366594D01*
X0024186Y0366357D01*
X0024464Y0366180D01*
X0024776Y0366073D01*
X0025104Y0366042D01*
X0025430Y0366089D01*
X0025736Y0366210D01*
X0026005Y0366400D01*
X0026222Y0366648D01*
X0026375Y0366940D01*
X0027061Y0367969D01*
X0027898Y0368879D01*
X0028867Y0369647D01*
X0029943Y0370255D01*
X0031101Y0370688D01*
X0032312Y0370936D01*
X0033548Y0370991D01*
X0034776Y0370854D01*
X0035969Y0370527D01*
X0037095Y0370018D01*
X0038129Y0369340D01*
X0039045Y0368509D01*
X0039292Y0368308D01*
X0039579Y0368171D01*
X0039891Y0368106D01*
X0040209Y0368118D01*
X0040515Y0368204D01*
X0040793Y0368360D01*
X0041025Y0368578D01*
X0041198Y0368845D01*
X0041304Y0369145D01*
X0041335Y0369462D01*
X0041290Y0369777D01*
X0041172Y0370073D01*
X0040987Y0370332D01*
X0040845Y0370443D01*
X0040612Y0370687D01*
X0039461Y0371724D01*
X0038167Y0372578D01*
X0036761Y0373229D01*
X0035273Y0373662D01*
X0033737Y0373868D01*
X0032188Y0373842D01*
X0033639Y0373867D02*
X0033750Y0373867D01*
X0034582Y0370876D02*
X0040402Y0370876D01*
X0040929Y0370377D02*
X0036300Y0370377D01*
X0037308Y0369879D02*
X0041250Y0369879D01*
X0041327Y0369380D02*
X0038068Y0369380D01*
X0038635Y0368882D02*
X0041211Y0368882D01*
X0040817Y0368383D02*
X0039200Y0368383D01*
X0039849Y0371374D02*
X0026400Y0371374D01*
X0025883Y0370876D02*
X0032019Y0370876D01*
X0030269Y0370377D02*
X0025381Y0370377D01*
X0024999Y0369879D02*
X0029276Y0369879D01*
X0028530Y0369380D02*
X0024617Y0369380D01*
X0024304Y0368882D02*
X0027901Y0368882D01*
X0027442Y0368383D02*
X0024029Y0368383D01*
X0023754Y0367885D02*
X0027005Y0367885D01*
X0026673Y0367386D02*
X0023683Y0367386D01*
X0023787Y0366888D02*
X0026348Y0366888D01*
X0025989Y0366389D02*
X0024155Y0366389D01*
X0025289Y0366389D02*
X0020119Y0366389D01*
X0020117Y0365891D02*
X0025296Y0365891D01*
X0025304Y0365392D02*
X0020114Y0365392D01*
X0020112Y0364893D02*
X0025311Y0364893D01*
X0025319Y0364395D02*
X0020109Y0364395D01*
X0020107Y0363896D02*
X0025326Y0363896D01*
X0025334Y0363398D02*
X0020104Y0363398D01*
X0020102Y0362899D02*
X0025341Y0362899D01*
X0025349Y0362401D02*
X0020099Y0362401D01*
X0020097Y0361902D02*
X0025357Y0361902D01*
X0025364Y0361404D02*
X0020094Y0361404D01*
X0020092Y0360905D02*
X0025372Y0360905D01*
X0025379Y0360407D02*
X0020089Y0360407D01*
X0020087Y0359908D02*
X0025387Y0359908D01*
X0025383Y0359779D02*
X0025633Y0359687D01*
X0025852Y0359537D01*
X0026027Y0359337D01*
X0026147Y0359099D01*
X0026205Y0358840D01*
X0026672Y0358025D01*
X0027249Y0357284D01*
X0027923Y0356630D01*
X0028681Y0356076D01*
X0029510Y0355633D01*
X0030597Y0355117D01*
X0031752Y0354780D01*
X0032946Y0354629D01*
X0034149Y0354668D01*
X0035330Y0354897D01*
X0036461Y0355309D01*
X0037512Y0355895D01*
X0038458Y0356639D01*
X0038804Y0356810D01*
X0039179Y0356898D01*
X0039564Y0356898D01*
X0039940Y0356810D01*
X0040286Y0356640D01*
X0040584Y0356395D01*
X0040818Y0356089D01*
X0040977Y0355738D01*
X0041052Y0355360D01*
X0041039Y0354974D01*
X0040939Y0354602D01*
X0040825Y0354395D01*
X0040663Y0354242D01*
X0039445Y0353241D01*
X0038096Y0352424D01*
X0036645Y0351809D01*
X0035120Y0351407D01*
X0033554Y0351227D01*
X0031978Y0351273D01*
X0030425Y0351543D01*
X0028926Y0352033D01*
X0027513Y0352731D01*
X0026214Y0353625D01*
X0025056Y0354694D01*
X0024062Y0355919D01*
X0023254Y0357272D01*
X0022647Y0358727D01*
X0022743Y0359114D01*
X0022928Y0359466D01*
X0023191Y0359765D01*
X0023518Y0359992D01*
X0023890Y0360135D01*
X0024285Y0360185D01*
X0024680Y0360140D01*
X0025054Y0360002D01*
X0025383Y0359779D01*
X0025192Y0359908D02*
X0023398Y0359908D01*
X0022898Y0359410D02*
X0025963Y0359410D01*
X0026189Y0358911D02*
X0022693Y0358911D01*
X0022779Y0358413D02*
X0026450Y0358413D01*
X0026759Y0357914D02*
X0022986Y0357914D01*
X0023194Y0357416D02*
X0027146Y0357416D01*
X0027627Y0356917D02*
X0023466Y0356917D01*
X0023764Y0356419D02*
X0028212Y0356419D01*
X0028972Y0355920D02*
X0024062Y0355920D01*
X0024466Y0355422D02*
X0029955Y0355422D01*
X0031261Y0354923D02*
X0024870Y0354923D01*
X0025348Y0354425D02*
X0040841Y0354425D01*
X0041025Y0354923D02*
X0035402Y0354923D01*
X0036663Y0355422D02*
X0041040Y0355422D01*
X0040894Y0355920D02*
X0037544Y0355920D01*
X0038178Y0356419D02*
X0040555Y0356419D01*
X0040279Y0353926D02*
X0025888Y0353926D01*
X0026501Y0353428D02*
X0039673Y0353428D01*
X0038930Y0352929D02*
X0027226Y0352929D01*
X0028122Y0352431D02*
X0038107Y0352431D01*
X0036936Y0351932D02*
X0029235Y0351932D01*
X0031055Y0351434D02*
X0035221Y0351434D01*
X0038534Y0336971D02*
X0037061Y0336488D01*
X0035678Y0335791D01*
X0034414Y0334895D01*
X0033298Y0333819D01*
X0032355Y0332589D01*
X0031607Y0331232D01*
X0031549Y0330908D01*
X0031568Y0330579D01*
X0031664Y0330264D01*
X0031831Y0329980D01*
X0032060Y0329743D01*
X0032338Y0329566D01*
X0032650Y0329459D01*
X0032978Y0329428D01*
X0033304Y0329474D01*
X0033610Y0329596D01*
X0033879Y0329786D01*
X0034096Y0330034D01*
X0034250Y0330326D01*
X0034935Y0331355D01*
X0035772Y0332265D01*
X0036741Y0333033D01*
X0037817Y0333641D01*
X0038975Y0334074D01*
X0040186Y0334321D01*
X0041422Y0334377D01*
X0042650Y0334240D01*
X0043843Y0333913D01*
X0044969Y0333404D01*
X0046003Y0332726D01*
X0046919Y0331895D01*
X0047166Y0331694D01*
X0047453Y0331557D01*
X0047765Y0331492D01*
X0048083Y0331503D01*
X0048389Y0331590D01*
X0048667Y0331746D01*
X0048899Y0331964D01*
X0049072Y0332231D01*
X0049178Y0332531D01*
X0049209Y0332848D01*
X0049164Y0333163D01*
X0049046Y0333459D01*
X0048861Y0333718D01*
X0048719Y0333829D01*
X0048486Y0334073D01*
X0047335Y0335110D01*
X0046041Y0335964D01*
X0044635Y0336615D01*
X0043147Y0337048D01*
X0041611Y0337254D01*
X0040062Y0337228D01*
X0038534Y0336971D01*
X0038568Y0336977D02*
X0043392Y0336977D01*
X0044930Y0336478D02*
X0037041Y0336478D01*
X0037545Y0333487D02*
X0033043Y0333487D01*
X0032661Y0332989D02*
X0036685Y0332989D01*
X0036056Y0332490D02*
X0032301Y0332490D01*
X0032026Y0331992D02*
X0035521Y0331992D01*
X0035062Y0331493D02*
X0031751Y0331493D01*
X0031565Y0330995D02*
X0034695Y0330995D01*
X0034363Y0330496D02*
X0031594Y0330496D01*
X0031821Y0329998D02*
X0034065Y0329998D01*
X0033366Y0329499D02*
X0032532Y0329499D01*
X0033167Y0329499D02*
X0027992Y0329499D01*
X0027990Y0329001D02*
X0033174Y0329001D01*
X0033182Y0328502D02*
X0027987Y0328502D01*
X0027985Y0328004D02*
X0033190Y0328004D01*
X0033197Y0327505D02*
X0027982Y0327505D01*
X0027980Y0327007D02*
X0033205Y0327007D01*
X0033212Y0326508D02*
X0027977Y0326508D01*
X0027974Y0326010D02*
X0033220Y0326010D01*
X0033227Y0325511D02*
X0027972Y0325511D01*
X0027969Y0325013D02*
X0033235Y0325013D01*
X0033242Y0324514D02*
X0027967Y0324514D01*
X0027964Y0324016D02*
X0033250Y0324016D01*
X0033257Y0323517D02*
X0027962Y0323517D01*
X0027959Y0323019D02*
X0033265Y0323019D01*
X0033257Y0323165D02*
X0033507Y0323073D01*
X0033726Y0322922D01*
X0033901Y0322722D01*
X0034021Y0322485D01*
X0034079Y0322226D01*
X0034546Y0321411D01*
X0035123Y0320670D01*
X0035797Y0320016D01*
X0036555Y0319462D01*
X0037384Y0319019D01*
X0038471Y0318503D01*
X0039626Y0318166D01*
X0040820Y0318015D01*
X0042023Y0318054D01*
X0043204Y0318283D01*
X0044335Y0318695D01*
X0045386Y0319281D01*
X0046332Y0320025D01*
X0046678Y0320196D01*
X0047053Y0320284D01*
X0047439Y0320284D01*
X0047814Y0320196D01*
X0048160Y0320026D01*
X0048458Y0319781D01*
X0048692Y0319475D01*
X0048851Y0319124D01*
X0048926Y0318745D01*
X0048913Y0318360D01*
X0048813Y0317988D01*
X0048699Y0317781D01*
X0048537Y0317627D01*
X0047319Y0316627D01*
X0045970Y0315810D01*
X0044519Y0315195D01*
X0042994Y0314793D01*
X0041428Y0314613D01*
X0039852Y0314659D01*
X0038299Y0314929D01*
X0036800Y0315419D01*
X0035387Y0316117D01*
X0034088Y0317011D01*
X0032930Y0318080D01*
X0031937Y0319304D01*
X0031128Y0320658D01*
X0030521Y0322113D01*
X0030617Y0322500D01*
X0030802Y0322852D01*
X0031065Y0323151D01*
X0031392Y0323378D01*
X0031764Y0323521D01*
X0032159Y0323571D01*
X0032554Y0323526D01*
X0032928Y0323388D01*
X0033257Y0323165D01*
X0033586Y0323019D02*
X0030949Y0323019D01*
X0030628Y0322520D02*
X0034003Y0322520D01*
X0034196Y0322022D02*
X0030560Y0322022D01*
X0030768Y0321523D02*
X0034482Y0321523D01*
X0034847Y0321024D02*
X0030975Y0321024D01*
X0031207Y0320526D02*
X0035271Y0320526D01*
X0035785Y0320027D02*
X0031505Y0320027D01*
X0031802Y0319529D02*
X0036463Y0319529D01*
X0037362Y0319030D02*
X0032159Y0319030D01*
X0032563Y0318532D02*
X0038410Y0318532D01*
X0037953Y0315042D02*
X0043941Y0315042D01*
X0043887Y0318532D02*
X0048919Y0318532D01*
X0048869Y0319030D02*
X0044937Y0319030D01*
X0045701Y0319529D02*
X0048651Y0319529D01*
X0048156Y0320027D02*
X0046336Y0320027D01*
X0047172Y0316538D02*
X0034775Y0316538D01*
X0034060Y0317036D02*
X0047818Y0317036D01*
X0048425Y0317535D02*
X0033520Y0317535D01*
X0032981Y0318033D02*
X0040671Y0318033D01*
X0041394Y0318033D02*
X0048825Y0318033D01*
X0046349Y0316039D02*
X0035545Y0316039D01*
X0036553Y0315541D02*
X0045335Y0315541D01*
X0047760Y0331493D02*
X0047792Y0331493D01*
X0046812Y0331992D02*
X0048917Y0331992D01*
X0049164Y0332490D02*
X0046263Y0332490D01*
X0045603Y0332989D02*
X0049189Y0332989D01*
X0049025Y0333487D02*
X0044785Y0333487D01*
X0043576Y0333986D02*
X0048569Y0333986D01*
X0048029Y0334484D02*
X0033988Y0334484D01*
X0033471Y0333986D02*
X0038739Y0333986D01*
X0036052Y0335980D02*
X0046007Y0335980D01*
X0046772Y0335481D02*
X0035241Y0335481D01*
X0034538Y0334983D02*
X0047476Y0334983D01*
X0039461Y0298496D02*
X0040612Y0297459D01*
X0040845Y0297214D01*
X0040987Y0297103D01*
X0041172Y0296845D01*
X0041290Y0296549D01*
X0041335Y0296234D01*
X0041304Y0295917D01*
X0041198Y0295617D01*
X0041025Y0295350D01*
X0040793Y0295132D01*
X0040515Y0294975D01*
X0040209Y0294889D01*
X0039891Y0294878D01*
X0039579Y0294943D01*
X0039292Y0295080D01*
X0039045Y0295281D01*
X0038129Y0296112D01*
X0037095Y0296790D01*
X0035969Y0297299D01*
X0034776Y0297626D01*
X0033548Y0297763D01*
X0032312Y0297707D01*
X0031101Y0297460D01*
X0029943Y0297027D01*
X0028867Y0296419D01*
X0027898Y0295650D01*
X0027061Y0294741D01*
X0026375Y0293712D01*
X0026222Y0293420D01*
X0026005Y0293172D01*
X0025736Y0292982D01*
X0025430Y0292860D01*
X0025104Y0292814D01*
X0024776Y0292845D01*
X0024464Y0292951D01*
X0024186Y0293128D01*
X0023957Y0293365D01*
X0023790Y0293649D01*
X0023694Y0293965D01*
X0023675Y0294294D01*
X0023733Y0294618D01*
X0024481Y0295975D01*
X0025424Y0297205D01*
X0026540Y0298280D01*
X0027804Y0299177D01*
X0029187Y0299874D01*
X0030660Y0300357D01*
X0032188Y0300614D01*
X0033737Y0300640D01*
X0035273Y0300434D01*
X0036761Y0300001D01*
X0038167Y0299350D01*
X0039461Y0298496D01*
X0039316Y0298591D02*
X0026978Y0298591D01*
X0026345Y0298093D02*
X0039908Y0298093D01*
X0040461Y0297594D02*
X0034890Y0297594D01*
X0034143Y0300586D02*
X0032018Y0300586D01*
X0031760Y0297594D02*
X0025828Y0297594D01*
X0025340Y0297096D02*
X0030128Y0297096D01*
X0029183Y0296597D02*
X0024958Y0296597D01*
X0024576Y0296099D02*
X0028463Y0296099D01*
X0027852Y0295600D02*
X0024275Y0295600D01*
X0024000Y0295102D02*
X0027393Y0295102D01*
X0026969Y0294603D02*
X0023731Y0294603D01*
X0023686Y0294105D02*
X0026637Y0294105D01*
X0026320Y0293606D02*
X0023816Y0293606D01*
X0024218Y0293108D02*
X0025914Y0293108D01*
X0025289Y0293108D02*
X0020119Y0293108D01*
X0020122Y0293606D02*
X0025282Y0293606D01*
X0025274Y0294105D02*
X0020124Y0294105D01*
X0020126Y0294519D02*
X0025268Y0294519D01*
X0025418Y0284607D01*
X0020376Y0284607D01*
X0020076Y0284590D01*
X0020126Y0294519D01*
X0020117Y0292609D02*
X0025297Y0292609D01*
X0025305Y0292111D02*
X0020114Y0292111D01*
X0020112Y0291612D02*
X0025312Y0291612D01*
X0025320Y0291114D02*
X0020109Y0291114D01*
X0020107Y0290615D02*
X0025327Y0290615D01*
X0025335Y0290117D02*
X0020104Y0290117D01*
X0020102Y0289618D02*
X0025342Y0289618D01*
X0025350Y0289120D02*
X0020099Y0289120D01*
X0020097Y0288621D02*
X0025357Y0288621D01*
X0025365Y0288123D02*
X0020094Y0288123D01*
X0020092Y0287624D02*
X0025372Y0287624D01*
X0025380Y0287126D02*
X0020089Y0287126D01*
X0020087Y0286627D02*
X0025388Y0286627D01*
X0025383Y0286551D02*
X0025633Y0286459D01*
X0025852Y0286308D01*
X0026027Y0286108D01*
X0026147Y0285871D01*
X0026205Y0285612D01*
X0026672Y0284797D01*
X0027249Y0284056D01*
X0027923Y0283401D01*
X0028681Y0282848D01*
X0029510Y0282405D01*
X0030597Y0281889D01*
X0031752Y0281551D01*
X0032946Y0281400D01*
X0034149Y0281440D01*
X0035330Y0281669D01*
X0036461Y0282081D01*
X0037512Y0282667D01*
X0038458Y0283411D01*
X0038804Y0283582D01*
X0039179Y0283669D01*
X0039564Y0283670D01*
X0039940Y0283582D01*
X0040286Y0283411D01*
X0040584Y0283167D01*
X0040818Y0282861D01*
X0040977Y0282509D01*
X0041052Y0282131D01*
X0041039Y0281746D01*
X0040939Y0281374D01*
X0040825Y0281167D01*
X0040663Y0281013D01*
X0039445Y0280012D01*
X0038096Y0279196D01*
X0036645Y0278581D01*
X0035120Y0278179D01*
X0033554Y0277999D01*
X0031978Y0278045D01*
X0030425Y0278315D01*
X0028926Y0278805D01*
X0027513Y0279503D01*
X0026214Y0280396D01*
X0025056Y0281466D01*
X0024062Y0282690D01*
X0023254Y0284044D01*
X0022647Y0285499D01*
X0022743Y0285885D01*
X0022928Y0286238D01*
X0023191Y0286537D01*
X0023518Y0286764D01*
X0023890Y0286907D01*
X0024285Y0286957D01*
X0024680Y0286912D01*
X0025054Y0286774D01*
X0025383Y0286551D01*
X0025270Y0286627D02*
X0023322Y0286627D01*
X0022870Y0286129D02*
X0026009Y0286129D01*
X0026201Y0285630D02*
X0022680Y0285630D01*
X0022801Y0285132D02*
X0026480Y0285132D01*
X0026800Y0284633D02*
X0023008Y0284633D01*
X0023216Y0284135D02*
X0027187Y0284135D01*
X0027681Y0283636D02*
X0023498Y0283636D01*
X0023795Y0283138D02*
X0028284Y0283138D01*
X0029071Y0282639D02*
X0024104Y0282639D01*
X0024509Y0282141D02*
X0030066Y0282141D01*
X0029396Y0278651D02*
X0036811Y0278651D01*
X0036568Y0282141D02*
X0041050Y0282141D01*
X0041011Y0281642D02*
X0035193Y0281642D01*
X0034891Y0278153D02*
X0031359Y0278153D01*
X0031442Y0281642D02*
X0024913Y0281642D01*
X0025405Y0281144D02*
X0040801Y0281144D01*
X0040215Y0280645D02*
X0025945Y0280645D01*
X0026577Y0280147D02*
X0039608Y0280147D01*
X0038843Y0279648D02*
X0027302Y0279648D01*
X0028228Y0279150D02*
X0037987Y0279150D01*
X0037463Y0282639D02*
X0040918Y0282639D01*
X0040606Y0283138D02*
X0038110Y0283138D01*
X0039036Y0283636D02*
X0039708Y0283636D01*
X0039264Y0295102D02*
X0040739Y0295102D01*
X0041188Y0295600D02*
X0038693Y0295600D01*
X0038143Y0296099D02*
X0041322Y0296099D01*
X0041271Y0296597D02*
X0037389Y0296597D01*
X0036417Y0297096D02*
X0040992Y0297096D01*
X0038561Y0299090D02*
X0027681Y0299090D01*
X0028620Y0299589D02*
X0037652Y0299589D01*
X0036464Y0300087D02*
X0029836Y0300087D01*
X0028250Y0321221D02*
X0027950Y0321204D01*
X0028000Y0331133D01*
X0033142Y0331133D01*
X0033292Y0321221D01*
X0028250Y0321221D01*
X0027952Y0321523D02*
X0033288Y0321523D01*
X0033280Y0322022D02*
X0027954Y0322022D01*
X0027957Y0322520D02*
X0033272Y0322520D01*
X0032578Y0323517D02*
X0031754Y0323517D01*
X0033159Y0329998D02*
X0027995Y0329998D01*
X0027997Y0330496D02*
X0033152Y0330496D01*
X0033144Y0330995D02*
X0028000Y0330995D01*
X0025418Y0357835D02*
X0020376Y0357835D01*
X0020076Y0357818D01*
X0020126Y0367747D01*
X0025268Y0367747D01*
X0025418Y0357835D01*
X0025417Y0357914D02*
X0020077Y0357914D01*
X0020079Y0358413D02*
X0025409Y0358413D01*
X0025402Y0358911D02*
X0020082Y0358911D01*
X0020084Y0359410D02*
X0025394Y0359410D01*
X0025281Y0366888D02*
X0020122Y0366888D01*
X0020124Y0367386D02*
X0025274Y0367386D01*
X0027053Y0371873D02*
X0039236Y0371873D01*
X0038481Y0372371D02*
X0027756Y0372371D01*
X0028725Y0372870D02*
X0037537Y0372870D01*
X0036283Y0373368D02*
X0029998Y0373368D01*
X0025395Y0286129D02*
X0020084Y0286129D01*
X0020082Y0285630D02*
X0025403Y0285630D01*
X0025410Y0285132D02*
X0020079Y0285132D01*
X0020076Y0284633D02*
X0025418Y0284633D01*
X0028000Y0257905D02*
X0033142Y0257905D01*
X0033292Y0247993D01*
X0028250Y0247993D01*
X0027950Y0247976D01*
X0028000Y0257905D01*
X0027999Y0257714D02*
X0033145Y0257714D01*
X0033153Y0257215D02*
X0027997Y0257215D01*
X0027994Y0256717D02*
X0033160Y0256717D01*
X0033304Y0256246D02*
X0033610Y0256368D01*
X0033879Y0256558D01*
X0034096Y0256806D01*
X0034250Y0257097D01*
X0034935Y0258126D01*
X0035772Y0259036D01*
X0036741Y0259805D01*
X0037817Y0260413D01*
X0038975Y0260846D01*
X0040186Y0261093D01*
X0041422Y0261149D01*
X0042650Y0261011D01*
X0043843Y0260684D01*
X0044969Y0260176D01*
X0046003Y0259498D01*
X0046919Y0258667D01*
X0047166Y0258466D01*
X0047453Y0258329D01*
X0047765Y0258264D01*
X0048083Y0258275D01*
X0048389Y0258361D01*
X0048667Y0258518D01*
X0048899Y0258736D01*
X0049072Y0259002D01*
X0049178Y0259303D01*
X0049209Y0259620D01*
X0049164Y0259935D01*
X0049046Y0260230D01*
X0048861Y0260489D01*
X0048719Y0260600D01*
X0048486Y0260844D01*
X0047335Y0261882D01*
X0046041Y0262736D01*
X0044635Y0263386D01*
X0043147Y0263820D01*
X0041611Y0264026D01*
X0040062Y0264000D01*
X0038534Y0263743D01*
X0037061Y0263260D01*
X0035678Y0262563D01*
X0034414Y0261666D01*
X0033298Y0260591D01*
X0032355Y0259361D01*
X0031607Y0258004D01*
X0031549Y0257679D01*
X0031568Y0257351D01*
X0031664Y0257035D01*
X0031831Y0256751D01*
X0032060Y0256514D01*
X0032338Y0256337D01*
X0032650Y0256230D01*
X0032978Y0256199D01*
X0033304Y0256246D01*
X0033168Y0256218D02*
X0027992Y0256218D01*
X0027989Y0255720D02*
X0033175Y0255720D01*
X0033183Y0255221D02*
X0027987Y0255221D01*
X0027984Y0254722D02*
X0033190Y0254722D01*
X0033198Y0254224D02*
X0027982Y0254224D01*
X0027979Y0253725D02*
X0033205Y0253725D01*
X0033213Y0253227D02*
X0027977Y0253227D01*
X0027974Y0252728D02*
X0033220Y0252728D01*
X0033228Y0252230D02*
X0027972Y0252230D01*
X0027969Y0251731D02*
X0033236Y0251731D01*
X0033243Y0251233D02*
X0027967Y0251233D01*
X0027964Y0250734D02*
X0033251Y0250734D01*
X0033258Y0250236D02*
X0027962Y0250236D01*
X0027959Y0249737D02*
X0033266Y0249737D01*
X0033257Y0249937D02*
X0033507Y0249845D01*
X0033726Y0249694D01*
X0033901Y0249494D01*
X0034021Y0249257D01*
X0034079Y0248997D01*
X0034546Y0248183D01*
X0035123Y0247441D01*
X0035797Y0246787D01*
X0036555Y0246233D01*
X0037384Y0245790D01*
X0038471Y0245275D01*
X0039626Y0244937D01*
X0040820Y0244786D01*
X0042023Y0244826D01*
X0043204Y0245054D01*
X0044335Y0245467D01*
X0045386Y0246053D01*
X0046332Y0246797D01*
X0046678Y0246968D01*
X0047053Y0247055D01*
X0047439Y0247055D01*
X0047814Y0246968D01*
X0048160Y0246797D01*
X0048458Y0246552D01*
X0048692Y0246246D01*
X0048851Y0245895D01*
X0048926Y0245517D01*
X0048913Y0245132D01*
X0048813Y0244759D01*
X0048699Y0244553D01*
X0048537Y0244399D01*
X0047319Y0243398D01*
X0045970Y0242582D01*
X0044519Y0241966D01*
X0042994Y0241565D01*
X0041428Y0241385D01*
X0039852Y0241430D01*
X0038299Y0241701D01*
X0036800Y0242190D01*
X0035387Y0242889D01*
X0034088Y0243782D01*
X0032930Y0244852D01*
X0031937Y0246076D01*
X0031128Y0247430D01*
X0030521Y0248885D01*
X0030617Y0249271D01*
X0030802Y0249624D01*
X0031065Y0249922D01*
X0031392Y0250150D01*
X0031764Y0250292D01*
X0032159Y0250343D01*
X0032554Y0250298D01*
X0032928Y0250160D01*
X0033257Y0249937D01*
X0033663Y0249737D02*
X0030902Y0249737D01*
X0030609Y0249239D02*
X0034025Y0249239D01*
X0034226Y0248740D02*
X0030582Y0248740D01*
X0030790Y0248242D02*
X0034513Y0248242D01*
X0034888Y0247743D02*
X0030997Y0247743D01*
X0031239Y0247245D02*
X0035325Y0247245D01*
X0035853Y0246746D02*
X0031536Y0246746D01*
X0031834Y0246248D02*
X0036536Y0246248D01*
X0037470Y0245749D02*
X0032202Y0245749D01*
X0032606Y0245251D02*
X0038553Y0245251D01*
X0038114Y0241761D02*
X0043740Y0241761D01*
X0043743Y0245251D02*
X0048917Y0245251D01*
X0048880Y0245749D02*
X0044842Y0245749D01*
X0045634Y0246248D02*
X0048691Y0246248D01*
X0048222Y0246746D02*
X0046268Y0246746D01*
X0047085Y0243257D02*
X0034852Y0243257D01*
X0034127Y0243755D02*
X0047754Y0243755D01*
X0048360Y0244254D02*
X0033578Y0244254D01*
X0033038Y0244752D02*
X0048809Y0244752D01*
X0046262Y0242758D02*
X0035652Y0242758D01*
X0036660Y0242260D02*
X0045211Y0242260D01*
X0046871Y0258711D02*
X0048872Y0258711D01*
X0049145Y0259209D02*
X0046321Y0259209D01*
X0045683Y0259708D02*
X0049197Y0259708D01*
X0049055Y0260206D02*
X0044902Y0260206D01*
X0043769Y0260705D02*
X0048619Y0260705D01*
X0048088Y0261203D02*
X0033933Y0261203D01*
X0033416Y0260705D02*
X0038598Y0260705D01*
X0038390Y0263696D02*
X0043573Y0263696D01*
X0045044Y0263197D02*
X0036937Y0263197D01*
X0035948Y0262699D02*
X0046097Y0262699D01*
X0046852Y0262200D02*
X0035166Y0262200D01*
X0034464Y0261702D02*
X0047535Y0261702D01*
X0037451Y0260206D02*
X0033003Y0260206D01*
X0032621Y0259708D02*
X0036618Y0259708D01*
X0035990Y0259209D02*
X0032272Y0259209D01*
X0031997Y0258711D02*
X0035472Y0258711D01*
X0035014Y0258212D02*
X0031722Y0258212D01*
X0031555Y0257714D02*
X0034660Y0257714D01*
X0034328Y0257215D02*
X0031610Y0257215D01*
X0031865Y0256717D02*
X0034018Y0256717D01*
X0033108Y0256218D02*
X0032781Y0256218D01*
X0032721Y0250236D02*
X0031617Y0250236D01*
X0033273Y0249239D02*
X0027957Y0249239D01*
X0027954Y0248740D02*
X0033281Y0248740D01*
X0033288Y0248242D02*
X0027952Y0248242D01*
X0047506Y0404774D02*
X0048235Y0404774D01*
D16*
X0029820Y0399271D02*
X0025370Y0399321D01*
X0025270Y0398571D02*
X0029720Y0398521D01*
X0029670Y0400171D02*
X0025220Y0400221D01*
X0021796Y0363557D02*
X0017346Y0363607D01*
X0017496Y0362707D02*
X0021946Y0362657D01*
X0021846Y0361907D02*
X0017396Y0361957D01*
X0025220Y0326993D02*
X0029670Y0326943D01*
X0029820Y0326043D02*
X0025370Y0326093D01*
X0025270Y0325343D02*
X0029720Y0325293D01*
X0021796Y0290328D02*
X0017346Y0290378D01*
X0017496Y0289478D02*
X0021946Y0289428D01*
X0021846Y0288678D02*
X0017396Y0288728D01*
X0025220Y0253764D02*
X0029670Y0253714D01*
X0029820Y0252814D02*
X0025370Y0252864D01*
X0025270Y0252114D02*
X0029720Y0252064D01*
D17*
X0026170Y0233061D03*
X0026170Y0223061D03*
X0036170Y0223061D03*
X0036170Y0233061D03*
X0046170Y0233061D03*
X0046170Y0223061D03*
X0056170Y0223061D03*
X0056170Y0233061D03*
D18*
X0058493Y0235384D01*
X0058493Y0242234D01*
X0056131Y0244596D01*
X0054556Y0244596D01*
X0049831Y0249321D01*
X0049831Y0256407D01*
X0051800Y0258376D01*
X0066367Y0275305D01*
X0066367Y0315069D01*
X0064398Y0319793D01*
X0052587Y0319793D01*
X0049831Y0322156D01*
X0049831Y0329636D01*
X0055737Y0336329D01*
X0055737Y0352076D01*
X0057045Y0355517D02*
X0057065Y0355539D01*
X0056763Y0362424D02*
X0047329Y0362424D01*
X0047329Y0362989D01*
X0052646Y0362989D01*
X0056763Y0362989D01*
X0056763Y0362424D01*
X0056763Y0362710D02*
X0047329Y0362710D01*
X0047329Y0362989D02*
X0046763Y0362989D01*
X0046763Y0368307D01*
X0046605Y0368307D01*
X0045735Y0368169D01*
X0044896Y0367896D01*
X0044575Y0367732D01*
X0044291Y0368224D01*
X0044298Y0368237D01*
X0044322Y0368477D01*
X0044402Y0368704D01*
X0044385Y0369002D01*
X0044459Y0369291D01*
X0044425Y0369529D01*
X0044449Y0369769D01*
X0044362Y0370055D01*
X0044366Y0370353D01*
X0044276Y0370576D01*
X0044242Y0370815D01*
X0044090Y0371071D01*
X0044023Y0371362D01*
X0043883Y0371558D01*
X0043793Y0371781D01*
X0043554Y0372026D01*
X0043358Y0372373D01*
X0043225Y0372477D01*
X0043127Y0372614D01*
X0042901Y0372755D01*
X0042752Y0372889D01*
X0042410Y0373248D01*
X0042301Y0373296D01*
X0041793Y0373753D01*
X0041661Y0373949D01*
X0041344Y0374158D01*
X0041062Y0374413D01*
X0040839Y0374492D01*
X0040170Y0374933D01*
X0040010Y0375107D01*
X0039666Y0375266D01*
X0039349Y0375476D01*
X0039117Y0375520D01*
X0038390Y0375857D01*
X0038205Y0376005D01*
X0037841Y0376111D01*
X0037496Y0376270D01*
X0037260Y0376280D01*
X0036491Y0376504D01*
X0036286Y0376623D01*
X0035910Y0376673D01*
X0035545Y0376779D01*
X0035310Y0376754D01*
X0034516Y0376860D01*
X0034296Y0376947D01*
X0033917Y0376941D01*
X0033540Y0376991D01*
X0033312Y0376931D01*
X0032511Y0376917D01*
X0032281Y0376970D01*
X0031906Y0376907D01*
X0031526Y0376901D01*
X0031310Y0376807D01*
X0030520Y0376674D01*
X0030284Y0376692D01*
X0029923Y0376573D01*
X0029548Y0376510D01*
X0029348Y0376385D01*
X0028587Y0376135D01*
X0028351Y0376118D01*
X0028012Y0375947D01*
X0027651Y0375829D01*
X0027472Y0375675D01*
X0026756Y0375314D01*
X0026526Y0375262D01*
X0026216Y0375042D01*
X0025877Y0374871D01*
X0025723Y0374692D01*
X0025069Y0374228D01*
X0024849Y0374142D01*
X0024576Y0373879D01*
X0024266Y0373659D01*
X0024141Y0373459D01*
X0023564Y0372903D01*
X0023359Y0372784D01*
X0023128Y0372483D01*
X0022855Y0372220D01*
X0022760Y0372003D01*
X0022273Y0371367D01*
X0022088Y0371219D01*
X0021905Y0370887D01*
X0021851Y0370816D01*
X0020134Y0370816D01*
X0019531Y0370819D01*
X0019524Y0370816D01*
X0019516Y0370816D01*
X0018959Y0370586D01*
X0018401Y0370358D01*
X0018395Y0370352D01*
X0018388Y0370349D01*
X0017962Y0369923D01*
X0017533Y0369499D01*
X0017530Y0369491D01*
X0017525Y0369486D01*
X0017294Y0368929D01*
X0017224Y0368762D01*
X0015863Y0369326D01*
X0014474Y0369326D01*
X0014474Y0406332D01*
X0025629Y0406332D01*
X0025407Y0406113D01*
X0025404Y0406105D01*
X0025399Y0406100D01*
X0025168Y0405543D01*
X0025098Y0405376D01*
X0023737Y0405940D01*
X0021103Y0405940D01*
X0018671Y0404932D01*
X0016809Y0403070D01*
X0015801Y0400637D01*
X0015801Y0398004D01*
X0016809Y0395572D01*
X0018671Y0393710D01*
X0021103Y0392702D01*
X0023737Y0392702D01*
X0025105Y0393269D01*
X0025145Y0393185D01*
X0025340Y0392707D01*
X0025408Y0392638D01*
X0025450Y0392551D01*
X0025836Y0392206D01*
X0026199Y0391839D01*
X0026288Y0391802D01*
X0026361Y0391737D01*
X0026848Y0391567D01*
X0027324Y0391367D01*
X0027421Y0391366D01*
X0027513Y0391334D01*
X0028029Y0391363D01*
X0028545Y0391360D01*
X0028594Y0391380D01*
X0029050Y0391380D01*
X0029105Y0391289D01*
X0029169Y0391073D01*
X0029415Y0390770D01*
X0029615Y0390435D01*
X0029796Y0390300D01*
X0030305Y0389673D01*
X0030399Y0389468D01*
X0030686Y0389204D01*
X0030932Y0388901D01*
X0031130Y0388793D01*
X0031723Y0388246D01*
X0031846Y0388056D01*
X0032168Y0387835D01*
X0032454Y0387570D01*
X0032666Y0387492D01*
X0033331Y0387035D01*
X0033480Y0386865D01*
X0033830Y0386692D01*
X0034151Y0386471D01*
X0034372Y0386424D01*
X0035096Y0386066D01*
X0035267Y0385919D01*
X0035638Y0385798D01*
X0035988Y0385625D01*
X0036213Y0385610D01*
X0036981Y0385360D01*
X0037171Y0385239D01*
X0037556Y0385172D01*
X0037927Y0385051D01*
X0038152Y0385068D01*
X0038947Y0384930D01*
X0039153Y0384837D01*
X0039543Y0384826D01*
X0039927Y0384759D01*
X0040148Y0384808D01*
X0040955Y0384785D01*
X0041172Y0384723D01*
X0041559Y0384767D01*
X0041949Y0384756D01*
X0042160Y0384836D01*
X0042962Y0384929D01*
X0043186Y0384898D01*
X0043563Y0384998D01*
X0043951Y0385042D01*
X0044148Y0385152D01*
X0044929Y0385358D01*
X0045155Y0385359D01*
X0045514Y0385512D01*
X0045891Y0385611D01*
X0046071Y0385748D01*
X0046814Y0386063D01*
X0047037Y0386097D01*
X0047371Y0386299D01*
X0047730Y0386451D01*
X0047889Y0386612D01*
X0048579Y0387031D01*
X0048795Y0387096D01*
X0049097Y0387344D01*
X0049431Y0387546D01*
X0049564Y0387728D01*
X0050101Y0388169D01*
X0050207Y0388210D01*
X0050570Y0388554D01*
X0050957Y0388872D01*
X0050971Y0388898D01*
X0051097Y0388999D01*
X0051160Y0389114D01*
X0051255Y0389204D01*
X0051417Y0389569D01*
X0051617Y0389829D01*
X0051680Y0390063D01*
X0051797Y0390276D01*
X0051832Y0390594D01*
X0051959Y0390874D01*
X0051968Y0391131D01*
X0052035Y0391380D01*
X0051996Y0391677D01*
X0052055Y0391971D01*
X0052005Y0392223D01*
X0052014Y0392480D01*
X0051908Y0392761D01*
X0051899Y0393060D01*
X0051827Y0393219D01*
X0052449Y0394295D01*
X0052770Y0394131D01*
X0053609Y0393859D01*
X0054479Y0393721D01*
X0054637Y0393721D01*
X0054637Y0399038D01*
X0055203Y0399038D01*
X0055203Y0399604D01*
X0054637Y0399604D01*
X0054637Y0404921D01*
X0054479Y0404921D01*
X0053609Y0404783D01*
X0052770Y0404511D01*
X0052449Y0404347D01*
X0052165Y0404838D01*
X0052172Y0404852D01*
X0052196Y0405091D01*
X0052276Y0405319D01*
X0052259Y0405616D01*
X0052333Y0405905D01*
X0052299Y0406144D01*
X0052318Y0406332D01*
X0064874Y0406332D01*
X0064874Y0399604D01*
X0064637Y0399604D01*
X0064637Y0404921D01*
X0064479Y0404921D01*
X0063609Y0404783D01*
X0062770Y0404511D01*
X0061985Y0404110D01*
X0061272Y0403592D01*
X0060649Y0402969D01*
X0060131Y0402256D01*
X0059920Y0401843D01*
X0059710Y0402256D01*
X0059192Y0402969D01*
X0058568Y0403592D01*
X0057855Y0404110D01*
X0057070Y0404511D01*
X0056231Y0404783D01*
X0055361Y0404921D01*
X0055203Y0404921D01*
X0055203Y0399604D01*
X0060520Y0399604D01*
X0064637Y0399604D01*
X0064637Y0399038D01*
X0055203Y0399038D01*
X0055203Y0393721D01*
X0055361Y0393721D01*
X0056231Y0393859D01*
X0057070Y0394131D01*
X0057855Y0394531D01*
X0058568Y0395049D01*
X0059192Y0395673D01*
X0059710Y0396386D01*
X0059920Y0396799D01*
X0060131Y0396386D01*
X0060649Y0395673D01*
X0061272Y0395049D01*
X0061985Y0394531D01*
X0062770Y0394131D01*
X0063609Y0393859D01*
X0064479Y0393721D01*
X0064637Y0393721D01*
X0064637Y0399038D01*
X0064874Y0399038D01*
X0064874Y0374629D01*
X0062620Y0374629D01*
X0062620Y0378526D01*
X0059446Y0381700D01*
X0054957Y0381700D01*
X0051783Y0378526D01*
X0051783Y0374037D01*
X0054957Y0370863D01*
X0058854Y0370863D01*
X0058854Y0368008D01*
X0058357Y0368169D01*
X0057487Y0368307D01*
X0057329Y0368307D01*
X0057329Y0362989D01*
X0056763Y0362989D01*
X0056763Y0368307D01*
X0056605Y0368307D01*
X0055735Y0368169D01*
X0054896Y0367896D01*
X0054111Y0367496D01*
X0053398Y0366978D01*
X0052775Y0366355D01*
X0052257Y0365642D01*
X0052046Y0365229D01*
X0051836Y0365642D01*
X0051317Y0366355D01*
X0050694Y0366978D01*
X0049981Y0367496D01*
X0049196Y0367896D01*
X0048357Y0368169D01*
X0047487Y0368307D01*
X0047329Y0368307D01*
X0047329Y0362989D01*
X0047046Y0362707D02*
X0047046Y0377244D01*
X0050619Y0380817D01*
X0054162Y0380817D01*
X0063217Y0389872D01*
X0063217Y0397618D01*
X0064920Y0399321D01*
X0064637Y0399475D02*
X0055203Y0399475D01*
X0055203Y0397877D02*
X0054637Y0397877D01*
X0054637Y0396278D02*
X0055203Y0396278D01*
X0055203Y0394680D02*
X0054637Y0394680D01*
X0054637Y0401074D02*
X0055203Y0401074D01*
X0055203Y0402672D02*
X0054637Y0402672D01*
X0054637Y0404271D02*
X0055203Y0404271D01*
X0057540Y0404271D02*
X0062300Y0404271D01*
X0060433Y0402672D02*
X0059407Y0402672D01*
X0059631Y0396278D02*
X0060209Y0396278D01*
X0061781Y0394680D02*
X0058059Y0394680D01*
X0060853Y0380293D02*
X0064874Y0380293D01*
X0064874Y0378695D02*
X0062452Y0378695D01*
X0062620Y0377096D02*
X0064874Y0377096D01*
X0064874Y0375498D02*
X0062620Y0375498D01*
X0064273Y0369211D02*
X0064273Y0358896D01*
X0064398Y0358770D01*
X0061567Y0358163D01*
X0057045Y0355516D02*
X0056954Y0355411D01*
X0056865Y0355303D01*
X0056780Y0355193D01*
X0056698Y0355080D01*
X0056618Y0354966D01*
X0056542Y0354849D01*
X0056469Y0354730D01*
X0056399Y0354610D01*
X0056333Y0354487D01*
X0056270Y0354363D01*
X0056210Y0354237D01*
X0056153Y0354110D01*
X0056100Y0353981D01*
X0056051Y0353851D01*
X0056005Y0353719D01*
X0055962Y0353587D01*
X0055923Y0353453D01*
X0055888Y0353318D01*
X0055857Y0353182D01*
X0055829Y0353046D01*
X0055804Y0352908D01*
X0055784Y0352771D01*
X0055767Y0352632D01*
X0055754Y0352494D01*
X0055744Y0352355D01*
X0055739Y0352215D01*
X0055737Y0352076D01*
X0053267Y0356713D02*
X0053862Y0357383D01*
X0053862Y0357383D01*
X0054266Y0357838D01*
X0054111Y0357917D01*
X0053398Y0358435D01*
X0052775Y0359059D01*
X0052257Y0359772D01*
X0052046Y0360185D01*
X0051836Y0359772D01*
X0051317Y0359059D01*
X0050694Y0358435D01*
X0049981Y0357917D01*
X0049196Y0357517D01*
X0048357Y0357245D01*
X0047487Y0357107D01*
X0047329Y0357107D01*
X0047329Y0362424D01*
X0046763Y0362424D01*
X0046763Y0357107D01*
X0046605Y0357107D01*
X0045735Y0357245D01*
X0044896Y0357517D01*
X0044575Y0357681D01*
X0043953Y0356605D01*
X0044025Y0356446D01*
X0044034Y0356146D01*
X0044140Y0355866D01*
X0044131Y0355609D01*
X0044181Y0355357D01*
X0044122Y0355063D01*
X0044161Y0354766D01*
X0044094Y0354517D01*
X0044085Y0354260D01*
X0043958Y0353979D01*
X0043923Y0353662D01*
X0043806Y0353449D01*
X0043743Y0353214D01*
X0043543Y0352954D01*
X0043381Y0352590D01*
X0043286Y0352500D01*
X0043223Y0352385D01*
X0043097Y0352283D01*
X0043083Y0352258D01*
X0042696Y0351940D01*
X0042333Y0351596D01*
X0042227Y0351555D01*
X0041690Y0351114D01*
X0041557Y0350932D01*
X0041223Y0350730D01*
X0040921Y0350482D01*
X0040705Y0350416D01*
X0040015Y0349998D01*
X0039856Y0349837D01*
X0039497Y0349685D01*
X0039163Y0349483D01*
X0038940Y0349449D01*
X0038197Y0349134D01*
X0038017Y0348997D01*
X0037640Y0348897D01*
X0037281Y0348745D01*
X0037055Y0348743D01*
X0036274Y0348538D01*
X0036077Y0348428D01*
X0035689Y0348383D01*
X0035312Y0348284D01*
X0035088Y0348314D01*
X0034286Y0348222D01*
X0034075Y0348142D01*
X0033685Y0348153D01*
X0033298Y0348109D01*
X0033081Y0348171D01*
X0032274Y0348194D01*
X0032053Y0348145D01*
X0031669Y0348212D01*
X0031279Y0348223D01*
X0031073Y0348316D01*
X0030278Y0348454D01*
X0030052Y0348437D01*
X0029682Y0348558D01*
X0029297Y0348625D01*
X0029107Y0348746D01*
X0028339Y0348996D01*
X0028114Y0349011D01*
X0027764Y0349184D01*
X0027393Y0349305D01*
X0027222Y0349452D01*
X0026498Y0349810D01*
X0026277Y0349857D01*
X0025956Y0350078D01*
X0025606Y0350251D01*
X0025457Y0350421D01*
X0024792Y0350878D01*
X0024580Y0350956D01*
X0024294Y0351221D01*
X0023972Y0351442D01*
X0023849Y0351631D01*
X0023256Y0352179D01*
X0023058Y0352287D01*
X0022812Y0352590D01*
X0022525Y0352854D01*
X0022431Y0353059D01*
X0021922Y0353686D01*
X0021741Y0353821D01*
X0021541Y0354156D01*
X0021295Y0354459D01*
X0021230Y0354675D01*
X0021176Y0354766D01*
X0020720Y0354766D01*
X0020671Y0354746D01*
X0020155Y0354749D01*
X0019639Y0354720D01*
X0019547Y0354752D01*
X0019450Y0354752D01*
X0018974Y0354952D01*
X0018487Y0355123D01*
X0018414Y0355188D01*
X0018325Y0355225D01*
X0018165Y0355387D01*
X0018165Y0351898D01*
X0017614Y0350568D01*
X0014868Y0347822D01*
X0014868Y0321336D01*
X0017069Y0319869D01*
X0020149Y0319869D01*
X0018671Y0320481D01*
X0016809Y0322343D01*
X0015801Y0324776D01*
X0015801Y0327409D01*
X0016809Y0329842D01*
X0018671Y0331704D01*
X0021103Y0332711D01*
X0023737Y0332711D01*
X0025098Y0332148D01*
X0025168Y0332315D01*
X0025399Y0332871D01*
X0025404Y0332877D01*
X0025407Y0332885D01*
X0025836Y0333309D01*
X0026262Y0333735D01*
X0026269Y0333738D01*
X0026275Y0333743D01*
X0026834Y0333972D01*
X0027390Y0334202D01*
X0027398Y0334202D01*
X0027405Y0334205D01*
X0028009Y0334202D01*
X0029725Y0334202D01*
X0029779Y0334273D01*
X0029962Y0334605D01*
X0030147Y0334753D01*
X0030634Y0335389D01*
X0030729Y0335605D01*
X0031002Y0335869D01*
X0031233Y0336170D01*
X0031438Y0336289D01*
X0032015Y0336845D01*
X0032140Y0337045D01*
X0032450Y0337264D01*
X0032723Y0337528D01*
X0032943Y0337614D01*
X0033597Y0338078D01*
X0033751Y0338257D01*
X0034090Y0338428D01*
X0034400Y0338647D01*
X0034630Y0338700D01*
X0035346Y0339060D01*
X0035525Y0339214D01*
X0035886Y0339333D01*
X0036225Y0339504D01*
X0036461Y0339521D01*
X0037222Y0339771D01*
X0037423Y0339896D01*
X0037797Y0339959D01*
X0038158Y0340077D01*
X0038394Y0340060D01*
X0039184Y0340193D01*
X0039400Y0340287D01*
X0039780Y0340293D01*
X0040155Y0340356D01*
X0040385Y0340303D01*
X0041186Y0340316D01*
X0041414Y0340377D01*
X0041791Y0340326D01*
X0042171Y0340333D01*
X0042390Y0340246D01*
X0043184Y0340140D01*
X0043419Y0340165D01*
X0043784Y0340059D01*
X0044160Y0340009D01*
X0044365Y0339890D01*
X0045134Y0339666D01*
X0045370Y0339656D01*
X0045715Y0339497D01*
X0046079Y0339391D01*
X0046264Y0339243D01*
X0046991Y0338906D01*
X0047223Y0338861D01*
X0047540Y0338652D01*
X0047884Y0338493D01*
X0048044Y0338319D01*
X0048713Y0337877D01*
X0048936Y0337798D01*
X0049218Y0337544D01*
X0049535Y0337335D01*
X0049667Y0337139D01*
X0050175Y0336681D01*
X0050284Y0336633D01*
X0050626Y0336275D01*
X0050758Y0336156D01*
X0052118Y0337697D01*
X0052118Y0353692D01*
X0053267Y0356713D01*
X0053267Y0356713D01*
X0053267Y0356713D01*
X0053115Y0356316D02*
X0044029Y0356316D01*
X0044148Y0354717D02*
X0052508Y0354717D01*
X0052118Y0353118D02*
X0043669Y0353118D01*
X0042185Y0351520D02*
X0052118Y0351520D01*
X0052118Y0349921D02*
X0039939Y0349921D01*
X0040003Y0340330D02*
X0014868Y0340330D01*
X0014868Y0338732D02*
X0034694Y0338732D01*
X0035460Y0348323D02*
X0052118Y0348323D01*
X0052118Y0346724D02*
X0014868Y0346724D01*
X0014868Y0345126D02*
X0052118Y0345126D01*
X0052118Y0343527D02*
X0014868Y0343527D01*
X0014868Y0341929D02*
X0052118Y0341929D01*
X0051406Y0341841D02*
X0051406Y0358346D01*
X0047046Y0362707D01*
X0057046Y0362707D01*
X0056763Y0364308D02*
X0057329Y0364308D01*
X0057329Y0365907D02*
X0056763Y0365907D01*
X0056763Y0367505D02*
X0057329Y0367505D01*
X0058854Y0369104D02*
X0044411Y0369104D01*
X0044258Y0370702D02*
X0058854Y0370702D01*
X0061567Y0358163D02*
X0061369Y0358118D01*
X0061171Y0358068D01*
X0060975Y0358013D01*
X0060780Y0357954D01*
X0060586Y0357890D01*
X0060395Y0357821D01*
X0060204Y0357747D01*
X0060016Y0357669D01*
X0059830Y0357586D01*
X0059646Y0357499D01*
X0059464Y0357407D01*
X0059284Y0357311D01*
X0059107Y0357211D01*
X0058932Y0357106D01*
X0058760Y0356997D01*
X0058590Y0356884D01*
X0058424Y0356767D01*
X0058260Y0356645D01*
X0058099Y0356520D01*
X0057941Y0356391D01*
X0057787Y0356258D01*
X0057636Y0356122D01*
X0057488Y0355981D01*
X0057343Y0355838D01*
X0057202Y0355690D01*
X0057065Y0355540D01*
X0054117Y0357914D02*
X0049975Y0357914D01*
X0051647Y0359513D02*
X0052445Y0359513D01*
X0052449Y0365907D02*
X0051643Y0365907D01*
X0049964Y0367505D02*
X0054128Y0367505D01*
X0053519Y0372301D02*
X0043399Y0372301D01*
X0041695Y0373899D02*
X0051920Y0373899D01*
X0051783Y0375498D02*
X0039234Y0375498D01*
X0037810Y0385089D02*
X0014474Y0385089D01*
X0014474Y0386687D02*
X0033837Y0386687D01*
X0031680Y0388286D02*
X0014474Y0388286D01*
X0014474Y0389884D02*
X0030134Y0389884D01*
X0027048Y0391483D02*
X0014474Y0391483D01*
X0014474Y0393081D02*
X0020188Y0393081D01*
X0017701Y0394680D02*
X0014474Y0394680D01*
X0014474Y0396278D02*
X0016516Y0396278D01*
X0015854Y0397877D02*
X0014474Y0397877D01*
X0014474Y0399475D02*
X0015801Y0399475D01*
X0015982Y0401074D02*
X0014474Y0401074D01*
X0014474Y0402672D02*
X0016644Y0402672D01*
X0018010Y0404271D02*
X0014474Y0404271D01*
X0014474Y0405869D02*
X0020934Y0405869D01*
X0023907Y0405869D02*
X0025303Y0405869D01*
X0025187Y0393081D02*
X0024652Y0393081D01*
X0027121Y0375498D02*
X0014474Y0375498D01*
X0014474Y0377096D02*
X0051783Y0377096D01*
X0051951Y0378695D02*
X0014474Y0378695D01*
X0014474Y0380293D02*
X0053550Y0380293D01*
X0051632Y0389884D02*
X0064874Y0389884D01*
X0064874Y0388286D02*
X0050287Y0388286D01*
X0052021Y0391483D02*
X0064874Y0391483D01*
X0064874Y0393081D02*
X0051889Y0393081D01*
X0052324Y0405869D02*
X0064874Y0405869D01*
X0064874Y0404271D02*
X0064637Y0404271D01*
X0064637Y0402672D02*
X0064874Y0402672D01*
X0064874Y0401074D02*
X0064637Y0401074D01*
X0064637Y0397877D02*
X0064874Y0397877D01*
X0064874Y0396278D02*
X0064637Y0396278D01*
X0064637Y0394680D02*
X0064874Y0394680D01*
X0064874Y0386687D02*
X0048012Y0386687D01*
X0047329Y0367505D02*
X0046763Y0367505D01*
X0046763Y0365907D02*
X0047329Y0365907D01*
X0047329Y0364308D02*
X0046763Y0364308D01*
X0046763Y0361111D02*
X0047329Y0361111D01*
X0047329Y0359513D02*
X0046763Y0359513D01*
X0046763Y0357914D02*
X0047329Y0357914D01*
X0047419Y0338732D02*
X0052118Y0338732D01*
X0052118Y0340330D02*
X0042177Y0340330D01*
X0042025Y0340330D02*
X0041762Y0340330D01*
X0041239Y0340330D02*
X0040266Y0340330D01*
X0034083Y0311919D02*
X0034871Y0311132D01*
X0049438Y0311132D01*
X0047469Y0309163D01*
X0047469Y0297352D01*
X0051013Y0295778D01*
X0061249Y0295778D01*
X0062824Y0292234D01*
X0062824Y0285541D01*
X0058493Y0282785D01*
X0058887Y0276093D01*
X0058493Y0273337D01*
X0055343Y0272549D01*
X0020698Y0270974D01*
X0016761Y0270581D01*
X0016761Y0206801D01*
X0018335Y0204045D01*
X0054950Y0204045D01*
X0056513Y0211995D02*
X0056513Y0214491D01*
X0051197Y0214491D01*
X0051197Y0214859D01*
X0056513Y0214859D01*
X0056513Y0218261D01*
X0058158Y0218261D01*
X0058811Y0218914D01*
X0058811Y0211995D01*
X0057379Y0211995D01*
X0056513Y0211995D01*
X0056513Y0212449D02*
X0058811Y0212449D01*
X0058811Y0214048D02*
X0056513Y0214048D01*
X0056513Y0215647D02*
X0058811Y0215647D01*
X0058811Y0217245D02*
X0056513Y0217245D01*
X0058099Y0208376D02*
X0059280Y0207195D01*
X0059280Y0201289D01*
X0057312Y0200108D01*
X0052587Y0200108D01*
X0049831Y0197746D01*
X0049831Y0145778D01*
X0048650Y0143809D01*
X0028178Y0143809D01*
X0026997Y0142628D01*
X0026997Y0122549D01*
X0020304Y0115856D01*
X0020304Y0109951D01*
X0025422Y0102864D01*
X0026603Y0098533D01*
X0027784Y0096171D01*
X0025905Y0085447D02*
X0019427Y0085447D01*
X0014847Y0080867D01*
X0014847Y0074389D01*
X0019427Y0069809D01*
X0025905Y0069809D01*
X0030485Y0074389D01*
X0030485Y0080867D01*
X0025905Y0085447D01*
X0026783Y0084569D02*
X0050057Y0084569D01*
X0050570Y0085466D02*
X0048505Y0081852D01*
X0048338Y0081686D01*
X0048151Y0081232D01*
X0047907Y0080806D01*
X0047877Y0080573D01*
X0047787Y0080356D01*
X0047787Y0079865D01*
X0047726Y0079378D01*
X0047787Y0079151D01*
X0047787Y0068143D01*
X0047151Y0067507D01*
X0031001Y0067507D01*
X0029671Y0066956D01*
X0028653Y0065938D01*
X0020386Y0057670D01*
X0020035Y0056824D01*
X0019193Y0056824D01*
X0018157Y0056395D01*
X0017364Y0055602D01*
X0016935Y0054566D01*
X0016935Y0046044D01*
X0017364Y0045008D01*
X0018157Y0044215D01*
X0019193Y0043786D01*
X0027714Y0043786D01*
X0028375Y0044060D01*
X0029035Y0043786D01*
X0037557Y0043786D01*
X0038593Y0044215D01*
X0039187Y0044809D01*
X0039202Y0044805D01*
X0042954Y0044805D01*
X0042954Y0050121D01*
X0043323Y0050121D01*
X0043323Y0050489D01*
X0048639Y0050489D01*
X0048639Y0054242D01*
X0048516Y0054700D01*
X0048279Y0055110D01*
X0047944Y0055445D01*
X0047533Y0055682D01*
X0047076Y0055805D01*
X0043323Y0055805D01*
X0043323Y0050489D01*
X0042954Y0050489D01*
X0042954Y0055805D01*
X0039202Y0055805D01*
X0039187Y0055801D01*
X0038593Y0056395D01*
X0037557Y0056824D01*
X0029775Y0056824D01*
X0033220Y0060269D01*
X0049370Y0060269D01*
X0050700Y0060820D01*
X0053456Y0063576D01*
X0054474Y0064594D01*
X0055025Y0065924D01*
X0055025Y0071219D01*
X0056435Y0069809D01*
X0062913Y0069809D01*
X0064874Y0071770D01*
X0064874Y0050080D01*
X0064594Y0050242D01*
X0061871Y0050971D01*
X0059052Y0050971D01*
X0056329Y0050242D01*
X0053888Y0048832D01*
X0051895Y0046839D01*
X0050485Y0044398D01*
X0049756Y0041675D01*
X0049756Y0041339D01*
X0047801Y0043294D01*
X0043988Y0043294D01*
X0043796Y0043102D01*
X0018552Y0043803D01*
X0017486Y0044869D01*
X0014474Y0044869D01*
X0014474Y0085779D01*
X0014661Y0085711D01*
X0015253Y0085466D01*
X0015335Y0085466D01*
X0015411Y0085438D01*
X0016052Y0085466D01*
X0050570Y0085466D01*
X0049144Y0082970D02*
X0028382Y0082970D01*
X0029980Y0081372D02*
X0048208Y0081372D01*
X0047776Y0079773D02*
X0030485Y0079773D01*
X0030485Y0078175D02*
X0047787Y0078175D01*
X0047787Y0076576D02*
X0030485Y0076576D01*
X0030485Y0074978D02*
X0047787Y0074978D01*
X0047787Y0073379D02*
X0029475Y0073379D01*
X0027876Y0071780D02*
X0047787Y0071780D01*
X0047787Y0070182D02*
X0026278Y0070182D01*
X0026504Y0063788D02*
X0014474Y0063788D01*
X0014474Y0065386D02*
X0028102Y0065386D01*
X0029742Y0066985D02*
X0014474Y0066985D01*
X0014474Y0068583D02*
X0047787Y0068583D01*
X0051406Y0066644D02*
X0048650Y0063888D01*
X0031721Y0063888D01*
X0023454Y0055620D01*
X0023454Y0050305D01*
X0021708Y0058992D02*
X0014474Y0058992D01*
X0014474Y0057394D02*
X0020271Y0057394D01*
X0019055Y0070182D02*
X0014474Y0070182D01*
X0014474Y0071780D02*
X0017456Y0071780D01*
X0015858Y0073379D02*
X0014474Y0073379D01*
X0014474Y0074978D02*
X0014847Y0074978D01*
X0014847Y0076576D02*
X0014474Y0076576D01*
X0014474Y0078175D02*
X0014847Y0078175D01*
X0014847Y0079773D02*
X0014474Y0079773D01*
X0014474Y0081372D02*
X0015352Y0081372D01*
X0014474Y0082970D02*
X0016951Y0082970D01*
X0018549Y0084569D02*
X0014474Y0084569D01*
X0015973Y0089085D02*
X0052194Y0089085D01*
X0054162Y0089872D01*
X0054480Y0094475D02*
X0052256Y0094475D01*
X0050484Y0092704D01*
X0030826Y0092704D01*
X0032387Y0094265D01*
X0032387Y0098078D01*
X0031797Y0098668D01*
X0035588Y0098668D01*
X0036249Y0098942D01*
X0036909Y0098668D01*
X0045431Y0098668D01*
X0046467Y0099097D01*
X0047061Y0099691D01*
X0047076Y0099687D01*
X0050828Y0099687D01*
X0050828Y0105003D01*
X0051197Y0105003D01*
X0051197Y0099687D01*
X0054480Y0099687D01*
X0054480Y0094475D01*
X0054480Y0095758D02*
X0032387Y0095758D01*
X0032387Y0097357D02*
X0054480Y0097357D01*
X0054480Y0098955D02*
X0046124Y0098955D01*
X0047061Y0110683D02*
X0046467Y0111277D01*
X0045431Y0111706D01*
X0036909Y0111706D01*
X0036249Y0111432D01*
X0035588Y0111706D01*
X0027067Y0111706D01*
X0026031Y0111277D01*
X0025238Y0110484D01*
X0024926Y0109732D01*
X0023923Y0111121D01*
X0023923Y0114357D01*
X0030065Y0120499D01*
X0030616Y0121829D01*
X0030616Y0140190D01*
X0048383Y0140190D01*
X0048418Y0140185D01*
X0043981Y0135749D01*
X0043981Y0129271D01*
X0048561Y0124691D01*
X0052512Y0124691D01*
X0052512Y0111593D01*
X0052887Y0110687D01*
X0051197Y0110687D01*
X0051197Y0105371D01*
X0050828Y0105371D01*
X0050828Y0110687D01*
X0047076Y0110687D01*
X0047061Y0110683D01*
X0047122Y0126130D02*
X0030616Y0126130D01*
X0030616Y0127728D02*
X0045524Y0127728D01*
X0043981Y0129327D02*
X0030616Y0129327D01*
X0030616Y0130925D02*
X0043981Y0130925D01*
X0043981Y0132524D02*
X0030616Y0132524D01*
X0030616Y0134122D02*
X0043981Y0134122D01*
X0043981Y0135721D02*
X0030616Y0135721D01*
X0030616Y0137319D02*
X0045552Y0137319D01*
X0047151Y0138918D02*
X0030616Y0138918D01*
X0030616Y0124531D02*
X0052512Y0124531D01*
X0052512Y0122933D02*
X0030616Y0122933D01*
X0030411Y0121334D02*
X0052512Y0121334D01*
X0052512Y0119736D02*
X0029301Y0119736D01*
X0027703Y0118137D02*
X0052512Y0118137D01*
X0052512Y0116539D02*
X0026104Y0116539D01*
X0025097Y0110145D02*
X0024628Y0110145D01*
X0023923Y0111743D02*
X0052512Y0111743D01*
X0052512Y0113342D02*
X0023923Y0113342D01*
X0024506Y0114940D02*
X0052512Y0114940D01*
X0051197Y0110145D02*
X0050828Y0110145D01*
X0050828Y0108546D02*
X0051197Y0108546D01*
X0051197Y0106948D02*
X0050828Y0106948D01*
X0050828Y0103751D02*
X0051197Y0103751D01*
X0051197Y0102152D02*
X0050828Y0102152D01*
X0050828Y0100554D02*
X0051197Y0100554D01*
X0051940Y0094160D02*
X0032282Y0094160D01*
X0031944Y0058992D02*
X0064874Y0058992D01*
X0064874Y0057394D02*
X0030345Y0057394D01*
X0024905Y0062189D02*
X0014474Y0062189D01*
X0014474Y0060591D02*
X0023306Y0060591D01*
X0017766Y0044606D02*
X0017749Y0044606D01*
X0016935Y0046204D02*
X0014474Y0046204D01*
X0014474Y0047803D02*
X0016935Y0047803D01*
X0016935Y0049401D02*
X0014474Y0049401D01*
X0014474Y0051000D02*
X0016935Y0051000D01*
X0016935Y0052598D02*
X0014474Y0052598D01*
X0014474Y0054197D02*
X0016935Y0054197D01*
X0017557Y0055795D02*
X0014474Y0055795D01*
X0015580Y0040266D02*
X0043926Y0039478D01*
X0045894Y0038691D01*
X0047076Y0044805D02*
X0047533Y0044928D01*
X0047944Y0045165D01*
X0048279Y0045500D01*
X0048516Y0045910D01*
X0048639Y0046368D01*
X0048639Y0050121D01*
X0043323Y0050121D01*
X0043323Y0044805D01*
X0047076Y0044805D01*
X0048088Y0043007D02*
X0050113Y0043007D01*
X0049756Y0041409D02*
X0049686Y0041409D01*
X0050605Y0044606D02*
X0038983Y0044606D01*
X0042954Y0046204D02*
X0043323Y0046204D01*
X0043323Y0047803D02*
X0042954Y0047803D01*
X0042954Y0049401D02*
X0043323Y0049401D01*
X0043323Y0051000D02*
X0042954Y0051000D01*
X0042954Y0052598D02*
X0043323Y0052598D01*
X0043323Y0054197D02*
X0042954Y0054197D01*
X0042954Y0055795D02*
X0043323Y0055795D01*
X0047112Y0055795D02*
X0064874Y0055795D01*
X0064874Y0054197D02*
X0048639Y0054197D01*
X0048639Y0052598D02*
X0064874Y0052598D01*
X0064874Y0051000D02*
X0048639Y0051000D01*
X0048639Y0049401D02*
X0054874Y0049401D01*
X0052859Y0047803D02*
X0048639Y0047803D01*
X0048595Y0046204D02*
X0051528Y0046204D01*
X0050148Y0060591D02*
X0064874Y0060591D01*
X0064874Y0062189D02*
X0052070Y0062189D01*
X0051406Y0066644D02*
X0051406Y0079636D01*
X0054556Y0085148D01*
X0057706Y0085935D01*
X0058099Y0088297D01*
X0058099Y0110344D01*
X0056131Y0112313D01*
X0056131Y0124518D01*
X0059674Y0128061D01*
X0059674Y0136329D01*
X0052981Y0142234D01*
X0052981Y0142628D01*
X0052587Y0183573D01*
X0052587Y0196171D01*
X0058493Y0196171D01*
X0062430Y0199321D01*
X0062430Y0228061D01*
X0043139Y0228061D01*
X0036170Y0233061D01*
X0025905Y0194935D02*
X0030485Y0190355D01*
X0030485Y0183877D01*
X0025905Y0179297D01*
X0019427Y0179297D01*
X0018017Y0180707D01*
X0018017Y0166019D01*
X0018157Y0166159D01*
X0019193Y0166588D01*
X0027714Y0166588D01*
X0028375Y0166314D01*
X0029035Y0166588D01*
X0037557Y0166588D01*
X0038593Y0166159D01*
X0039187Y0165565D01*
X0039202Y0165569D01*
X0042954Y0165569D01*
X0042954Y0160253D01*
X0043323Y0160253D01*
X0043323Y0165569D01*
X0046213Y0165569D01*
X0046213Y0197170D01*
X0046168Y0197306D01*
X0046213Y0197885D01*
X0046213Y0198466D01*
X0046267Y0198598D01*
X0046278Y0198741D01*
X0046541Y0199259D01*
X0046764Y0199796D01*
X0046865Y0199897D01*
X0046930Y0200025D01*
X0047371Y0200403D01*
X0047394Y0200426D01*
X0018565Y0200426D01*
X0018078Y0200364D01*
X0018017Y0200381D01*
X0018017Y0193525D01*
X0019427Y0194935D01*
X0025905Y0194935D01*
X0025974Y0194866D02*
X0046213Y0194866D01*
X0046213Y0196464D02*
X0018017Y0196464D01*
X0018017Y0194866D02*
X0019358Y0194866D01*
X0018017Y0198063D02*
X0046213Y0198063D01*
X0046708Y0199661D02*
X0018017Y0199661D01*
X0021091Y0208376D02*
X0019517Y0209557D01*
X0019517Y0248140D01*
X0022420Y0251437D01*
X0022420Y0252864D01*
X0022548Y0233061D02*
X0021879Y0232392D01*
X0021879Y0216250D01*
X0023847Y0214281D01*
X0021091Y0208376D02*
X0058099Y0208376D01*
X0058741Y0218844D02*
X0058811Y0218844D01*
X0055203Y0252581D02*
X0055203Y0253147D01*
X0060520Y0253147D01*
X0064637Y0253147D01*
X0064637Y0252581D01*
X0055203Y0252581D01*
X0056763Y0289196D02*
X0047329Y0289196D01*
X0047329Y0289761D01*
X0052646Y0289761D01*
X0056763Y0289761D01*
X0056763Y0289196D01*
X0056918Y0300502D02*
X0056918Y0313494D01*
X0055203Y0325810D02*
X0055203Y0326375D01*
X0060520Y0326375D01*
X0064637Y0326375D01*
X0064637Y0325810D01*
X0055203Y0325810D01*
X0055203Y0325944D02*
X0064637Y0325944D01*
X0061986Y0316174D02*
X0062748Y0314345D01*
X0062748Y0299078D01*
X0062591Y0299139D01*
X0061969Y0299396D01*
X0061921Y0299396D01*
X0061876Y0299414D01*
X0061203Y0299396D01*
X0051781Y0299396D01*
X0051088Y0299704D01*
X0051088Y0307664D01*
X0051488Y0308064D01*
X0051488Y0308064D01*
X0052506Y0309082D01*
X0053057Y0310412D01*
X0053057Y0311852D01*
X0052506Y0313182D01*
X0051488Y0314200D01*
X0050158Y0314751D01*
X0049870Y0314751D01*
X0050101Y0314941D01*
X0050207Y0314981D01*
X0050570Y0315326D01*
X0050957Y0315644D01*
X0050971Y0315669D01*
X0051097Y0315770D01*
X0051160Y0315885D01*
X0051255Y0315976D01*
X0051417Y0316340D01*
X0051429Y0316356D01*
X0051868Y0316174D01*
X0052011Y0316174D01*
X0052147Y0316130D01*
X0052726Y0316174D01*
X0061986Y0316174D01*
X0062578Y0314754D02*
X0049874Y0314754D01*
X0051427Y0316353D02*
X0051437Y0316353D01*
X0052517Y0313156D02*
X0062748Y0313156D01*
X0062748Y0311557D02*
X0053057Y0311557D01*
X0052869Y0309959D02*
X0062748Y0309959D01*
X0062748Y0308360D02*
X0051784Y0308360D01*
X0051088Y0306762D02*
X0062748Y0306762D01*
X0062748Y0305163D02*
X0051088Y0305163D01*
X0051088Y0303565D02*
X0062748Y0303565D01*
X0062748Y0301966D02*
X0051088Y0301966D01*
X0051088Y0300368D02*
X0062748Y0300368D01*
X0051621Y0337133D02*
X0049674Y0337133D01*
X0039202Y0304439D02*
X0043139Y0300502D01*
X0043139Y0294203D01*
X0041564Y0292628D01*
X0041564Y0285541D01*
X0044320Y0282785D01*
X0044320Y0277667D01*
X0043532Y0276093D01*
X0016761Y0276093D01*
X0014398Y0274911D01*
X0014398Y0152864D01*
X0018335Y0150502D01*
X0040383Y0150502D01*
X0042826Y0154569D02*
X0042954Y0154569D01*
X0042954Y0159885D01*
X0043323Y0159885D01*
X0043323Y0154569D01*
X0046213Y0154569D01*
X0046213Y0147428D01*
X0043818Y0147428D01*
X0044986Y0148595D01*
X0044986Y0152409D01*
X0042826Y0154569D01*
X0042954Y0154903D02*
X0043323Y0154903D01*
X0043323Y0156502D02*
X0042954Y0156502D01*
X0042954Y0158100D02*
X0043323Y0158100D01*
X0043323Y0159699D02*
X0042954Y0159699D01*
X0042954Y0161297D02*
X0043323Y0161297D01*
X0043323Y0162896D02*
X0042954Y0162896D01*
X0042954Y0164494D02*
X0043323Y0164494D01*
X0044090Y0153305D02*
X0046213Y0153305D01*
X0046213Y0151706D02*
X0044986Y0151706D01*
X0044986Y0150108D02*
X0046213Y0150108D01*
X0046213Y0148509D02*
X0044900Y0148509D01*
X0046213Y0166093D02*
X0038659Y0166093D01*
X0046213Y0167691D02*
X0018017Y0167691D01*
X0018017Y0166093D02*
X0018091Y0166093D01*
X0018017Y0169290D02*
X0046213Y0169290D01*
X0046213Y0170888D02*
X0018017Y0170888D01*
X0018017Y0172487D02*
X0046213Y0172487D01*
X0046213Y0174085D02*
X0018017Y0174085D01*
X0018017Y0175684D02*
X0046213Y0175684D01*
X0046213Y0177282D02*
X0018017Y0177282D01*
X0018017Y0178881D02*
X0046213Y0178881D01*
X0046213Y0180479D02*
X0027087Y0180479D01*
X0028685Y0182078D02*
X0046213Y0182078D01*
X0046213Y0183676D02*
X0030284Y0183676D01*
X0030485Y0185275D02*
X0046213Y0185275D01*
X0046213Y0186873D02*
X0030485Y0186873D01*
X0030485Y0188472D02*
X0046213Y0188472D01*
X0046213Y0190070D02*
X0030485Y0190070D01*
X0029171Y0191669D02*
X0046213Y0191669D01*
X0046213Y0193267D02*
X0027573Y0193267D01*
X0026170Y0233061D02*
X0022548Y0233061D01*
X0012036Y0273730D02*
X0013365Y0284508D01*
X0014546Y0289478D01*
X0012036Y0273730D02*
X0012036Y0150896D01*
X0017154Y0146959D01*
X0021879Y0146959D01*
X0023060Y0145778D01*
X0023060Y0124911D01*
X0016761Y0118612D01*
X0016761Y0110344D01*
X0011249Y0103652D01*
X0011249Y0093415D01*
X0015973Y0089085D01*
X0018017Y0180479D02*
X0018245Y0180479D01*
X0031721Y0304439D02*
X0039202Y0304439D01*
X0034083Y0311919D02*
X0031721Y0314675D01*
X0026997Y0316250D01*
X0015973Y0316250D01*
X0011249Y0319400D01*
X0011249Y0349321D01*
X0014546Y0352618D01*
X0014546Y0362707D01*
X0016399Y0369104D02*
X0017366Y0369104D01*
X0019241Y0370702D02*
X0014474Y0370702D01*
X0014474Y0372301D02*
X0022939Y0372301D01*
X0024597Y0373899D02*
X0014474Y0373899D01*
X0014474Y0381892D02*
X0064874Y0381892D01*
X0064874Y0383490D02*
X0014474Y0383490D01*
X0018165Y0354717D02*
X0021206Y0354717D01*
X0022383Y0353118D02*
X0018165Y0353118D01*
X0018008Y0351520D02*
X0023921Y0351520D01*
X0026183Y0349921D02*
X0016967Y0349921D01*
X0015369Y0348323D02*
X0031031Y0348323D01*
X0032265Y0337133D02*
X0014868Y0337133D01*
X0014868Y0335535D02*
X0030698Y0335535D01*
X0026747Y0333936D02*
X0014868Y0333936D01*
X0014868Y0332338D02*
X0020202Y0332338D01*
X0017706Y0330739D02*
X0014868Y0330739D01*
X0014868Y0329141D02*
X0016518Y0329141D01*
X0015856Y0327542D02*
X0014868Y0327542D01*
X0014868Y0325944D02*
X0015801Y0325944D01*
X0015980Y0324345D02*
X0014868Y0324345D01*
X0014868Y0322747D02*
X0016642Y0322747D01*
X0018004Y0321148D02*
X0015150Y0321148D01*
X0022666Y0311919D02*
X0025816Y0310344D01*
X0031721Y0304439D01*
X0025178Y0332338D02*
X0024639Y0332338D01*
X0044035Y0385089D02*
X0064874Y0385089D01*
X0064874Y0070182D02*
X0063286Y0070182D01*
X0064874Y0068583D02*
X0055025Y0068583D01*
X0055025Y0066985D02*
X0064874Y0066985D01*
X0064874Y0065386D02*
X0054803Y0065386D01*
X0055025Y0070182D02*
X0056062Y0070182D01*
X0053668Y0063788D02*
X0064874Y0063788D01*
D19*
X0017548Y0379636D03*
D20*
X0056918Y0313494D03*
X0056918Y0300502D03*
D21*
X0051406Y0341841D03*
X0054950Y0204045D03*
X0040383Y0150502D03*
X0027784Y0096171D03*
X0015580Y0040266D03*
X0045894Y0038691D03*
X0054162Y0089872D03*
X0023847Y0214281D03*
X0022666Y0311919D03*
M02*
