G75*
%MOIN*%
%OFA0B0*%
%FSLAX25Y25*%
%IPPOS*%
%LPD*%
%AMOC8*
5,1,8,0,0,1.08239X$1,22.5*
%
%ADD10C,0.00000*%
%ADD11C,0.00400*%
%ADD12R,0.02756X0.02362*%
%ADD13C,0.00200*%
%ADD14R,0.01969X0.05118*%
%ADD15R,0.02953X0.05709*%
%ADD16C,0.01000*%
%ADD17R,0.03346X0.02953*%
%ADD18R,0.05315X0.03543*%
%ADD19C,0.00600*%
%ADD20R,0.04500X0.02000*%
%ADD21C,0.00300*%
%ADD22C,0.00800*%
%ADD23R,0.02000X0.02000*%
%ADD24R,0.05512X0.02559*%
%ADD25C,0.00500*%
%ADD26R,0.02300X0.01800*%
D10*
X0065737Y0017548D02*
X0069674Y0017548D01*
X0069713Y0013611D02*
X0069713Y0407312D01*
X0129713Y0407312D01*
X0129713Y0013611D01*
X0069713Y0013611D01*
X0071485Y0095501D02*
X0071487Y0095654D01*
X0071493Y0095808D01*
X0071503Y0095961D01*
X0071517Y0096113D01*
X0071535Y0096266D01*
X0071557Y0096417D01*
X0071582Y0096568D01*
X0071612Y0096719D01*
X0071646Y0096869D01*
X0071683Y0097017D01*
X0071724Y0097165D01*
X0071769Y0097311D01*
X0071818Y0097457D01*
X0071871Y0097601D01*
X0071927Y0097743D01*
X0071987Y0097884D01*
X0072051Y0098024D01*
X0072118Y0098162D01*
X0072189Y0098298D01*
X0072264Y0098432D01*
X0072341Y0098564D01*
X0072423Y0098694D01*
X0072507Y0098822D01*
X0072595Y0098948D01*
X0072686Y0099071D01*
X0072780Y0099192D01*
X0072878Y0099310D01*
X0072978Y0099426D01*
X0073082Y0099539D01*
X0073188Y0099650D01*
X0073297Y0099758D01*
X0073409Y0099863D01*
X0073523Y0099964D01*
X0073641Y0100063D01*
X0073760Y0100159D01*
X0073882Y0100252D01*
X0074007Y0100341D01*
X0074134Y0100428D01*
X0074263Y0100510D01*
X0074394Y0100590D01*
X0074527Y0100666D01*
X0074662Y0100739D01*
X0074799Y0100808D01*
X0074938Y0100873D01*
X0075078Y0100935D01*
X0075220Y0100993D01*
X0075363Y0101048D01*
X0075508Y0101099D01*
X0075654Y0101146D01*
X0075801Y0101189D01*
X0075949Y0101228D01*
X0076098Y0101264D01*
X0076248Y0101295D01*
X0076399Y0101323D01*
X0076550Y0101347D01*
X0076703Y0101367D01*
X0076855Y0101383D01*
X0077008Y0101395D01*
X0077161Y0101403D01*
X0077314Y0101407D01*
X0077468Y0101407D01*
X0077621Y0101403D01*
X0077774Y0101395D01*
X0077927Y0101383D01*
X0078079Y0101367D01*
X0078232Y0101347D01*
X0078383Y0101323D01*
X0078534Y0101295D01*
X0078684Y0101264D01*
X0078833Y0101228D01*
X0078981Y0101189D01*
X0079128Y0101146D01*
X0079274Y0101099D01*
X0079419Y0101048D01*
X0079562Y0100993D01*
X0079704Y0100935D01*
X0079844Y0100873D01*
X0079983Y0100808D01*
X0080120Y0100739D01*
X0080255Y0100666D01*
X0080388Y0100590D01*
X0080519Y0100510D01*
X0080648Y0100428D01*
X0080775Y0100341D01*
X0080900Y0100252D01*
X0081022Y0100159D01*
X0081141Y0100063D01*
X0081259Y0099964D01*
X0081373Y0099863D01*
X0081485Y0099758D01*
X0081594Y0099650D01*
X0081700Y0099539D01*
X0081804Y0099426D01*
X0081904Y0099310D01*
X0082002Y0099192D01*
X0082096Y0099071D01*
X0082187Y0098948D01*
X0082275Y0098822D01*
X0082359Y0098694D01*
X0082441Y0098564D01*
X0082518Y0098432D01*
X0082593Y0098298D01*
X0082664Y0098162D01*
X0082731Y0098024D01*
X0082795Y0097884D01*
X0082855Y0097743D01*
X0082911Y0097601D01*
X0082964Y0097457D01*
X0083013Y0097311D01*
X0083058Y0097165D01*
X0083099Y0097017D01*
X0083136Y0096869D01*
X0083170Y0096719D01*
X0083200Y0096568D01*
X0083225Y0096417D01*
X0083247Y0096266D01*
X0083265Y0096113D01*
X0083279Y0095961D01*
X0083289Y0095808D01*
X0083295Y0095654D01*
X0083297Y0095501D01*
X0083295Y0095348D01*
X0083289Y0095194D01*
X0083279Y0095041D01*
X0083265Y0094889D01*
X0083247Y0094736D01*
X0083225Y0094585D01*
X0083200Y0094434D01*
X0083170Y0094283D01*
X0083136Y0094133D01*
X0083099Y0093985D01*
X0083058Y0093837D01*
X0083013Y0093691D01*
X0082964Y0093545D01*
X0082911Y0093401D01*
X0082855Y0093259D01*
X0082795Y0093118D01*
X0082731Y0092978D01*
X0082664Y0092840D01*
X0082593Y0092704D01*
X0082518Y0092570D01*
X0082441Y0092438D01*
X0082359Y0092308D01*
X0082275Y0092180D01*
X0082187Y0092054D01*
X0082096Y0091931D01*
X0082002Y0091810D01*
X0081904Y0091692D01*
X0081804Y0091576D01*
X0081700Y0091463D01*
X0081594Y0091352D01*
X0081485Y0091244D01*
X0081373Y0091139D01*
X0081259Y0091038D01*
X0081141Y0090939D01*
X0081022Y0090843D01*
X0080900Y0090750D01*
X0080775Y0090661D01*
X0080648Y0090574D01*
X0080519Y0090492D01*
X0080388Y0090412D01*
X0080255Y0090336D01*
X0080120Y0090263D01*
X0079983Y0090194D01*
X0079844Y0090129D01*
X0079704Y0090067D01*
X0079562Y0090009D01*
X0079419Y0089954D01*
X0079274Y0089903D01*
X0079128Y0089856D01*
X0078981Y0089813D01*
X0078833Y0089774D01*
X0078684Y0089738D01*
X0078534Y0089707D01*
X0078383Y0089679D01*
X0078232Y0089655D01*
X0078079Y0089635D01*
X0077927Y0089619D01*
X0077774Y0089607D01*
X0077621Y0089599D01*
X0077468Y0089595D01*
X0077314Y0089595D01*
X0077161Y0089599D01*
X0077008Y0089607D01*
X0076855Y0089619D01*
X0076703Y0089635D01*
X0076550Y0089655D01*
X0076399Y0089679D01*
X0076248Y0089707D01*
X0076098Y0089738D01*
X0075949Y0089774D01*
X0075801Y0089813D01*
X0075654Y0089856D01*
X0075508Y0089903D01*
X0075363Y0089954D01*
X0075220Y0090009D01*
X0075078Y0090067D01*
X0074938Y0090129D01*
X0074799Y0090194D01*
X0074662Y0090263D01*
X0074527Y0090336D01*
X0074394Y0090412D01*
X0074263Y0090492D01*
X0074134Y0090574D01*
X0074007Y0090661D01*
X0073882Y0090750D01*
X0073760Y0090843D01*
X0073641Y0090939D01*
X0073523Y0091038D01*
X0073409Y0091139D01*
X0073297Y0091244D01*
X0073188Y0091352D01*
X0073082Y0091463D01*
X0072978Y0091576D01*
X0072878Y0091692D01*
X0072780Y0091810D01*
X0072686Y0091931D01*
X0072595Y0092054D01*
X0072507Y0092180D01*
X0072423Y0092308D01*
X0072341Y0092438D01*
X0072264Y0092570D01*
X0072189Y0092704D01*
X0072118Y0092840D01*
X0072051Y0092978D01*
X0071987Y0093118D01*
X0071927Y0093259D01*
X0071871Y0093401D01*
X0071818Y0093545D01*
X0071769Y0093691D01*
X0071724Y0093837D01*
X0071683Y0093985D01*
X0071646Y0094133D01*
X0071612Y0094283D01*
X0071582Y0094434D01*
X0071557Y0094585D01*
X0071535Y0094736D01*
X0071517Y0094889D01*
X0071503Y0095041D01*
X0071493Y0095194D01*
X0071487Y0095348D01*
X0071485Y0095501D01*
X0113611Y0036446D02*
X0113613Y0036599D01*
X0113619Y0036753D01*
X0113629Y0036906D01*
X0113643Y0037058D01*
X0113661Y0037211D01*
X0113683Y0037362D01*
X0113708Y0037513D01*
X0113738Y0037664D01*
X0113772Y0037814D01*
X0113809Y0037962D01*
X0113850Y0038110D01*
X0113895Y0038256D01*
X0113944Y0038402D01*
X0113997Y0038546D01*
X0114053Y0038688D01*
X0114113Y0038829D01*
X0114177Y0038969D01*
X0114244Y0039107D01*
X0114315Y0039243D01*
X0114390Y0039377D01*
X0114467Y0039509D01*
X0114549Y0039639D01*
X0114633Y0039767D01*
X0114721Y0039893D01*
X0114812Y0040016D01*
X0114906Y0040137D01*
X0115004Y0040255D01*
X0115104Y0040371D01*
X0115208Y0040484D01*
X0115314Y0040595D01*
X0115423Y0040703D01*
X0115535Y0040808D01*
X0115649Y0040909D01*
X0115767Y0041008D01*
X0115886Y0041104D01*
X0116008Y0041197D01*
X0116133Y0041286D01*
X0116260Y0041373D01*
X0116389Y0041455D01*
X0116520Y0041535D01*
X0116653Y0041611D01*
X0116788Y0041684D01*
X0116925Y0041753D01*
X0117064Y0041818D01*
X0117204Y0041880D01*
X0117346Y0041938D01*
X0117489Y0041993D01*
X0117634Y0042044D01*
X0117780Y0042091D01*
X0117927Y0042134D01*
X0118075Y0042173D01*
X0118224Y0042209D01*
X0118374Y0042240D01*
X0118525Y0042268D01*
X0118676Y0042292D01*
X0118829Y0042312D01*
X0118981Y0042328D01*
X0119134Y0042340D01*
X0119287Y0042348D01*
X0119440Y0042352D01*
X0119594Y0042352D01*
X0119747Y0042348D01*
X0119900Y0042340D01*
X0120053Y0042328D01*
X0120205Y0042312D01*
X0120358Y0042292D01*
X0120509Y0042268D01*
X0120660Y0042240D01*
X0120810Y0042209D01*
X0120959Y0042173D01*
X0121107Y0042134D01*
X0121254Y0042091D01*
X0121400Y0042044D01*
X0121545Y0041993D01*
X0121688Y0041938D01*
X0121830Y0041880D01*
X0121970Y0041818D01*
X0122109Y0041753D01*
X0122246Y0041684D01*
X0122381Y0041611D01*
X0122514Y0041535D01*
X0122645Y0041455D01*
X0122774Y0041373D01*
X0122901Y0041286D01*
X0123026Y0041197D01*
X0123148Y0041104D01*
X0123267Y0041008D01*
X0123385Y0040909D01*
X0123499Y0040808D01*
X0123611Y0040703D01*
X0123720Y0040595D01*
X0123826Y0040484D01*
X0123930Y0040371D01*
X0124030Y0040255D01*
X0124128Y0040137D01*
X0124222Y0040016D01*
X0124313Y0039893D01*
X0124401Y0039767D01*
X0124485Y0039639D01*
X0124567Y0039509D01*
X0124644Y0039377D01*
X0124719Y0039243D01*
X0124790Y0039107D01*
X0124857Y0038969D01*
X0124921Y0038829D01*
X0124981Y0038688D01*
X0125037Y0038546D01*
X0125090Y0038402D01*
X0125139Y0038256D01*
X0125184Y0038110D01*
X0125225Y0037962D01*
X0125262Y0037814D01*
X0125296Y0037664D01*
X0125326Y0037513D01*
X0125351Y0037362D01*
X0125373Y0037211D01*
X0125391Y0037058D01*
X0125405Y0036906D01*
X0125415Y0036753D01*
X0125421Y0036599D01*
X0125423Y0036446D01*
X0125421Y0036293D01*
X0125415Y0036139D01*
X0125405Y0035986D01*
X0125391Y0035834D01*
X0125373Y0035681D01*
X0125351Y0035530D01*
X0125326Y0035379D01*
X0125296Y0035228D01*
X0125262Y0035078D01*
X0125225Y0034930D01*
X0125184Y0034782D01*
X0125139Y0034636D01*
X0125090Y0034490D01*
X0125037Y0034346D01*
X0124981Y0034204D01*
X0124921Y0034063D01*
X0124857Y0033923D01*
X0124790Y0033785D01*
X0124719Y0033649D01*
X0124644Y0033515D01*
X0124567Y0033383D01*
X0124485Y0033253D01*
X0124401Y0033125D01*
X0124313Y0032999D01*
X0124222Y0032876D01*
X0124128Y0032755D01*
X0124030Y0032637D01*
X0123930Y0032521D01*
X0123826Y0032408D01*
X0123720Y0032297D01*
X0123611Y0032189D01*
X0123499Y0032084D01*
X0123385Y0031983D01*
X0123267Y0031884D01*
X0123148Y0031788D01*
X0123026Y0031695D01*
X0122901Y0031606D01*
X0122774Y0031519D01*
X0122645Y0031437D01*
X0122514Y0031357D01*
X0122381Y0031281D01*
X0122246Y0031208D01*
X0122109Y0031139D01*
X0121970Y0031074D01*
X0121830Y0031012D01*
X0121688Y0030954D01*
X0121545Y0030899D01*
X0121400Y0030848D01*
X0121254Y0030801D01*
X0121107Y0030758D01*
X0120959Y0030719D01*
X0120810Y0030683D01*
X0120660Y0030652D01*
X0120509Y0030624D01*
X0120358Y0030600D01*
X0120205Y0030580D01*
X0120053Y0030564D01*
X0119900Y0030552D01*
X0119747Y0030544D01*
X0119594Y0030540D01*
X0119440Y0030540D01*
X0119287Y0030544D01*
X0119134Y0030552D01*
X0118981Y0030564D01*
X0118829Y0030580D01*
X0118676Y0030600D01*
X0118525Y0030624D01*
X0118374Y0030652D01*
X0118224Y0030683D01*
X0118075Y0030719D01*
X0117927Y0030758D01*
X0117780Y0030801D01*
X0117634Y0030848D01*
X0117489Y0030899D01*
X0117346Y0030954D01*
X0117204Y0031012D01*
X0117064Y0031074D01*
X0116925Y0031139D01*
X0116788Y0031208D01*
X0116653Y0031281D01*
X0116520Y0031357D01*
X0116389Y0031437D01*
X0116260Y0031519D01*
X0116133Y0031606D01*
X0116008Y0031695D01*
X0115886Y0031788D01*
X0115767Y0031884D01*
X0115649Y0031983D01*
X0115535Y0032084D01*
X0115423Y0032189D01*
X0115314Y0032297D01*
X0115208Y0032408D01*
X0115104Y0032521D01*
X0115004Y0032637D01*
X0114906Y0032755D01*
X0114812Y0032876D01*
X0114721Y0032999D01*
X0114633Y0033125D01*
X0114549Y0033253D01*
X0114467Y0033383D01*
X0114390Y0033515D01*
X0114315Y0033649D01*
X0114244Y0033785D01*
X0114177Y0033923D01*
X0114113Y0034063D01*
X0114053Y0034204D01*
X0113997Y0034346D01*
X0113944Y0034490D01*
X0113895Y0034636D01*
X0113850Y0034782D01*
X0113809Y0034930D01*
X0113772Y0035078D01*
X0113738Y0035228D01*
X0113708Y0035379D01*
X0113683Y0035530D01*
X0113661Y0035681D01*
X0113643Y0035834D01*
X0113629Y0035986D01*
X0113619Y0036139D01*
X0113613Y0036293D01*
X0113611Y0036446D01*
X0115973Y0347076D02*
X0115975Y0347229D01*
X0115981Y0347383D01*
X0115991Y0347536D01*
X0116005Y0347688D01*
X0116023Y0347841D01*
X0116045Y0347992D01*
X0116070Y0348143D01*
X0116100Y0348294D01*
X0116134Y0348444D01*
X0116171Y0348592D01*
X0116212Y0348740D01*
X0116257Y0348886D01*
X0116306Y0349032D01*
X0116359Y0349176D01*
X0116415Y0349318D01*
X0116475Y0349459D01*
X0116539Y0349599D01*
X0116606Y0349737D01*
X0116677Y0349873D01*
X0116752Y0350007D01*
X0116829Y0350139D01*
X0116911Y0350269D01*
X0116995Y0350397D01*
X0117083Y0350523D01*
X0117174Y0350646D01*
X0117268Y0350767D01*
X0117366Y0350885D01*
X0117466Y0351001D01*
X0117570Y0351114D01*
X0117676Y0351225D01*
X0117785Y0351333D01*
X0117897Y0351438D01*
X0118011Y0351539D01*
X0118129Y0351638D01*
X0118248Y0351734D01*
X0118370Y0351827D01*
X0118495Y0351916D01*
X0118622Y0352003D01*
X0118751Y0352085D01*
X0118882Y0352165D01*
X0119015Y0352241D01*
X0119150Y0352314D01*
X0119287Y0352383D01*
X0119426Y0352448D01*
X0119566Y0352510D01*
X0119708Y0352568D01*
X0119851Y0352623D01*
X0119996Y0352674D01*
X0120142Y0352721D01*
X0120289Y0352764D01*
X0120437Y0352803D01*
X0120586Y0352839D01*
X0120736Y0352870D01*
X0120887Y0352898D01*
X0121038Y0352922D01*
X0121191Y0352942D01*
X0121343Y0352958D01*
X0121496Y0352970D01*
X0121649Y0352978D01*
X0121802Y0352982D01*
X0121956Y0352982D01*
X0122109Y0352978D01*
X0122262Y0352970D01*
X0122415Y0352958D01*
X0122567Y0352942D01*
X0122720Y0352922D01*
X0122871Y0352898D01*
X0123022Y0352870D01*
X0123172Y0352839D01*
X0123321Y0352803D01*
X0123469Y0352764D01*
X0123616Y0352721D01*
X0123762Y0352674D01*
X0123907Y0352623D01*
X0124050Y0352568D01*
X0124192Y0352510D01*
X0124332Y0352448D01*
X0124471Y0352383D01*
X0124608Y0352314D01*
X0124743Y0352241D01*
X0124876Y0352165D01*
X0125007Y0352085D01*
X0125136Y0352003D01*
X0125263Y0351916D01*
X0125388Y0351827D01*
X0125510Y0351734D01*
X0125629Y0351638D01*
X0125747Y0351539D01*
X0125861Y0351438D01*
X0125973Y0351333D01*
X0126082Y0351225D01*
X0126188Y0351114D01*
X0126292Y0351001D01*
X0126392Y0350885D01*
X0126490Y0350767D01*
X0126584Y0350646D01*
X0126675Y0350523D01*
X0126763Y0350397D01*
X0126847Y0350269D01*
X0126929Y0350139D01*
X0127006Y0350007D01*
X0127081Y0349873D01*
X0127152Y0349737D01*
X0127219Y0349599D01*
X0127283Y0349459D01*
X0127343Y0349318D01*
X0127399Y0349176D01*
X0127452Y0349032D01*
X0127501Y0348886D01*
X0127546Y0348740D01*
X0127587Y0348592D01*
X0127624Y0348444D01*
X0127658Y0348294D01*
X0127688Y0348143D01*
X0127713Y0347992D01*
X0127735Y0347841D01*
X0127753Y0347688D01*
X0127767Y0347536D01*
X0127777Y0347383D01*
X0127783Y0347229D01*
X0127785Y0347076D01*
X0127783Y0346923D01*
X0127777Y0346769D01*
X0127767Y0346616D01*
X0127753Y0346464D01*
X0127735Y0346311D01*
X0127713Y0346160D01*
X0127688Y0346009D01*
X0127658Y0345858D01*
X0127624Y0345708D01*
X0127587Y0345560D01*
X0127546Y0345412D01*
X0127501Y0345266D01*
X0127452Y0345120D01*
X0127399Y0344976D01*
X0127343Y0344834D01*
X0127283Y0344693D01*
X0127219Y0344553D01*
X0127152Y0344415D01*
X0127081Y0344279D01*
X0127006Y0344145D01*
X0126929Y0344013D01*
X0126847Y0343883D01*
X0126763Y0343755D01*
X0126675Y0343629D01*
X0126584Y0343506D01*
X0126490Y0343385D01*
X0126392Y0343267D01*
X0126292Y0343151D01*
X0126188Y0343038D01*
X0126082Y0342927D01*
X0125973Y0342819D01*
X0125861Y0342714D01*
X0125747Y0342613D01*
X0125629Y0342514D01*
X0125510Y0342418D01*
X0125388Y0342325D01*
X0125263Y0342236D01*
X0125136Y0342149D01*
X0125007Y0342067D01*
X0124876Y0341987D01*
X0124743Y0341911D01*
X0124608Y0341838D01*
X0124471Y0341769D01*
X0124332Y0341704D01*
X0124192Y0341642D01*
X0124050Y0341584D01*
X0123907Y0341529D01*
X0123762Y0341478D01*
X0123616Y0341431D01*
X0123469Y0341388D01*
X0123321Y0341349D01*
X0123172Y0341313D01*
X0123022Y0341282D01*
X0122871Y0341254D01*
X0122720Y0341230D01*
X0122567Y0341210D01*
X0122415Y0341194D01*
X0122262Y0341182D01*
X0122109Y0341174D01*
X0121956Y0341170D01*
X0121802Y0341170D01*
X0121649Y0341174D01*
X0121496Y0341182D01*
X0121343Y0341194D01*
X0121191Y0341210D01*
X0121038Y0341230D01*
X0120887Y0341254D01*
X0120736Y0341282D01*
X0120586Y0341313D01*
X0120437Y0341349D01*
X0120289Y0341388D01*
X0120142Y0341431D01*
X0119996Y0341478D01*
X0119851Y0341529D01*
X0119708Y0341584D01*
X0119566Y0341642D01*
X0119426Y0341704D01*
X0119287Y0341769D01*
X0119150Y0341838D01*
X0119015Y0341911D01*
X0118882Y0341987D01*
X0118751Y0342067D01*
X0118622Y0342149D01*
X0118495Y0342236D01*
X0118370Y0342325D01*
X0118248Y0342418D01*
X0118129Y0342514D01*
X0118011Y0342613D01*
X0117897Y0342714D01*
X0117785Y0342819D01*
X0117676Y0342927D01*
X0117570Y0343038D01*
X0117466Y0343151D01*
X0117366Y0343267D01*
X0117268Y0343385D01*
X0117174Y0343506D01*
X0117083Y0343629D01*
X0116995Y0343755D01*
X0116911Y0343883D01*
X0116829Y0344013D01*
X0116752Y0344145D01*
X0116677Y0344279D01*
X0116606Y0344415D01*
X0116539Y0344553D01*
X0116475Y0344693D01*
X0116415Y0344834D01*
X0116359Y0344976D01*
X0116306Y0345120D01*
X0116257Y0345266D01*
X0116212Y0345412D01*
X0116171Y0345560D01*
X0116134Y0345708D01*
X0116100Y0345858D01*
X0116070Y0346009D01*
X0116045Y0346160D01*
X0116023Y0346311D01*
X0116005Y0346464D01*
X0115991Y0346616D01*
X0115981Y0346769D01*
X0115975Y0346923D01*
X0115973Y0347076D01*
D11*
X0116331Y0335894D02*
X0113430Y0335894D01*
X0113331Y0330698D02*
X0116331Y0330698D01*
X0119398Y0322666D02*
X0128454Y0322666D01*
X0128454Y0303769D01*
X0121761Y0297076D01*
X0119398Y0297076D01*
X0121761Y0297076D02*
X0128454Y0303769D01*
X0128454Y0322666D01*
X0102863Y0322666D01*
X0102863Y0303769D01*
X0109556Y0297076D01*
X0111918Y0297076D01*
X0109556Y0297076D02*
X0121761Y0297076D01*
X0103453Y0309871D02*
X0103457Y0310171D01*
X0103468Y0310470D01*
X0103486Y0310769D01*
X0103512Y0311067D01*
X0103545Y0311365D01*
X0103585Y0311662D01*
X0103633Y0311958D01*
X0103688Y0312252D01*
X0103750Y0312545D01*
X0103819Y0312837D01*
X0103895Y0313126D01*
X0103979Y0313414D01*
X0104069Y0313699D01*
X0104166Y0313983D01*
X0104271Y0314264D01*
X0104382Y0314542D01*
X0104500Y0314817D01*
X0104625Y0315089D01*
X0104756Y0315359D01*
X0104894Y0315624D01*
X0105039Y0315887D01*
X0105189Y0316146D01*
X0105347Y0316401D01*
X0105510Y0316652D01*
X0105679Y0316899D01*
X0105855Y0317142D01*
X0106036Y0317380D01*
X0106223Y0317614D01*
X0106416Y0317843D01*
X0106615Y0318067D01*
X0106819Y0318287D01*
X0107028Y0318501D01*
X0107242Y0318710D01*
X0107462Y0318914D01*
X0107686Y0319113D01*
X0107915Y0319306D01*
X0108149Y0319493D01*
X0108387Y0319674D01*
X0108630Y0319850D01*
X0108877Y0320019D01*
X0109128Y0320182D01*
X0109383Y0320340D01*
X0109642Y0320490D01*
X0109905Y0320635D01*
X0110170Y0320773D01*
X0110440Y0320904D01*
X0110712Y0321029D01*
X0110987Y0321147D01*
X0111265Y0321258D01*
X0111546Y0321363D01*
X0111830Y0321460D01*
X0112115Y0321550D01*
X0112403Y0321634D01*
X0112692Y0321710D01*
X0112984Y0321779D01*
X0113277Y0321841D01*
X0113571Y0321896D01*
X0113867Y0321944D01*
X0114164Y0321984D01*
X0114462Y0322017D01*
X0114760Y0322043D01*
X0115059Y0322061D01*
X0115358Y0322072D01*
X0115658Y0322076D01*
X0115958Y0322072D01*
X0116257Y0322061D01*
X0116556Y0322043D01*
X0116854Y0322017D01*
X0117152Y0321984D01*
X0117449Y0321944D01*
X0117745Y0321896D01*
X0118039Y0321841D01*
X0118332Y0321779D01*
X0118624Y0321710D01*
X0118913Y0321634D01*
X0119201Y0321550D01*
X0119486Y0321460D01*
X0119770Y0321363D01*
X0120051Y0321258D01*
X0120329Y0321147D01*
X0120604Y0321029D01*
X0120876Y0320904D01*
X0121146Y0320773D01*
X0121411Y0320635D01*
X0121674Y0320490D01*
X0121933Y0320340D01*
X0122188Y0320182D01*
X0122439Y0320019D01*
X0122686Y0319850D01*
X0122929Y0319674D01*
X0123167Y0319493D01*
X0123401Y0319306D01*
X0123630Y0319113D01*
X0123854Y0318914D01*
X0124074Y0318710D01*
X0124288Y0318501D01*
X0124497Y0318287D01*
X0124701Y0318067D01*
X0124900Y0317843D01*
X0125093Y0317614D01*
X0125280Y0317380D01*
X0125461Y0317142D01*
X0125637Y0316899D01*
X0125806Y0316652D01*
X0125969Y0316401D01*
X0126127Y0316146D01*
X0126277Y0315887D01*
X0126422Y0315624D01*
X0126560Y0315359D01*
X0126691Y0315089D01*
X0126816Y0314817D01*
X0126934Y0314542D01*
X0127045Y0314264D01*
X0127150Y0313983D01*
X0127247Y0313699D01*
X0127337Y0313414D01*
X0127421Y0313126D01*
X0127497Y0312837D01*
X0127566Y0312545D01*
X0127628Y0312252D01*
X0127683Y0311958D01*
X0127731Y0311662D01*
X0127771Y0311365D01*
X0127804Y0311067D01*
X0127830Y0310769D01*
X0127848Y0310470D01*
X0127859Y0310171D01*
X0127863Y0309871D01*
X0127859Y0309571D01*
X0127848Y0309272D01*
X0127830Y0308973D01*
X0127804Y0308675D01*
X0127771Y0308377D01*
X0127731Y0308080D01*
X0127683Y0307784D01*
X0127628Y0307490D01*
X0127566Y0307197D01*
X0127497Y0306905D01*
X0127421Y0306616D01*
X0127337Y0306328D01*
X0127247Y0306043D01*
X0127150Y0305759D01*
X0127045Y0305478D01*
X0126934Y0305200D01*
X0126816Y0304925D01*
X0126691Y0304653D01*
X0126560Y0304383D01*
X0126422Y0304118D01*
X0126277Y0303855D01*
X0126127Y0303596D01*
X0125969Y0303341D01*
X0125806Y0303090D01*
X0125637Y0302843D01*
X0125461Y0302600D01*
X0125280Y0302362D01*
X0125093Y0302128D01*
X0124900Y0301899D01*
X0124701Y0301675D01*
X0124497Y0301455D01*
X0124288Y0301241D01*
X0124074Y0301032D01*
X0123854Y0300828D01*
X0123630Y0300629D01*
X0123401Y0300436D01*
X0123167Y0300249D01*
X0122929Y0300068D01*
X0122686Y0299892D01*
X0122439Y0299723D01*
X0122188Y0299560D01*
X0121933Y0299402D01*
X0121674Y0299252D01*
X0121411Y0299107D01*
X0121146Y0298969D01*
X0120876Y0298838D01*
X0120604Y0298713D01*
X0120329Y0298595D01*
X0120051Y0298484D01*
X0119770Y0298379D01*
X0119486Y0298282D01*
X0119201Y0298192D01*
X0118913Y0298108D01*
X0118624Y0298032D01*
X0118332Y0297963D01*
X0118039Y0297901D01*
X0117745Y0297846D01*
X0117449Y0297798D01*
X0117152Y0297758D01*
X0116854Y0297725D01*
X0116556Y0297699D01*
X0116257Y0297681D01*
X0115958Y0297670D01*
X0115658Y0297666D01*
X0115358Y0297670D01*
X0115059Y0297681D01*
X0114760Y0297699D01*
X0114462Y0297725D01*
X0114164Y0297758D01*
X0113867Y0297798D01*
X0113571Y0297846D01*
X0113277Y0297901D01*
X0112984Y0297963D01*
X0112692Y0298032D01*
X0112403Y0298108D01*
X0112115Y0298192D01*
X0111830Y0298282D01*
X0111546Y0298379D01*
X0111265Y0298484D01*
X0110987Y0298595D01*
X0110712Y0298713D01*
X0110440Y0298838D01*
X0110170Y0298969D01*
X0109905Y0299107D01*
X0109642Y0299252D01*
X0109383Y0299402D01*
X0109128Y0299560D01*
X0108877Y0299723D01*
X0108630Y0299892D01*
X0108387Y0300068D01*
X0108149Y0300249D01*
X0107915Y0300436D01*
X0107686Y0300629D01*
X0107462Y0300828D01*
X0107242Y0301032D01*
X0107028Y0301241D01*
X0106819Y0301455D01*
X0106615Y0301675D01*
X0106416Y0301899D01*
X0106223Y0302128D01*
X0106036Y0302362D01*
X0105855Y0302600D01*
X0105679Y0302843D01*
X0105510Y0303090D01*
X0105347Y0303341D01*
X0105189Y0303596D01*
X0105039Y0303855D01*
X0104894Y0304118D01*
X0104756Y0304383D01*
X0104625Y0304653D01*
X0104500Y0304925D01*
X0104382Y0305200D01*
X0104271Y0305478D01*
X0104166Y0305759D01*
X0104069Y0306043D01*
X0103979Y0306328D01*
X0103895Y0306616D01*
X0103819Y0306905D01*
X0103750Y0307197D01*
X0103688Y0307490D01*
X0103633Y0307784D01*
X0103585Y0308080D01*
X0103545Y0308377D01*
X0103512Y0308675D01*
X0103486Y0308973D01*
X0103468Y0309272D01*
X0103457Y0309571D01*
X0103453Y0309871D01*
X0102863Y0303769D02*
X0109556Y0297076D01*
X0119398Y0298256D02*
X0119681Y0298351D01*
X0119962Y0298453D01*
X0120239Y0298562D01*
X0120515Y0298677D01*
X0120787Y0298799D01*
X0121056Y0298928D01*
X0121322Y0299063D01*
X0121584Y0299205D01*
X0121843Y0299353D01*
X0122099Y0299507D01*
X0122350Y0299668D01*
X0122598Y0299835D01*
X0122841Y0300007D01*
X0123080Y0300186D01*
X0123315Y0300370D01*
X0123545Y0300560D01*
X0123770Y0300756D01*
X0123990Y0300957D01*
X0124206Y0301163D01*
X0124416Y0301375D01*
X0124621Y0301591D01*
X0124821Y0301813D01*
X0125015Y0302040D01*
X0125204Y0302271D01*
X0125387Y0302506D01*
X0125564Y0302746D01*
X0125735Y0302991D01*
X0125900Y0303239D01*
X0126059Y0303492D01*
X0126212Y0303748D01*
X0126359Y0304008D01*
X0126499Y0304271D01*
X0126633Y0304538D01*
X0126760Y0304808D01*
X0126880Y0305081D01*
X0126994Y0305356D01*
X0127101Y0305635D01*
X0127201Y0305916D01*
X0127294Y0306199D01*
X0127381Y0306485D01*
X0127460Y0306773D01*
X0127532Y0307062D01*
X0127597Y0307353D01*
X0127655Y0307646D01*
X0127706Y0307940D01*
X0127750Y0308235D01*
X0127786Y0308531D01*
X0127815Y0308828D01*
X0127837Y0309126D01*
X0127852Y0309424D01*
X0127859Y0309722D01*
X0127859Y0310020D01*
X0127852Y0310318D01*
X0127837Y0310616D01*
X0127815Y0310914D01*
X0127786Y0311211D01*
X0127750Y0311507D01*
X0127706Y0311802D01*
X0127655Y0312096D01*
X0127597Y0312389D01*
X0127532Y0312680D01*
X0127460Y0312969D01*
X0127381Y0313257D01*
X0127294Y0313543D01*
X0127201Y0313826D01*
X0127101Y0314107D01*
X0126994Y0314386D01*
X0126880Y0314661D01*
X0126760Y0314934D01*
X0126633Y0315204D01*
X0126499Y0315471D01*
X0126359Y0315734D01*
X0126212Y0315994D01*
X0126059Y0316250D01*
X0125900Y0316503D01*
X0125735Y0316751D01*
X0125564Y0316996D01*
X0125387Y0317236D01*
X0125204Y0317471D01*
X0125015Y0317702D01*
X0124821Y0317929D01*
X0124621Y0318151D01*
X0124416Y0318367D01*
X0124206Y0318579D01*
X0123990Y0318785D01*
X0123770Y0318986D01*
X0123545Y0319182D01*
X0123315Y0319372D01*
X0123080Y0319556D01*
X0122841Y0319735D01*
X0122598Y0319907D01*
X0122350Y0320074D01*
X0122099Y0320235D01*
X0121843Y0320389D01*
X0121584Y0320537D01*
X0121322Y0320679D01*
X0121056Y0320814D01*
X0120787Y0320943D01*
X0120515Y0321065D01*
X0120239Y0321180D01*
X0119962Y0321289D01*
X0119681Y0321391D01*
X0119398Y0321486D01*
X0119398Y0321288D02*
X0122154Y0319910D01*
X0124123Y0318335D01*
X0107391Y0318335D01*
X0107194Y0318335D01*
X0109359Y0320107D01*
X0112115Y0321288D01*
X0115658Y0321879D01*
X0119398Y0321288D01*
X0119451Y0321262D02*
X0112053Y0321262D01*
X0111123Y0320863D02*
X0120248Y0320863D01*
X0121045Y0320465D02*
X0110194Y0320465D01*
X0109309Y0320066D02*
X0121842Y0320066D01*
X0122457Y0319668D02*
X0108822Y0319668D01*
X0108335Y0319269D02*
X0122956Y0319269D01*
X0123454Y0318871D02*
X0107848Y0318871D01*
X0107361Y0318472D02*
X0123952Y0318472D01*
X0124320Y0318139D02*
X0106800Y0318139D01*
X0102863Y0322666D02*
X0102863Y0303769D01*
X0097469Y0303690D02*
X0097469Y0322587D01*
X0088414Y0322587D01*
X0088083Y0321262D02*
X0081445Y0321262D01*
X0081131Y0321209D02*
X0084674Y0321800D01*
X0088414Y0321209D01*
X0091170Y0319831D01*
X0093139Y0318257D01*
X0076406Y0318257D01*
X0076209Y0318257D01*
X0078375Y0320028D01*
X0081131Y0321209D01*
X0080323Y0320863D02*
X0089107Y0320863D01*
X0089904Y0320465D02*
X0079393Y0320465D01*
X0078463Y0320066D02*
X0090701Y0320066D01*
X0091375Y0319668D02*
X0077934Y0319668D01*
X0077447Y0319269D02*
X0091873Y0319269D01*
X0092371Y0318871D02*
X0076960Y0318871D01*
X0076473Y0318472D02*
X0092869Y0318472D01*
X0093335Y0318060D02*
X0075816Y0318060D01*
X0071879Y0322587D02*
X0071879Y0303690D01*
X0078572Y0296997D01*
X0080934Y0296997D01*
X0078572Y0296997D02*
X0090776Y0296997D01*
X0097469Y0303690D01*
X0097469Y0322587D01*
X0071879Y0322587D01*
X0080934Y0322587D01*
X0083836Y0321660D02*
X0085559Y0321660D01*
X0088591Y0331524D02*
X0081308Y0331524D01*
X0081308Y0336249D02*
X0088591Y0336249D01*
X0072469Y0309792D02*
X0072473Y0310092D01*
X0072484Y0310391D01*
X0072502Y0310690D01*
X0072528Y0310988D01*
X0072561Y0311286D01*
X0072601Y0311583D01*
X0072649Y0311879D01*
X0072704Y0312173D01*
X0072766Y0312466D01*
X0072835Y0312758D01*
X0072911Y0313047D01*
X0072995Y0313335D01*
X0073085Y0313620D01*
X0073182Y0313904D01*
X0073287Y0314185D01*
X0073398Y0314463D01*
X0073516Y0314738D01*
X0073641Y0315010D01*
X0073772Y0315280D01*
X0073910Y0315545D01*
X0074055Y0315808D01*
X0074205Y0316067D01*
X0074363Y0316322D01*
X0074526Y0316573D01*
X0074695Y0316820D01*
X0074871Y0317063D01*
X0075052Y0317301D01*
X0075239Y0317535D01*
X0075432Y0317764D01*
X0075631Y0317988D01*
X0075835Y0318208D01*
X0076044Y0318422D01*
X0076258Y0318631D01*
X0076478Y0318835D01*
X0076702Y0319034D01*
X0076931Y0319227D01*
X0077165Y0319414D01*
X0077403Y0319595D01*
X0077646Y0319771D01*
X0077893Y0319940D01*
X0078144Y0320103D01*
X0078399Y0320261D01*
X0078658Y0320411D01*
X0078921Y0320556D01*
X0079186Y0320694D01*
X0079456Y0320825D01*
X0079728Y0320950D01*
X0080003Y0321068D01*
X0080281Y0321179D01*
X0080562Y0321284D01*
X0080846Y0321381D01*
X0081131Y0321471D01*
X0081419Y0321555D01*
X0081708Y0321631D01*
X0082000Y0321700D01*
X0082293Y0321762D01*
X0082587Y0321817D01*
X0082883Y0321865D01*
X0083180Y0321905D01*
X0083478Y0321938D01*
X0083776Y0321964D01*
X0084075Y0321982D01*
X0084374Y0321993D01*
X0084674Y0321997D01*
X0084974Y0321993D01*
X0085273Y0321982D01*
X0085572Y0321964D01*
X0085870Y0321938D01*
X0086168Y0321905D01*
X0086465Y0321865D01*
X0086761Y0321817D01*
X0087055Y0321762D01*
X0087348Y0321700D01*
X0087640Y0321631D01*
X0087929Y0321555D01*
X0088217Y0321471D01*
X0088502Y0321381D01*
X0088786Y0321284D01*
X0089067Y0321179D01*
X0089345Y0321068D01*
X0089620Y0320950D01*
X0089892Y0320825D01*
X0090162Y0320694D01*
X0090427Y0320556D01*
X0090690Y0320411D01*
X0090949Y0320261D01*
X0091204Y0320103D01*
X0091455Y0319940D01*
X0091702Y0319771D01*
X0091945Y0319595D01*
X0092183Y0319414D01*
X0092417Y0319227D01*
X0092646Y0319034D01*
X0092870Y0318835D01*
X0093090Y0318631D01*
X0093304Y0318422D01*
X0093513Y0318208D01*
X0093717Y0317988D01*
X0093916Y0317764D01*
X0094109Y0317535D01*
X0094296Y0317301D01*
X0094477Y0317063D01*
X0094653Y0316820D01*
X0094822Y0316573D01*
X0094985Y0316322D01*
X0095143Y0316067D01*
X0095293Y0315808D01*
X0095438Y0315545D01*
X0095576Y0315280D01*
X0095707Y0315010D01*
X0095832Y0314738D01*
X0095950Y0314463D01*
X0096061Y0314185D01*
X0096166Y0313904D01*
X0096263Y0313620D01*
X0096353Y0313335D01*
X0096437Y0313047D01*
X0096513Y0312758D01*
X0096582Y0312466D01*
X0096644Y0312173D01*
X0096699Y0311879D01*
X0096747Y0311583D01*
X0096787Y0311286D01*
X0096820Y0310988D01*
X0096846Y0310690D01*
X0096864Y0310391D01*
X0096875Y0310092D01*
X0096879Y0309792D01*
X0096875Y0309492D01*
X0096864Y0309193D01*
X0096846Y0308894D01*
X0096820Y0308596D01*
X0096787Y0308298D01*
X0096747Y0308001D01*
X0096699Y0307705D01*
X0096644Y0307411D01*
X0096582Y0307118D01*
X0096513Y0306826D01*
X0096437Y0306537D01*
X0096353Y0306249D01*
X0096263Y0305964D01*
X0096166Y0305680D01*
X0096061Y0305399D01*
X0095950Y0305121D01*
X0095832Y0304846D01*
X0095707Y0304574D01*
X0095576Y0304304D01*
X0095438Y0304039D01*
X0095293Y0303776D01*
X0095143Y0303517D01*
X0094985Y0303262D01*
X0094822Y0303011D01*
X0094653Y0302764D01*
X0094477Y0302521D01*
X0094296Y0302283D01*
X0094109Y0302049D01*
X0093916Y0301820D01*
X0093717Y0301596D01*
X0093513Y0301376D01*
X0093304Y0301162D01*
X0093090Y0300953D01*
X0092870Y0300749D01*
X0092646Y0300550D01*
X0092417Y0300357D01*
X0092183Y0300170D01*
X0091945Y0299989D01*
X0091702Y0299813D01*
X0091455Y0299644D01*
X0091204Y0299481D01*
X0090949Y0299323D01*
X0090690Y0299173D01*
X0090427Y0299028D01*
X0090162Y0298890D01*
X0089892Y0298759D01*
X0089620Y0298634D01*
X0089345Y0298516D01*
X0089067Y0298405D01*
X0088786Y0298300D01*
X0088502Y0298203D01*
X0088217Y0298113D01*
X0087929Y0298029D01*
X0087640Y0297953D01*
X0087348Y0297884D01*
X0087055Y0297822D01*
X0086761Y0297767D01*
X0086465Y0297719D01*
X0086168Y0297679D01*
X0085870Y0297646D01*
X0085572Y0297620D01*
X0085273Y0297602D01*
X0084974Y0297591D01*
X0084674Y0297587D01*
X0084374Y0297591D01*
X0084075Y0297602D01*
X0083776Y0297620D01*
X0083478Y0297646D01*
X0083180Y0297679D01*
X0082883Y0297719D01*
X0082587Y0297767D01*
X0082293Y0297822D01*
X0082000Y0297884D01*
X0081708Y0297953D01*
X0081419Y0298029D01*
X0081131Y0298113D01*
X0080846Y0298203D01*
X0080562Y0298300D01*
X0080281Y0298405D01*
X0080003Y0298516D01*
X0079728Y0298634D01*
X0079456Y0298759D01*
X0079186Y0298890D01*
X0078921Y0299028D01*
X0078658Y0299173D01*
X0078399Y0299323D01*
X0078144Y0299481D01*
X0077893Y0299644D01*
X0077646Y0299813D01*
X0077403Y0299989D01*
X0077165Y0300170D01*
X0076931Y0300357D01*
X0076702Y0300550D01*
X0076478Y0300749D01*
X0076258Y0300953D01*
X0076044Y0301162D01*
X0075835Y0301376D01*
X0075631Y0301596D01*
X0075432Y0301820D01*
X0075239Y0302049D01*
X0075052Y0302283D01*
X0074871Y0302521D01*
X0074695Y0302764D01*
X0074526Y0303011D01*
X0074363Y0303262D01*
X0074205Y0303517D01*
X0074055Y0303776D01*
X0073910Y0304039D01*
X0073772Y0304304D01*
X0073641Y0304574D01*
X0073516Y0304846D01*
X0073398Y0305121D01*
X0073287Y0305399D01*
X0073182Y0305680D01*
X0073085Y0305964D01*
X0072995Y0306249D01*
X0072911Y0306537D01*
X0072835Y0306826D01*
X0072766Y0307118D01*
X0072704Y0307411D01*
X0072649Y0307705D01*
X0072601Y0308001D01*
X0072561Y0308298D01*
X0072528Y0308596D01*
X0072502Y0308894D01*
X0072484Y0309193D01*
X0072473Y0309492D01*
X0072469Y0309792D01*
X0071879Y0303690D02*
X0078572Y0296997D01*
X0088414Y0298177D02*
X0088697Y0298272D01*
X0088978Y0298374D01*
X0089255Y0298483D01*
X0089531Y0298598D01*
X0089803Y0298720D01*
X0090072Y0298849D01*
X0090338Y0298984D01*
X0090600Y0299126D01*
X0090859Y0299274D01*
X0091115Y0299428D01*
X0091366Y0299589D01*
X0091614Y0299756D01*
X0091857Y0299928D01*
X0092096Y0300107D01*
X0092331Y0300291D01*
X0092561Y0300481D01*
X0092786Y0300677D01*
X0093006Y0300878D01*
X0093222Y0301084D01*
X0093432Y0301296D01*
X0093637Y0301512D01*
X0093837Y0301734D01*
X0094031Y0301961D01*
X0094220Y0302192D01*
X0094403Y0302427D01*
X0094580Y0302667D01*
X0094751Y0302912D01*
X0094916Y0303160D01*
X0095075Y0303413D01*
X0095228Y0303669D01*
X0095375Y0303929D01*
X0095515Y0304192D01*
X0095649Y0304459D01*
X0095776Y0304729D01*
X0095896Y0305002D01*
X0096010Y0305277D01*
X0096117Y0305556D01*
X0096217Y0305837D01*
X0096310Y0306120D01*
X0096397Y0306406D01*
X0096476Y0306694D01*
X0096548Y0306983D01*
X0096613Y0307274D01*
X0096671Y0307567D01*
X0096722Y0307861D01*
X0096766Y0308156D01*
X0096802Y0308452D01*
X0096831Y0308749D01*
X0096853Y0309047D01*
X0096868Y0309345D01*
X0096875Y0309643D01*
X0096875Y0309941D01*
X0096868Y0310239D01*
X0096853Y0310537D01*
X0096831Y0310835D01*
X0096802Y0311132D01*
X0096766Y0311428D01*
X0096722Y0311723D01*
X0096671Y0312017D01*
X0096613Y0312310D01*
X0096548Y0312601D01*
X0096476Y0312890D01*
X0096397Y0313178D01*
X0096310Y0313464D01*
X0096217Y0313747D01*
X0096117Y0314028D01*
X0096010Y0314307D01*
X0095896Y0314582D01*
X0095776Y0314855D01*
X0095649Y0315125D01*
X0095515Y0315392D01*
X0095375Y0315655D01*
X0095228Y0315915D01*
X0095075Y0316171D01*
X0094916Y0316424D01*
X0094751Y0316672D01*
X0094580Y0316917D01*
X0094403Y0317157D01*
X0094220Y0317392D01*
X0094031Y0317623D01*
X0093837Y0317850D01*
X0093637Y0318072D01*
X0093432Y0318288D01*
X0093222Y0318500D01*
X0093006Y0318706D01*
X0092786Y0318907D01*
X0092561Y0319103D01*
X0092331Y0319293D01*
X0092096Y0319477D01*
X0091857Y0319656D01*
X0091614Y0319828D01*
X0091366Y0319995D01*
X0091115Y0320156D01*
X0090859Y0320310D01*
X0090600Y0320458D01*
X0090338Y0320600D01*
X0090072Y0320735D01*
X0089803Y0320864D01*
X0089531Y0320986D01*
X0089255Y0321101D01*
X0088978Y0321210D01*
X0088697Y0321312D01*
X0088414Y0321407D01*
X0080934Y0321407D02*
X0080651Y0321312D01*
X0080370Y0321210D01*
X0080093Y0321101D01*
X0079817Y0320986D01*
X0079545Y0320864D01*
X0079276Y0320735D01*
X0079010Y0320600D01*
X0078748Y0320458D01*
X0078489Y0320310D01*
X0078233Y0320156D01*
X0077982Y0319995D01*
X0077734Y0319828D01*
X0077491Y0319656D01*
X0077252Y0319477D01*
X0077017Y0319293D01*
X0076787Y0319103D01*
X0076562Y0318907D01*
X0076342Y0318706D01*
X0076126Y0318500D01*
X0075916Y0318288D01*
X0075711Y0318072D01*
X0075511Y0317850D01*
X0075317Y0317623D01*
X0075128Y0317392D01*
X0074945Y0317157D01*
X0074768Y0316917D01*
X0074597Y0316672D01*
X0074432Y0316424D01*
X0074273Y0316171D01*
X0074120Y0315915D01*
X0073973Y0315655D01*
X0073833Y0315392D01*
X0073699Y0315125D01*
X0073572Y0314855D01*
X0073452Y0314582D01*
X0073338Y0314307D01*
X0073231Y0314028D01*
X0073131Y0313747D01*
X0073038Y0313464D01*
X0072951Y0313178D01*
X0072872Y0312890D01*
X0072800Y0312601D01*
X0072735Y0312310D01*
X0072677Y0312017D01*
X0072626Y0311723D01*
X0072582Y0311428D01*
X0072546Y0311132D01*
X0072517Y0310835D01*
X0072495Y0310537D01*
X0072480Y0310239D01*
X0072473Y0309941D01*
X0072473Y0309643D01*
X0072480Y0309345D01*
X0072495Y0309047D01*
X0072517Y0308749D01*
X0072546Y0308452D01*
X0072582Y0308156D01*
X0072626Y0307861D01*
X0072677Y0307567D01*
X0072735Y0307274D01*
X0072800Y0306983D01*
X0072872Y0306694D01*
X0072951Y0306406D01*
X0073038Y0306120D01*
X0073131Y0305837D01*
X0073231Y0305556D01*
X0073338Y0305277D01*
X0073452Y0305002D01*
X0073572Y0304729D01*
X0073699Y0304459D01*
X0073833Y0304192D01*
X0073973Y0303929D01*
X0074120Y0303669D01*
X0074273Y0303413D01*
X0074432Y0303160D01*
X0074597Y0302912D01*
X0074768Y0302667D01*
X0074945Y0302427D01*
X0075128Y0302192D01*
X0075317Y0301961D01*
X0075511Y0301734D01*
X0075711Y0301512D01*
X0075916Y0301296D01*
X0076126Y0301084D01*
X0076342Y0300878D01*
X0076562Y0300677D01*
X0076787Y0300481D01*
X0077017Y0300291D01*
X0077252Y0300107D01*
X0077491Y0299928D01*
X0077734Y0299756D01*
X0077982Y0299589D01*
X0078233Y0299428D01*
X0078489Y0299274D01*
X0078748Y0299126D01*
X0079010Y0298984D01*
X0079276Y0298849D01*
X0079545Y0298720D01*
X0079817Y0298598D01*
X0080093Y0298483D01*
X0080370Y0298374D01*
X0080651Y0298272D01*
X0080934Y0298177D01*
X0088414Y0296997D02*
X0090776Y0296997D01*
X0097469Y0303690D01*
X0102863Y0322666D02*
X0111918Y0322666D01*
X0114347Y0321660D02*
X0117042Y0321660D01*
X0111918Y0321486D02*
X0111635Y0321391D01*
X0111354Y0321289D01*
X0111077Y0321180D01*
X0110801Y0321065D01*
X0110529Y0320943D01*
X0110260Y0320814D01*
X0109994Y0320679D01*
X0109732Y0320537D01*
X0109473Y0320389D01*
X0109217Y0320235D01*
X0108966Y0320074D01*
X0108718Y0319907D01*
X0108475Y0319735D01*
X0108236Y0319556D01*
X0108001Y0319372D01*
X0107771Y0319182D01*
X0107546Y0318986D01*
X0107326Y0318785D01*
X0107110Y0318579D01*
X0106900Y0318367D01*
X0106695Y0318151D01*
X0106495Y0317929D01*
X0106301Y0317702D01*
X0106112Y0317471D01*
X0105929Y0317236D01*
X0105752Y0316996D01*
X0105581Y0316751D01*
X0105416Y0316503D01*
X0105257Y0316250D01*
X0105104Y0315994D01*
X0104957Y0315734D01*
X0104817Y0315471D01*
X0104683Y0315204D01*
X0104556Y0314934D01*
X0104436Y0314661D01*
X0104322Y0314386D01*
X0104215Y0314107D01*
X0104115Y0313826D01*
X0104022Y0313543D01*
X0103935Y0313257D01*
X0103856Y0312969D01*
X0103784Y0312680D01*
X0103719Y0312389D01*
X0103661Y0312096D01*
X0103610Y0311802D01*
X0103566Y0311507D01*
X0103530Y0311211D01*
X0103501Y0310914D01*
X0103479Y0310616D01*
X0103464Y0310318D01*
X0103457Y0310020D01*
X0103457Y0309722D01*
X0103464Y0309424D01*
X0103479Y0309126D01*
X0103501Y0308828D01*
X0103530Y0308531D01*
X0103566Y0308235D01*
X0103610Y0307940D01*
X0103661Y0307646D01*
X0103719Y0307353D01*
X0103784Y0307062D01*
X0103856Y0306773D01*
X0103935Y0306485D01*
X0104022Y0306199D01*
X0104115Y0305916D01*
X0104215Y0305635D01*
X0104322Y0305356D01*
X0104436Y0305081D01*
X0104556Y0304808D01*
X0104683Y0304538D01*
X0104817Y0304271D01*
X0104957Y0304008D01*
X0105104Y0303748D01*
X0105257Y0303492D01*
X0105416Y0303239D01*
X0105581Y0302991D01*
X0105752Y0302746D01*
X0105929Y0302506D01*
X0106112Y0302271D01*
X0106301Y0302040D01*
X0106495Y0301813D01*
X0106695Y0301591D01*
X0106900Y0301375D01*
X0107110Y0301163D01*
X0107326Y0300957D01*
X0107546Y0300756D01*
X0107771Y0300560D01*
X0108001Y0300370D01*
X0108236Y0300186D01*
X0108475Y0300007D01*
X0108718Y0299835D01*
X0108966Y0299668D01*
X0109217Y0299507D01*
X0109473Y0299353D01*
X0109732Y0299205D01*
X0109994Y0299063D01*
X0110260Y0298928D01*
X0110529Y0298799D01*
X0110801Y0298677D01*
X0111077Y0298562D01*
X0111354Y0298453D01*
X0111635Y0298351D01*
X0111918Y0298256D01*
X0113946Y0368926D02*
X0106662Y0368926D01*
X0106662Y0373650D02*
X0113946Y0373650D01*
X0096387Y0373650D02*
X0089103Y0373650D01*
X0089103Y0368926D02*
X0096387Y0368926D01*
X0071879Y0322587D02*
X0071879Y0303690D01*
D12*
X0084674Y0296603D03*
X0084674Y0322981D03*
X0115658Y0323060D03*
X0115658Y0296682D03*
D13*
X0121134Y0310545D02*
X0123336Y0310545D01*
X0122235Y0309444D01*
X0122235Y0310911D01*
X0121501Y0311653D02*
X0122969Y0313121D01*
X0123336Y0313121D01*
X0123336Y0311653D01*
X0122602Y0313863D02*
X0121501Y0313863D01*
X0121134Y0314230D01*
X0121134Y0315331D01*
X0122602Y0315331D01*
X0121501Y0311653D02*
X0121134Y0311653D01*
X0120924Y0326390D02*
X0120557Y0326757D01*
X0120924Y0326390D02*
X0121658Y0326390D01*
X0122025Y0326757D01*
X0122025Y0328225D01*
X0121658Y0328592D01*
X0120924Y0328592D01*
X0120557Y0328225D01*
X0119815Y0327491D02*
X0119815Y0326757D01*
X0119448Y0326390D01*
X0118714Y0326390D01*
X0118347Y0326757D01*
X0118347Y0327124D01*
X0118714Y0327491D01*
X0119815Y0327491D01*
X0119081Y0328225D01*
X0118347Y0328592D01*
X0118076Y0327897D02*
X0117342Y0328631D01*
X0117342Y0326429D01*
X0118076Y0326429D02*
X0116608Y0326429D01*
X0115866Y0326796D02*
X0115866Y0328264D01*
X0115499Y0328631D01*
X0114765Y0328631D01*
X0114398Y0328264D01*
X0115866Y0326796D01*
X0115499Y0326429D01*
X0114765Y0326429D01*
X0114398Y0326796D01*
X0114398Y0328264D01*
X0113656Y0328264D02*
X0113289Y0328631D01*
X0112555Y0328631D01*
X0112188Y0328264D01*
X0113656Y0326796D01*
X0113289Y0326429D01*
X0112555Y0326429D01*
X0112188Y0326796D01*
X0112188Y0328264D01*
X0111446Y0327897D02*
X0111446Y0326429D01*
X0109978Y0326429D02*
X0109978Y0327530D01*
X0110345Y0327897D01*
X0111446Y0327897D01*
X0109236Y0327530D02*
X0108502Y0327530D01*
X0108869Y0328264D02*
X0108502Y0328631D01*
X0108869Y0328264D02*
X0108869Y0326429D01*
X0108607Y0314938D02*
X0110075Y0314938D01*
X0110442Y0314571D01*
X0110442Y0313837D01*
X0110075Y0313470D01*
X0109708Y0313470D01*
X0109341Y0313837D01*
X0109341Y0314938D01*
X0108607Y0314938D02*
X0108240Y0314571D01*
X0108240Y0313837D01*
X0108607Y0313470D01*
X0108607Y0312728D02*
X0108240Y0312361D01*
X0108240Y0311627D01*
X0108607Y0311260D01*
X0110075Y0311260D01*
X0110442Y0311627D01*
X0110442Y0312361D01*
X0110075Y0312728D01*
X0113656Y0326796D02*
X0113656Y0328264D01*
X0107724Y0347274D02*
X0107724Y0348375D01*
X0107357Y0348742D01*
X0106623Y0348742D01*
X0106256Y0348375D01*
X0106256Y0347274D01*
X0105522Y0347274D02*
X0107724Y0347274D01*
X0106256Y0348008D02*
X0105522Y0348742D01*
X0105522Y0349484D02*
X0105889Y0349484D01*
X0107357Y0350952D01*
X0107724Y0350952D01*
X0107724Y0349484D01*
X0108078Y0353573D02*
X0105876Y0353573D01*
X0105876Y0354674D01*
X0106243Y0355041D01*
X0106977Y0355041D01*
X0107344Y0354674D01*
X0107344Y0353573D01*
X0106977Y0355783D02*
X0107344Y0356150D01*
X0107344Y0356884D01*
X0106977Y0357251D01*
X0106610Y0357251D01*
X0106610Y0355783D01*
X0106243Y0355783D02*
X0106977Y0355783D01*
X0106243Y0355783D02*
X0105876Y0356150D01*
X0105876Y0356884D01*
X0106243Y0357993D02*
X0105876Y0358360D01*
X0105876Y0359461D01*
X0106977Y0359461D01*
X0107344Y0359094D01*
X0107344Y0358360D01*
X0106610Y0358360D02*
X0106610Y0359461D01*
X0106243Y0360203D02*
X0106977Y0360203D01*
X0107344Y0360570D01*
X0107344Y0361671D01*
X0108078Y0361671D02*
X0105876Y0361671D01*
X0105876Y0360570D01*
X0106243Y0360203D01*
X0106610Y0358360D02*
X0106243Y0357993D01*
X0106893Y0364302D02*
X0107627Y0364302D01*
X0107994Y0364669D01*
X0106526Y0366136D01*
X0106526Y0364669D01*
X0106893Y0364302D01*
X0107994Y0364669D02*
X0107994Y0366136D01*
X0107627Y0366503D01*
X0106893Y0366503D01*
X0106526Y0366136D01*
X0105784Y0366136D02*
X0105417Y0366503D01*
X0104683Y0366503D01*
X0104316Y0366136D01*
X0105784Y0364669D01*
X0105417Y0364302D01*
X0104683Y0364302D01*
X0104316Y0364669D01*
X0104316Y0366136D01*
X0103574Y0365769D02*
X0102473Y0365769D01*
X0102106Y0365403D01*
X0102106Y0364302D01*
X0103574Y0364302D02*
X0103574Y0365769D01*
X0105784Y0366136D02*
X0105784Y0364669D01*
X0108736Y0364302D02*
X0110204Y0364302D01*
X0109470Y0364302D02*
X0109470Y0366503D01*
X0110204Y0365769D01*
X0113219Y0366038D02*
X0114687Y0364570D01*
X0114687Y0364203D01*
X0115429Y0364570D02*
X0115796Y0364203D01*
X0116530Y0364203D01*
X0116897Y0364570D01*
X0116897Y0366038D01*
X0116530Y0366405D01*
X0115796Y0366405D01*
X0115429Y0366038D01*
X0114687Y0366405D02*
X0113219Y0366405D01*
X0113219Y0366038D01*
X0118988Y0366313D02*
X0121190Y0366313D01*
X0118988Y0367781D01*
X0121190Y0367781D01*
X0121190Y0368523D02*
X0120089Y0368523D01*
X0120456Y0369256D01*
X0120456Y0369623D01*
X0120089Y0369990D01*
X0119355Y0369990D01*
X0118988Y0369623D01*
X0118988Y0368890D01*
X0119355Y0368523D01*
X0121190Y0368523D02*
X0121190Y0369990D01*
X0120823Y0370732D02*
X0120456Y0370732D01*
X0120089Y0371099D01*
X0120089Y0371833D01*
X0119722Y0372200D01*
X0119355Y0372200D01*
X0118988Y0371833D01*
X0118988Y0371099D01*
X0119355Y0370732D01*
X0119722Y0370732D01*
X0120089Y0371099D01*
X0120089Y0371833D02*
X0120456Y0372200D01*
X0120823Y0372200D01*
X0121190Y0371833D01*
X0121190Y0371099D01*
X0120823Y0370732D01*
X0120456Y0372942D02*
X0121190Y0373676D01*
X0118988Y0373676D01*
X0118988Y0372942D02*
X0118988Y0374410D01*
X0119355Y0375152D02*
X0118988Y0375519D01*
X0118988Y0376253D01*
X0119355Y0376620D01*
X0120823Y0376620D01*
X0121190Y0376253D01*
X0121190Y0375519D01*
X0120823Y0375152D01*
X0120456Y0375152D01*
X0120089Y0375519D01*
X0120089Y0376620D01*
X0120089Y0377362D02*
X0120089Y0378830D01*
X0121190Y0378830D02*
X0118988Y0378830D01*
X0118988Y0379572D02*
X0119722Y0380306D01*
X0118988Y0381040D01*
X0121190Y0381040D01*
X0121190Y0379572D02*
X0118988Y0379572D01*
X0118988Y0377362D02*
X0121190Y0377362D01*
X0118988Y0365571D02*
X0118988Y0364103D01*
X0118988Y0364837D02*
X0121190Y0364837D01*
X0120456Y0364103D01*
X0120850Y0362536D02*
X0121217Y0362536D01*
X0121584Y0362169D01*
X0121584Y0361435D01*
X0121217Y0361068D01*
X0121217Y0360326D02*
X0119749Y0360326D01*
X0119382Y0359959D01*
X0119382Y0358858D01*
X0121584Y0358858D01*
X0121584Y0359959D01*
X0121217Y0360326D01*
X0119382Y0361068D02*
X0120850Y0362536D01*
X0119382Y0362536D02*
X0119382Y0361068D01*
X0100456Y0364729D02*
X0100089Y0364362D01*
X0099355Y0364362D01*
X0098988Y0364729D01*
X0098246Y0364362D02*
X0096778Y0364362D01*
X0097512Y0364362D02*
X0097512Y0366564D01*
X0098246Y0365830D01*
X0098988Y0366197D02*
X0099355Y0366564D01*
X0100089Y0366564D01*
X0100456Y0366197D01*
X0100456Y0364729D01*
X0096036Y0364362D02*
X0094568Y0364362D01*
X0094398Y0364657D02*
X0092930Y0364657D01*
X0093664Y0364657D02*
X0093664Y0366859D01*
X0094398Y0366125D01*
X0095302Y0366564D02*
X0095302Y0364362D01*
X0096036Y0365830D02*
X0095302Y0366564D01*
X0092188Y0366492D02*
X0091821Y0366859D01*
X0091087Y0366859D01*
X0090720Y0366492D01*
X0092188Y0365024D01*
X0091821Y0364657D01*
X0091087Y0364657D01*
X0090720Y0365024D01*
X0090720Y0366492D01*
X0089978Y0366492D02*
X0089611Y0366859D01*
X0088877Y0366859D01*
X0088510Y0366492D01*
X0089978Y0365024D01*
X0089611Y0364657D01*
X0088877Y0364657D01*
X0088510Y0365024D01*
X0088510Y0366492D01*
X0087768Y0366125D02*
X0086667Y0366125D01*
X0086300Y0365758D01*
X0086300Y0364657D01*
X0087768Y0364657D02*
X0087768Y0366125D01*
X0089978Y0366492D02*
X0089978Y0365024D01*
X0092188Y0365024D02*
X0092188Y0366492D01*
X0083552Y0361571D02*
X0081350Y0361571D01*
X0081350Y0360470D01*
X0081717Y0360103D01*
X0082451Y0360103D01*
X0082818Y0360470D01*
X0082818Y0361571D01*
X0082451Y0359362D02*
X0081350Y0359362D01*
X0081350Y0358261D01*
X0081717Y0357894D01*
X0082084Y0358261D01*
X0082084Y0359362D01*
X0082451Y0359362D02*
X0082818Y0358995D01*
X0082818Y0358261D01*
X0082451Y0357152D02*
X0082084Y0357152D01*
X0082084Y0355684D01*
X0081717Y0355684D02*
X0082451Y0355684D01*
X0082818Y0356051D01*
X0082818Y0356785D01*
X0082451Y0357152D01*
X0081350Y0356785D02*
X0081350Y0356051D01*
X0081717Y0355684D01*
X0081717Y0354942D02*
X0082451Y0354942D01*
X0082818Y0354575D01*
X0082818Y0353474D01*
X0083552Y0353474D02*
X0081350Y0353474D01*
X0081350Y0354575D01*
X0081717Y0354942D01*
X0081651Y0352516D02*
X0081284Y0352516D01*
X0080917Y0352149D01*
X0080917Y0351415D01*
X0081284Y0351048D01*
X0081651Y0351048D01*
X0082018Y0351415D01*
X0082018Y0352149D01*
X0081651Y0352516D01*
X0082018Y0352149D02*
X0082385Y0352516D01*
X0082752Y0352516D01*
X0083119Y0352149D01*
X0083119Y0351415D01*
X0082752Y0351048D01*
X0082385Y0351048D01*
X0082018Y0351415D01*
X0082018Y0350306D02*
X0081651Y0349939D01*
X0081651Y0348838D01*
X0080917Y0348838D02*
X0083119Y0348838D01*
X0083119Y0349939D01*
X0082752Y0350306D01*
X0082018Y0350306D01*
X0081651Y0349572D02*
X0080917Y0350306D01*
X0080850Y0329102D02*
X0080116Y0329102D01*
X0079749Y0328735D01*
X0081217Y0327267D01*
X0080850Y0326900D01*
X0080116Y0326900D01*
X0079749Y0327267D01*
X0079749Y0328735D01*
X0079007Y0328368D02*
X0077906Y0328368D01*
X0077539Y0328001D01*
X0077539Y0326900D01*
X0079007Y0326900D02*
X0079007Y0328368D01*
X0080850Y0329102D02*
X0081217Y0328735D01*
X0081217Y0327267D01*
X0081959Y0327267D02*
X0082326Y0326900D01*
X0083060Y0326900D01*
X0083427Y0327267D01*
X0081959Y0328735D01*
X0081959Y0327267D01*
X0081959Y0328735D02*
X0082326Y0329102D01*
X0083060Y0329102D01*
X0083427Y0328735D01*
X0083427Y0327267D01*
X0084169Y0326900D02*
X0085637Y0326900D01*
X0084903Y0326900D02*
X0084903Y0329102D01*
X0085637Y0328368D01*
X0087471Y0328663D02*
X0087838Y0328296D01*
X0088572Y0328296D01*
X0088939Y0328663D01*
X0088939Y0329030D01*
X0088572Y0329397D01*
X0087838Y0329397D01*
X0087471Y0329030D01*
X0087471Y0328663D01*
X0087838Y0328296D02*
X0087471Y0327929D01*
X0087471Y0327562D01*
X0087838Y0327195D01*
X0088572Y0327195D01*
X0088939Y0327562D01*
X0088939Y0327929D01*
X0088572Y0328296D01*
X0089681Y0327562D02*
X0090048Y0327195D01*
X0090782Y0327195D01*
X0091149Y0327562D01*
X0091149Y0329030D01*
X0090782Y0329397D01*
X0090048Y0329397D01*
X0089681Y0329030D01*
X0089756Y0315252D02*
X0091224Y0315252D01*
X0091224Y0313785D02*
X0090123Y0313785D01*
X0089756Y0314152D01*
X0089756Y0315252D01*
X0091591Y0313043D02*
X0090123Y0311575D01*
X0089756Y0311575D01*
X0089756Y0310466D02*
X0091958Y0310466D01*
X0090857Y0309365D01*
X0090857Y0310833D01*
X0091958Y0311575D02*
X0091958Y0313043D01*
X0091591Y0313043D01*
X0079458Y0312702D02*
X0077256Y0312702D01*
X0077256Y0311968D02*
X0077256Y0313436D01*
X0077623Y0314178D02*
X0079091Y0315646D01*
X0077623Y0315646D01*
X0077256Y0315279D01*
X0077256Y0314545D01*
X0077623Y0314178D01*
X0079091Y0314178D01*
X0079458Y0314545D01*
X0079458Y0315279D01*
X0079091Y0315646D01*
X0079458Y0312702D02*
X0078724Y0311968D01*
X0079091Y0311226D02*
X0079458Y0310859D01*
X0079458Y0310126D01*
X0079091Y0309759D01*
X0077623Y0309759D01*
X0077256Y0310126D01*
X0077256Y0310859D01*
X0077623Y0311226D01*
X0079498Y0266737D02*
X0080232Y0265636D01*
X0080966Y0266737D01*
X0081700Y0265636D02*
X0079498Y0265636D01*
X0079865Y0264894D02*
X0079498Y0264527D01*
X0079498Y0263793D01*
X0079865Y0263426D01*
X0081333Y0264894D01*
X0079865Y0264894D01*
X0079865Y0263426D02*
X0081333Y0263426D01*
X0081700Y0263793D01*
X0081700Y0264527D01*
X0081333Y0264894D01*
X0081333Y0262684D02*
X0079865Y0261216D01*
X0079498Y0261583D01*
X0079498Y0262317D01*
X0079865Y0262684D01*
X0081333Y0262684D01*
X0081700Y0262317D01*
X0081700Y0261583D01*
X0081333Y0261216D01*
X0079865Y0261216D01*
X0079498Y0260474D02*
X0079498Y0259006D01*
X0079498Y0259740D02*
X0081700Y0259740D01*
X0080966Y0259006D01*
X0080639Y0257020D02*
X0080639Y0255552D01*
X0081740Y0256653D01*
X0079538Y0256653D01*
X0079538Y0254810D02*
X0079538Y0253342D01*
X0081006Y0254810D01*
X0081373Y0254810D01*
X0081740Y0254443D01*
X0081740Y0253709D01*
X0081373Y0253342D01*
X0081373Y0252600D02*
X0080639Y0252600D01*
X0080272Y0252233D01*
X0080272Y0251132D01*
X0079538Y0251132D02*
X0081740Y0251132D01*
X0081740Y0252233D01*
X0081373Y0252600D01*
X0080272Y0251866D02*
X0079538Y0252600D01*
X0094243Y0252260D02*
X0096444Y0252260D01*
X0096444Y0251526D02*
X0096444Y0252994D01*
X0096444Y0253736D02*
X0096444Y0255204D01*
X0096077Y0255204D01*
X0094609Y0253736D01*
X0094243Y0253736D01*
X0094688Y0257825D02*
X0094321Y0258192D01*
X0094321Y0258926D01*
X0094688Y0259293D01*
X0095055Y0259293D01*
X0095422Y0258926D01*
X0095422Y0258559D01*
X0095422Y0258926D02*
X0095789Y0259293D01*
X0096156Y0259293D01*
X0096523Y0258926D01*
X0096523Y0258192D01*
X0096156Y0257825D01*
X0096156Y0260035D02*
X0095789Y0260035D01*
X0095422Y0260402D01*
X0095422Y0261503D01*
X0094688Y0261503D02*
X0096156Y0261503D01*
X0096523Y0261136D01*
X0096523Y0260402D01*
X0096156Y0260035D01*
X0096156Y0262245D02*
X0096523Y0262612D01*
X0096523Y0263346D01*
X0096156Y0263713D01*
X0094688Y0262245D01*
X0094321Y0262612D01*
X0094321Y0263346D01*
X0094688Y0263713D01*
X0096156Y0263713D01*
X0095422Y0264455D02*
X0095422Y0265923D01*
X0094321Y0265556D02*
X0096523Y0265556D01*
X0095422Y0264455D01*
X0094688Y0262245D02*
X0096156Y0262245D01*
X0094688Y0261503D02*
X0094321Y0261136D01*
X0094321Y0260402D01*
X0094688Y0260035D01*
X0124183Y0261841D02*
X0124183Y0263309D01*
X0124183Y0262575D02*
X0126385Y0262575D01*
X0125651Y0261841D01*
X0124917Y0264051D02*
X0124183Y0265152D01*
X0124183Y0264051D02*
X0126385Y0264051D01*
X0125651Y0265152D02*
X0124917Y0264051D01*
X0124590Y0257099D02*
X0124223Y0256732D01*
X0124223Y0255998D01*
X0124590Y0255631D01*
X0125324Y0255631D02*
X0125691Y0256365D01*
X0125691Y0256732D01*
X0125324Y0257099D01*
X0124590Y0257099D01*
X0125324Y0255631D02*
X0126425Y0255631D01*
X0126425Y0257099D01*
X0126058Y0254889D02*
X0125691Y0254889D01*
X0124223Y0253421D01*
X0124223Y0254889D01*
X0124223Y0252679D02*
X0124957Y0251945D01*
X0124957Y0252312D02*
X0124957Y0251211D01*
X0124223Y0251211D02*
X0126425Y0251211D01*
X0126425Y0252312D01*
X0126058Y0252679D01*
X0125324Y0252679D01*
X0124957Y0252312D01*
X0126058Y0253421D02*
X0126425Y0253788D01*
X0126425Y0254522D01*
X0126058Y0254889D01*
X0072803Y0357766D02*
X0072803Y0358867D01*
X0072436Y0359234D01*
X0070968Y0359234D01*
X0070601Y0358867D01*
X0070601Y0357766D01*
X0072803Y0357766D01*
X0072069Y0359976D02*
X0072803Y0360710D01*
X0070601Y0360710D01*
X0070601Y0359976D02*
X0070601Y0361444D01*
X0070601Y0363278D02*
X0070601Y0364746D01*
X0070601Y0364012D02*
X0072803Y0364012D01*
X0072069Y0363278D01*
X0072803Y0365488D02*
X0070601Y0366956D01*
X0072803Y0366956D01*
X0072803Y0367698D02*
X0071702Y0367698D01*
X0072069Y0368432D01*
X0072069Y0368799D01*
X0071702Y0369166D01*
X0070968Y0369166D01*
X0070601Y0368799D01*
X0070601Y0368065D01*
X0070968Y0367698D01*
X0072803Y0367698D02*
X0072803Y0369166D01*
X0072436Y0369908D02*
X0072069Y0369908D01*
X0071702Y0370275D01*
X0071702Y0371009D01*
X0071335Y0371376D01*
X0070968Y0371376D01*
X0070601Y0371009D01*
X0070601Y0370275D01*
X0070968Y0369908D01*
X0071335Y0369908D01*
X0071702Y0370275D01*
X0071702Y0371009D02*
X0072069Y0371376D01*
X0072436Y0371376D01*
X0072803Y0371009D01*
X0072803Y0370275D01*
X0072436Y0369908D01*
X0072069Y0372117D02*
X0072803Y0372851D01*
X0070601Y0372851D01*
X0070601Y0372117D02*
X0070601Y0373585D01*
X0070968Y0374327D02*
X0070601Y0374694D01*
X0070601Y0375428D01*
X0070968Y0375795D01*
X0072436Y0375795D01*
X0072803Y0375428D01*
X0072803Y0374694D01*
X0072436Y0374327D01*
X0072069Y0374327D01*
X0071702Y0374694D01*
X0071702Y0375795D01*
X0071702Y0376537D02*
X0071702Y0378005D01*
X0072803Y0378005D02*
X0070601Y0378005D01*
X0070601Y0378747D02*
X0071335Y0379481D01*
X0070601Y0380215D01*
X0072803Y0380215D01*
X0072803Y0378747D02*
X0070601Y0378747D01*
X0070601Y0376537D02*
X0072803Y0376537D01*
X0072803Y0365488D02*
X0070601Y0365488D01*
D14*
X0081997Y0333887D03*
X0087902Y0333887D03*
X0089792Y0371288D03*
X0095698Y0371288D03*
X0107351Y0371288D03*
X0113257Y0371288D03*
D15*
X0112008Y0333292D03*
X0117708Y0333292D03*
D16*
X0122863Y0364753D02*
X0128375Y0364753D01*
X0128375Y0373414D01*
X0122863Y0373414D01*
X0122863Y0364753D01*
X0079162Y0362784D02*
X0073650Y0362784D01*
X0073650Y0371446D01*
X0079162Y0371446D01*
X0079162Y0362784D01*
D17*
X0076308Y0360914D03*
X0076308Y0373316D03*
X0125717Y0375284D03*
X0125717Y0362883D03*
D18*
X0125520Y0371446D03*
X0076505Y0364753D03*
D19*
X0078158Y0382981D02*
X0075658Y0385481D01*
X0075658Y0400481D01*
X0078158Y0402981D01*
X0083158Y0402981D01*
X0085658Y0400481D01*
X0085658Y0385481D01*
X0088158Y0382981D01*
X0093158Y0382981D01*
X0095658Y0385481D01*
X0095658Y0400481D01*
X0098158Y0402981D01*
X0103158Y0402981D01*
X0105658Y0400481D01*
X0105658Y0385481D01*
X0108158Y0382981D01*
X0113158Y0382981D01*
X0115658Y0385481D01*
X0118158Y0382981D01*
X0123158Y0382981D01*
X0125658Y0385481D01*
X0125658Y0400481D01*
X0123158Y0402981D01*
X0118158Y0402981D01*
X0115658Y0400481D01*
X0115658Y0385481D01*
X0115658Y0400481D02*
X0113158Y0402981D01*
X0108158Y0402981D01*
X0105658Y0400481D01*
X0105658Y0385481D02*
X0103158Y0382981D01*
X0098158Y0382981D01*
X0095658Y0385481D01*
X0095658Y0400481D02*
X0093158Y0402981D01*
X0088158Y0402981D01*
X0085658Y0400481D01*
X0085658Y0385481D02*
X0083158Y0382981D01*
X0078158Y0382981D01*
X0086111Y0357391D02*
X0086111Y0354162D01*
X0091111Y0354162D02*
X0091111Y0357391D01*
X0110127Y0356406D02*
X0110127Y0353178D01*
X0115127Y0353178D02*
X0115127Y0356406D01*
X0089536Y0259871D02*
X0089536Y0256643D01*
X0084536Y0256643D02*
X0084536Y0259871D01*
X0098946Y0182961D02*
X0111346Y0182961D01*
X0111446Y0182961D02*
X0111446Y0147961D01*
X0111346Y0147961D02*
X0098946Y0147961D01*
X0098870Y0147963D01*
X0098794Y0147969D01*
X0098719Y0147978D01*
X0098644Y0147992D01*
X0098570Y0148009D01*
X0098497Y0148030D01*
X0098425Y0148054D01*
X0098354Y0148083D01*
X0098285Y0148114D01*
X0098218Y0148149D01*
X0098153Y0148188D01*
X0098089Y0148230D01*
X0098028Y0148275D01*
X0097969Y0148323D01*
X0097913Y0148374D01*
X0097859Y0148428D01*
X0097808Y0148484D01*
X0097760Y0148543D01*
X0097715Y0148604D01*
X0097673Y0148668D01*
X0097634Y0148733D01*
X0097599Y0148800D01*
X0097568Y0148869D01*
X0097539Y0148940D01*
X0097515Y0149012D01*
X0097494Y0149085D01*
X0097477Y0149159D01*
X0097463Y0149234D01*
X0097454Y0149309D01*
X0097448Y0149385D01*
X0097446Y0149461D01*
X0097446Y0181461D01*
X0097448Y0181537D01*
X0097454Y0181613D01*
X0097463Y0181688D01*
X0097477Y0181763D01*
X0097494Y0181837D01*
X0097515Y0181910D01*
X0097539Y0181982D01*
X0097568Y0182053D01*
X0097599Y0182122D01*
X0097634Y0182189D01*
X0097673Y0182254D01*
X0097715Y0182318D01*
X0097760Y0182379D01*
X0097808Y0182438D01*
X0097859Y0182494D01*
X0097913Y0182548D01*
X0097969Y0182599D01*
X0098028Y0182647D01*
X0098089Y0182692D01*
X0098153Y0182734D01*
X0098218Y0182773D01*
X0098285Y0182808D01*
X0098354Y0182839D01*
X0098425Y0182868D01*
X0098497Y0182892D01*
X0098570Y0182913D01*
X0098644Y0182930D01*
X0098719Y0182944D01*
X0098794Y0182953D01*
X0098870Y0182959D01*
X0098946Y0182961D01*
X0103146Y0182961D02*
X0103148Y0182873D01*
X0103154Y0182784D01*
X0103164Y0182696D01*
X0103177Y0182609D01*
X0103195Y0182522D01*
X0103216Y0182436D01*
X0103241Y0182351D01*
X0103270Y0182268D01*
X0103303Y0182185D01*
X0103339Y0182105D01*
X0103378Y0182026D01*
X0103421Y0181948D01*
X0103468Y0181873D01*
X0103518Y0181800D01*
X0103571Y0181729D01*
X0103627Y0181660D01*
X0103686Y0181594D01*
X0103748Y0181531D01*
X0103812Y0181471D01*
X0103879Y0181413D01*
X0103949Y0181359D01*
X0104021Y0181307D01*
X0104095Y0181259D01*
X0104172Y0181214D01*
X0104250Y0181173D01*
X0104330Y0181135D01*
X0104411Y0181101D01*
X0104494Y0181070D01*
X0104579Y0181043D01*
X0104664Y0181020D01*
X0104750Y0181001D01*
X0104838Y0180985D01*
X0104925Y0180973D01*
X0105013Y0180965D01*
X0105102Y0180961D01*
X0105190Y0180961D01*
X0105279Y0180965D01*
X0105367Y0180973D01*
X0105454Y0180985D01*
X0105542Y0181001D01*
X0105628Y0181020D01*
X0105713Y0181043D01*
X0105798Y0181070D01*
X0105881Y0181101D01*
X0105962Y0181135D01*
X0106042Y0181173D01*
X0106120Y0181214D01*
X0106197Y0181259D01*
X0106271Y0181307D01*
X0106343Y0181359D01*
X0106413Y0181413D01*
X0106480Y0181471D01*
X0106544Y0181531D01*
X0106606Y0181594D01*
X0106665Y0181660D01*
X0106721Y0181729D01*
X0106774Y0181800D01*
X0106824Y0181873D01*
X0106871Y0181948D01*
X0106914Y0182026D01*
X0106953Y0182105D01*
X0106989Y0182185D01*
X0107022Y0182268D01*
X0107051Y0182351D01*
X0107076Y0182436D01*
X0107097Y0182522D01*
X0107115Y0182609D01*
X0107128Y0182696D01*
X0107138Y0182784D01*
X0107144Y0182873D01*
X0107146Y0182961D01*
X0111346Y0182961D02*
X0111422Y0182959D01*
X0111498Y0182953D01*
X0111573Y0182944D01*
X0111648Y0182930D01*
X0111722Y0182913D01*
X0111795Y0182892D01*
X0111867Y0182868D01*
X0111938Y0182839D01*
X0112007Y0182808D01*
X0112074Y0182773D01*
X0112139Y0182734D01*
X0112203Y0182692D01*
X0112264Y0182647D01*
X0112323Y0182599D01*
X0112379Y0182548D01*
X0112433Y0182494D01*
X0112484Y0182438D01*
X0112532Y0182379D01*
X0112577Y0182318D01*
X0112619Y0182254D01*
X0112658Y0182189D01*
X0112693Y0182122D01*
X0112724Y0182053D01*
X0112753Y0181982D01*
X0112777Y0181910D01*
X0112798Y0181837D01*
X0112815Y0181763D01*
X0112829Y0181688D01*
X0112838Y0181613D01*
X0112844Y0181537D01*
X0112846Y0181461D01*
X0112846Y0149461D01*
X0112844Y0149385D01*
X0112838Y0149309D01*
X0112829Y0149234D01*
X0112815Y0149159D01*
X0112798Y0149085D01*
X0112777Y0149012D01*
X0112753Y0148940D01*
X0112724Y0148869D01*
X0112693Y0148800D01*
X0112658Y0148733D01*
X0112619Y0148668D01*
X0112577Y0148604D01*
X0112532Y0148543D01*
X0112484Y0148484D01*
X0112433Y0148428D01*
X0112379Y0148374D01*
X0112323Y0148323D01*
X0112264Y0148275D01*
X0112203Y0148230D01*
X0112139Y0148188D01*
X0112074Y0148149D01*
X0112007Y0148114D01*
X0111938Y0148083D01*
X0111867Y0148054D01*
X0111795Y0148030D01*
X0111722Y0148009D01*
X0111648Y0147992D01*
X0111573Y0147978D01*
X0111498Y0147969D01*
X0111422Y0147963D01*
X0111346Y0147961D01*
X0115835Y0256328D02*
X0115835Y0259556D01*
X0120835Y0259556D02*
X0120835Y0256328D01*
D20*
X0115096Y0180461D03*
X0115096Y0175461D03*
X0114996Y0170461D03*
X0115096Y0165461D03*
X0115096Y0160461D03*
X0115096Y0155461D03*
X0115096Y0150461D03*
X0095196Y0150461D03*
X0095196Y0155461D03*
X0095196Y0160461D03*
X0095196Y0165461D03*
X0095196Y0170461D03*
X0095196Y0175461D03*
X0095196Y0180461D03*
D21*
X0103584Y0176546D02*
X0103584Y0175495D01*
X0105686Y0175495D01*
X0105686Y0176546D01*
X0105335Y0176897D01*
X0103934Y0176897D01*
X0103584Y0176546D01*
X0104635Y0174687D02*
X0104635Y0173286D01*
X0105686Y0174336D01*
X0103584Y0174336D01*
X0105335Y0172477D02*
X0103934Y0171076D01*
X0103584Y0171076D01*
X0103934Y0170267D02*
X0103584Y0169917D01*
X0103584Y0169216D01*
X0103934Y0168866D01*
X0105335Y0170267D01*
X0103934Y0170267D01*
X0103934Y0168866D02*
X0105335Y0168866D01*
X0105686Y0169216D01*
X0105686Y0169917D01*
X0105335Y0170267D01*
X0105686Y0171076D02*
X0105686Y0172477D01*
X0105335Y0172477D01*
X0103584Y0168057D02*
X0103584Y0166656D01*
X0105686Y0166656D01*
X0105686Y0165847D02*
X0105686Y0164446D01*
X0105686Y0165147D02*
X0103584Y0165147D01*
X0103796Y0160467D02*
X0103796Y0159066D01*
X0103796Y0159767D02*
X0105898Y0159767D01*
X0105198Y0159066D01*
X0105548Y0158258D02*
X0105898Y0157907D01*
X0105898Y0157207D01*
X0105548Y0156856D01*
X0104147Y0156856D01*
X0103796Y0157207D01*
X0103796Y0157907D01*
X0104147Y0158258D01*
X0103796Y0156084D02*
X0103796Y0155383D01*
X0103796Y0155733D02*
X0105898Y0155733D01*
X0105898Y0155383D02*
X0105898Y0156084D01*
D22*
X0083158Y0405481D02*
X0078158Y0405481D01*
D23*
X0080658Y0397981D03*
X0080658Y0387981D03*
X0090658Y0387981D03*
X0090658Y0397981D03*
X0100658Y0397981D03*
X0100658Y0387981D03*
X0110658Y0387981D03*
X0110658Y0397981D03*
X0120658Y0397981D03*
X0120658Y0387981D03*
D24*
X0112633Y0357672D03*
X0112633Y0351872D03*
X0088605Y0352897D03*
X0088605Y0358697D03*
X0087042Y0261136D03*
X0087042Y0255336D03*
X0118341Y0255021D03*
X0118341Y0260821D03*
D25*
X0107746Y0263739D02*
X0107746Y0252539D01*
X0102546Y0252539D01*
X0102546Y0263739D01*
X0107746Y0263739D01*
D26*
X0109096Y0258139D03*
X0101196Y0261839D03*
X0101196Y0254439D03*
M02*
