G75*
%MOIN*%
%OFA0B0*%
%FSLAX25Y25*%
%IPPOS*%
%LPD*%
%AMOC8*
5,1,8,0,0,1.08239X$1,22.5*
%
%ADD10C,0.00000*%
%ADD11C,0.00039*%
D10*
X0065737Y0017548D02*
X0069674Y0017548D01*
X0069713Y0013611D02*
X0069713Y0407312D01*
X0129713Y0407312D01*
X0129713Y0013611D01*
X0069713Y0013611D01*
X0071485Y0095501D02*
X0071487Y0095654D01*
X0071493Y0095808D01*
X0071503Y0095961D01*
X0071517Y0096113D01*
X0071535Y0096266D01*
X0071557Y0096417D01*
X0071582Y0096568D01*
X0071612Y0096719D01*
X0071646Y0096869D01*
X0071683Y0097017D01*
X0071724Y0097165D01*
X0071769Y0097311D01*
X0071818Y0097457D01*
X0071871Y0097601D01*
X0071927Y0097743D01*
X0071987Y0097884D01*
X0072051Y0098024D01*
X0072118Y0098162D01*
X0072189Y0098298D01*
X0072264Y0098432D01*
X0072341Y0098564D01*
X0072423Y0098694D01*
X0072507Y0098822D01*
X0072595Y0098948D01*
X0072686Y0099071D01*
X0072780Y0099192D01*
X0072878Y0099310D01*
X0072978Y0099426D01*
X0073082Y0099539D01*
X0073188Y0099650D01*
X0073297Y0099758D01*
X0073409Y0099863D01*
X0073523Y0099964D01*
X0073641Y0100063D01*
X0073760Y0100159D01*
X0073882Y0100252D01*
X0074007Y0100341D01*
X0074134Y0100428D01*
X0074263Y0100510D01*
X0074394Y0100590D01*
X0074527Y0100666D01*
X0074662Y0100739D01*
X0074799Y0100808D01*
X0074938Y0100873D01*
X0075078Y0100935D01*
X0075220Y0100993D01*
X0075363Y0101048D01*
X0075508Y0101099D01*
X0075654Y0101146D01*
X0075801Y0101189D01*
X0075949Y0101228D01*
X0076098Y0101264D01*
X0076248Y0101295D01*
X0076399Y0101323D01*
X0076550Y0101347D01*
X0076703Y0101367D01*
X0076855Y0101383D01*
X0077008Y0101395D01*
X0077161Y0101403D01*
X0077314Y0101407D01*
X0077468Y0101407D01*
X0077621Y0101403D01*
X0077774Y0101395D01*
X0077927Y0101383D01*
X0078079Y0101367D01*
X0078232Y0101347D01*
X0078383Y0101323D01*
X0078534Y0101295D01*
X0078684Y0101264D01*
X0078833Y0101228D01*
X0078981Y0101189D01*
X0079128Y0101146D01*
X0079274Y0101099D01*
X0079419Y0101048D01*
X0079562Y0100993D01*
X0079704Y0100935D01*
X0079844Y0100873D01*
X0079983Y0100808D01*
X0080120Y0100739D01*
X0080255Y0100666D01*
X0080388Y0100590D01*
X0080519Y0100510D01*
X0080648Y0100428D01*
X0080775Y0100341D01*
X0080900Y0100252D01*
X0081022Y0100159D01*
X0081141Y0100063D01*
X0081259Y0099964D01*
X0081373Y0099863D01*
X0081485Y0099758D01*
X0081594Y0099650D01*
X0081700Y0099539D01*
X0081804Y0099426D01*
X0081904Y0099310D01*
X0082002Y0099192D01*
X0082096Y0099071D01*
X0082187Y0098948D01*
X0082275Y0098822D01*
X0082359Y0098694D01*
X0082441Y0098564D01*
X0082518Y0098432D01*
X0082593Y0098298D01*
X0082664Y0098162D01*
X0082731Y0098024D01*
X0082795Y0097884D01*
X0082855Y0097743D01*
X0082911Y0097601D01*
X0082964Y0097457D01*
X0083013Y0097311D01*
X0083058Y0097165D01*
X0083099Y0097017D01*
X0083136Y0096869D01*
X0083170Y0096719D01*
X0083200Y0096568D01*
X0083225Y0096417D01*
X0083247Y0096266D01*
X0083265Y0096113D01*
X0083279Y0095961D01*
X0083289Y0095808D01*
X0083295Y0095654D01*
X0083297Y0095501D01*
X0083295Y0095348D01*
X0083289Y0095194D01*
X0083279Y0095041D01*
X0083265Y0094889D01*
X0083247Y0094736D01*
X0083225Y0094585D01*
X0083200Y0094434D01*
X0083170Y0094283D01*
X0083136Y0094133D01*
X0083099Y0093985D01*
X0083058Y0093837D01*
X0083013Y0093691D01*
X0082964Y0093545D01*
X0082911Y0093401D01*
X0082855Y0093259D01*
X0082795Y0093118D01*
X0082731Y0092978D01*
X0082664Y0092840D01*
X0082593Y0092704D01*
X0082518Y0092570D01*
X0082441Y0092438D01*
X0082359Y0092308D01*
X0082275Y0092180D01*
X0082187Y0092054D01*
X0082096Y0091931D01*
X0082002Y0091810D01*
X0081904Y0091692D01*
X0081804Y0091576D01*
X0081700Y0091463D01*
X0081594Y0091352D01*
X0081485Y0091244D01*
X0081373Y0091139D01*
X0081259Y0091038D01*
X0081141Y0090939D01*
X0081022Y0090843D01*
X0080900Y0090750D01*
X0080775Y0090661D01*
X0080648Y0090574D01*
X0080519Y0090492D01*
X0080388Y0090412D01*
X0080255Y0090336D01*
X0080120Y0090263D01*
X0079983Y0090194D01*
X0079844Y0090129D01*
X0079704Y0090067D01*
X0079562Y0090009D01*
X0079419Y0089954D01*
X0079274Y0089903D01*
X0079128Y0089856D01*
X0078981Y0089813D01*
X0078833Y0089774D01*
X0078684Y0089738D01*
X0078534Y0089707D01*
X0078383Y0089679D01*
X0078232Y0089655D01*
X0078079Y0089635D01*
X0077927Y0089619D01*
X0077774Y0089607D01*
X0077621Y0089599D01*
X0077468Y0089595D01*
X0077314Y0089595D01*
X0077161Y0089599D01*
X0077008Y0089607D01*
X0076855Y0089619D01*
X0076703Y0089635D01*
X0076550Y0089655D01*
X0076399Y0089679D01*
X0076248Y0089707D01*
X0076098Y0089738D01*
X0075949Y0089774D01*
X0075801Y0089813D01*
X0075654Y0089856D01*
X0075508Y0089903D01*
X0075363Y0089954D01*
X0075220Y0090009D01*
X0075078Y0090067D01*
X0074938Y0090129D01*
X0074799Y0090194D01*
X0074662Y0090263D01*
X0074527Y0090336D01*
X0074394Y0090412D01*
X0074263Y0090492D01*
X0074134Y0090574D01*
X0074007Y0090661D01*
X0073882Y0090750D01*
X0073760Y0090843D01*
X0073641Y0090939D01*
X0073523Y0091038D01*
X0073409Y0091139D01*
X0073297Y0091244D01*
X0073188Y0091352D01*
X0073082Y0091463D01*
X0072978Y0091576D01*
X0072878Y0091692D01*
X0072780Y0091810D01*
X0072686Y0091931D01*
X0072595Y0092054D01*
X0072507Y0092180D01*
X0072423Y0092308D01*
X0072341Y0092438D01*
X0072264Y0092570D01*
X0072189Y0092704D01*
X0072118Y0092840D01*
X0072051Y0092978D01*
X0071987Y0093118D01*
X0071927Y0093259D01*
X0071871Y0093401D01*
X0071818Y0093545D01*
X0071769Y0093691D01*
X0071724Y0093837D01*
X0071683Y0093985D01*
X0071646Y0094133D01*
X0071612Y0094283D01*
X0071582Y0094434D01*
X0071557Y0094585D01*
X0071535Y0094736D01*
X0071517Y0094889D01*
X0071503Y0095041D01*
X0071493Y0095194D01*
X0071487Y0095348D01*
X0071485Y0095501D01*
X0113611Y0036446D02*
X0113613Y0036599D01*
X0113619Y0036753D01*
X0113629Y0036906D01*
X0113643Y0037058D01*
X0113661Y0037211D01*
X0113683Y0037362D01*
X0113708Y0037513D01*
X0113738Y0037664D01*
X0113772Y0037814D01*
X0113809Y0037962D01*
X0113850Y0038110D01*
X0113895Y0038256D01*
X0113944Y0038402D01*
X0113997Y0038546D01*
X0114053Y0038688D01*
X0114113Y0038829D01*
X0114177Y0038969D01*
X0114244Y0039107D01*
X0114315Y0039243D01*
X0114390Y0039377D01*
X0114467Y0039509D01*
X0114549Y0039639D01*
X0114633Y0039767D01*
X0114721Y0039893D01*
X0114812Y0040016D01*
X0114906Y0040137D01*
X0115004Y0040255D01*
X0115104Y0040371D01*
X0115208Y0040484D01*
X0115314Y0040595D01*
X0115423Y0040703D01*
X0115535Y0040808D01*
X0115649Y0040909D01*
X0115767Y0041008D01*
X0115886Y0041104D01*
X0116008Y0041197D01*
X0116133Y0041286D01*
X0116260Y0041373D01*
X0116389Y0041455D01*
X0116520Y0041535D01*
X0116653Y0041611D01*
X0116788Y0041684D01*
X0116925Y0041753D01*
X0117064Y0041818D01*
X0117204Y0041880D01*
X0117346Y0041938D01*
X0117489Y0041993D01*
X0117634Y0042044D01*
X0117780Y0042091D01*
X0117927Y0042134D01*
X0118075Y0042173D01*
X0118224Y0042209D01*
X0118374Y0042240D01*
X0118525Y0042268D01*
X0118676Y0042292D01*
X0118829Y0042312D01*
X0118981Y0042328D01*
X0119134Y0042340D01*
X0119287Y0042348D01*
X0119440Y0042352D01*
X0119594Y0042352D01*
X0119747Y0042348D01*
X0119900Y0042340D01*
X0120053Y0042328D01*
X0120205Y0042312D01*
X0120358Y0042292D01*
X0120509Y0042268D01*
X0120660Y0042240D01*
X0120810Y0042209D01*
X0120959Y0042173D01*
X0121107Y0042134D01*
X0121254Y0042091D01*
X0121400Y0042044D01*
X0121545Y0041993D01*
X0121688Y0041938D01*
X0121830Y0041880D01*
X0121970Y0041818D01*
X0122109Y0041753D01*
X0122246Y0041684D01*
X0122381Y0041611D01*
X0122514Y0041535D01*
X0122645Y0041455D01*
X0122774Y0041373D01*
X0122901Y0041286D01*
X0123026Y0041197D01*
X0123148Y0041104D01*
X0123267Y0041008D01*
X0123385Y0040909D01*
X0123499Y0040808D01*
X0123611Y0040703D01*
X0123720Y0040595D01*
X0123826Y0040484D01*
X0123930Y0040371D01*
X0124030Y0040255D01*
X0124128Y0040137D01*
X0124222Y0040016D01*
X0124313Y0039893D01*
X0124401Y0039767D01*
X0124485Y0039639D01*
X0124567Y0039509D01*
X0124644Y0039377D01*
X0124719Y0039243D01*
X0124790Y0039107D01*
X0124857Y0038969D01*
X0124921Y0038829D01*
X0124981Y0038688D01*
X0125037Y0038546D01*
X0125090Y0038402D01*
X0125139Y0038256D01*
X0125184Y0038110D01*
X0125225Y0037962D01*
X0125262Y0037814D01*
X0125296Y0037664D01*
X0125326Y0037513D01*
X0125351Y0037362D01*
X0125373Y0037211D01*
X0125391Y0037058D01*
X0125405Y0036906D01*
X0125415Y0036753D01*
X0125421Y0036599D01*
X0125423Y0036446D01*
X0125421Y0036293D01*
X0125415Y0036139D01*
X0125405Y0035986D01*
X0125391Y0035834D01*
X0125373Y0035681D01*
X0125351Y0035530D01*
X0125326Y0035379D01*
X0125296Y0035228D01*
X0125262Y0035078D01*
X0125225Y0034930D01*
X0125184Y0034782D01*
X0125139Y0034636D01*
X0125090Y0034490D01*
X0125037Y0034346D01*
X0124981Y0034204D01*
X0124921Y0034063D01*
X0124857Y0033923D01*
X0124790Y0033785D01*
X0124719Y0033649D01*
X0124644Y0033515D01*
X0124567Y0033383D01*
X0124485Y0033253D01*
X0124401Y0033125D01*
X0124313Y0032999D01*
X0124222Y0032876D01*
X0124128Y0032755D01*
X0124030Y0032637D01*
X0123930Y0032521D01*
X0123826Y0032408D01*
X0123720Y0032297D01*
X0123611Y0032189D01*
X0123499Y0032084D01*
X0123385Y0031983D01*
X0123267Y0031884D01*
X0123148Y0031788D01*
X0123026Y0031695D01*
X0122901Y0031606D01*
X0122774Y0031519D01*
X0122645Y0031437D01*
X0122514Y0031357D01*
X0122381Y0031281D01*
X0122246Y0031208D01*
X0122109Y0031139D01*
X0121970Y0031074D01*
X0121830Y0031012D01*
X0121688Y0030954D01*
X0121545Y0030899D01*
X0121400Y0030848D01*
X0121254Y0030801D01*
X0121107Y0030758D01*
X0120959Y0030719D01*
X0120810Y0030683D01*
X0120660Y0030652D01*
X0120509Y0030624D01*
X0120358Y0030600D01*
X0120205Y0030580D01*
X0120053Y0030564D01*
X0119900Y0030552D01*
X0119747Y0030544D01*
X0119594Y0030540D01*
X0119440Y0030540D01*
X0119287Y0030544D01*
X0119134Y0030552D01*
X0118981Y0030564D01*
X0118829Y0030580D01*
X0118676Y0030600D01*
X0118525Y0030624D01*
X0118374Y0030652D01*
X0118224Y0030683D01*
X0118075Y0030719D01*
X0117927Y0030758D01*
X0117780Y0030801D01*
X0117634Y0030848D01*
X0117489Y0030899D01*
X0117346Y0030954D01*
X0117204Y0031012D01*
X0117064Y0031074D01*
X0116925Y0031139D01*
X0116788Y0031208D01*
X0116653Y0031281D01*
X0116520Y0031357D01*
X0116389Y0031437D01*
X0116260Y0031519D01*
X0116133Y0031606D01*
X0116008Y0031695D01*
X0115886Y0031788D01*
X0115767Y0031884D01*
X0115649Y0031983D01*
X0115535Y0032084D01*
X0115423Y0032189D01*
X0115314Y0032297D01*
X0115208Y0032408D01*
X0115104Y0032521D01*
X0115004Y0032637D01*
X0114906Y0032755D01*
X0114812Y0032876D01*
X0114721Y0032999D01*
X0114633Y0033125D01*
X0114549Y0033253D01*
X0114467Y0033383D01*
X0114390Y0033515D01*
X0114315Y0033649D01*
X0114244Y0033785D01*
X0114177Y0033923D01*
X0114113Y0034063D01*
X0114053Y0034204D01*
X0113997Y0034346D01*
X0113944Y0034490D01*
X0113895Y0034636D01*
X0113850Y0034782D01*
X0113809Y0034930D01*
X0113772Y0035078D01*
X0113738Y0035228D01*
X0113708Y0035379D01*
X0113683Y0035530D01*
X0113661Y0035681D01*
X0113643Y0035834D01*
X0113629Y0035986D01*
X0113619Y0036139D01*
X0113613Y0036293D01*
X0113611Y0036446D01*
X0115973Y0347076D02*
X0115975Y0347229D01*
X0115981Y0347383D01*
X0115991Y0347536D01*
X0116005Y0347688D01*
X0116023Y0347841D01*
X0116045Y0347992D01*
X0116070Y0348143D01*
X0116100Y0348294D01*
X0116134Y0348444D01*
X0116171Y0348592D01*
X0116212Y0348740D01*
X0116257Y0348886D01*
X0116306Y0349032D01*
X0116359Y0349176D01*
X0116415Y0349318D01*
X0116475Y0349459D01*
X0116539Y0349599D01*
X0116606Y0349737D01*
X0116677Y0349873D01*
X0116752Y0350007D01*
X0116829Y0350139D01*
X0116911Y0350269D01*
X0116995Y0350397D01*
X0117083Y0350523D01*
X0117174Y0350646D01*
X0117268Y0350767D01*
X0117366Y0350885D01*
X0117466Y0351001D01*
X0117570Y0351114D01*
X0117676Y0351225D01*
X0117785Y0351333D01*
X0117897Y0351438D01*
X0118011Y0351539D01*
X0118129Y0351638D01*
X0118248Y0351734D01*
X0118370Y0351827D01*
X0118495Y0351916D01*
X0118622Y0352003D01*
X0118751Y0352085D01*
X0118882Y0352165D01*
X0119015Y0352241D01*
X0119150Y0352314D01*
X0119287Y0352383D01*
X0119426Y0352448D01*
X0119566Y0352510D01*
X0119708Y0352568D01*
X0119851Y0352623D01*
X0119996Y0352674D01*
X0120142Y0352721D01*
X0120289Y0352764D01*
X0120437Y0352803D01*
X0120586Y0352839D01*
X0120736Y0352870D01*
X0120887Y0352898D01*
X0121038Y0352922D01*
X0121191Y0352942D01*
X0121343Y0352958D01*
X0121496Y0352970D01*
X0121649Y0352978D01*
X0121802Y0352982D01*
X0121956Y0352982D01*
X0122109Y0352978D01*
X0122262Y0352970D01*
X0122415Y0352958D01*
X0122567Y0352942D01*
X0122720Y0352922D01*
X0122871Y0352898D01*
X0123022Y0352870D01*
X0123172Y0352839D01*
X0123321Y0352803D01*
X0123469Y0352764D01*
X0123616Y0352721D01*
X0123762Y0352674D01*
X0123907Y0352623D01*
X0124050Y0352568D01*
X0124192Y0352510D01*
X0124332Y0352448D01*
X0124471Y0352383D01*
X0124608Y0352314D01*
X0124743Y0352241D01*
X0124876Y0352165D01*
X0125007Y0352085D01*
X0125136Y0352003D01*
X0125263Y0351916D01*
X0125388Y0351827D01*
X0125510Y0351734D01*
X0125629Y0351638D01*
X0125747Y0351539D01*
X0125861Y0351438D01*
X0125973Y0351333D01*
X0126082Y0351225D01*
X0126188Y0351114D01*
X0126292Y0351001D01*
X0126392Y0350885D01*
X0126490Y0350767D01*
X0126584Y0350646D01*
X0126675Y0350523D01*
X0126763Y0350397D01*
X0126847Y0350269D01*
X0126929Y0350139D01*
X0127006Y0350007D01*
X0127081Y0349873D01*
X0127152Y0349737D01*
X0127219Y0349599D01*
X0127283Y0349459D01*
X0127343Y0349318D01*
X0127399Y0349176D01*
X0127452Y0349032D01*
X0127501Y0348886D01*
X0127546Y0348740D01*
X0127587Y0348592D01*
X0127624Y0348444D01*
X0127658Y0348294D01*
X0127688Y0348143D01*
X0127713Y0347992D01*
X0127735Y0347841D01*
X0127753Y0347688D01*
X0127767Y0347536D01*
X0127777Y0347383D01*
X0127783Y0347229D01*
X0127785Y0347076D01*
X0127783Y0346923D01*
X0127777Y0346769D01*
X0127767Y0346616D01*
X0127753Y0346464D01*
X0127735Y0346311D01*
X0127713Y0346160D01*
X0127688Y0346009D01*
X0127658Y0345858D01*
X0127624Y0345708D01*
X0127587Y0345560D01*
X0127546Y0345412D01*
X0127501Y0345266D01*
X0127452Y0345120D01*
X0127399Y0344976D01*
X0127343Y0344834D01*
X0127283Y0344693D01*
X0127219Y0344553D01*
X0127152Y0344415D01*
X0127081Y0344279D01*
X0127006Y0344145D01*
X0126929Y0344013D01*
X0126847Y0343883D01*
X0126763Y0343755D01*
X0126675Y0343629D01*
X0126584Y0343506D01*
X0126490Y0343385D01*
X0126392Y0343267D01*
X0126292Y0343151D01*
X0126188Y0343038D01*
X0126082Y0342927D01*
X0125973Y0342819D01*
X0125861Y0342714D01*
X0125747Y0342613D01*
X0125629Y0342514D01*
X0125510Y0342418D01*
X0125388Y0342325D01*
X0125263Y0342236D01*
X0125136Y0342149D01*
X0125007Y0342067D01*
X0124876Y0341987D01*
X0124743Y0341911D01*
X0124608Y0341838D01*
X0124471Y0341769D01*
X0124332Y0341704D01*
X0124192Y0341642D01*
X0124050Y0341584D01*
X0123907Y0341529D01*
X0123762Y0341478D01*
X0123616Y0341431D01*
X0123469Y0341388D01*
X0123321Y0341349D01*
X0123172Y0341313D01*
X0123022Y0341282D01*
X0122871Y0341254D01*
X0122720Y0341230D01*
X0122567Y0341210D01*
X0122415Y0341194D01*
X0122262Y0341182D01*
X0122109Y0341174D01*
X0121956Y0341170D01*
X0121802Y0341170D01*
X0121649Y0341174D01*
X0121496Y0341182D01*
X0121343Y0341194D01*
X0121191Y0341210D01*
X0121038Y0341230D01*
X0120887Y0341254D01*
X0120736Y0341282D01*
X0120586Y0341313D01*
X0120437Y0341349D01*
X0120289Y0341388D01*
X0120142Y0341431D01*
X0119996Y0341478D01*
X0119851Y0341529D01*
X0119708Y0341584D01*
X0119566Y0341642D01*
X0119426Y0341704D01*
X0119287Y0341769D01*
X0119150Y0341838D01*
X0119015Y0341911D01*
X0118882Y0341987D01*
X0118751Y0342067D01*
X0118622Y0342149D01*
X0118495Y0342236D01*
X0118370Y0342325D01*
X0118248Y0342418D01*
X0118129Y0342514D01*
X0118011Y0342613D01*
X0117897Y0342714D01*
X0117785Y0342819D01*
X0117676Y0342927D01*
X0117570Y0343038D01*
X0117466Y0343151D01*
X0117366Y0343267D01*
X0117268Y0343385D01*
X0117174Y0343506D01*
X0117083Y0343629D01*
X0116995Y0343755D01*
X0116911Y0343883D01*
X0116829Y0344013D01*
X0116752Y0344145D01*
X0116677Y0344279D01*
X0116606Y0344415D01*
X0116539Y0344553D01*
X0116475Y0344693D01*
X0116415Y0344834D01*
X0116359Y0344976D01*
X0116306Y0345120D01*
X0116257Y0345266D01*
X0116212Y0345412D01*
X0116171Y0345560D01*
X0116134Y0345708D01*
X0116100Y0345858D01*
X0116070Y0346009D01*
X0116045Y0346160D01*
X0116023Y0346311D01*
X0116005Y0346464D01*
X0115991Y0346616D01*
X0115981Y0346769D01*
X0115975Y0346923D01*
X0115973Y0347076D01*
D11*
X0084865Y0069910D02*
X0084869Y0070248D01*
X0084882Y0070586D01*
X0084902Y0070924D01*
X0084931Y0071261D01*
X0084969Y0071597D01*
X0085014Y0071933D01*
X0085068Y0072267D01*
X0085130Y0072599D01*
X0085200Y0072930D01*
X0085278Y0073259D01*
X0085364Y0073587D01*
X0085459Y0073912D01*
X0085561Y0074234D01*
X0085671Y0074554D01*
X0085789Y0074871D01*
X0085914Y0075185D01*
X0086048Y0075496D01*
X0086189Y0075804D01*
X0086337Y0076108D01*
X0086493Y0076408D01*
X0086656Y0076705D01*
X0086826Y0076997D01*
X0087004Y0077285D01*
X0087188Y0077569D01*
X0087380Y0077848D01*
X0087578Y0078122D01*
X0087783Y0078391D01*
X0087994Y0078655D01*
X0088212Y0078914D01*
X0088436Y0079167D01*
X0088666Y0079415D01*
X0088903Y0079657D01*
X0089145Y0079894D01*
X0089393Y0080124D01*
X0089646Y0080348D01*
X0089905Y0080566D01*
X0090169Y0080777D01*
X0090438Y0080982D01*
X0090712Y0081180D01*
X0090991Y0081372D01*
X0091275Y0081556D01*
X0091563Y0081734D01*
X0091855Y0081904D01*
X0092152Y0082067D01*
X0092452Y0082223D01*
X0092756Y0082371D01*
X0093064Y0082512D01*
X0093375Y0082646D01*
X0093689Y0082771D01*
X0094006Y0082889D01*
X0094326Y0082999D01*
X0094648Y0083101D01*
X0094973Y0083196D01*
X0095301Y0083282D01*
X0095630Y0083360D01*
X0095961Y0083430D01*
X0096293Y0083492D01*
X0096627Y0083546D01*
X0096963Y0083591D01*
X0097299Y0083629D01*
X0097636Y0083658D01*
X0097974Y0083678D01*
X0098312Y0083691D01*
X0098650Y0083695D01*
X0098988Y0083691D01*
X0099326Y0083678D01*
X0099664Y0083658D01*
X0100001Y0083629D01*
X0100337Y0083591D01*
X0100673Y0083546D01*
X0101007Y0083492D01*
X0101339Y0083430D01*
X0101670Y0083360D01*
X0101999Y0083282D01*
X0102327Y0083196D01*
X0102652Y0083101D01*
X0102974Y0082999D01*
X0103294Y0082889D01*
X0103611Y0082771D01*
X0103925Y0082646D01*
X0104236Y0082512D01*
X0104544Y0082371D01*
X0104848Y0082223D01*
X0105148Y0082067D01*
X0105445Y0081904D01*
X0105737Y0081734D01*
X0106025Y0081556D01*
X0106309Y0081372D01*
X0106588Y0081180D01*
X0106862Y0080982D01*
X0107131Y0080777D01*
X0107395Y0080566D01*
X0107654Y0080348D01*
X0107907Y0080124D01*
X0108155Y0079894D01*
X0108397Y0079657D01*
X0108634Y0079415D01*
X0108864Y0079167D01*
X0109088Y0078914D01*
X0109306Y0078655D01*
X0109517Y0078391D01*
X0109722Y0078122D01*
X0109920Y0077848D01*
X0110112Y0077569D01*
X0110296Y0077285D01*
X0110474Y0076997D01*
X0110644Y0076705D01*
X0110807Y0076408D01*
X0110963Y0076108D01*
X0111111Y0075804D01*
X0111252Y0075496D01*
X0111386Y0075185D01*
X0111511Y0074871D01*
X0111629Y0074554D01*
X0111739Y0074234D01*
X0111841Y0073912D01*
X0111936Y0073587D01*
X0112022Y0073259D01*
X0112100Y0072930D01*
X0112170Y0072599D01*
X0112232Y0072267D01*
X0112286Y0071933D01*
X0112331Y0071597D01*
X0112369Y0071261D01*
X0112398Y0070924D01*
X0112418Y0070586D01*
X0112431Y0070248D01*
X0112435Y0069910D01*
X0112431Y0069572D01*
X0112418Y0069234D01*
X0112398Y0068896D01*
X0112369Y0068559D01*
X0112331Y0068223D01*
X0112286Y0067887D01*
X0112232Y0067553D01*
X0112170Y0067221D01*
X0112100Y0066890D01*
X0112022Y0066561D01*
X0111936Y0066233D01*
X0111841Y0065908D01*
X0111739Y0065586D01*
X0111629Y0065266D01*
X0111511Y0064949D01*
X0111386Y0064635D01*
X0111252Y0064324D01*
X0111111Y0064016D01*
X0110963Y0063712D01*
X0110807Y0063412D01*
X0110644Y0063115D01*
X0110474Y0062823D01*
X0110296Y0062535D01*
X0110112Y0062251D01*
X0109920Y0061972D01*
X0109722Y0061698D01*
X0109517Y0061429D01*
X0109306Y0061165D01*
X0109088Y0060906D01*
X0108864Y0060653D01*
X0108634Y0060405D01*
X0108397Y0060163D01*
X0108155Y0059926D01*
X0107907Y0059696D01*
X0107654Y0059472D01*
X0107395Y0059254D01*
X0107131Y0059043D01*
X0106862Y0058838D01*
X0106588Y0058640D01*
X0106309Y0058448D01*
X0106025Y0058264D01*
X0105737Y0058086D01*
X0105445Y0057916D01*
X0105148Y0057753D01*
X0104848Y0057597D01*
X0104544Y0057449D01*
X0104236Y0057308D01*
X0103925Y0057174D01*
X0103611Y0057049D01*
X0103294Y0056931D01*
X0102974Y0056821D01*
X0102652Y0056719D01*
X0102327Y0056624D01*
X0101999Y0056538D01*
X0101670Y0056460D01*
X0101339Y0056390D01*
X0101007Y0056328D01*
X0100673Y0056274D01*
X0100337Y0056229D01*
X0100001Y0056191D01*
X0099664Y0056162D01*
X0099326Y0056142D01*
X0098988Y0056129D01*
X0098650Y0056125D01*
X0098312Y0056129D01*
X0097974Y0056142D01*
X0097636Y0056162D01*
X0097299Y0056191D01*
X0096963Y0056229D01*
X0096627Y0056274D01*
X0096293Y0056328D01*
X0095961Y0056390D01*
X0095630Y0056460D01*
X0095301Y0056538D01*
X0094973Y0056624D01*
X0094648Y0056719D01*
X0094326Y0056821D01*
X0094006Y0056931D01*
X0093689Y0057049D01*
X0093375Y0057174D01*
X0093064Y0057308D01*
X0092756Y0057449D01*
X0092452Y0057597D01*
X0092152Y0057753D01*
X0091855Y0057916D01*
X0091563Y0058086D01*
X0091275Y0058264D01*
X0090991Y0058448D01*
X0090712Y0058640D01*
X0090438Y0058838D01*
X0090169Y0059043D01*
X0089905Y0059254D01*
X0089646Y0059472D01*
X0089393Y0059696D01*
X0089145Y0059926D01*
X0088903Y0060163D01*
X0088666Y0060405D01*
X0088436Y0060653D01*
X0088212Y0060906D01*
X0087994Y0061165D01*
X0087783Y0061429D01*
X0087578Y0061698D01*
X0087380Y0061972D01*
X0087188Y0062251D01*
X0087004Y0062535D01*
X0086826Y0062823D01*
X0086656Y0063115D01*
X0086493Y0063412D01*
X0086337Y0063712D01*
X0086189Y0064016D01*
X0086048Y0064324D01*
X0085914Y0064635D01*
X0085789Y0064949D01*
X0085671Y0065266D01*
X0085561Y0065586D01*
X0085459Y0065908D01*
X0085364Y0066233D01*
X0085278Y0066561D01*
X0085200Y0066890D01*
X0085130Y0067221D01*
X0085068Y0067553D01*
X0085014Y0067887D01*
X0084969Y0068223D01*
X0084931Y0068559D01*
X0084902Y0068896D01*
X0084882Y0069234D01*
X0084869Y0069572D01*
X0084865Y0069910D01*
M02*
