G75*
%MOIN*%
%OFA0B0*%
%FSLAX25Y25*%
%IPPOS*%
%LPD*%
%AMOC8*
5,1,8,0,0,1.08239X$1,22.5*
%
%ADD10C,0.00000*%
%ADD11OC8,0.07400*%
%ADD12OC8,0.06000*%
%ADD13C,0.01600*%
%ADD14R,0.03962X0.03962*%
%ADD15OC8,0.03569*%
D10*
X0065737Y0017548D02*
X0069674Y0017548D01*
X0069713Y0013611D02*
X0069713Y0407312D01*
X0129713Y0407312D01*
X0129713Y0013611D01*
X0069713Y0013611D01*
X0071485Y0095501D02*
X0071487Y0095654D01*
X0071493Y0095808D01*
X0071503Y0095961D01*
X0071517Y0096113D01*
X0071535Y0096266D01*
X0071557Y0096417D01*
X0071582Y0096568D01*
X0071612Y0096719D01*
X0071646Y0096869D01*
X0071683Y0097017D01*
X0071724Y0097165D01*
X0071769Y0097311D01*
X0071818Y0097457D01*
X0071871Y0097601D01*
X0071927Y0097743D01*
X0071987Y0097884D01*
X0072051Y0098024D01*
X0072118Y0098162D01*
X0072189Y0098298D01*
X0072264Y0098432D01*
X0072341Y0098564D01*
X0072423Y0098694D01*
X0072507Y0098822D01*
X0072595Y0098948D01*
X0072686Y0099071D01*
X0072780Y0099192D01*
X0072878Y0099310D01*
X0072978Y0099426D01*
X0073082Y0099539D01*
X0073188Y0099650D01*
X0073297Y0099758D01*
X0073409Y0099863D01*
X0073523Y0099964D01*
X0073641Y0100063D01*
X0073760Y0100159D01*
X0073882Y0100252D01*
X0074007Y0100341D01*
X0074134Y0100428D01*
X0074263Y0100510D01*
X0074394Y0100590D01*
X0074527Y0100666D01*
X0074662Y0100739D01*
X0074799Y0100808D01*
X0074938Y0100873D01*
X0075078Y0100935D01*
X0075220Y0100993D01*
X0075363Y0101048D01*
X0075508Y0101099D01*
X0075654Y0101146D01*
X0075801Y0101189D01*
X0075949Y0101228D01*
X0076098Y0101264D01*
X0076248Y0101295D01*
X0076399Y0101323D01*
X0076550Y0101347D01*
X0076703Y0101367D01*
X0076855Y0101383D01*
X0077008Y0101395D01*
X0077161Y0101403D01*
X0077314Y0101407D01*
X0077468Y0101407D01*
X0077621Y0101403D01*
X0077774Y0101395D01*
X0077927Y0101383D01*
X0078079Y0101367D01*
X0078232Y0101347D01*
X0078383Y0101323D01*
X0078534Y0101295D01*
X0078684Y0101264D01*
X0078833Y0101228D01*
X0078981Y0101189D01*
X0079128Y0101146D01*
X0079274Y0101099D01*
X0079419Y0101048D01*
X0079562Y0100993D01*
X0079704Y0100935D01*
X0079844Y0100873D01*
X0079983Y0100808D01*
X0080120Y0100739D01*
X0080255Y0100666D01*
X0080388Y0100590D01*
X0080519Y0100510D01*
X0080648Y0100428D01*
X0080775Y0100341D01*
X0080900Y0100252D01*
X0081022Y0100159D01*
X0081141Y0100063D01*
X0081259Y0099964D01*
X0081373Y0099863D01*
X0081485Y0099758D01*
X0081594Y0099650D01*
X0081700Y0099539D01*
X0081804Y0099426D01*
X0081904Y0099310D01*
X0082002Y0099192D01*
X0082096Y0099071D01*
X0082187Y0098948D01*
X0082275Y0098822D01*
X0082359Y0098694D01*
X0082441Y0098564D01*
X0082518Y0098432D01*
X0082593Y0098298D01*
X0082664Y0098162D01*
X0082731Y0098024D01*
X0082795Y0097884D01*
X0082855Y0097743D01*
X0082911Y0097601D01*
X0082964Y0097457D01*
X0083013Y0097311D01*
X0083058Y0097165D01*
X0083099Y0097017D01*
X0083136Y0096869D01*
X0083170Y0096719D01*
X0083200Y0096568D01*
X0083225Y0096417D01*
X0083247Y0096266D01*
X0083265Y0096113D01*
X0083279Y0095961D01*
X0083289Y0095808D01*
X0083295Y0095654D01*
X0083297Y0095501D01*
X0083295Y0095348D01*
X0083289Y0095194D01*
X0083279Y0095041D01*
X0083265Y0094889D01*
X0083247Y0094736D01*
X0083225Y0094585D01*
X0083200Y0094434D01*
X0083170Y0094283D01*
X0083136Y0094133D01*
X0083099Y0093985D01*
X0083058Y0093837D01*
X0083013Y0093691D01*
X0082964Y0093545D01*
X0082911Y0093401D01*
X0082855Y0093259D01*
X0082795Y0093118D01*
X0082731Y0092978D01*
X0082664Y0092840D01*
X0082593Y0092704D01*
X0082518Y0092570D01*
X0082441Y0092438D01*
X0082359Y0092308D01*
X0082275Y0092180D01*
X0082187Y0092054D01*
X0082096Y0091931D01*
X0082002Y0091810D01*
X0081904Y0091692D01*
X0081804Y0091576D01*
X0081700Y0091463D01*
X0081594Y0091352D01*
X0081485Y0091244D01*
X0081373Y0091139D01*
X0081259Y0091038D01*
X0081141Y0090939D01*
X0081022Y0090843D01*
X0080900Y0090750D01*
X0080775Y0090661D01*
X0080648Y0090574D01*
X0080519Y0090492D01*
X0080388Y0090412D01*
X0080255Y0090336D01*
X0080120Y0090263D01*
X0079983Y0090194D01*
X0079844Y0090129D01*
X0079704Y0090067D01*
X0079562Y0090009D01*
X0079419Y0089954D01*
X0079274Y0089903D01*
X0079128Y0089856D01*
X0078981Y0089813D01*
X0078833Y0089774D01*
X0078684Y0089738D01*
X0078534Y0089707D01*
X0078383Y0089679D01*
X0078232Y0089655D01*
X0078079Y0089635D01*
X0077927Y0089619D01*
X0077774Y0089607D01*
X0077621Y0089599D01*
X0077468Y0089595D01*
X0077314Y0089595D01*
X0077161Y0089599D01*
X0077008Y0089607D01*
X0076855Y0089619D01*
X0076703Y0089635D01*
X0076550Y0089655D01*
X0076399Y0089679D01*
X0076248Y0089707D01*
X0076098Y0089738D01*
X0075949Y0089774D01*
X0075801Y0089813D01*
X0075654Y0089856D01*
X0075508Y0089903D01*
X0075363Y0089954D01*
X0075220Y0090009D01*
X0075078Y0090067D01*
X0074938Y0090129D01*
X0074799Y0090194D01*
X0074662Y0090263D01*
X0074527Y0090336D01*
X0074394Y0090412D01*
X0074263Y0090492D01*
X0074134Y0090574D01*
X0074007Y0090661D01*
X0073882Y0090750D01*
X0073760Y0090843D01*
X0073641Y0090939D01*
X0073523Y0091038D01*
X0073409Y0091139D01*
X0073297Y0091244D01*
X0073188Y0091352D01*
X0073082Y0091463D01*
X0072978Y0091576D01*
X0072878Y0091692D01*
X0072780Y0091810D01*
X0072686Y0091931D01*
X0072595Y0092054D01*
X0072507Y0092180D01*
X0072423Y0092308D01*
X0072341Y0092438D01*
X0072264Y0092570D01*
X0072189Y0092704D01*
X0072118Y0092840D01*
X0072051Y0092978D01*
X0071987Y0093118D01*
X0071927Y0093259D01*
X0071871Y0093401D01*
X0071818Y0093545D01*
X0071769Y0093691D01*
X0071724Y0093837D01*
X0071683Y0093985D01*
X0071646Y0094133D01*
X0071612Y0094283D01*
X0071582Y0094434D01*
X0071557Y0094585D01*
X0071535Y0094736D01*
X0071517Y0094889D01*
X0071503Y0095041D01*
X0071493Y0095194D01*
X0071487Y0095348D01*
X0071485Y0095501D01*
X0113611Y0036446D02*
X0113613Y0036599D01*
X0113619Y0036753D01*
X0113629Y0036906D01*
X0113643Y0037058D01*
X0113661Y0037211D01*
X0113683Y0037362D01*
X0113708Y0037513D01*
X0113738Y0037664D01*
X0113772Y0037814D01*
X0113809Y0037962D01*
X0113850Y0038110D01*
X0113895Y0038256D01*
X0113944Y0038402D01*
X0113997Y0038546D01*
X0114053Y0038688D01*
X0114113Y0038829D01*
X0114177Y0038969D01*
X0114244Y0039107D01*
X0114315Y0039243D01*
X0114390Y0039377D01*
X0114467Y0039509D01*
X0114549Y0039639D01*
X0114633Y0039767D01*
X0114721Y0039893D01*
X0114812Y0040016D01*
X0114906Y0040137D01*
X0115004Y0040255D01*
X0115104Y0040371D01*
X0115208Y0040484D01*
X0115314Y0040595D01*
X0115423Y0040703D01*
X0115535Y0040808D01*
X0115649Y0040909D01*
X0115767Y0041008D01*
X0115886Y0041104D01*
X0116008Y0041197D01*
X0116133Y0041286D01*
X0116260Y0041373D01*
X0116389Y0041455D01*
X0116520Y0041535D01*
X0116653Y0041611D01*
X0116788Y0041684D01*
X0116925Y0041753D01*
X0117064Y0041818D01*
X0117204Y0041880D01*
X0117346Y0041938D01*
X0117489Y0041993D01*
X0117634Y0042044D01*
X0117780Y0042091D01*
X0117927Y0042134D01*
X0118075Y0042173D01*
X0118224Y0042209D01*
X0118374Y0042240D01*
X0118525Y0042268D01*
X0118676Y0042292D01*
X0118829Y0042312D01*
X0118981Y0042328D01*
X0119134Y0042340D01*
X0119287Y0042348D01*
X0119440Y0042352D01*
X0119594Y0042352D01*
X0119747Y0042348D01*
X0119900Y0042340D01*
X0120053Y0042328D01*
X0120205Y0042312D01*
X0120358Y0042292D01*
X0120509Y0042268D01*
X0120660Y0042240D01*
X0120810Y0042209D01*
X0120959Y0042173D01*
X0121107Y0042134D01*
X0121254Y0042091D01*
X0121400Y0042044D01*
X0121545Y0041993D01*
X0121688Y0041938D01*
X0121830Y0041880D01*
X0121970Y0041818D01*
X0122109Y0041753D01*
X0122246Y0041684D01*
X0122381Y0041611D01*
X0122514Y0041535D01*
X0122645Y0041455D01*
X0122774Y0041373D01*
X0122901Y0041286D01*
X0123026Y0041197D01*
X0123148Y0041104D01*
X0123267Y0041008D01*
X0123385Y0040909D01*
X0123499Y0040808D01*
X0123611Y0040703D01*
X0123720Y0040595D01*
X0123826Y0040484D01*
X0123930Y0040371D01*
X0124030Y0040255D01*
X0124128Y0040137D01*
X0124222Y0040016D01*
X0124313Y0039893D01*
X0124401Y0039767D01*
X0124485Y0039639D01*
X0124567Y0039509D01*
X0124644Y0039377D01*
X0124719Y0039243D01*
X0124790Y0039107D01*
X0124857Y0038969D01*
X0124921Y0038829D01*
X0124981Y0038688D01*
X0125037Y0038546D01*
X0125090Y0038402D01*
X0125139Y0038256D01*
X0125184Y0038110D01*
X0125225Y0037962D01*
X0125262Y0037814D01*
X0125296Y0037664D01*
X0125326Y0037513D01*
X0125351Y0037362D01*
X0125373Y0037211D01*
X0125391Y0037058D01*
X0125405Y0036906D01*
X0125415Y0036753D01*
X0125421Y0036599D01*
X0125423Y0036446D01*
X0125421Y0036293D01*
X0125415Y0036139D01*
X0125405Y0035986D01*
X0125391Y0035834D01*
X0125373Y0035681D01*
X0125351Y0035530D01*
X0125326Y0035379D01*
X0125296Y0035228D01*
X0125262Y0035078D01*
X0125225Y0034930D01*
X0125184Y0034782D01*
X0125139Y0034636D01*
X0125090Y0034490D01*
X0125037Y0034346D01*
X0124981Y0034204D01*
X0124921Y0034063D01*
X0124857Y0033923D01*
X0124790Y0033785D01*
X0124719Y0033649D01*
X0124644Y0033515D01*
X0124567Y0033383D01*
X0124485Y0033253D01*
X0124401Y0033125D01*
X0124313Y0032999D01*
X0124222Y0032876D01*
X0124128Y0032755D01*
X0124030Y0032637D01*
X0123930Y0032521D01*
X0123826Y0032408D01*
X0123720Y0032297D01*
X0123611Y0032189D01*
X0123499Y0032084D01*
X0123385Y0031983D01*
X0123267Y0031884D01*
X0123148Y0031788D01*
X0123026Y0031695D01*
X0122901Y0031606D01*
X0122774Y0031519D01*
X0122645Y0031437D01*
X0122514Y0031357D01*
X0122381Y0031281D01*
X0122246Y0031208D01*
X0122109Y0031139D01*
X0121970Y0031074D01*
X0121830Y0031012D01*
X0121688Y0030954D01*
X0121545Y0030899D01*
X0121400Y0030848D01*
X0121254Y0030801D01*
X0121107Y0030758D01*
X0120959Y0030719D01*
X0120810Y0030683D01*
X0120660Y0030652D01*
X0120509Y0030624D01*
X0120358Y0030600D01*
X0120205Y0030580D01*
X0120053Y0030564D01*
X0119900Y0030552D01*
X0119747Y0030544D01*
X0119594Y0030540D01*
X0119440Y0030540D01*
X0119287Y0030544D01*
X0119134Y0030552D01*
X0118981Y0030564D01*
X0118829Y0030580D01*
X0118676Y0030600D01*
X0118525Y0030624D01*
X0118374Y0030652D01*
X0118224Y0030683D01*
X0118075Y0030719D01*
X0117927Y0030758D01*
X0117780Y0030801D01*
X0117634Y0030848D01*
X0117489Y0030899D01*
X0117346Y0030954D01*
X0117204Y0031012D01*
X0117064Y0031074D01*
X0116925Y0031139D01*
X0116788Y0031208D01*
X0116653Y0031281D01*
X0116520Y0031357D01*
X0116389Y0031437D01*
X0116260Y0031519D01*
X0116133Y0031606D01*
X0116008Y0031695D01*
X0115886Y0031788D01*
X0115767Y0031884D01*
X0115649Y0031983D01*
X0115535Y0032084D01*
X0115423Y0032189D01*
X0115314Y0032297D01*
X0115208Y0032408D01*
X0115104Y0032521D01*
X0115004Y0032637D01*
X0114906Y0032755D01*
X0114812Y0032876D01*
X0114721Y0032999D01*
X0114633Y0033125D01*
X0114549Y0033253D01*
X0114467Y0033383D01*
X0114390Y0033515D01*
X0114315Y0033649D01*
X0114244Y0033785D01*
X0114177Y0033923D01*
X0114113Y0034063D01*
X0114053Y0034204D01*
X0113997Y0034346D01*
X0113944Y0034490D01*
X0113895Y0034636D01*
X0113850Y0034782D01*
X0113809Y0034930D01*
X0113772Y0035078D01*
X0113738Y0035228D01*
X0113708Y0035379D01*
X0113683Y0035530D01*
X0113661Y0035681D01*
X0113643Y0035834D01*
X0113629Y0035986D01*
X0113619Y0036139D01*
X0113613Y0036293D01*
X0113611Y0036446D01*
X0115973Y0347076D02*
X0115975Y0347229D01*
X0115981Y0347383D01*
X0115991Y0347536D01*
X0116005Y0347688D01*
X0116023Y0347841D01*
X0116045Y0347992D01*
X0116070Y0348143D01*
X0116100Y0348294D01*
X0116134Y0348444D01*
X0116171Y0348592D01*
X0116212Y0348740D01*
X0116257Y0348886D01*
X0116306Y0349032D01*
X0116359Y0349176D01*
X0116415Y0349318D01*
X0116475Y0349459D01*
X0116539Y0349599D01*
X0116606Y0349737D01*
X0116677Y0349873D01*
X0116752Y0350007D01*
X0116829Y0350139D01*
X0116911Y0350269D01*
X0116995Y0350397D01*
X0117083Y0350523D01*
X0117174Y0350646D01*
X0117268Y0350767D01*
X0117366Y0350885D01*
X0117466Y0351001D01*
X0117570Y0351114D01*
X0117676Y0351225D01*
X0117785Y0351333D01*
X0117897Y0351438D01*
X0118011Y0351539D01*
X0118129Y0351638D01*
X0118248Y0351734D01*
X0118370Y0351827D01*
X0118495Y0351916D01*
X0118622Y0352003D01*
X0118751Y0352085D01*
X0118882Y0352165D01*
X0119015Y0352241D01*
X0119150Y0352314D01*
X0119287Y0352383D01*
X0119426Y0352448D01*
X0119566Y0352510D01*
X0119708Y0352568D01*
X0119851Y0352623D01*
X0119996Y0352674D01*
X0120142Y0352721D01*
X0120289Y0352764D01*
X0120437Y0352803D01*
X0120586Y0352839D01*
X0120736Y0352870D01*
X0120887Y0352898D01*
X0121038Y0352922D01*
X0121191Y0352942D01*
X0121343Y0352958D01*
X0121496Y0352970D01*
X0121649Y0352978D01*
X0121802Y0352982D01*
X0121956Y0352982D01*
X0122109Y0352978D01*
X0122262Y0352970D01*
X0122415Y0352958D01*
X0122567Y0352942D01*
X0122720Y0352922D01*
X0122871Y0352898D01*
X0123022Y0352870D01*
X0123172Y0352839D01*
X0123321Y0352803D01*
X0123469Y0352764D01*
X0123616Y0352721D01*
X0123762Y0352674D01*
X0123907Y0352623D01*
X0124050Y0352568D01*
X0124192Y0352510D01*
X0124332Y0352448D01*
X0124471Y0352383D01*
X0124608Y0352314D01*
X0124743Y0352241D01*
X0124876Y0352165D01*
X0125007Y0352085D01*
X0125136Y0352003D01*
X0125263Y0351916D01*
X0125388Y0351827D01*
X0125510Y0351734D01*
X0125629Y0351638D01*
X0125747Y0351539D01*
X0125861Y0351438D01*
X0125973Y0351333D01*
X0126082Y0351225D01*
X0126188Y0351114D01*
X0126292Y0351001D01*
X0126392Y0350885D01*
X0126490Y0350767D01*
X0126584Y0350646D01*
X0126675Y0350523D01*
X0126763Y0350397D01*
X0126847Y0350269D01*
X0126929Y0350139D01*
X0127006Y0350007D01*
X0127081Y0349873D01*
X0127152Y0349737D01*
X0127219Y0349599D01*
X0127283Y0349459D01*
X0127343Y0349318D01*
X0127399Y0349176D01*
X0127452Y0349032D01*
X0127501Y0348886D01*
X0127546Y0348740D01*
X0127587Y0348592D01*
X0127624Y0348444D01*
X0127658Y0348294D01*
X0127688Y0348143D01*
X0127713Y0347992D01*
X0127735Y0347841D01*
X0127753Y0347688D01*
X0127767Y0347536D01*
X0127777Y0347383D01*
X0127783Y0347229D01*
X0127785Y0347076D01*
X0127783Y0346923D01*
X0127777Y0346769D01*
X0127767Y0346616D01*
X0127753Y0346464D01*
X0127735Y0346311D01*
X0127713Y0346160D01*
X0127688Y0346009D01*
X0127658Y0345858D01*
X0127624Y0345708D01*
X0127587Y0345560D01*
X0127546Y0345412D01*
X0127501Y0345266D01*
X0127452Y0345120D01*
X0127399Y0344976D01*
X0127343Y0344834D01*
X0127283Y0344693D01*
X0127219Y0344553D01*
X0127152Y0344415D01*
X0127081Y0344279D01*
X0127006Y0344145D01*
X0126929Y0344013D01*
X0126847Y0343883D01*
X0126763Y0343755D01*
X0126675Y0343629D01*
X0126584Y0343506D01*
X0126490Y0343385D01*
X0126392Y0343267D01*
X0126292Y0343151D01*
X0126188Y0343038D01*
X0126082Y0342927D01*
X0125973Y0342819D01*
X0125861Y0342714D01*
X0125747Y0342613D01*
X0125629Y0342514D01*
X0125510Y0342418D01*
X0125388Y0342325D01*
X0125263Y0342236D01*
X0125136Y0342149D01*
X0125007Y0342067D01*
X0124876Y0341987D01*
X0124743Y0341911D01*
X0124608Y0341838D01*
X0124471Y0341769D01*
X0124332Y0341704D01*
X0124192Y0341642D01*
X0124050Y0341584D01*
X0123907Y0341529D01*
X0123762Y0341478D01*
X0123616Y0341431D01*
X0123469Y0341388D01*
X0123321Y0341349D01*
X0123172Y0341313D01*
X0123022Y0341282D01*
X0122871Y0341254D01*
X0122720Y0341230D01*
X0122567Y0341210D01*
X0122415Y0341194D01*
X0122262Y0341182D01*
X0122109Y0341174D01*
X0121956Y0341170D01*
X0121802Y0341170D01*
X0121649Y0341174D01*
X0121496Y0341182D01*
X0121343Y0341194D01*
X0121191Y0341210D01*
X0121038Y0341230D01*
X0120887Y0341254D01*
X0120736Y0341282D01*
X0120586Y0341313D01*
X0120437Y0341349D01*
X0120289Y0341388D01*
X0120142Y0341431D01*
X0119996Y0341478D01*
X0119851Y0341529D01*
X0119708Y0341584D01*
X0119566Y0341642D01*
X0119426Y0341704D01*
X0119287Y0341769D01*
X0119150Y0341838D01*
X0119015Y0341911D01*
X0118882Y0341987D01*
X0118751Y0342067D01*
X0118622Y0342149D01*
X0118495Y0342236D01*
X0118370Y0342325D01*
X0118248Y0342418D01*
X0118129Y0342514D01*
X0118011Y0342613D01*
X0117897Y0342714D01*
X0117785Y0342819D01*
X0117676Y0342927D01*
X0117570Y0343038D01*
X0117466Y0343151D01*
X0117366Y0343267D01*
X0117268Y0343385D01*
X0117174Y0343506D01*
X0117083Y0343629D01*
X0116995Y0343755D01*
X0116911Y0343883D01*
X0116829Y0344013D01*
X0116752Y0344145D01*
X0116677Y0344279D01*
X0116606Y0344415D01*
X0116539Y0344553D01*
X0116475Y0344693D01*
X0116415Y0344834D01*
X0116359Y0344976D01*
X0116306Y0345120D01*
X0116257Y0345266D01*
X0116212Y0345412D01*
X0116171Y0345560D01*
X0116134Y0345708D01*
X0116100Y0345858D01*
X0116070Y0346009D01*
X0116045Y0346160D01*
X0116023Y0346311D01*
X0116005Y0346464D01*
X0115991Y0346616D01*
X0115981Y0346769D01*
X0115975Y0346923D01*
X0115973Y0347076D01*
D11*
X0120658Y0387981D03*
X0120658Y0397981D03*
X0110658Y0397981D03*
X0110658Y0387981D03*
X0100658Y0387981D03*
X0100658Y0397981D03*
X0090658Y0397981D03*
X0090658Y0387981D03*
X0080658Y0387981D03*
X0080658Y0397981D03*
D12*
X0085225Y0229241D03*
X0085225Y0219241D03*
X0095225Y0219241D03*
X0095225Y0229241D03*
X0105225Y0229241D03*
X0105225Y0219241D03*
X0115225Y0219241D03*
X0115225Y0229241D03*
D13*
X0115225Y0232548D01*
X0125422Y0242745D01*
X0125422Y0292745D01*
X0125028Y0293139D01*
X0121803Y0289854D02*
X0121803Y0244244D01*
X0115261Y0237702D01*
X0115261Y0264657D01*
X0116246Y0265641D01*
X0116246Y0269455D01*
X0113549Y0272151D01*
X0109736Y0272151D01*
X0107039Y0269455D01*
X0107039Y0265641D01*
X0108024Y0264657D01*
X0108024Y0237157D01*
X0105926Y0235060D01*
X0102815Y0235060D01*
X0100225Y0232470D01*
X0097635Y0235060D01*
X0092815Y0235060D01*
X0090225Y0232470D01*
X0089277Y0233418D01*
X0089277Y0238740D01*
X0088726Y0240070D01*
X0087708Y0241088D01*
X0086527Y0242270D01*
X0085197Y0242820D01*
X0080214Y0242820D01*
X0078884Y0242270D01*
X0077866Y0241252D01*
X0074513Y0237899D01*
X0074513Y0384907D01*
X0077958Y0381462D01*
X0083358Y0381462D01*
X0086379Y0384482D01*
X0087491Y0383371D01*
X0084992Y0380872D01*
X0084992Y0377059D01*
X0087689Y0374362D01*
X0091502Y0374362D01*
X0092486Y0375346D01*
X0111901Y0375346D01*
X0112885Y0374362D01*
X0116699Y0374362D01*
X0119395Y0377059D01*
X0119395Y0380872D01*
X0118805Y0381462D01*
X0123358Y0381462D01*
X0124913Y0383017D01*
X0124913Y0360959D01*
X0119997Y0365098D01*
X0119598Y0365498D01*
X0119451Y0365559D01*
X0119328Y0365662D01*
X0118790Y0365833D01*
X0118268Y0366049D01*
X0118108Y0366049D01*
X0117956Y0366097D01*
X0117393Y0366049D01*
X0099573Y0366049D01*
X0098589Y0367033D01*
X0094775Y0367033D01*
X0092079Y0364337D01*
X0092079Y0360523D01*
X0094775Y0357827D01*
X0098589Y0357827D01*
X0099573Y0358811D01*
X0116227Y0358811D01*
X0118179Y0357167D01*
X0117747Y0357052D01*
X0115305Y0355642D01*
X0113312Y0353649D01*
X0111903Y0351208D01*
X0111173Y0348485D01*
X0111173Y0345666D01*
X0111903Y0342943D01*
X0113312Y0340502D01*
X0115305Y0338509D01*
X0117747Y0337100D01*
X0120469Y0336370D01*
X0123288Y0336370D01*
X0124913Y0336806D01*
X0124913Y0297742D01*
X0123122Y0297742D01*
X0120425Y0295045D01*
X0120425Y0291232D01*
X0121803Y0289854D01*
X0121504Y0290153D02*
X0074513Y0290153D01*
X0074513Y0288555D02*
X0121803Y0288555D01*
X0121803Y0286956D02*
X0074513Y0286956D01*
X0074513Y0285358D02*
X0121803Y0285358D01*
X0121803Y0283759D02*
X0074513Y0283759D01*
X0074513Y0282161D02*
X0121803Y0282161D01*
X0121803Y0280562D02*
X0074513Y0280562D01*
X0074513Y0278964D02*
X0121803Y0278964D01*
X0121803Y0277365D02*
X0074513Y0277365D01*
X0074513Y0275767D02*
X0121803Y0275767D01*
X0121803Y0274168D02*
X0074513Y0274168D01*
X0074513Y0272570D02*
X0121803Y0272570D01*
X0121803Y0270971D02*
X0114729Y0270971D01*
X0116246Y0269373D02*
X0121803Y0269373D01*
X0121803Y0267774D02*
X0116246Y0267774D01*
X0116246Y0266176D02*
X0121803Y0266176D01*
X0121803Y0264577D02*
X0115261Y0264577D01*
X0115261Y0262979D02*
X0121803Y0262979D01*
X0121803Y0261380D02*
X0115261Y0261380D01*
X0115261Y0259782D02*
X0121803Y0259782D01*
X0121803Y0258183D02*
X0115261Y0258183D01*
X0115261Y0256585D02*
X0121803Y0256585D01*
X0121803Y0254986D02*
X0115261Y0254986D01*
X0115261Y0253388D02*
X0121803Y0253388D01*
X0121803Y0251789D02*
X0115261Y0251789D01*
X0115261Y0250191D02*
X0121803Y0250191D01*
X0121803Y0248592D02*
X0115261Y0248592D01*
X0115261Y0246994D02*
X0121803Y0246994D01*
X0121803Y0245395D02*
X0115261Y0245395D01*
X0115261Y0243797D02*
X0121356Y0243797D01*
X0119757Y0242198D02*
X0115261Y0242198D01*
X0115261Y0240600D02*
X0118159Y0240600D01*
X0116560Y0239001D02*
X0115261Y0239001D01*
X0111643Y0235658D02*
X0105225Y0229241D01*
X0101961Y0234206D02*
X0098490Y0234206D01*
X0100088Y0232607D02*
X0100362Y0232607D01*
X0095225Y0229241D02*
X0090619Y0224241D01*
X0081721Y0224241D01*
X0079359Y0221091D01*
X0079359Y0202587D01*
X0085265Y0196682D01*
X0085658Y0196682D01*
X0092745Y0202981D02*
X0089989Y0206131D01*
X0088020Y0207706D01*
X0085225Y0210501D01*
X0085225Y0219241D01*
X0085225Y0229241D02*
X0085658Y0229674D01*
X0085658Y0238020D01*
X0084477Y0239202D01*
X0080934Y0239202D01*
X0074241Y0232509D01*
X0074241Y0198257D01*
X0074513Y0239001D02*
X0075616Y0239001D01*
X0074513Y0240600D02*
X0077214Y0240600D01*
X0078813Y0242198D02*
X0074513Y0242198D01*
X0074513Y0243797D02*
X0108024Y0243797D01*
X0108024Y0245395D02*
X0074513Y0245395D01*
X0074513Y0246994D02*
X0108024Y0246994D01*
X0108024Y0248592D02*
X0074513Y0248592D01*
X0074513Y0250191D02*
X0108024Y0250191D01*
X0108024Y0251789D02*
X0074513Y0251789D01*
X0074513Y0253388D02*
X0108024Y0253388D01*
X0108024Y0254986D02*
X0074513Y0254986D01*
X0074513Y0256585D02*
X0108024Y0256585D01*
X0108024Y0258183D02*
X0074513Y0258183D01*
X0074513Y0259782D02*
X0108024Y0259782D01*
X0108024Y0261380D02*
X0074513Y0261380D01*
X0074513Y0262979D02*
X0108024Y0262979D01*
X0108024Y0264577D02*
X0074513Y0264577D01*
X0074513Y0266176D02*
X0107039Y0266176D01*
X0107039Y0267774D02*
X0074513Y0267774D01*
X0074513Y0269373D02*
X0107039Y0269373D01*
X0108556Y0270971D02*
X0074513Y0270971D01*
X0074513Y0291752D02*
X0120425Y0291752D01*
X0120425Y0293351D02*
X0074513Y0293351D01*
X0074513Y0294949D02*
X0120425Y0294949D01*
X0121927Y0296548D02*
X0074513Y0296548D01*
X0074513Y0298146D02*
X0124913Y0298146D01*
X0124913Y0299745D02*
X0074513Y0299745D01*
X0074513Y0301343D02*
X0124913Y0301343D01*
X0124913Y0302942D02*
X0074513Y0302942D01*
X0074513Y0304540D02*
X0124913Y0304540D01*
X0124913Y0306139D02*
X0074513Y0306139D01*
X0074513Y0307737D02*
X0124913Y0307737D01*
X0124913Y0309336D02*
X0074513Y0309336D01*
X0074513Y0310934D02*
X0124913Y0310934D01*
X0124913Y0312533D02*
X0074513Y0312533D01*
X0074513Y0314131D02*
X0124913Y0314131D01*
X0124913Y0315730D02*
X0074513Y0315730D01*
X0074513Y0317328D02*
X0124913Y0317328D01*
X0124913Y0318927D02*
X0074513Y0318927D01*
X0074513Y0320525D02*
X0124913Y0320525D01*
X0124913Y0322124D02*
X0074513Y0322124D01*
X0074513Y0323722D02*
X0124913Y0323722D01*
X0124913Y0325321D02*
X0074513Y0325321D01*
X0074513Y0326919D02*
X0124913Y0326919D01*
X0124913Y0328518D02*
X0074513Y0328518D01*
X0074513Y0330116D02*
X0124913Y0330116D01*
X0124913Y0331715D02*
X0074513Y0331715D01*
X0074513Y0333313D02*
X0124913Y0333313D01*
X0124913Y0334912D02*
X0074513Y0334912D01*
X0074513Y0336510D02*
X0119946Y0336510D01*
X0115999Y0338109D02*
X0074513Y0338109D01*
X0074513Y0339707D02*
X0114107Y0339707D01*
X0112848Y0341306D02*
X0074513Y0341306D01*
X0074513Y0342904D02*
X0111925Y0342904D01*
X0111485Y0344503D02*
X0074513Y0344503D01*
X0074513Y0346101D02*
X0111173Y0346101D01*
X0111173Y0347700D02*
X0074513Y0347700D01*
X0074513Y0349298D02*
X0111391Y0349298D01*
X0111820Y0350897D02*
X0074513Y0350897D01*
X0074513Y0352495D02*
X0112646Y0352495D01*
X0113757Y0354094D02*
X0074513Y0354094D01*
X0074513Y0355692D02*
X0115393Y0355692D01*
X0118032Y0357291D02*
X0074513Y0357291D01*
X0074513Y0358889D02*
X0093712Y0358889D01*
X0092114Y0360488D02*
X0074513Y0360488D01*
X0074513Y0362086D02*
X0092079Y0362086D01*
X0092079Y0363685D02*
X0074513Y0363685D01*
X0074513Y0365284D02*
X0093026Y0365284D01*
X0094624Y0366882D02*
X0074513Y0366882D01*
X0074513Y0368481D02*
X0124913Y0368481D01*
X0124913Y0370079D02*
X0074513Y0370079D01*
X0074513Y0371678D02*
X0124913Y0371678D01*
X0124913Y0373276D02*
X0074513Y0373276D01*
X0074513Y0374875D02*
X0087176Y0374875D01*
X0085578Y0376473D02*
X0074513Y0376473D01*
X0074513Y0378072D02*
X0084992Y0378072D01*
X0084992Y0379670D02*
X0074513Y0379670D01*
X0074513Y0381269D02*
X0085389Y0381269D01*
X0084763Y0382867D02*
X0086987Y0382867D01*
X0086396Y0384466D02*
X0086362Y0384466D01*
X0090458Y0388181D02*
X0090458Y0393481D01*
X0090458Y0397781D01*
X0090858Y0397781D01*
X0090858Y0388181D01*
X0090458Y0388181D01*
X0090858Y0388181D02*
X0100458Y0388181D01*
X0100458Y0387781D01*
X0095158Y0387781D01*
X0090858Y0387781D01*
X0090858Y0388181D01*
X0090858Y0389261D02*
X0090458Y0389261D01*
X0090458Y0390860D02*
X0090858Y0390860D01*
X0090858Y0392458D02*
X0090458Y0392458D01*
X0090458Y0394057D02*
X0090858Y0394057D01*
X0090858Y0395655D02*
X0090458Y0395655D01*
X0090458Y0397254D02*
X0090858Y0397254D01*
X0090858Y0397781D02*
X0090858Y0398181D01*
X0100458Y0398181D01*
X0100458Y0397781D01*
X0095158Y0397781D01*
X0090858Y0397781D01*
X0089595Y0378965D02*
X0114792Y0378965D01*
X0117211Y0374875D02*
X0124913Y0374875D01*
X0124913Y0376473D02*
X0118810Y0376473D01*
X0119395Y0378072D02*
X0124913Y0378072D01*
X0124913Y0379670D02*
X0119395Y0379670D01*
X0118999Y0381269D02*
X0124913Y0381269D01*
X0124913Y0382867D02*
X0124763Y0382867D01*
X0124913Y0366882D02*
X0098740Y0366882D01*
X0096682Y0362430D02*
X0117548Y0362430D01*
X0125028Y0356131D01*
X0124913Y0362086D02*
X0123574Y0362086D01*
X0124913Y0363685D02*
X0121676Y0363685D01*
X0119812Y0365284D02*
X0124913Y0365284D01*
X0124913Y0336510D02*
X0123811Y0336510D01*
X0112373Y0374875D02*
X0092014Y0374875D01*
X0100858Y0387781D02*
X0100858Y0388181D01*
X0100458Y0388181D01*
X0100458Y0393481D01*
X0100458Y0397781D01*
X0100858Y0397781D01*
X0100858Y0388181D01*
X0110458Y0388181D01*
X0110458Y0387781D01*
X0105158Y0387781D01*
X0100858Y0387781D01*
X0100858Y0389261D02*
X0100458Y0389261D01*
X0100458Y0390860D02*
X0100858Y0390860D01*
X0100858Y0392458D02*
X0100458Y0392458D01*
X0100458Y0394057D02*
X0100858Y0394057D01*
X0100858Y0395655D02*
X0100458Y0395655D01*
X0100458Y0397254D02*
X0100858Y0397254D01*
X0100858Y0397781D02*
X0100858Y0398181D01*
X0110458Y0398181D01*
X0110458Y0397781D01*
X0105158Y0397781D01*
X0100858Y0397781D01*
X0110458Y0397781D02*
X0110458Y0393481D01*
X0110458Y0388181D01*
X0110858Y0388181D01*
X0110858Y0397781D01*
X0110458Y0397781D01*
X0110458Y0397254D02*
X0110858Y0397254D01*
X0110858Y0395655D02*
X0110458Y0395655D01*
X0110458Y0394057D02*
X0110858Y0394057D01*
X0110858Y0392458D02*
X0110458Y0392458D01*
X0110458Y0390860D02*
X0110858Y0390860D01*
X0110858Y0389261D02*
X0110458Y0389261D01*
X0076553Y0382867D02*
X0074513Y0382867D01*
X0074513Y0384466D02*
X0074955Y0384466D01*
X0111643Y0267548D02*
X0111643Y0235658D01*
X0108024Y0237403D02*
X0089277Y0237403D01*
X0089277Y0235804D02*
X0106670Y0235804D01*
X0108024Y0239001D02*
X0089169Y0239001D01*
X0088197Y0240600D02*
X0108024Y0240600D01*
X0108024Y0242198D02*
X0086598Y0242198D01*
X0089277Y0234206D02*
X0091961Y0234206D01*
X0090362Y0232607D02*
X0090088Y0232607D01*
X0095225Y0219241D02*
X0095107Y0219123D01*
X0095107Y0211249D01*
X0099438Y0203375D01*
X0099438Y0143139D01*
X0117548Y0143139D01*
X0121879Y0137627D02*
X0126603Y0142351D01*
X0126603Y0184083D01*
X0120304Y0190383D01*
X0117942Y0190383D01*
X0117154Y0189595D01*
X0111249Y0197469D02*
X0111249Y0165973D01*
X0110461Y0165186D01*
X0105343Y0188414D02*
X0105225Y0196406D01*
X0105225Y0219241D01*
X0092745Y0202981D02*
X0092745Y0139202D01*
X0101013Y0137627D01*
X0121879Y0137627D01*
D14*
X0100225Y0340383D03*
D15*
X0096682Y0362430D03*
X0089595Y0378965D03*
X0114792Y0378965D03*
X0125028Y0356131D03*
X0125028Y0293139D03*
X0111643Y0267548D03*
X0111249Y0197469D03*
X0117154Y0189595D03*
X0110461Y0165186D03*
X0117548Y0143139D03*
X0105343Y0188414D03*
X0085658Y0196682D03*
X0074241Y0198257D03*
M02*
