%
M48
M72
T01C0.01969
T02C0.02362
T03C0.04000
T04C0.11811
%
T01
X105343Y188414
X111249Y197469
X117154Y189595
X110461Y165186
X117548Y143139
X85658Y196682
X74241Y198257
X111643Y267548
X125028Y293139
X125028Y356131
X114792Y378965
X96682Y362430
X89595Y378965
T02
X100225Y340383
T03
X85225Y219241
X85225Y229241
X95225Y229241
X95225Y219241
X105225Y219241
X105225Y229241
X115225Y229241
X115225Y219241
X120658Y387981
X120658Y397981
X110658Y397981
X110658Y387981
X100658Y387981
X100658Y397981
X90658Y397981
X90658Y387981
X80658Y387981
X80658Y397981
T04
X77391Y95501
X119517Y36446
X121879Y347076
M30
