G04 EAGLE Gerber RS-274X export*
G75*
%MOMM*%
%FSLAX34Y34*%
%LPD*%
%INTop Layer*%
%IPPOS*%
%AMOC8*
5,1,8,0,0,1.08239X$1,22.5*%
G01*
%ADD10C,0.000000*%
%ADD11R,0.381000X0.042419*%
%ADD12R,0.762000X0.042419*%
%ADD13R,0.083819X0.042419*%
%ADD14R,0.464819X0.042419*%
%ADD15R,1.016000X0.042419*%
%ADD16R,0.508000X0.042419*%
%ADD17R,0.464819X0.042162*%
%ADD18R,1.102363X0.042162*%
%ADD19R,0.508000X0.042162*%
%ADD20R,1.183638X0.042419*%
%ADD21R,1.270000X0.042419*%
%ADD22R,1.356363X0.042162*%
%ADD23R,1.356363X0.042419*%
%ADD24R,1.437638X0.042162*%
%ADD25R,1.437638X0.042419*%
%ADD26R,0.551181X0.042419*%
%ADD27R,0.551181X0.042162*%
%ADD28R,0.548638X0.042419*%
%ADD29R,1.099819X0.042419*%
%ADD30R,1.143000X0.042162*%
%ADD31R,1.102363X0.042419*%
%ADD32R,1.059181X0.042419*%
%ADD33R,1.016000X0.042162*%
%ADD34R,0.932181X0.042419*%
%ADD35R,1.059181X0.042162*%
%ADD36R,1.143000X0.042419*%
%ADD37R,1.099819X0.042162*%
%ADD38R,1.397000X0.042162*%
%ADD39R,1.397000X0.042419*%
%ADD40R,1.480819X0.042162*%
%ADD41R,1.480819X0.042419*%
%ADD42R,1.270000X0.042162*%
%ADD43R,1.524000X0.042162*%
%ADD44R,1.226819X0.042419*%
%ADD45R,1.524000X0.042419*%
%ADD46R,1.564638X0.042419*%
%ADD47R,1.564638X0.042162*%
%ADD48R,0.421637X0.042419*%
%ADD49R,0.594363X0.042162*%
%ADD50R,0.594363X0.042419*%
%ADD51R,0.635000X0.042419*%
%ADD52R,0.675638X0.042419*%
%ADD53R,0.675638X0.042162*%
%ADD54R,0.762000X0.042162*%
%ADD55R,0.805181X0.042419*%
%ADD56R,0.848363X0.042419*%
%ADD57R,0.848363X0.042162*%
%ADD58R,0.929638X0.042162*%
%ADD59R,0.421637X0.042162*%
%ADD60R,0.424181X0.042162*%
%ADD61R,0.424181X0.042419*%
%ADD62R,0.467363X0.042162*%
%ADD63R,0.467363X0.042419*%
%ADD64R,0.381000X0.042162*%
%ADD65R,0.635000X0.042162*%
%ADD66R,0.805181X0.042162*%
%ADD67R,0.929638X0.042419*%
%ADD68R,0.337819X0.042162*%
%ADD69R,0.337819X0.042419*%
%ADD70R,0.167637X0.042419*%
%ADD71R,0.340363X0.042419*%
%ADD72R,0.340363X0.042162*%
%ADD73R,0.254000X0.042419*%
%ADD74R,0.127000X0.042419*%
%ADD75R,0.213363X0.042419*%
%ADD76R,0.040638X0.042419*%
%ADD77R,0.210819X0.042419*%
%ADD78R,0.043181X0.042419*%
%ADD79R,0.043181X0.042162*%
%ADD80R,0.210819X0.042162*%
%ADD81R,0.086363X0.042419*%
%ADD82R,0.254000X0.042162*%
%ADD83R,0.297181X0.042162*%
%ADD84R,0.297181X0.042419*%
%ADD85R,0.170181X0.042419*%
%ADD86R,0.040638X0.042162*%
%ADD87R,0.213363X0.042162*%
%ADD88R,0.170181X0.042162*%
%ADD89R,0.294637X0.042419*%
%ADD90R,0.083819X0.042162*%
%ADD91R,0.718819X0.042162*%
%ADD92R,0.718819X0.042419*%
%ADD93R,0.678181X0.042419*%
%ADD94R,0.127000X0.042162*%
%ADD95R,0.721363X0.042162*%
%ADD96R,0.678181X0.042162*%
%ADD97R,0.086363X0.042162*%
%ADD98R,0.591819X0.042419*%
%ADD99R,0.721363X0.042419*%
%ADD100R,0.845819X0.042162*%
%ADD101R,0.889000X0.042419*%
%ADD102R,0.167637X0.042162*%
%ADD103R,0.294637X0.042162*%
%ADD104R,0.802638X0.042419*%
%ADD105R,0.591819X0.042162*%
%ADD106R,0.548638X0.042162*%
%ADD107R,0.845819X0.042419*%
%ADD108R,1.186181X0.042419*%
%ADD109R,0.889000X0.042162*%
%ADD110R,0.932181X0.042162*%
%ADD111R,0.972819X0.042419*%
%ADD112R,1.313181X0.042419*%
%ADD113R,1.353819X0.042419*%
%ADD114R,1.313181X0.042162*%
%ADD115R,1.353819X0.042162*%
%ADD116R,1.734819X0.042419*%
%ADD117R,1.734819X0.042162*%
%ADD118R,0.975363X0.042419*%
%ADD119R,1.183638X0.042162*%
%ADD120R,1.229363X0.042419*%
%ADD121R,1.310638X0.042419*%
%ADD122R,1.056638X0.042162*%
%ADD123R,0.802638X0.042162*%
%ADD124C,0.002541*%
%ADD125C,0.050800*%
%ADD126C,7.416000*%
%ADD127C,8.216000*%


D10*
X0Y-142500D02*
X152400Y-142500D01*
X152400Y1142500D01*
X0Y1142500D01*
X0Y-142500D01*
X7000Y208000D02*
X7005Y208368D01*
X7018Y208736D01*
X7041Y209103D01*
X7072Y209470D01*
X7113Y209836D01*
X7162Y210201D01*
X7221Y210564D01*
X7288Y210926D01*
X7364Y211287D01*
X7450Y211645D01*
X7543Y212001D01*
X7646Y212354D01*
X7757Y212705D01*
X7877Y213053D01*
X8005Y213398D01*
X8142Y213740D01*
X8287Y214079D01*
X8440Y214413D01*
X8602Y214744D01*
X8771Y215071D01*
X8949Y215393D01*
X9134Y215712D01*
X9327Y216025D01*
X9528Y216334D01*
X9736Y216637D01*
X9952Y216935D01*
X10175Y217228D01*
X10405Y217516D01*
X10642Y217798D01*
X10886Y218073D01*
X11136Y218343D01*
X11393Y218607D01*
X11657Y218864D01*
X11927Y219114D01*
X12202Y219358D01*
X12484Y219595D01*
X12772Y219825D01*
X13065Y220048D01*
X13363Y220264D01*
X13666Y220472D01*
X13975Y220673D01*
X14288Y220866D01*
X14607Y221051D01*
X14929Y221229D01*
X15256Y221398D01*
X15587Y221560D01*
X15921Y221713D01*
X16260Y221858D01*
X16602Y221995D01*
X16947Y222123D01*
X17295Y222243D01*
X17646Y222354D01*
X17999Y222457D01*
X18355Y222550D01*
X18713Y222636D01*
X19074Y222712D01*
X19436Y222779D01*
X19799Y222838D01*
X20164Y222887D01*
X20530Y222928D01*
X20897Y222959D01*
X21264Y222982D01*
X21632Y222995D01*
X22000Y223000D01*
X22368Y222995D01*
X22736Y222982D01*
X23103Y222959D01*
X23470Y222928D01*
X23836Y222887D01*
X24201Y222838D01*
X24564Y222779D01*
X24926Y222712D01*
X25287Y222636D01*
X25645Y222550D01*
X26001Y222457D01*
X26354Y222354D01*
X26705Y222243D01*
X27053Y222123D01*
X27398Y221995D01*
X27740Y221858D01*
X28079Y221713D01*
X28413Y221560D01*
X28744Y221398D01*
X29071Y221229D01*
X29393Y221051D01*
X29712Y220866D01*
X30025Y220673D01*
X30334Y220472D01*
X30637Y220264D01*
X30935Y220048D01*
X31228Y219825D01*
X31516Y219595D01*
X31798Y219358D01*
X32073Y219114D01*
X32343Y218864D01*
X32607Y218607D01*
X32864Y218343D01*
X33114Y218073D01*
X33358Y217798D01*
X33595Y217516D01*
X33825Y217228D01*
X34048Y216935D01*
X34264Y216637D01*
X34472Y216334D01*
X34673Y216025D01*
X34866Y215712D01*
X35051Y215393D01*
X35229Y215071D01*
X35398Y214744D01*
X35560Y214413D01*
X35713Y214079D01*
X35858Y213740D01*
X35995Y213398D01*
X36123Y213053D01*
X36243Y212705D01*
X36354Y212354D01*
X36457Y212001D01*
X36550Y211645D01*
X36636Y211287D01*
X36712Y210926D01*
X36779Y210564D01*
X36838Y210201D01*
X36887Y209836D01*
X36928Y209470D01*
X36959Y209103D01*
X36982Y208736D01*
X36995Y208368D01*
X37000Y208000D01*
X36995Y207632D01*
X36982Y207264D01*
X36959Y206897D01*
X36928Y206530D01*
X36887Y206164D01*
X36838Y205799D01*
X36779Y205436D01*
X36712Y205074D01*
X36636Y204713D01*
X36550Y204355D01*
X36457Y203999D01*
X36354Y203646D01*
X36243Y203295D01*
X36123Y202947D01*
X35995Y202602D01*
X35858Y202260D01*
X35713Y201921D01*
X35560Y201587D01*
X35398Y201256D01*
X35229Y200929D01*
X35051Y200607D01*
X34866Y200288D01*
X34673Y199975D01*
X34472Y199666D01*
X34264Y199363D01*
X34048Y199065D01*
X33825Y198772D01*
X33595Y198484D01*
X33358Y198202D01*
X33114Y197927D01*
X32864Y197657D01*
X32607Y197393D01*
X32343Y197136D01*
X32073Y196886D01*
X31798Y196642D01*
X31516Y196405D01*
X31228Y196175D01*
X30935Y195952D01*
X30637Y195736D01*
X30334Y195528D01*
X30025Y195327D01*
X29712Y195134D01*
X29393Y194949D01*
X29071Y194771D01*
X28744Y194602D01*
X28413Y194440D01*
X28079Y194287D01*
X27740Y194142D01*
X27398Y194005D01*
X27053Y193877D01*
X26705Y193757D01*
X26354Y193646D01*
X26001Y193543D01*
X25645Y193450D01*
X25287Y193364D01*
X24926Y193288D01*
X24564Y193221D01*
X24201Y193162D01*
X23836Y193113D01*
X23470Y193072D01*
X23103Y193041D01*
X22736Y193018D01*
X22368Y193005D01*
X22000Y193000D01*
X21632Y193005D01*
X21264Y193018D01*
X20897Y193041D01*
X20530Y193072D01*
X20164Y193113D01*
X19799Y193162D01*
X19436Y193221D01*
X19074Y193288D01*
X18713Y193364D01*
X18355Y193450D01*
X17999Y193543D01*
X17646Y193646D01*
X17295Y193757D01*
X16947Y193877D01*
X16602Y194005D01*
X16260Y194142D01*
X15921Y194287D01*
X15587Y194440D01*
X15256Y194602D01*
X14929Y194771D01*
X14607Y194949D01*
X14288Y195134D01*
X13975Y195327D01*
X13666Y195528D01*
X13363Y195736D01*
X13065Y195952D01*
X12772Y196175D01*
X12484Y196405D01*
X12202Y196642D01*
X11927Y196886D01*
X11657Y197136D01*
X11393Y197393D01*
X11136Y197657D01*
X10886Y197927D01*
X10642Y198202D01*
X10405Y198484D01*
X10175Y198772D01*
X9952Y199065D01*
X9736Y199363D01*
X9528Y199666D01*
X9327Y199975D01*
X9134Y200288D01*
X8949Y200607D01*
X8771Y200929D01*
X8602Y201256D01*
X8440Y201587D01*
X8287Y201921D01*
X8142Y202260D01*
X8005Y202602D01*
X7877Y202947D01*
X7757Y203295D01*
X7646Y203646D01*
X7543Y203999D01*
X7450Y204355D01*
X7364Y204713D01*
X7288Y205074D01*
X7221Y205436D01*
X7162Y205799D01*
X7113Y206164D01*
X7072Y206530D01*
X7041Y206897D01*
X7018Y207264D01*
X7005Y207632D01*
X7000Y208000D01*
X114000Y58000D02*
X114005Y58368D01*
X114018Y58736D01*
X114041Y59103D01*
X114072Y59470D01*
X114113Y59836D01*
X114162Y60201D01*
X114221Y60564D01*
X114288Y60926D01*
X114364Y61287D01*
X114450Y61645D01*
X114543Y62001D01*
X114646Y62354D01*
X114757Y62705D01*
X114877Y63053D01*
X115005Y63398D01*
X115142Y63740D01*
X115287Y64079D01*
X115440Y64413D01*
X115602Y64744D01*
X115771Y65071D01*
X115949Y65393D01*
X116134Y65712D01*
X116327Y66025D01*
X116528Y66334D01*
X116736Y66637D01*
X116952Y66935D01*
X117175Y67228D01*
X117405Y67516D01*
X117642Y67798D01*
X117886Y68073D01*
X118136Y68343D01*
X118393Y68607D01*
X118657Y68864D01*
X118927Y69114D01*
X119202Y69358D01*
X119484Y69595D01*
X119772Y69825D01*
X120065Y70048D01*
X120363Y70264D01*
X120666Y70472D01*
X120975Y70673D01*
X121288Y70866D01*
X121607Y71051D01*
X121929Y71229D01*
X122256Y71398D01*
X122587Y71560D01*
X122921Y71713D01*
X123260Y71858D01*
X123602Y71995D01*
X123947Y72123D01*
X124295Y72243D01*
X124646Y72354D01*
X124999Y72457D01*
X125355Y72550D01*
X125713Y72636D01*
X126074Y72712D01*
X126436Y72779D01*
X126799Y72838D01*
X127164Y72887D01*
X127530Y72928D01*
X127897Y72959D01*
X128264Y72982D01*
X128632Y72995D01*
X129000Y73000D01*
X129368Y72995D01*
X129736Y72982D01*
X130103Y72959D01*
X130470Y72928D01*
X130836Y72887D01*
X131201Y72838D01*
X131564Y72779D01*
X131926Y72712D01*
X132287Y72636D01*
X132645Y72550D01*
X133001Y72457D01*
X133354Y72354D01*
X133705Y72243D01*
X134053Y72123D01*
X134398Y71995D01*
X134740Y71858D01*
X135079Y71713D01*
X135413Y71560D01*
X135744Y71398D01*
X136071Y71229D01*
X136393Y71051D01*
X136712Y70866D01*
X137025Y70673D01*
X137334Y70472D01*
X137637Y70264D01*
X137935Y70048D01*
X138228Y69825D01*
X138516Y69595D01*
X138798Y69358D01*
X139073Y69114D01*
X139343Y68864D01*
X139607Y68607D01*
X139864Y68343D01*
X140114Y68073D01*
X140358Y67798D01*
X140595Y67516D01*
X140825Y67228D01*
X141048Y66935D01*
X141264Y66637D01*
X141472Y66334D01*
X141673Y66025D01*
X141866Y65712D01*
X142051Y65393D01*
X142229Y65071D01*
X142398Y64744D01*
X142560Y64413D01*
X142713Y64079D01*
X142858Y63740D01*
X142995Y63398D01*
X143123Y63053D01*
X143243Y62705D01*
X143354Y62354D01*
X143457Y62001D01*
X143550Y61645D01*
X143636Y61287D01*
X143712Y60926D01*
X143779Y60564D01*
X143838Y60201D01*
X143887Y59836D01*
X143928Y59470D01*
X143959Y59103D01*
X143982Y58736D01*
X143995Y58368D01*
X144000Y58000D01*
X143995Y57632D01*
X143982Y57264D01*
X143959Y56897D01*
X143928Y56530D01*
X143887Y56164D01*
X143838Y55799D01*
X143779Y55436D01*
X143712Y55074D01*
X143636Y54713D01*
X143550Y54355D01*
X143457Y53999D01*
X143354Y53646D01*
X143243Y53295D01*
X143123Y52947D01*
X142995Y52602D01*
X142858Y52260D01*
X142713Y51921D01*
X142560Y51587D01*
X142398Y51256D01*
X142229Y50929D01*
X142051Y50607D01*
X141866Y50288D01*
X141673Y49975D01*
X141472Y49666D01*
X141264Y49363D01*
X141048Y49065D01*
X140825Y48772D01*
X140595Y48484D01*
X140358Y48202D01*
X140114Y47927D01*
X139864Y47657D01*
X139607Y47393D01*
X139343Y47136D01*
X139073Y46886D01*
X138798Y46642D01*
X138516Y46405D01*
X138228Y46175D01*
X137935Y45952D01*
X137637Y45736D01*
X137334Y45528D01*
X137025Y45327D01*
X136712Y45134D01*
X136393Y44949D01*
X136071Y44771D01*
X135744Y44602D01*
X135413Y44440D01*
X135079Y44287D01*
X134740Y44142D01*
X134398Y44005D01*
X134053Y43877D01*
X133705Y43757D01*
X133354Y43646D01*
X133001Y43543D01*
X132645Y43450D01*
X132287Y43364D01*
X131926Y43288D01*
X131564Y43221D01*
X131201Y43162D01*
X130836Y43113D01*
X130470Y43072D01*
X130103Y43041D01*
X129736Y43018D01*
X129368Y43005D01*
X129000Y43000D01*
X128632Y43005D01*
X128264Y43018D01*
X127897Y43041D01*
X127530Y43072D01*
X127164Y43113D01*
X126799Y43162D01*
X126436Y43221D01*
X126074Y43288D01*
X125713Y43364D01*
X125355Y43450D01*
X124999Y43543D01*
X124646Y43646D01*
X124295Y43757D01*
X123947Y43877D01*
X123602Y44005D01*
X123260Y44142D01*
X122921Y44287D01*
X122587Y44440D01*
X122256Y44602D01*
X121929Y44771D01*
X121607Y44949D01*
X121288Y45134D01*
X120975Y45327D01*
X120666Y45528D01*
X120363Y45736D01*
X120065Y45952D01*
X119772Y46175D01*
X119484Y46405D01*
X119202Y46642D01*
X118927Y46886D01*
X118657Y47136D01*
X118393Y47393D01*
X118136Y47657D01*
X117886Y47927D01*
X117642Y48202D01*
X117405Y48484D01*
X117175Y48772D01*
X116952Y49065D01*
X116736Y49363D01*
X116528Y49666D01*
X116327Y49975D01*
X116134Y50288D01*
X115949Y50607D01*
X115771Y50929D01*
X115602Y51256D01*
X115440Y51587D01*
X115287Y51921D01*
X115142Y52260D01*
X115005Y52602D01*
X114877Y52947D01*
X114757Y53295D01*
X114646Y53646D01*
X114543Y53999D01*
X114450Y54355D01*
X114364Y54713D01*
X114288Y55074D01*
X114221Y55436D01*
X114162Y55799D01*
X114113Y56164D01*
X114072Y56530D01*
X114041Y56897D01*
X114018Y57264D01*
X114005Y57632D01*
X114000Y58000D01*
D11*
X58852Y-86393D03*
D12*
X75566Y-86393D03*
D13*
X87415Y-86393D03*
D14*
X58840Y-85969D03*
D15*
X75566Y-85969D03*
D16*
X88697Y-85969D03*
D17*
X58840Y-85546D03*
D18*
X75566Y-85546D03*
D19*
X89104Y-85546D03*
D14*
X58840Y-85123D03*
D20*
X75566Y-85123D03*
D16*
X89104Y-85123D03*
D14*
X58840Y-84699D03*
D21*
X75566Y-84699D03*
D16*
X89104Y-84699D03*
D17*
X58840Y-84276D03*
D22*
X75566Y-84276D03*
D19*
X89536Y-84276D03*
D14*
X58840Y-83853D03*
D23*
X75566Y-83853D03*
D16*
X89536Y-83853D03*
D14*
X58840Y-83429D03*
D23*
X75566Y-83429D03*
D16*
X89967Y-83429D03*
D17*
X58840Y-83006D03*
D24*
X75566Y-83006D03*
D19*
X89967Y-83006D03*
D14*
X58840Y-82583D03*
D25*
X75566Y-82583D03*
D16*
X89967Y-82583D03*
D14*
X58840Y-82159D03*
D25*
X75566Y-82159D03*
D16*
X90374Y-82159D03*
D17*
X58840Y-81736D03*
X70701Y-81736D03*
X80430Y-81736D03*
D19*
X90374Y-81736D03*
D14*
X58840Y-81313D03*
X70701Y-81313D03*
X80430Y-81313D03*
D26*
X90590Y-81313D03*
D14*
X58840Y-80889D03*
X70701Y-80889D03*
X80430Y-80889D03*
D16*
X90806Y-80889D03*
D17*
X58840Y-80466D03*
X70701Y-80466D03*
X80430Y-80466D03*
D19*
X90806Y-80466D03*
D14*
X58840Y-80043D03*
X70701Y-80043D03*
X80430Y-80043D03*
D16*
X91237Y-80043D03*
D14*
X58840Y-79619D03*
X80430Y-79619D03*
D16*
X91237Y-79619D03*
D17*
X58840Y-79196D03*
X80430Y-79196D03*
D19*
X91237Y-79196D03*
D14*
X58840Y-78773D03*
X80430Y-78773D03*
D16*
X91644Y-78773D03*
D14*
X58840Y-78349D03*
X80430Y-78349D03*
D16*
X91644Y-78349D03*
D17*
X58840Y-77926D03*
X80430Y-77926D03*
D27*
X91860Y-77926D03*
D14*
X58840Y-77503D03*
X80430Y-77503D03*
D16*
X92076Y-77503D03*
D14*
X58840Y-77079D03*
X80430Y-77079D03*
D16*
X92076Y-77079D03*
D17*
X58840Y-76656D03*
X80430Y-76656D03*
D19*
X92507Y-76656D03*
D14*
X58840Y-76233D03*
X80430Y-76233D03*
D16*
X92507Y-76233D03*
D14*
X58840Y-75809D03*
X80430Y-75809D03*
D28*
X92711Y-75809D03*
D17*
X58840Y-75386D03*
X80430Y-75386D03*
D19*
X92914Y-75386D03*
D14*
X58840Y-74963D03*
D16*
X80214Y-74963D03*
X92914Y-74963D03*
D14*
X58840Y-74539D03*
D29*
X77255Y-74539D03*
D16*
X93346Y-74539D03*
D17*
X58840Y-74116D03*
D30*
X77039Y-74116D03*
D19*
X93346Y-74116D03*
D14*
X58840Y-73693D03*
D31*
X76836Y-73693D03*
D16*
X93346Y-73693D03*
D14*
X58840Y-73269D03*
D32*
X76620Y-73269D03*
D16*
X93777Y-73269D03*
D17*
X58840Y-72846D03*
D33*
X76404Y-72846D03*
D19*
X93777Y-72846D03*
D14*
X58840Y-72423D03*
D34*
X75985Y-72423D03*
D28*
X93981Y-72423D03*
D14*
X58840Y-71999D03*
D15*
X76404Y-71999D03*
D16*
X94184Y-71999D03*
D17*
X58840Y-71576D03*
D35*
X76620Y-71576D03*
D19*
X94184Y-71576D03*
D14*
X58840Y-71153D03*
D31*
X76836Y-71153D03*
D16*
X94616Y-71153D03*
D14*
X58840Y-70729D03*
D36*
X77039Y-70729D03*
D16*
X94616Y-70729D03*
D17*
X58840Y-70306D03*
D37*
X77255Y-70306D03*
D27*
X94831Y-70306D03*
D14*
X58840Y-69883D03*
D16*
X80214Y-69883D03*
X95047Y-69883D03*
D14*
X58840Y-69459D03*
X80430Y-69459D03*
D16*
X95047Y-69459D03*
D17*
X58840Y-69036D03*
X80430Y-69036D03*
D19*
X95454Y-69036D03*
D14*
X58840Y-68613D03*
X80430Y-68613D03*
D16*
X95454Y-68613D03*
D14*
X58840Y-68189D03*
X80430Y-68189D03*
D16*
X95454Y-68189D03*
D17*
X58840Y-67766D03*
X80430Y-67766D03*
D19*
X95886Y-67766D03*
D14*
X58840Y-67343D03*
X80430Y-67343D03*
D16*
X95886Y-67343D03*
D14*
X58840Y-66919D03*
X80430Y-66919D03*
D26*
X96101Y-66919D03*
D17*
X58840Y-66496D03*
X80430Y-66496D03*
D19*
X96317Y-66496D03*
D14*
X58840Y-66073D03*
X80430Y-66073D03*
D16*
X96317Y-66073D03*
D14*
X58840Y-65649D03*
X80430Y-65649D03*
D16*
X96724Y-65649D03*
D17*
X58840Y-65226D03*
X80430Y-65226D03*
D19*
X96724Y-65226D03*
D14*
X58840Y-64803D03*
X70701Y-64803D03*
X80430Y-64803D03*
D26*
X96940Y-64803D03*
D14*
X58840Y-64379D03*
X70701Y-64379D03*
X80430Y-64379D03*
D16*
X97156Y-64379D03*
D17*
X58840Y-63956D03*
X70701Y-63956D03*
X80430Y-63956D03*
D19*
X97156Y-63956D03*
D14*
X58840Y-63533D03*
X70701Y-63533D03*
X80430Y-63533D03*
D16*
X97587Y-63533D03*
D14*
X58840Y-63109D03*
X70701Y-63109D03*
X80430Y-63109D03*
D16*
X97587Y-63109D03*
D38*
X58852Y-62686D03*
D24*
X75566Y-62686D03*
X93346Y-62686D03*
D39*
X58852Y-62263D03*
D25*
X75566Y-62263D03*
X93346Y-62263D03*
D39*
X58852Y-61839D03*
D25*
X75566Y-61839D03*
X93346Y-61839D03*
D38*
X58852Y-61416D03*
X75362Y-61416D03*
D40*
X93561Y-61416D03*
D39*
X58852Y-60993D03*
D23*
X75566Y-60993D03*
D41*
X93561Y-60993D03*
D39*
X58852Y-60569D03*
D23*
X75566Y-60569D03*
D41*
X93561Y-60569D03*
D38*
X58852Y-60146D03*
D42*
X75566Y-60146D03*
D43*
X93777Y-60146D03*
D39*
X58852Y-59723D03*
D44*
X75350Y-59723D03*
D45*
X93777Y-59723D03*
D39*
X58852Y-59299D03*
D36*
X75362Y-59299D03*
D46*
X93981Y-59299D03*
D38*
X58852Y-58876D03*
D33*
X75566Y-58876D03*
D47*
X93981Y-58876D03*
D39*
X58852Y-58453D03*
D12*
X75566Y-58453D03*
D46*
X93981Y-58453D03*
D14*
X18202Y73626D03*
D48*
X31956Y73626D03*
D17*
X18202Y74049D03*
D19*
X31956Y74049D03*
D14*
X18202Y74472D03*
D16*
X31956Y74472D03*
D14*
X18202Y74896D03*
D16*
X31956Y74896D03*
D17*
X18202Y75319D03*
D49*
X31956Y75319D03*
D14*
X18202Y75742D03*
D50*
X31956Y75742D03*
D14*
X18202Y76166D03*
D50*
X31956Y76166D03*
D17*
X18202Y76589D03*
D49*
X31956Y76589D03*
D14*
X18202Y77012D03*
D51*
X31753Y77012D03*
D14*
X18202Y77436D03*
D52*
X31956Y77436D03*
D17*
X18202Y77859D03*
D53*
X31956Y77859D03*
D14*
X18202Y78282D03*
D52*
X31956Y78282D03*
D14*
X18202Y78706D03*
D52*
X31956Y78706D03*
D17*
X18202Y79129D03*
D54*
X31956Y79129D03*
D14*
X18202Y79552D03*
D12*
X31956Y79552D03*
D14*
X18202Y79976D03*
D12*
X31956Y79976D03*
D17*
X18202Y80399D03*
D54*
X31956Y80399D03*
D14*
X18202Y80822D03*
D55*
X31740Y80822D03*
D14*
X18202Y81246D03*
D56*
X31956Y81246D03*
D17*
X18202Y81669D03*
D57*
X31956Y81669D03*
D14*
X18202Y82092D03*
D56*
X31956Y82092D03*
D14*
X18202Y82516D03*
D56*
X31956Y82516D03*
D17*
X18202Y82939D03*
D58*
X31956Y82939D03*
D14*
X18202Y83362D03*
D48*
X29416Y83362D03*
X34496Y83362D03*
D14*
X18202Y83786D03*
D48*
X29416Y83786D03*
X34496Y83786D03*
D17*
X18202Y84209D03*
D59*
X29416Y84209D03*
X34496Y84209D03*
D14*
X18202Y84632D03*
D48*
X29416Y84632D03*
X34496Y84632D03*
D14*
X18202Y85056D03*
X29200Y85056D03*
X34712Y85056D03*
D17*
X18202Y85479D03*
D60*
X28997Y85479D03*
X34915Y85479D03*
D14*
X18202Y85902D03*
D61*
X28997Y85902D03*
X34915Y85902D03*
D14*
X18202Y86326D03*
D61*
X28997Y86326D03*
X34915Y86326D03*
D17*
X18202Y86749D03*
D62*
X28781Y86749D03*
X35131Y86749D03*
D14*
X18202Y87172D03*
D63*
X28781Y87172D03*
X35131Y87172D03*
D14*
X18202Y87596D03*
D61*
X28565Y87596D03*
X35347Y87596D03*
D17*
X18202Y88019D03*
D60*
X28565Y88019D03*
X35347Y88019D03*
D14*
X18202Y88442D03*
D61*
X28565Y88442D03*
X35347Y88442D03*
D14*
X18202Y88866D03*
X28362Y88866D03*
X35550Y88866D03*
D17*
X18202Y89289D03*
X28362Y89289D03*
X35550Y89289D03*
D14*
X18202Y89712D03*
D48*
X28146Y89712D03*
D14*
X35550Y89712D03*
X18202Y90136D03*
D48*
X28146Y90136D03*
X35766Y90136D03*
D17*
X18202Y90559D03*
X27930Y90559D03*
X35982Y90559D03*
D14*
X18202Y90982D03*
X27930Y90982D03*
X35982Y90982D03*
X18202Y91406D03*
X27930Y91406D03*
X35982Y91406D03*
D17*
X18202Y91829D03*
D60*
X27727Y91829D03*
D17*
X35982Y91829D03*
D14*
X18202Y92252D03*
D61*
X27727Y92252D03*
X36185Y92252D03*
D14*
X18202Y92676D03*
D63*
X27511Y92676D03*
X36401Y92676D03*
D17*
X18202Y93099D03*
D62*
X27511Y93099D03*
X36401Y93099D03*
D14*
X18202Y93522D03*
D63*
X27511Y93522D03*
X36401Y93522D03*
D14*
X18202Y93946D03*
D63*
X27511Y93946D03*
X36401Y93946D03*
D17*
X18202Y94369D03*
X27092Y94369D03*
X36820Y94369D03*
D14*
X18202Y94792D03*
X27092Y94792D03*
X36820Y94792D03*
X18202Y95216D03*
X27092Y95216D03*
X36820Y95216D03*
D17*
X18202Y95639D03*
X27092Y95639D03*
X36820Y95639D03*
D14*
X18202Y96062D03*
X27092Y96062D03*
X36820Y96062D03*
X18202Y96486D03*
X26660Y96486D03*
X37252Y96486D03*
D17*
X18202Y96909D03*
X26660Y96909D03*
X37252Y96909D03*
D14*
X18202Y97332D03*
X26660Y97332D03*
X37252Y97332D03*
X18202Y97756D03*
X26660Y97756D03*
X37252Y97756D03*
D17*
X18202Y98179D03*
X26660Y98179D03*
X37252Y98179D03*
D14*
X18202Y98602D03*
D63*
X26241Y98602D03*
X37671Y98602D03*
D14*
X18202Y99026D03*
D63*
X26241Y99026D03*
X37671Y99026D03*
D17*
X18202Y99449D03*
D62*
X26241Y99449D03*
X37671Y99449D03*
D14*
X18202Y99872D03*
D63*
X26241Y99872D03*
X37671Y99872D03*
D14*
X18202Y100296D03*
D16*
X26038Y100296D03*
X37874Y100296D03*
D17*
X18202Y100719D03*
X25822Y100719D03*
X38090Y100719D03*
D14*
X18202Y101142D03*
X25822Y101142D03*
X38090Y101142D03*
D11*
X18189Y101566D03*
X25809Y101566D03*
X38103Y101566D03*
D62*
X109227Y215018D03*
D17*
X117698Y215018D03*
X126156Y215018D03*
D63*
X109227Y215441D03*
D14*
X117698Y215441D03*
X126156Y215441D03*
D63*
X109227Y215865D03*
D14*
X117698Y215865D03*
X126156Y215865D03*
D62*
X109227Y216288D03*
D17*
X117698Y216288D03*
X126156Y216288D03*
D63*
X109227Y216711D03*
D14*
X117698Y216711D03*
X126156Y216711D03*
D63*
X109227Y217135D03*
D14*
X117698Y217135D03*
X126156Y217135D03*
D62*
X109227Y217558D03*
D17*
X117698Y217558D03*
X126156Y217558D03*
D63*
X109227Y217981D03*
D14*
X117698Y217981D03*
X126156Y217981D03*
D63*
X109227Y218405D03*
D14*
X117698Y218405D03*
X126156Y218405D03*
D62*
X109227Y218828D03*
D17*
X117698Y218828D03*
X126156Y218828D03*
D63*
X109227Y219251D03*
D14*
X117698Y219251D03*
X126156Y219251D03*
D63*
X109227Y219675D03*
D14*
X117698Y219675D03*
X126156Y219675D03*
D62*
X109227Y220098D03*
D17*
X117698Y220098D03*
X126156Y220098D03*
D63*
X109227Y220521D03*
D14*
X117698Y220521D03*
X126156Y220521D03*
D63*
X109227Y220945D03*
D14*
X117698Y220945D03*
X126156Y220945D03*
D62*
X109227Y221368D03*
D17*
X117698Y221368D03*
X126156Y221368D03*
D63*
X109227Y221791D03*
D14*
X117698Y221791D03*
X126156Y221791D03*
D63*
X109227Y222215D03*
D14*
X117698Y222215D03*
X126156Y222215D03*
D62*
X109227Y222638D03*
D17*
X117698Y222638D03*
X126156Y222638D03*
D63*
X109227Y223061D03*
D14*
X117698Y223061D03*
X126156Y223061D03*
D63*
X109227Y223485D03*
D14*
X117698Y223485D03*
X126156Y223485D03*
D62*
X109227Y223908D03*
D17*
X117698Y223908D03*
X126156Y223908D03*
D63*
X109227Y224331D03*
D14*
X117698Y224331D03*
X126156Y224331D03*
D63*
X109227Y224755D03*
D14*
X117698Y224755D03*
X126156Y224755D03*
D62*
X109227Y225178D03*
D17*
X117698Y225178D03*
X126156Y225178D03*
D63*
X109227Y225601D03*
D14*
X117698Y225601D03*
X126156Y225601D03*
D63*
X109227Y226025D03*
D14*
X117698Y226025D03*
X126156Y226025D03*
D62*
X109227Y226448D03*
D17*
X117698Y226448D03*
X126156Y226448D03*
D63*
X109227Y226871D03*
D14*
X117698Y226871D03*
X126156Y226871D03*
D63*
X109227Y227295D03*
D14*
X117698Y227295D03*
X126156Y227295D03*
D62*
X109227Y227718D03*
D17*
X117698Y227718D03*
X126156Y227718D03*
D63*
X109227Y228141D03*
D14*
X117698Y228141D03*
X126156Y228141D03*
D63*
X109227Y228565D03*
D14*
X117698Y228565D03*
X126156Y228565D03*
D62*
X109227Y228988D03*
D17*
X117698Y228988D03*
X126156Y228988D03*
D63*
X109227Y229411D03*
D14*
X117698Y229411D03*
X126156Y229411D03*
D63*
X109227Y229835D03*
D14*
X117698Y229835D03*
X126156Y229835D03*
D62*
X109227Y230258D03*
D17*
X117698Y230258D03*
X126156Y230258D03*
D63*
X109227Y230681D03*
D14*
X117698Y230681D03*
X126156Y230681D03*
D63*
X109227Y231105D03*
D14*
X117698Y231105D03*
X126156Y231105D03*
D62*
X109227Y231528D03*
D17*
X117698Y231528D03*
X126156Y231528D03*
D63*
X109227Y231951D03*
D14*
X117698Y231951D03*
X126156Y231951D03*
D63*
X109227Y232375D03*
D14*
X117698Y232375D03*
X126156Y232375D03*
D62*
X109227Y232798D03*
D17*
X117698Y232798D03*
X126156Y232798D03*
D63*
X109227Y233221D03*
D14*
X117698Y233221D03*
X126156Y233221D03*
D63*
X109227Y233645D03*
D14*
X117698Y233645D03*
X126156Y233645D03*
D62*
X109227Y234068D03*
D17*
X117698Y234068D03*
X126156Y234068D03*
D63*
X109227Y234491D03*
D14*
X117698Y234491D03*
X126156Y234491D03*
D63*
X109227Y234915D03*
D14*
X117698Y234915D03*
X126156Y234915D03*
D62*
X109227Y235338D03*
D17*
X117698Y235338D03*
X126156Y235338D03*
D63*
X109227Y235761D03*
D14*
X117698Y235761D03*
X126156Y235761D03*
D63*
X109227Y236185D03*
D14*
X117698Y236185D03*
X126156Y236185D03*
D62*
X109227Y236608D03*
D17*
X117698Y236608D03*
X126156Y236608D03*
D63*
X109227Y237031D03*
D14*
X117698Y237031D03*
X126156Y237031D03*
D63*
X109227Y237455D03*
D14*
X117698Y237455D03*
X126156Y237455D03*
D62*
X109227Y237878D03*
D17*
X117698Y237878D03*
X126156Y237878D03*
D63*
X109227Y238301D03*
D14*
X117698Y238301D03*
X126156Y238301D03*
D63*
X109227Y238725D03*
D14*
X117698Y238725D03*
X126156Y238725D03*
D62*
X109227Y239148D03*
D17*
X117698Y239148D03*
X126156Y239148D03*
D63*
X109227Y239571D03*
D14*
X117698Y239571D03*
X126156Y239571D03*
D63*
X109227Y239995D03*
D14*
X117698Y239995D03*
X126156Y239995D03*
D62*
X109227Y240418D03*
D17*
X117698Y240418D03*
X126156Y240418D03*
D63*
X109227Y240841D03*
D14*
X117698Y240841D03*
X126156Y240841D03*
D63*
X109227Y241265D03*
D14*
X117698Y241265D03*
X126156Y241265D03*
D62*
X109227Y241688D03*
D17*
X117698Y241688D03*
X126156Y241688D03*
D63*
X109227Y242111D03*
D14*
X117698Y242111D03*
X126156Y242111D03*
D63*
X109227Y242535D03*
D14*
X117698Y242535D03*
X126156Y242535D03*
D64*
X109227Y242958D03*
X117686Y242958D03*
X126169Y242958D03*
D17*
X23697Y356835D03*
D62*
X32168Y356835D03*
D14*
X23697Y357258D03*
D63*
X32168Y357258D03*
D14*
X23697Y357682D03*
D63*
X32168Y357682D03*
D17*
X23697Y358105D03*
D62*
X32168Y358105D03*
D14*
X23697Y358528D03*
D63*
X32168Y358528D03*
D14*
X23697Y358952D03*
D63*
X32168Y358952D03*
D17*
X23697Y359375D03*
D62*
X32168Y359375D03*
D14*
X23697Y359798D03*
D63*
X32168Y359798D03*
D14*
X23697Y360222D03*
D63*
X32168Y360222D03*
D17*
X23697Y360645D03*
D62*
X32168Y360645D03*
D14*
X23697Y361068D03*
D63*
X32168Y361068D03*
D14*
X23697Y361492D03*
D63*
X32168Y361492D03*
D17*
X23697Y361915D03*
D62*
X32168Y361915D03*
D14*
X23697Y362338D03*
D63*
X32168Y362338D03*
D14*
X23697Y362762D03*
D63*
X32168Y362762D03*
D17*
X23697Y363185D03*
D62*
X32168Y363185D03*
D14*
X23697Y363608D03*
D63*
X32168Y363608D03*
D14*
X23697Y364032D03*
D63*
X32168Y364032D03*
D17*
X23697Y364455D03*
D62*
X32168Y364455D03*
D14*
X23697Y364878D03*
D63*
X32168Y364878D03*
D14*
X23697Y365302D03*
D63*
X32168Y365302D03*
D17*
X23697Y365725D03*
D62*
X32168Y365725D03*
D14*
X23697Y366148D03*
D63*
X32168Y366148D03*
D14*
X23697Y366572D03*
D63*
X32168Y366572D03*
D17*
X23697Y366995D03*
D62*
X32168Y366995D03*
D14*
X23697Y367418D03*
D63*
X32168Y367418D03*
D14*
X23697Y367842D03*
D63*
X32168Y367842D03*
D17*
X23697Y368265D03*
D62*
X32168Y368265D03*
D14*
X23697Y368688D03*
D63*
X32168Y368688D03*
D14*
X23697Y369112D03*
D63*
X32168Y369112D03*
D17*
X23697Y369535D03*
D62*
X32168Y369535D03*
D14*
X23697Y369958D03*
D63*
X32168Y369958D03*
D14*
X23697Y370382D03*
D63*
X32168Y370382D03*
D17*
X23697Y370805D03*
D62*
X32168Y370805D03*
D14*
X23697Y371228D03*
D63*
X32168Y371228D03*
D14*
X23697Y371652D03*
D63*
X32168Y371652D03*
D17*
X23697Y372075D03*
D62*
X32168Y372075D03*
D14*
X23697Y372498D03*
D63*
X32168Y372498D03*
D14*
X23697Y372922D03*
D63*
X32168Y372922D03*
D17*
X23697Y373345D03*
D62*
X32168Y373345D03*
D14*
X23697Y373768D03*
D63*
X32168Y373768D03*
D14*
X23697Y374192D03*
D63*
X32168Y374192D03*
D17*
X23697Y374615D03*
D62*
X32168Y374615D03*
D14*
X23697Y375038D03*
D63*
X32168Y375038D03*
D14*
X23697Y375462D03*
D63*
X32168Y375462D03*
D17*
X23697Y375885D03*
D62*
X32168Y375885D03*
D14*
X23697Y376308D03*
D63*
X32168Y376308D03*
D14*
X23697Y376732D03*
D63*
X32168Y376732D03*
D17*
X23697Y377155D03*
D62*
X32168Y377155D03*
D14*
X23697Y377578D03*
D63*
X32168Y377578D03*
D14*
X23697Y378002D03*
D63*
X32168Y378002D03*
D17*
X23697Y378425D03*
D62*
X32168Y378425D03*
D14*
X23697Y378848D03*
D63*
X32168Y378848D03*
D14*
X23697Y379272D03*
D63*
X32168Y379272D03*
D17*
X23697Y379695D03*
D62*
X32168Y379695D03*
D14*
X23697Y380118D03*
D63*
X32168Y380118D03*
D14*
X23697Y380542D03*
D63*
X32168Y380542D03*
D17*
X23697Y380965D03*
D62*
X32168Y380965D03*
D14*
X23697Y381388D03*
D63*
X32168Y381388D03*
D14*
X23697Y381812D03*
D63*
X32168Y381812D03*
D17*
X23697Y382235D03*
D62*
X32168Y382235D03*
D14*
X23697Y382658D03*
D63*
X32168Y382658D03*
D14*
X23697Y383082D03*
D63*
X32168Y383082D03*
D17*
X23697Y383505D03*
D62*
X32168Y383505D03*
D14*
X23697Y383928D03*
D63*
X32168Y383928D03*
D14*
X23697Y384352D03*
D63*
X32168Y384352D03*
D64*
X23709Y384775D03*
X32168Y384775D03*
D62*
X74082Y499075D03*
D63*
X74082Y499498D03*
X74082Y499922D03*
D62*
X74082Y500345D03*
D63*
X74082Y500768D03*
X74082Y501192D03*
D62*
X74082Y501615D03*
D63*
X74082Y502038D03*
X74082Y502462D03*
D62*
X74082Y502885D03*
D63*
X74082Y503308D03*
X74082Y503732D03*
D62*
X74082Y504155D03*
D63*
X74082Y504578D03*
X74082Y505002D03*
D62*
X74082Y505425D03*
D63*
X74082Y505848D03*
X74082Y506272D03*
D62*
X74082Y506695D03*
D63*
X74082Y507118D03*
X74082Y507542D03*
D62*
X74082Y507965D03*
D63*
X74082Y508388D03*
X74082Y508812D03*
D62*
X74082Y509235D03*
D63*
X74082Y509658D03*
X74082Y510082D03*
D62*
X74082Y510505D03*
D63*
X74082Y510928D03*
X74082Y511352D03*
D62*
X74082Y511775D03*
D63*
X74082Y512198D03*
X74082Y512622D03*
D62*
X74082Y513045D03*
D63*
X74082Y513468D03*
X74082Y513892D03*
D62*
X74082Y514315D03*
D63*
X74082Y514738D03*
X74082Y515162D03*
D62*
X74082Y515585D03*
D63*
X74082Y516008D03*
X74082Y516432D03*
D62*
X74082Y516855D03*
D63*
X74082Y517278D03*
X74082Y517702D03*
D62*
X74082Y518125D03*
D63*
X74082Y518548D03*
X74082Y518972D03*
D62*
X74082Y519395D03*
D63*
X74082Y519818D03*
X74082Y520242D03*
D62*
X74082Y520665D03*
D63*
X74082Y521088D03*
X74082Y521512D03*
D62*
X74082Y521935D03*
D63*
X74082Y522358D03*
X74082Y522782D03*
D62*
X74082Y523205D03*
D63*
X74082Y523628D03*
X74082Y524052D03*
D62*
X74082Y524475D03*
D63*
X74082Y524898D03*
X74082Y525322D03*
D62*
X74082Y525745D03*
D63*
X74082Y526168D03*
X74082Y526592D03*
D64*
X74082Y527015D03*
D63*
X8042Y584588D03*
D48*
X21377Y584588D03*
D63*
X8042Y585012D03*
D16*
X21377Y585012D03*
D62*
X8042Y585435D03*
D19*
X21377Y585435D03*
D63*
X8042Y585858D03*
D16*
X21377Y585858D03*
D63*
X8042Y586282D03*
D50*
X21377Y586282D03*
D62*
X8042Y586705D03*
D49*
X21377Y586705D03*
D63*
X8042Y587128D03*
D50*
X21377Y587128D03*
D63*
X8042Y587552D03*
D50*
X21377Y587552D03*
D62*
X8042Y587975D03*
D65*
X21174Y587975D03*
D63*
X8042Y588398D03*
D52*
X21377Y588398D03*
D63*
X8042Y588822D03*
D52*
X21377Y588822D03*
D62*
X8042Y589245D03*
D53*
X21377Y589245D03*
D63*
X8042Y589668D03*
D52*
X21377Y589668D03*
D63*
X8042Y590092D03*
D12*
X21377Y590092D03*
D62*
X8042Y590515D03*
D54*
X21377Y590515D03*
D63*
X8042Y590938D03*
D12*
X21377Y590938D03*
D63*
X8042Y591362D03*
D12*
X21377Y591362D03*
D62*
X8042Y591785D03*
D66*
X21161Y591785D03*
D63*
X8042Y592208D03*
D56*
X21377Y592208D03*
D63*
X8042Y592632D03*
D56*
X21377Y592632D03*
D62*
X8042Y593055D03*
D57*
X21377Y593055D03*
D63*
X8042Y593478D03*
D56*
X21377Y593478D03*
D63*
X8042Y593902D03*
D67*
X21377Y593902D03*
D62*
X8042Y594325D03*
D59*
X18837Y594325D03*
X23917Y594325D03*
D63*
X8042Y594748D03*
D48*
X18837Y594748D03*
X23917Y594748D03*
D63*
X8042Y595172D03*
D48*
X18837Y595172D03*
X23917Y595172D03*
D62*
X8042Y595595D03*
D59*
X18837Y595595D03*
X23917Y595595D03*
D63*
X8042Y596018D03*
D14*
X18621Y596018D03*
X24133Y596018D03*
D63*
X8042Y596442D03*
D61*
X18418Y596442D03*
X24336Y596442D03*
D62*
X8042Y596865D03*
D60*
X18418Y596865D03*
X24336Y596865D03*
D63*
X8042Y597288D03*
D61*
X18418Y597288D03*
X24336Y597288D03*
D63*
X8042Y597712D03*
X18202Y597712D03*
X24552Y597712D03*
D62*
X8042Y598135D03*
X18202Y598135D03*
X24552Y598135D03*
D63*
X8042Y598558D03*
D61*
X17986Y598558D03*
X24768Y598558D03*
D63*
X8042Y598982D03*
D61*
X17986Y598982D03*
X24768Y598982D03*
D62*
X8042Y599405D03*
D60*
X17986Y599405D03*
X24768Y599405D03*
D63*
X8042Y599828D03*
D14*
X17783Y599828D03*
X24971Y599828D03*
D63*
X8042Y600252D03*
D14*
X17783Y600252D03*
X24971Y600252D03*
D62*
X8042Y600675D03*
D59*
X17567Y600675D03*
D17*
X24971Y600675D03*
D63*
X8042Y601098D03*
D48*
X17567Y601098D03*
X25187Y601098D03*
D63*
X8042Y601522D03*
D14*
X17351Y601522D03*
X25403Y601522D03*
D62*
X8042Y601945D03*
D17*
X17351Y601945D03*
X25403Y601945D03*
D63*
X8042Y602368D03*
D14*
X17351Y602368D03*
X25403Y602368D03*
D63*
X8042Y602792D03*
D61*
X17148Y602792D03*
D14*
X25403Y602792D03*
D62*
X8042Y603215D03*
D60*
X17148Y603215D03*
X25606Y603215D03*
D63*
X8042Y603638D03*
X16932Y603638D03*
X25822Y603638D03*
X8042Y604062D03*
X16932Y604062D03*
X25822Y604062D03*
D62*
X8042Y604485D03*
X16932Y604485D03*
X25822Y604485D03*
D68*
X74298Y604485D03*
D63*
X8042Y604908D03*
X16932Y604908D03*
X25822Y604908D03*
D69*
X74298Y604908D03*
D63*
X8042Y605332D03*
D14*
X16513Y605332D03*
X26241Y605332D03*
D69*
X74298Y605332D03*
D62*
X8042Y605755D03*
D17*
X16513Y605755D03*
X26241Y605755D03*
D68*
X74298Y605755D03*
D63*
X8042Y606178D03*
D14*
X16513Y606178D03*
X26241Y606178D03*
D69*
X74298Y606178D03*
D63*
X8042Y606602D03*
D14*
X16513Y606602D03*
X26241Y606602D03*
D69*
X74298Y606602D03*
D62*
X8042Y607025D03*
D17*
X16513Y607025D03*
X26241Y607025D03*
D68*
X74298Y607025D03*
D63*
X8042Y607448D03*
D14*
X16081Y607448D03*
X26673Y607448D03*
D69*
X74298Y607448D03*
D63*
X8042Y607872D03*
D14*
X16081Y607872D03*
X26673Y607872D03*
D69*
X74298Y607872D03*
D62*
X8042Y608295D03*
D17*
X16081Y608295D03*
X26673Y608295D03*
D68*
X74298Y608295D03*
D63*
X8042Y608718D03*
D14*
X16081Y608718D03*
X26673Y608718D03*
D69*
X74298Y608718D03*
D63*
X8042Y609142D03*
D14*
X16081Y609142D03*
X26673Y609142D03*
D69*
X74298Y609142D03*
D62*
X8042Y609565D03*
X15662Y609565D03*
X27092Y609565D03*
D68*
X74298Y609565D03*
D63*
X8042Y609988D03*
X15662Y609988D03*
X27092Y609988D03*
D69*
X74298Y609988D03*
D63*
X8042Y610412D03*
X15662Y610412D03*
X27092Y610412D03*
D69*
X74298Y610412D03*
D62*
X8042Y610835D03*
X15662Y610835D03*
X27092Y610835D03*
D68*
X74298Y610835D03*
D63*
X8042Y611258D03*
D16*
X15459Y611258D03*
X27295Y611258D03*
D69*
X74298Y611258D03*
D63*
X8042Y611682D03*
D14*
X15243Y611682D03*
X27511Y611682D03*
D13*
X73028Y611682D03*
D62*
X8042Y612105D03*
D17*
X15243Y612105D03*
X27511Y612105D03*
D11*
X8042Y612528D03*
X15230Y612528D03*
X27524Y612528D03*
D70*
X75987Y618032D03*
D68*
X75136Y618455D03*
D69*
X75136Y618878D03*
X75136Y619302D03*
D68*
X75136Y619725D03*
D69*
X75136Y620148D03*
X75136Y620572D03*
D68*
X75136Y620995D03*
D11*
X75352Y621418D03*
D69*
X75568Y621842D03*
D68*
X75568Y622265D03*
D69*
X75568Y622688D03*
X75568Y623112D03*
D68*
X75568Y623535D03*
D69*
X75568Y623958D03*
X75568Y624382D03*
D64*
X75784Y624805D03*
D71*
X75987Y625228D03*
X75987Y625652D03*
D72*
X75987Y626075D03*
D71*
X75987Y626498D03*
X75987Y626922D03*
D64*
X76190Y627345D03*
D11*
X76190Y627768D03*
D69*
X76406Y628192D03*
D68*
X76406Y628615D03*
D69*
X76406Y629038D03*
X76406Y629462D03*
D68*
X76406Y629885D03*
D11*
X76622Y630308D03*
D69*
X76838Y630732D03*
D68*
X76838Y631155D03*
D69*
X76838Y631578D03*
D73*
X76419Y632002D03*
D74*
X79162Y638352D03*
D68*
X78108Y638775D03*
D11*
X78324Y639198D03*
X78324Y639622D03*
D72*
X78527Y640045D03*
D71*
X78527Y640468D03*
X78527Y640892D03*
D64*
X78730Y641315D03*
D69*
X78946Y641738D03*
X78946Y642162D03*
D68*
X78946Y642585D03*
D11*
X79162Y643008D03*
X79162Y643432D03*
D68*
X79378Y643855D03*
D69*
X79378Y644278D03*
X79378Y644702D03*
D64*
X79594Y645125D03*
D11*
X79594Y645548D03*
D71*
X79797Y645972D03*
D72*
X79797Y646395D03*
D11*
X80000Y646818D03*
X80000Y647242D03*
D68*
X80216Y647665D03*
D69*
X80216Y648088D03*
X80216Y648512D03*
D64*
X80432Y648935D03*
D69*
X80648Y649358D03*
X80648Y649782D03*
D68*
X80648Y650205D03*
D11*
X80864Y650628D03*
X80864Y651052D03*
D72*
X81067Y651475D03*
D71*
X81067Y651898D03*
D75*
X80432Y652322D03*
D76*
X84242Y658248D03*
D77*
X83391Y658672D03*
D64*
X82972Y659095D03*
D11*
X82972Y659518D03*
D69*
X83188Y659942D03*
D68*
X83188Y660365D03*
D11*
X83404Y660788D03*
X83404Y661212D03*
D72*
X83607Y661635D03*
D11*
X83810Y662058D03*
X83810Y662482D03*
D68*
X84026Y662905D03*
D69*
X84026Y663328D03*
D11*
X84242Y663752D03*
D64*
X84242Y664175D03*
D69*
X84458Y664598D03*
X84458Y665022D03*
D64*
X84674Y665445D03*
D11*
X84674Y665868D03*
D71*
X84877Y666292D03*
D64*
X85080Y666715D03*
D11*
X85080Y667138D03*
D69*
X85296Y667562D03*
D68*
X85296Y667985D03*
D11*
X85512Y668408D03*
X85512Y668832D03*
D68*
X85728Y669255D03*
D69*
X85728Y669678D03*
D11*
X85944Y670102D03*
D64*
X85944Y670525D03*
D71*
X86147Y670948D03*
D11*
X86350Y671372D03*
D64*
X86350Y671795D03*
D77*
X85931Y672218D03*
D78*
X85093Y672642D03*
D79*
X89741Y678145D03*
D77*
X88903Y678568D03*
D11*
X88484Y678992D03*
D64*
X88484Y679415D03*
D71*
X88687Y679838D03*
D11*
X88890Y680262D03*
D64*
X88890Y680685D03*
D69*
X89106Y681108D03*
D14*
X121070Y675603D03*
D63*
X129541Y675603D03*
D14*
X138012Y675603D03*
D69*
X89106Y681532D03*
D14*
X121070Y676028D03*
D63*
X129541Y676028D03*
D14*
X138012Y676028D03*
D64*
X89322Y681955D03*
D17*
X121070Y676451D03*
D62*
X129541Y676451D03*
D17*
X138012Y676451D03*
D11*
X89322Y682378D03*
D14*
X121070Y676873D03*
D63*
X129541Y676873D03*
D14*
X138012Y676873D03*
D69*
X89538Y682802D03*
D14*
X121070Y677298D03*
D63*
X129541Y677298D03*
D14*
X138012Y677298D03*
D64*
X89754Y683225D03*
D17*
X121070Y677721D03*
D62*
X129541Y677721D03*
D17*
X138012Y677721D03*
D11*
X89754Y683648D03*
D14*
X121070Y678143D03*
D63*
X129541Y678143D03*
D14*
X138012Y678143D03*
D71*
X89957Y684072D03*
D14*
X121070Y678568D03*
D63*
X129541Y678568D03*
D14*
X138012Y678568D03*
D64*
X90160Y684495D03*
D17*
X121070Y678991D03*
D62*
X129541Y678991D03*
D17*
X138012Y678991D03*
D11*
X90160Y684918D03*
D14*
X121070Y679413D03*
D63*
X129541Y679413D03*
D14*
X138012Y679413D03*
D69*
X90376Y685342D03*
D14*
X121070Y679838D03*
D63*
X129541Y679838D03*
D14*
X138012Y679838D03*
D68*
X90376Y685765D03*
D17*
X121070Y680261D03*
D62*
X129541Y680261D03*
D17*
X138012Y680261D03*
D11*
X90592Y686188D03*
D14*
X121070Y680683D03*
D63*
X129541Y680683D03*
D14*
X138012Y680683D03*
D11*
X90592Y686612D03*
D14*
X121070Y681108D03*
D63*
X129541Y681108D03*
D14*
X138012Y681108D03*
D68*
X90808Y687035D03*
D17*
X121070Y681531D03*
D62*
X129541Y681531D03*
D17*
X138012Y681531D03*
D11*
X91024Y687458D03*
D14*
X121070Y681953D03*
D63*
X129541Y681953D03*
D14*
X138012Y681953D03*
D11*
X91024Y687882D03*
D14*
X121070Y682378D03*
D63*
X129541Y682378D03*
D14*
X138012Y682378D03*
D72*
X91227Y688305D03*
D17*
X121070Y682801D03*
D62*
X129541Y682801D03*
D17*
X138012Y682801D03*
D11*
X91430Y688728D03*
D14*
X121070Y683223D03*
D63*
X129541Y683223D03*
D14*
X138012Y683223D03*
D11*
X91430Y689152D03*
D14*
X121070Y683648D03*
D63*
X129541Y683648D03*
D14*
X138012Y683648D03*
D68*
X91646Y689575D03*
D17*
X121070Y684071D03*
D62*
X129541Y684071D03*
D17*
X138012Y684071D03*
D69*
X91646Y689998D03*
D14*
X121070Y684493D03*
D63*
X129541Y684493D03*
D14*
X138012Y684493D03*
D11*
X91862Y690422D03*
D14*
X121070Y684918D03*
D63*
X129541Y684918D03*
D14*
X138012Y684918D03*
D64*
X91862Y690845D03*
D17*
X121070Y685341D03*
D62*
X129541Y685341D03*
D17*
X138012Y685341D03*
D69*
X92078Y691268D03*
D14*
X121070Y685763D03*
D63*
X129541Y685763D03*
D14*
X138012Y685763D03*
D69*
X92078Y691692D03*
D14*
X121070Y686188D03*
D63*
X129541Y686188D03*
D14*
X138012Y686188D03*
D80*
X91443Y692115D03*
D17*
X121070Y686611D03*
D62*
X129541Y686611D03*
D17*
X138012Y686611D03*
D78*
X91011Y692538D03*
D14*
X121070Y687033D03*
D63*
X129541Y687033D03*
D14*
X138012Y687033D03*
X121070Y687458D03*
D63*
X129541Y687458D03*
D14*
X138012Y687458D03*
D17*
X121070Y687881D03*
D62*
X129541Y687881D03*
D17*
X138012Y687881D03*
D14*
X121070Y688303D03*
D63*
X129541Y688303D03*
D14*
X138012Y688303D03*
X121070Y688728D03*
D63*
X129541Y688728D03*
D14*
X138012Y688728D03*
D17*
X121070Y689151D03*
D62*
X129541Y689151D03*
D17*
X138012Y689151D03*
D14*
X121070Y689573D03*
D63*
X129541Y689573D03*
D14*
X138012Y689573D03*
X121070Y689998D03*
D63*
X129541Y689998D03*
D14*
X138012Y689998D03*
D17*
X121070Y690421D03*
D62*
X129541Y690421D03*
D17*
X138012Y690421D03*
D81*
X53127Y696348D03*
D14*
X121070Y690843D03*
D63*
X129541Y690843D03*
D14*
X138012Y690843D03*
D70*
X53127Y696772D03*
D14*
X121070Y691268D03*
D63*
X129541Y691268D03*
D14*
X138012Y691268D03*
D82*
X53127Y697195D03*
D17*
X121070Y691691D03*
D62*
X129541Y691691D03*
D17*
X138012Y691691D03*
D71*
X53127Y697618D03*
D14*
X121070Y692113D03*
D63*
X129541Y692113D03*
D14*
X138012Y692113D03*
D48*
X53127Y698042D03*
D13*
X95456Y698042D03*
D14*
X121070Y692538D03*
D63*
X129541Y692538D03*
D14*
X138012Y692538D03*
D19*
X53127Y698465D03*
D82*
X94605Y698465D03*
D17*
X121070Y692961D03*
D62*
X129541Y692961D03*
D17*
X138012Y692961D03*
D16*
X52695Y698888D03*
D11*
X94402Y698888D03*
D14*
X121070Y693383D03*
D63*
X129541Y693383D03*
D14*
X138012Y693383D03*
D16*
X52289Y699312D03*
D11*
X94402Y699312D03*
D14*
X121070Y693808D03*
D63*
X129541Y693808D03*
D14*
X138012Y693808D03*
D19*
X51857Y699735D03*
D68*
X94618Y699735D03*
D17*
X121070Y694231D03*
D62*
X129541Y694231D03*
D17*
X138012Y694231D03*
D16*
X51425Y700158D03*
D11*
X94834Y700158D03*
D14*
X121070Y694653D03*
D63*
X129541Y694653D03*
D14*
X138012Y694653D03*
D16*
X51019Y700582D03*
D11*
X94834Y700582D03*
D14*
X121070Y695078D03*
D63*
X129541Y695078D03*
D14*
X138012Y695078D03*
D19*
X50587Y701005D03*
D72*
X95037Y701005D03*
D17*
X121070Y695501D03*
D62*
X129541Y695501D03*
D17*
X138012Y695501D03*
D14*
X50371Y701428D03*
D11*
X95240Y701428D03*
D14*
X121070Y695923D03*
D63*
X129541Y695923D03*
D14*
X138012Y695923D03*
D11*
X50384Y701852D03*
X95240Y701852D03*
D14*
X121070Y696348D03*
D63*
X129541Y696348D03*
D14*
X138012Y696348D03*
D83*
X50371Y702275D03*
D68*
X95456Y702275D03*
D17*
X121070Y696771D03*
D62*
X129541Y696771D03*
D17*
X138012Y696771D03*
D77*
X50371Y702698D03*
D69*
X95456Y702698D03*
D14*
X121070Y697193D03*
D63*
X129541Y697193D03*
D14*
X138012Y697193D03*
D74*
X50384Y703122D03*
D11*
X95672Y703122D03*
D14*
X121070Y697618D03*
D63*
X129541Y697618D03*
D14*
X138012Y697618D03*
D79*
X50371Y703545D03*
D64*
X95672Y703545D03*
D17*
X121070Y698041D03*
D62*
X129541Y698041D03*
D17*
X138012Y698041D03*
D69*
X95888Y703968D03*
D14*
X121070Y698463D03*
D63*
X129541Y698463D03*
D14*
X138012Y698463D03*
D11*
X96104Y704392D03*
D14*
X121070Y698888D03*
D63*
X129541Y698888D03*
D14*
X138012Y698888D03*
D64*
X96104Y704815D03*
D17*
X121070Y699311D03*
D62*
X129541Y699311D03*
D17*
X138012Y699311D03*
D71*
X96307Y705238D03*
D14*
X121070Y699733D03*
D63*
X129541Y699733D03*
D14*
X138012Y699733D03*
D11*
X96510Y705662D03*
D14*
X121070Y700158D03*
D63*
X129541Y700158D03*
D14*
X138012Y700158D03*
D64*
X96510Y706085D03*
D17*
X121070Y700581D03*
D62*
X129541Y700581D03*
D17*
X138012Y700581D03*
D69*
X96726Y706508D03*
D14*
X121070Y701003D03*
D63*
X129541Y701003D03*
D14*
X138012Y701003D03*
D74*
X44034Y706932D03*
D11*
X96942Y706932D03*
D14*
X121070Y701428D03*
D63*
X129541Y701428D03*
D14*
X138012Y701428D03*
D80*
X44021Y707355D03*
D64*
X96942Y707355D03*
D17*
X121070Y701851D03*
D62*
X129541Y701851D03*
D17*
X138012Y701851D03*
D84*
X44021Y707778D03*
D69*
X97158Y707778D03*
D14*
X121070Y702273D03*
D63*
X129541Y702273D03*
D14*
X138012Y702273D03*
D11*
X44034Y708202D03*
D69*
X97158Y708202D03*
D14*
X121070Y702698D03*
D63*
X129541Y702698D03*
D14*
X138012Y702698D03*
D59*
X44237Y708625D03*
D64*
X97374Y708625D03*
D17*
X121070Y703121D03*
D62*
X129541Y703121D03*
D17*
X138012Y703121D03*
D14*
X44021Y709048D03*
D11*
X97374Y709048D03*
X121083Y703543D03*
X129541Y703543D03*
X137999Y703543D03*
D63*
X43602Y709472D03*
D71*
X97577Y709472D03*
D60*
X43386Y709895D03*
D64*
X97780Y709895D03*
D48*
X42967Y710318D03*
D11*
X97780Y710318D03*
D61*
X42548Y710742D03*
D69*
X97996Y710742D03*
D62*
X42332Y711165D03*
D68*
X97996Y711165D03*
D61*
X42116Y711588D03*
D84*
X97793Y711588D03*
D48*
X41697Y712012D03*
D74*
X97374Y712012D03*
D17*
X41481Y712435D03*
D61*
X41278Y712858D03*
X40846Y713282D03*
D59*
X40427Y713705D03*
D48*
X40427Y714128D03*
D61*
X40008Y714552D03*
D64*
X39792Y714975D03*
D61*
X39576Y715398D03*
D48*
X39157Y715822D03*
D59*
X39157Y716245D03*
D61*
X38738Y716668D03*
D11*
X38522Y717092D03*
D60*
X38306Y717515D03*
D48*
X37887Y717938D03*
D74*
X101184Y717938D03*
D11*
X37684Y718362D03*
D69*
X100536Y718362D03*
D72*
X37887Y718785D03*
D64*
X100320Y718785D03*
D77*
X38103Y719208D03*
D69*
X100536Y719208D03*
D85*
X38306Y719632D03*
D11*
X100752Y719632D03*
D86*
X38522Y720055D03*
D64*
X100752Y720055D03*
D69*
X100968Y720478D03*
X100968Y720902D03*
D64*
X101184Y721325D03*
D11*
X101184Y721748D03*
D71*
X101387Y722172D03*
D64*
X101590Y722595D03*
D11*
X101590Y723018D03*
D69*
X101806Y723442D03*
D64*
X102022Y723865D03*
D11*
X102022Y724288D03*
D74*
X33010Y724712D03*
D69*
X102238Y724712D03*
D87*
X33442Y725135D03*
D68*
X102238Y725135D03*
D84*
X33861Y725558D03*
D11*
X102454Y725558D03*
X33874Y725982D03*
X102454Y725982D03*
D64*
X33874Y726405D03*
D72*
X102657Y726405D03*
D11*
X33442Y726828D03*
X102860Y726828D03*
X33442Y727252D03*
X102860Y727252D03*
D64*
X33010Y727675D03*
D68*
X103076Y727675D03*
D11*
X33010Y728098D03*
X103292Y728098D03*
X33010Y728522D03*
X103292Y728522D03*
D64*
X32604Y728945D03*
D68*
X103508Y728945D03*
D11*
X32604Y729368D03*
D69*
X103508Y729368D03*
X32388Y729792D03*
D11*
X103724Y729792D03*
D64*
X32172Y730215D03*
X103724Y730215D03*
D11*
X32172Y730638D03*
D71*
X103927Y730638D03*
D69*
X31956Y731062D03*
D71*
X103927Y731062D03*
D64*
X31740Y731485D03*
D83*
X103711Y731485D03*
D11*
X31740Y731908D03*
D13*
X103076Y731908D03*
D71*
X31537Y732332D03*
D64*
X31334Y732755D03*
D11*
X31334Y733178D03*
D69*
X31118Y733602D03*
D64*
X30902Y734025D03*
D11*
X30902Y734448D03*
D69*
X30686Y734872D03*
D68*
X30686Y735295D03*
D11*
X30470Y735718D03*
X30470Y736142D03*
D72*
X30267Y736565D03*
D71*
X30267Y736988D03*
D11*
X30064Y737412D03*
D64*
X30064Y737835D03*
D88*
X106886Y737835D03*
D84*
X30051Y738258D03*
D69*
X106048Y738258D03*
D74*
X30902Y738682D03*
D11*
X106264Y738682D03*
D64*
X106264Y739105D03*
D71*
X106467Y739528D03*
D11*
X106670Y739952D03*
D64*
X106670Y740375D03*
D69*
X106886Y740798D03*
X106886Y741222D03*
D64*
X107102Y741645D03*
D11*
X107102Y742068D03*
D69*
X107318Y742492D03*
D64*
X107534Y742915D03*
D11*
X107534Y743338D03*
D71*
X107737Y743762D03*
D72*
X107737Y744185D03*
D11*
X107940Y744608D03*
D89*
X28362Y745032D03*
D11*
X107940Y745032D03*
D68*
X28578Y745455D03*
X108156Y745455D03*
D69*
X28578Y745878D03*
D11*
X108372Y745878D03*
D69*
X28578Y746302D03*
D11*
X108372Y746302D03*
D68*
X28578Y746725D03*
X108588Y746725D03*
D69*
X28578Y747148D03*
X108588Y747148D03*
X28578Y747572D03*
D11*
X108804Y747572D03*
D68*
X28578Y747995D03*
D64*
X108804Y747995D03*
D69*
X28578Y748418D03*
D71*
X109007Y748418D03*
D69*
X28578Y748842D03*
D71*
X109007Y748842D03*
D64*
X28362Y749265D03*
X109210Y749265D03*
D69*
X28146Y749688D03*
D11*
X109210Y749688D03*
D69*
X28146Y750112D03*
X109426Y750112D03*
D68*
X28146Y750535D03*
D64*
X109642Y750535D03*
D69*
X28146Y750958D03*
D11*
X109642Y750958D03*
D69*
X28146Y751382D03*
D73*
X109439Y751382D03*
D68*
X28146Y751805D03*
D90*
X108588Y751805D03*
D69*
X28146Y752228D03*
X28146Y752652D03*
D68*
X28146Y753075D03*
D69*
X28146Y753498D03*
X28146Y753922D03*
D68*
X28146Y754345D03*
D69*
X28146Y754768D03*
X28146Y755192D03*
D68*
X28146Y755615D03*
D69*
X28146Y756038D03*
X28146Y756462D03*
D68*
X28146Y756885D03*
D11*
X28362Y757308D03*
D69*
X28578Y757732D03*
D85*
X112398Y757732D03*
D68*
X28578Y758155D03*
D72*
X111547Y758155D03*
D69*
X28578Y758578D03*
D11*
X111750Y758578D03*
D73*
X28159Y759002D03*
D11*
X111750Y759002D03*
D68*
X111966Y759425D03*
D69*
X111966Y759848D03*
D11*
X112182Y760272D03*
D64*
X112182Y760695D03*
D69*
X112398Y761118D03*
X112398Y761542D03*
D64*
X112614Y761965D03*
D11*
X112614Y762388D03*
D71*
X112817Y762812D03*
D72*
X112817Y763235D03*
D11*
X113020Y763658D03*
X113020Y764082D03*
D68*
X113236Y764505D03*
D69*
X113236Y764928D03*
D74*
X30470Y765352D03*
D11*
X113452Y765352D03*
D68*
X29416Y765775D03*
D64*
X113452Y765775D03*
D69*
X29416Y766198D03*
X113668Y766198D03*
X29416Y766622D03*
X113668Y766622D03*
D68*
X29416Y767045D03*
D64*
X113884Y767045D03*
D11*
X29632Y767468D03*
X113884Y767468D03*
X29632Y767892D03*
D71*
X114087Y767892D03*
D68*
X29848Y768315D03*
D72*
X114087Y768315D03*
D69*
X29848Y768738D03*
D11*
X114290Y768738D03*
D69*
X29848Y769162D03*
D11*
X114290Y769162D03*
D64*
X30064Y769585D03*
D68*
X114506Y769585D03*
D11*
X30064Y770008D03*
D69*
X114506Y770008D03*
D71*
X30267Y770432D03*
D11*
X114722Y770432D03*
D72*
X30267Y770855D03*
D64*
X114722Y770855D03*
D71*
X30267Y771278D03*
D69*
X114938Y771278D03*
D11*
X30470Y771702D03*
D74*
X113884Y771702D03*
D68*
X30686Y772125D03*
D69*
X30686Y772548D03*
X30686Y772972D03*
D64*
X30902Y773395D03*
D11*
X30902Y773818D03*
D69*
X31118Y774242D03*
D68*
X31118Y774665D03*
D11*
X31334Y775088D03*
X31334Y775512D03*
D72*
X31537Y775935D03*
D11*
X31740Y776358D03*
X31740Y776782D03*
D68*
X31956Y777205D03*
D69*
X31956Y777628D03*
D78*
X117681Y777628D03*
D11*
X32172Y778052D03*
D84*
X116843Y778052D03*
D64*
X32172Y778475D03*
D72*
X116627Y778475D03*
D69*
X32388Y778898D03*
D71*
X116627Y778898D03*
D70*
X31537Y779322D03*
D71*
X116627Y779322D03*
D64*
X116830Y779745D03*
D11*
X116830Y780168D03*
D69*
X117046Y780592D03*
D68*
X117046Y781015D03*
D69*
X117046Y781438D03*
D11*
X117262Y781862D03*
D64*
X117262Y782285D03*
D69*
X117478Y782708D03*
X117478Y783132D03*
D68*
X117478Y783555D03*
D14*
X11849Y784401D03*
D63*
X20320Y784401D03*
D11*
X117694Y783978D03*
D14*
X11849Y784825D03*
D63*
X20320Y784825D03*
D71*
X117897Y784402D03*
D17*
X11849Y785248D03*
D62*
X20320Y785248D03*
D72*
X117897Y784825D03*
D14*
X11849Y785671D03*
D63*
X20320Y785671D03*
D85*
X35766Y785248D03*
D71*
X117897Y785248D03*
D14*
X11849Y786095D03*
D63*
X20320Y786095D03*
D84*
X35131Y785672D03*
D11*
X118100Y785672D03*
D17*
X11849Y786518D03*
D62*
X20320Y786518D03*
D68*
X34928Y786095D03*
D64*
X118100Y786095D03*
D14*
X11849Y786941D03*
D63*
X20320Y786941D03*
D11*
X35144Y786518D03*
D69*
X118316Y786518D03*
D14*
X11849Y787365D03*
D63*
X20320Y787365D03*
D11*
X35144Y786942D03*
D69*
X118316Y786942D03*
D17*
X11849Y787788D03*
D62*
X20320Y787788D03*
D64*
X35550Y787365D03*
D68*
X118316Y787365D03*
D14*
X11849Y788211D03*
D63*
X20320Y788211D03*
D11*
X35550Y787788D03*
X118532Y787788D03*
D14*
X11849Y788635D03*
D63*
X20320Y788635D03*
D11*
X35550Y788212D03*
X118532Y788212D03*
D17*
X11849Y789058D03*
D62*
X20320Y789058D03*
D64*
X35982Y788635D03*
D79*
X73663Y788635D03*
D68*
X118748Y788635D03*
D14*
X11849Y789481D03*
D63*
X20320Y789481D03*
D11*
X35982Y789058D03*
D85*
X73028Y789058D03*
D69*
X118748Y789058D03*
D14*
X11849Y789905D03*
D63*
X20320Y789905D03*
D11*
X36414Y789482D03*
D89*
X72812Y789482D03*
D69*
X118748Y789482D03*
D17*
X11849Y790328D03*
D62*
X20320Y790328D03*
D64*
X36414Y789905D03*
D59*
X72177Y789905D03*
D64*
X118964Y789905D03*
D14*
X11849Y790751D03*
D63*
X20320Y790751D03*
D11*
X36414Y790328D03*
D26*
X71961Y790328D03*
D11*
X118964Y790328D03*
D14*
X11849Y791175D03*
D63*
X20320Y791175D03*
D11*
X36820Y790752D03*
D51*
X71542Y790752D03*
D71*
X119167Y790752D03*
D17*
X11849Y791598D03*
D62*
X20320Y791598D03*
D64*
X36820Y791175D03*
D91*
X71123Y791175D03*
D72*
X119167Y791175D03*
D14*
X11849Y792021D03*
D63*
X20320Y792021D03*
D11*
X37252Y791598D03*
D55*
X71123Y791598D03*
D84*
X118951Y791598D03*
D14*
X11849Y792445D03*
D63*
X20320Y792445D03*
D11*
X37252Y792022D03*
D92*
X70691Y792022D03*
D81*
X117897Y792022D03*
D17*
X11849Y792868D03*
D62*
X20320Y792868D03*
D64*
X37252Y792445D03*
D65*
X70272Y792445D03*
D14*
X11849Y793291D03*
D63*
X20320Y793291D03*
D11*
X37684Y792868D03*
D14*
X69853Y792868D03*
X11849Y793715D03*
D63*
X20320Y793715D03*
D11*
X37684Y793292D03*
X69434Y793292D03*
D17*
X11849Y794138D03*
D62*
X20320Y794138D03*
D64*
X38090Y793715D03*
D82*
X69205Y793715D03*
D14*
X11849Y794561D03*
D63*
X20320Y794561D03*
D11*
X38090Y794138D03*
D74*
X68570Y794138D03*
D14*
X11849Y794985D03*
D63*
X20320Y794985D03*
D11*
X38522Y794562D03*
D78*
X60531Y794562D03*
D17*
X11849Y795408D03*
D62*
X20320Y795408D03*
D64*
X38522Y794985D03*
D88*
X60328Y794985D03*
D14*
X11849Y795831D03*
D63*
X20320Y795831D03*
D61*
X38738Y795408D03*
D89*
X60112Y795408D03*
D14*
X11849Y796255D03*
D63*
X20320Y796255D03*
D11*
X38954Y795832D03*
X59680Y795832D03*
D17*
X11849Y796678D03*
D62*
X20320Y796678D03*
D59*
X39157Y796255D03*
D17*
X59693Y796255D03*
D14*
X11849Y797101D03*
D63*
X20320Y797101D03*
D11*
X39360Y796678D03*
D26*
X59261Y796678D03*
D14*
X11849Y797525D03*
D63*
X20320Y797525D03*
D11*
X39360Y797102D03*
D93*
X59058Y797102D03*
D17*
X11849Y797948D03*
D62*
X20320Y797948D03*
D64*
X39792Y797525D03*
D54*
X58639Y797525D03*
D14*
X11849Y798371D03*
D63*
X20320Y798371D03*
D69*
X39576Y797948D03*
D92*
X57991Y797948D03*
D81*
X121707Y797948D03*
D14*
X11849Y798795D03*
D63*
X20320Y798795D03*
D77*
X39373Y798372D03*
D92*
X57153Y798372D03*
D71*
X120437Y798372D03*
D17*
X11849Y799218D03*
D62*
X20320Y799218D03*
D94*
X38954Y798795D03*
D95*
X56302Y798795D03*
D72*
X120437Y798795D03*
D14*
X11849Y799641D03*
D63*
X20320Y799641D03*
D52*
X55667Y799218D03*
D11*
X120640Y799218D03*
D14*
X11849Y800065D03*
D63*
X20320Y800065D03*
D93*
X54816Y799642D03*
D11*
X120640Y799642D03*
D17*
X11849Y800488D03*
D62*
X20320Y800488D03*
D53*
X54397Y800065D03*
D68*
X120856Y800065D03*
D14*
X11849Y800911D03*
D63*
X20320Y800911D03*
D93*
X53546Y800488D03*
D69*
X120856Y800488D03*
D14*
X11849Y801335D03*
D63*
X20320Y801335D03*
D51*
X52924Y800912D03*
D69*
X120856Y800912D03*
D17*
X11849Y801758D03*
D62*
X20320Y801758D03*
D96*
X52276Y801335D03*
D68*
X120856Y801335D03*
D14*
X11849Y802181D03*
D63*
X20320Y802181D03*
D51*
X51654Y801758D03*
D11*
X121072Y801758D03*
D14*
X11849Y802605D03*
D63*
X20320Y802605D03*
D28*
X51222Y802182D03*
D11*
X121072Y802182D03*
D17*
X11849Y803028D03*
D62*
X20320Y803028D03*
D19*
X51019Y802605D03*
D68*
X121288Y802605D03*
D14*
X11849Y803451D03*
D63*
X20320Y803451D03*
D11*
X50790Y803028D03*
D69*
X121288Y803028D03*
D14*
X11849Y803875D03*
D63*
X20320Y803875D03*
D84*
X50803Y803452D03*
D69*
X121288Y803452D03*
D17*
X11849Y804298D03*
D62*
X20320Y804298D03*
D97*
X44237Y803875D03*
D80*
X50371Y803875D03*
D68*
X121288Y803875D03*
D14*
X11849Y804721D03*
D63*
X20320Y804721D03*
D77*
X44021Y804298D03*
D74*
X50384Y804298D03*
D11*
X121504Y804298D03*
D14*
X11849Y805145D03*
D63*
X20320Y805145D03*
D89*
X43602Y804722D03*
D11*
X121504Y804722D03*
D17*
X11849Y805568D03*
D62*
X20320Y805568D03*
D64*
X43602Y805145D03*
D72*
X121707Y805145D03*
D14*
X11849Y805991D03*
D63*
X20320Y805991D03*
D11*
X43602Y805568D03*
D71*
X121707Y805568D03*
D14*
X11849Y806415D03*
D63*
X20320Y806415D03*
D11*
X44034Y805992D03*
D71*
X121707Y805992D03*
D17*
X11849Y806838D03*
D62*
X20320Y806838D03*
D64*
X44034Y806415D03*
D72*
X121707Y806415D03*
D14*
X11849Y807261D03*
D63*
X20320Y807261D03*
D14*
X44021Y806838D03*
D71*
X121707Y806838D03*
D14*
X11849Y807685D03*
D63*
X20320Y807685D03*
D98*
X43818Y807262D03*
D11*
X121910Y807262D03*
D17*
X11849Y808108D03*
D62*
X20320Y808108D03*
D65*
X43602Y807685D03*
D68*
X122126Y807685D03*
D14*
X11849Y808531D03*
D63*
X20320Y808531D03*
D99*
X43602Y808108D03*
D69*
X122126Y808108D03*
D14*
X11849Y808955D03*
D63*
X20320Y808955D03*
D12*
X43399Y808532D03*
D69*
X122126Y808532D03*
D17*
X11849Y809378D03*
D62*
X20320Y809378D03*
D100*
X43386Y808955D03*
D68*
X122126Y808955D03*
D14*
X11849Y809801D03*
D63*
X20320Y809801D03*
D101*
X43170Y809378D03*
D69*
X122126Y809378D03*
D14*
X11849Y810225D03*
D63*
X20320Y810225D03*
D16*
X40859Y809802D03*
D61*
X45926Y809802D03*
D69*
X122126Y809802D03*
D17*
X11849Y810648D03*
D62*
X20320Y810648D03*
D19*
X40427Y810225D03*
D64*
X46142Y810225D03*
X122342Y810225D03*
D14*
X11849Y811071D03*
D63*
X20320Y811071D03*
D16*
X39995Y810648D03*
D61*
X46358Y810648D03*
D69*
X122558Y810648D03*
D14*
X11849Y811495D03*
D63*
X20320Y811495D03*
D26*
X39373Y811072D03*
D11*
X46574Y811072D03*
D69*
X122558Y811072D03*
D17*
X11849Y811918D03*
D62*
X20320Y811918D03*
D27*
X38941Y811495D03*
D59*
X46777Y811495D03*
D68*
X122558Y811495D03*
D11*
X11862Y812341D03*
X20320Y812341D03*
D28*
X38522Y811918D03*
D61*
X47196Y811918D03*
D69*
X122558Y811918D03*
D26*
X38103Y812342D03*
D11*
X47412Y812342D03*
D76*
X121072Y812342D03*
D19*
X37455Y812765D03*
D60*
X47628Y812765D03*
D16*
X37049Y813188D03*
D11*
X47844Y813188D03*
D16*
X36617Y813612D03*
D48*
X48047Y813612D03*
D17*
X36401Y814035D03*
D64*
X48250Y814035D03*
D63*
X35982Y814458D03*
D61*
X48466Y814458D03*
D14*
X35563Y814882D03*
D11*
X48682Y814882D03*
D17*
X35131Y815305D03*
D60*
X48898Y815305D03*
D63*
X34712Y815728D03*
D11*
X49114Y815728D03*
D61*
X34496Y816152D03*
D71*
X49317Y816152D03*
D68*
X34496Y816575D03*
D82*
X48885Y816575D03*
D73*
X34509Y816998D03*
D74*
X48682Y816998D03*
D75*
X34712Y817422D03*
D13*
X48466Y817422D03*
D94*
X34712Y817845D03*
D89*
X123612Y818692D03*
D68*
X123396Y819115D03*
D69*
X123396Y819538D03*
D11*
X123612Y819962D03*
D64*
X123612Y820385D03*
D69*
X123828Y820808D03*
X123828Y821232D03*
D90*
X28146Y821655D03*
D97*
X54397Y821655D03*
D68*
X123828Y821655D03*
D75*
X28362Y822078D03*
D74*
X54194Y822078D03*
D69*
X123828Y822078D03*
D89*
X28362Y822502D03*
D73*
X53965Y822502D03*
D69*
X123828Y822502D03*
D60*
X28578Y822925D03*
D64*
X53762Y822925D03*
D68*
X123828Y822925D03*
D61*
X28578Y823348D03*
D11*
X53762Y823348D03*
D69*
X123828Y823348D03*
D61*
X28146Y823772D03*
X53978Y823772D03*
D69*
X123828Y823772D03*
D17*
X27943Y824195D03*
D64*
X54194Y824195D03*
X124044Y824195D03*
D48*
X27727Y824618D03*
X54397Y824618D03*
D71*
X124247Y824618D03*
D61*
X27308Y825042D03*
X54816Y825042D03*
D71*
X124247Y825042D03*
D60*
X27308Y825465D03*
X54816Y825465D03*
D72*
X124247Y825465D03*
D61*
X26876Y825888D03*
X55248Y825888D03*
D71*
X124247Y825888D03*
D48*
X26457Y826312D03*
D11*
X55464Y826312D03*
D71*
X124247Y826312D03*
D59*
X26457Y826735D03*
X55667Y826735D03*
D72*
X124247Y826735D03*
D61*
X26038Y827158D03*
X56086Y827158D03*
D71*
X124247Y827158D03*
D11*
X25822Y827582D03*
D61*
X56086Y827582D03*
D71*
X124247Y827582D03*
D60*
X25606Y828005D03*
X56518Y828005D03*
D72*
X124247Y828005D03*
D48*
X25187Y828428D03*
D11*
X56734Y828428D03*
D71*
X124247Y828428D03*
D11*
X24984Y828852D03*
D48*
X56937Y828852D03*
D11*
X124450Y828852D03*
D60*
X24768Y829275D03*
X57356Y829275D03*
D68*
X124666Y829275D03*
D11*
X24552Y829698D03*
D61*
X57356Y829698D03*
D69*
X124666Y829698D03*
D61*
X24336Y830122D03*
X57788Y830122D03*
D69*
X124666Y830122D03*
D64*
X24120Y830545D03*
X58004Y830545D03*
D68*
X124666Y830545D03*
D48*
X23917Y830968D03*
X58207Y830968D03*
D69*
X124666Y830968D03*
D11*
X23714Y831392D03*
D61*
X58626Y831392D03*
D69*
X124666Y831392D03*
D60*
X23498Y831815D03*
X58626Y831815D03*
D68*
X124666Y831815D03*
D11*
X23282Y832238D03*
D61*
X59058Y832238D03*
D69*
X124666Y832238D03*
D11*
X22850Y832662D03*
X59274Y832662D03*
D77*
X124031Y832662D03*
D64*
X22850Y833085D03*
D59*
X59477Y833085D03*
D11*
X22444Y833508D03*
X59680Y833508D03*
X22444Y833932D03*
X59680Y833932D03*
D82*
X22647Y834355D03*
X59477Y834355D03*
D85*
X23066Y834778D03*
D70*
X59477Y834778D03*
D13*
X23498Y835202D03*
X59058Y835202D03*
D14*
X111333Y825886D03*
D17*
X111333Y826309D03*
D14*
X111333Y826732D03*
X111333Y827156D03*
D90*
X64976Y839435D03*
D17*
X111333Y827579D03*
D68*
X125098Y839435D03*
D77*
X64773Y839858D03*
D14*
X111333Y828002D03*
D69*
X125098Y839858D03*
D76*
X18202Y840282D03*
D84*
X64773Y840282D03*
D14*
X111333Y828426D03*
D69*
X125098Y840282D03*
D102*
X18837Y840705D03*
D64*
X64354Y840705D03*
D17*
X111333Y828849D03*
D68*
X125098Y840705D03*
D69*
X19256Y841128D03*
D48*
X64557Y841128D03*
D14*
X111333Y829272D03*
D69*
X125098Y841128D03*
D11*
X19472Y841552D03*
X64760Y841552D03*
D14*
X111333Y829696D03*
D69*
X125098Y841552D03*
D68*
X19256Y841975D03*
D60*
X64976Y841975D03*
D17*
X111333Y830119D03*
D68*
X125098Y841975D03*
D11*
X19040Y842398D03*
D61*
X65408Y842398D03*
D14*
X111333Y830542D03*
D69*
X125098Y842398D03*
D11*
X19040Y842822D03*
D61*
X65408Y842822D03*
D14*
X111333Y830966D03*
D69*
X125098Y842822D03*
D72*
X18837Y843245D03*
D59*
X65827Y843245D03*
D17*
X111333Y831389D03*
D68*
X125098Y843245D03*
D11*
X18634Y843668D03*
D61*
X66246Y843668D03*
D14*
X111333Y831812D03*
D69*
X125098Y843668D03*
D11*
X18634Y844092D03*
D61*
X66246Y844092D03*
D14*
X111333Y832236D03*
D69*
X125098Y844092D03*
D68*
X18418Y844515D03*
D60*
X66678Y844515D03*
D17*
X111333Y832659D03*
D68*
X125098Y844515D03*
D69*
X18418Y844938D03*
D11*
X66894Y844938D03*
D14*
X111333Y833082D03*
D69*
X125098Y844938D03*
D11*
X18202Y845362D03*
D48*
X67097Y845362D03*
D14*
X111333Y833506D03*
D11*
X125314Y845362D03*
D64*
X18202Y845785D03*
D60*
X67516Y845785D03*
D17*
X111333Y833929D03*
D64*
X125314Y845785D03*
D69*
X17986Y846208D03*
D61*
X67516Y846208D03*
D14*
X111333Y834352D03*
D71*
X125517Y846208D03*
D69*
X17986Y846632D03*
D61*
X67948Y846632D03*
D14*
X111333Y834776D03*
D71*
X125517Y846632D03*
D64*
X17770Y847055D03*
X68164Y847055D03*
D17*
X111333Y835199D03*
D72*
X125517Y847055D03*
D11*
X17770Y847478D03*
D48*
X68367Y847478D03*
D14*
X111333Y835622D03*
D71*
X125517Y847478D03*
X17567Y847902D03*
D61*
X68786Y847902D03*
D14*
X111333Y836046D03*
D71*
X125517Y847902D03*
D72*
X17567Y848325D03*
D60*
X68786Y848325D03*
D17*
X111333Y836469D03*
D72*
X125517Y848325D03*
D11*
X17364Y848748D03*
D61*
X69218Y848748D03*
D14*
X111333Y836892D03*
D71*
X125517Y848748D03*
D11*
X17364Y849172D03*
X69434Y849172D03*
D14*
X111333Y837316D03*
D71*
X125517Y849172D03*
D68*
X17148Y849595D03*
D59*
X69637Y849595D03*
D17*
X111333Y837739D03*
D72*
X125517Y849595D03*
D69*
X17148Y850018D03*
D61*
X70056Y850018D03*
D14*
X111333Y838162D03*
D71*
X125517Y850018D03*
D69*
X17148Y850442D03*
D61*
X70056Y850442D03*
D14*
X111333Y838586D03*
D71*
X125517Y850442D03*
D68*
X17148Y850865D03*
D60*
X70488Y850865D03*
D17*
X111333Y839009D03*
D72*
X125517Y850865D03*
D11*
X16932Y851288D03*
X70704Y851288D03*
D14*
X111333Y839432D03*
D71*
X125517Y851288D03*
D69*
X16716Y851712D03*
X70488Y851712D03*
D14*
X111333Y839856D03*
D71*
X125517Y851712D03*
D68*
X16716Y852135D03*
D87*
X70272Y852135D03*
D17*
X111333Y840279D03*
D72*
X125517Y852135D03*
D69*
X16716Y852558D03*
D13*
X70056Y852558D03*
D14*
X111333Y840702D03*
D71*
X125517Y852558D03*
D69*
X16716Y852982D03*
D14*
X111333Y841126D03*
D71*
X125517Y852982D03*
D68*
X16716Y853405D03*
D17*
X111333Y841549D03*
D11*
X16500Y853828D03*
D14*
X111333Y841972D03*
D11*
X16500Y854252D03*
D14*
X111333Y842396D03*
D87*
X16932Y854675D03*
D17*
X111333Y842819D03*
D14*
X111333Y843242D03*
X111333Y843666D03*
D17*
X111333Y844089D03*
D14*
X111333Y844512D03*
X111333Y844936D03*
D94*
X75784Y857215D03*
D17*
X111333Y845359D03*
D75*
X75352Y857638D03*
D14*
X111333Y845782D03*
D89*
X75352Y858062D03*
D14*
X111333Y846206D03*
D60*
X75136Y858485D03*
D17*
X111333Y846629D03*
D61*
X75136Y858908D03*
D14*
X111333Y847052D03*
D61*
X75568Y859332D03*
D14*
X111333Y847476D03*
D64*
X75784Y859755D03*
D17*
X111333Y847899D03*
D80*
X124463Y859755D03*
D48*
X75987Y860178D03*
D14*
X111333Y848322D03*
D69*
X125098Y860178D03*
D61*
X76406Y860602D03*
D14*
X111333Y848746D03*
D69*
X125098Y860602D03*
D60*
X76406Y861025D03*
D17*
X111333Y849169D03*
D68*
X125098Y861025D03*
D69*
X15878Y861448D03*
D61*
X76838Y861448D03*
D14*
X111333Y849592D03*
D69*
X125098Y861448D03*
X15878Y861872D03*
D11*
X77054Y861872D03*
D14*
X111333Y850016D03*
D69*
X125098Y861872D03*
D68*
X15878Y862295D03*
D59*
X77257Y862295D03*
D17*
X111333Y850439D03*
D68*
X125098Y862295D03*
D69*
X15878Y862718D03*
D11*
X77460Y862718D03*
D14*
X111333Y850862D03*
D69*
X125098Y862718D03*
X15878Y863142D03*
D61*
X77676Y863142D03*
D14*
X111333Y851286D03*
D69*
X125098Y863142D03*
D68*
X15878Y863565D03*
D60*
X78108Y863565D03*
D17*
X111333Y851709D03*
D68*
X125098Y863565D03*
D69*
X15878Y863988D03*
D61*
X78108Y863988D03*
D14*
X111333Y852132D03*
D69*
X125098Y863988D03*
X15878Y864412D03*
D48*
X78527Y864412D03*
D14*
X111333Y852556D03*
D11*
X124882Y864412D03*
D68*
X15878Y864835D03*
D64*
X78730Y864835D03*
D17*
X111333Y852979D03*
D68*
X124666Y864835D03*
D69*
X15878Y865258D03*
D61*
X78946Y865258D03*
D14*
X111333Y853402D03*
D69*
X124666Y865258D03*
X15878Y865682D03*
D11*
X79162Y865682D03*
X111346Y853826D03*
D69*
X124666Y865682D03*
D68*
X15878Y866105D03*
D60*
X79378Y866105D03*
D68*
X124666Y866105D03*
D69*
X15878Y866528D03*
D11*
X79594Y866528D03*
D69*
X124666Y866528D03*
X15878Y866952D03*
D48*
X79797Y866952D03*
D69*
X124666Y866952D03*
D68*
X15878Y867375D03*
D60*
X80216Y867375D03*
D68*
X124666Y867375D03*
D69*
X15878Y867798D03*
D11*
X80432Y867798D03*
D69*
X124666Y867798D03*
X15878Y868222D03*
D61*
X80648Y868222D03*
D69*
X124666Y868222D03*
D68*
X15878Y868645D03*
D64*
X80864Y868645D03*
D68*
X124666Y868645D03*
D69*
X15878Y869068D03*
D48*
X81067Y869068D03*
D69*
X124666Y869068D03*
X15878Y869492D03*
D71*
X81067Y869492D03*
D69*
X124666Y869492D03*
D68*
X15878Y869915D03*
D82*
X80635Y869915D03*
D64*
X124450Y869915D03*
D69*
X15878Y870338D03*
D74*
X80432Y870338D03*
D71*
X124247Y870338D03*
D69*
X15878Y870762D03*
D78*
X80013Y870762D03*
D71*
X124247Y870762D03*
D68*
X15878Y871185D03*
D72*
X124247Y871185D03*
D69*
X15878Y871608D03*
D71*
X124247Y871608D03*
D11*
X16094Y872032D03*
D71*
X124247Y872032D03*
D72*
X16297Y872455D03*
X124247Y872455D03*
D71*
X16297Y872878D03*
X124247Y872878D03*
X16297Y873302D03*
X124247Y873302D03*
D72*
X16297Y873725D03*
X124247Y873725D03*
D71*
X16297Y874148D03*
X16297Y874572D03*
D72*
X16297Y874995D03*
D71*
X16297Y875418D03*
D74*
X85944Y875418D03*
D75*
X85512Y875842D03*
D68*
X85296Y876265D03*
D11*
X85080Y876688D03*
D61*
X85296Y877112D03*
D64*
X85512Y877535D03*
D11*
X85512Y877958D03*
X85944Y878382D03*
D64*
X85944Y878805D03*
D11*
X86350Y879228D03*
X86350Y879652D03*
D64*
X86782Y880075D03*
D79*
X121923Y880075D03*
D11*
X86782Y880498D03*
D71*
X122977Y880498D03*
D11*
X87214Y880922D03*
X123180Y880922D03*
D64*
X87214Y881345D03*
D72*
X122977Y881345D03*
D11*
X87620Y881768D03*
D71*
X122977Y881768D03*
D75*
X18202Y882192D03*
D11*
X87620Y882192D03*
D71*
X122977Y882192D03*
D72*
X17567Y882615D03*
D64*
X88052Y882615D03*
D72*
X122977Y882615D03*
D71*
X17567Y883038D03*
D11*
X88052Y883038D03*
X122774Y883038D03*
X17770Y883462D03*
D61*
X88268Y883462D03*
D11*
X122774Y883462D03*
D64*
X17770Y883885D03*
X88484Y883885D03*
D68*
X122558Y883885D03*
D69*
X17986Y884308D03*
D11*
X88484Y884308D03*
D69*
X122558Y884308D03*
X17986Y884732D03*
D11*
X88890Y884732D03*
D69*
X122558Y884732D03*
D68*
X17986Y885155D03*
D64*
X88890Y885155D03*
D68*
X122558Y885155D03*
D11*
X18202Y885578D03*
X89322Y885578D03*
X122342Y885578D03*
X18202Y886002D03*
X89322Y886002D03*
X122342Y886002D03*
D68*
X18418Y886425D03*
D64*
X89754Y886425D03*
D68*
X122126Y886425D03*
D69*
X18418Y886848D03*
D11*
X89754Y886848D03*
D69*
X122126Y886848D03*
D11*
X18634Y887272D03*
X89754Y887272D03*
D69*
X122126Y887272D03*
D64*
X18634Y887695D03*
X90160Y887695D03*
D68*
X122126Y887695D03*
D71*
X18837Y888118D03*
D11*
X90160Y888118D03*
X121910Y888118D03*
D71*
X18837Y888542D03*
D77*
X89741Y888542D03*
D71*
X121707Y888542D03*
D64*
X19040Y888965D03*
D94*
X89322Y888965D03*
D72*
X121707Y888965D03*
D11*
X19040Y889388D03*
D71*
X121707Y889388D03*
D69*
X19256Y889812D03*
D71*
X121707Y889812D03*
D68*
X19256Y890235D03*
D64*
X121504Y890235D03*
D11*
X19472Y890658D03*
X121504Y890658D03*
X19472Y891082D03*
D69*
X121288Y891082D03*
D68*
X19688Y891505D03*
X121288Y891505D03*
D11*
X19904Y891928D03*
D69*
X121288Y891928D03*
D11*
X19904Y892352D03*
X121072Y892352D03*
D72*
X20107Y892775D03*
D68*
X120856Y892775D03*
D71*
X20107Y893198D03*
D69*
X120856Y893198D03*
D11*
X20310Y893622D03*
D85*
X55248Y893622D03*
D69*
X120856Y893622D03*
D64*
X20310Y894045D03*
D72*
X54397Y894045D03*
D103*
X121072Y894045D03*
D69*
X20526Y894468D03*
D71*
X54397Y894468D03*
D74*
X93970Y894468D03*
X121910Y894468D03*
D11*
X20742Y894892D03*
D71*
X54397Y894892D03*
D73*
X93335Y894892D03*
D64*
X20742Y895315D03*
X54600Y895315D03*
X93132Y895315D03*
D89*
X20742Y895738D03*
D11*
X54600Y895738D03*
X93132Y895738D03*
D70*
X20107Y896162D03*
D69*
X54816Y896162D03*
X93348Y896162D03*
D68*
X54816Y896585D03*
D64*
X93564Y896585D03*
D11*
X55032Y897008D03*
X93564Y897008D03*
X55032Y897432D03*
D71*
X93767Y897432D03*
D68*
X55248Y897855D03*
D64*
X93970Y897855D03*
D69*
X55248Y898278D03*
D11*
X93970Y898278D03*
X55464Y898702D03*
D69*
X94186Y898702D03*
D64*
X55464Y899125D03*
X94402Y899125D03*
D71*
X55667Y899548D03*
D11*
X94402Y899548D03*
D71*
X55667Y899972D03*
D69*
X94618Y899972D03*
D72*
X55667Y900395D03*
D64*
X94834Y900395D03*
D94*
X118100Y900395D03*
D84*
X55451Y900818D03*
D11*
X94834Y900818D03*
D69*
X118748Y900818D03*
D13*
X54816Y901242D03*
D71*
X95037Y901242D03*
D11*
X118964Y901242D03*
D72*
X95037Y901665D03*
D68*
X118748Y901665D03*
D85*
X24336Y902088D03*
D11*
X95240Y902088D03*
D69*
X118748Y902088D03*
D73*
X23917Y902512D03*
D11*
X95240Y902512D03*
X118532Y902512D03*
D68*
X23498Y902935D03*
X95456Y902935D03*
D64*
X118532Y902935D03*
D11*
X23714Y903358D03*
X95672Y903358D03*
D69*
X118316Y903358D03*
D11*
X23714Y903782D03*
X95672Y903782D03*
X118100Y903782D03*
D72*
X23917Y904205D03*
D68*
X95888Y904205D03*
D64*
X118100Y904205D03*
D11*
X24120Y904628D03*
D69*
X95888Y904628D03*
D71*
X117897Y904628D03*
D11*
X24120Y905052D03*
X96104Y905052D03*
D71*
X117897Y905052D03*
D64*
X24552Y905475D03*
X96104Y905475D03*
X117694Y905475D03*
D11*
X24552Y905898D03*
D71*
X96307Y905898D03*
D11*
X117694Y905898D03*
D69*
X24768Y906322D03*
D71*
X96307Y906322D03*
D69*
X117478Y906322D03*
D64*
X24984Y906745D03*
D72*
X96307Y906745D03*
D64*
X117262Y906745D03*
D11*
X24984Y907168D03*
X96510Y907168D03*
X117262Y907168D03*
X25390Y907592D03*
D73*
X58207Y907592D03*
D69*
X96726Y907592D03*
X117046Y907592D03*
D64*
X25390Y908015D03*
D68*
X57788Y908015D03*
X96726Y908015D03*
D64*
X116830Y908015D03*
D11*
X25822Y908438D03*
D69*
X57788Y908438D03*
D74*
X95672Y908438D03*
D11*
X116830Y908438D03*
X25822Y908862D03*
D69*
X57788Y908862D03*
D71*
X116627Y908862D03*
D64*
X25822Y909285D03*
X58004Y909285D03*
X116424Y909285D03*
D11*
X26254Y909708D03*
X58004Y909708D03*
X116424Y909708D03*
X26254Y910132D03*
D71*
X58207Y910132D03*
D69*
X116208Y910132D03*
D64*
X26660Y910555D03*
D72*
X58207Y910555D03*
D64*
X115992Y910555D03*
D11*
X26660Y910978D03*
D71*
X58207Y910978D03*
D11*
X115992Y910978D03*
X27092Y911402D03*
X58410Y911402D03*
D69*
X115776Y911402D03*
D64*
X27092Y911825D03*
D68*
X58626Y911825D03*
D64*
X115560Y911825D03*
D11*
X27524Y912248D03*
D69*
X58626Y912248D03*
D11*
X115560Y912248D03*
X27524Y912672D03*
D69*
X58626Y912672D03*
D71*
X115357Y912672D03*
D59*
X27727Y913095D03*
D64*
X58842Y913095D03*
X115154Y913095D03*
D11*
X27930Y913518D03*
D69*
X59058Y913518D03*
D11*
X115154Y913518D03*
D61*
X28146Y913942D03*
D69*
X59058Y913942D03*
D77*
X115573Y913942D03*
D64*
X28362Y914365D03*
D68*
X59058Y914365D03*
D90*
X116208Y914365D03*
D11*
X28362Y914788D03*
X59274Y914788D03*
D73*
X98415Y914788D03*
D89*
X28362Y915212D03*
D11*
X59274Y915212D03*
D69*
X97996Y915212D03*
D80*
X27943Y915635D03*
D72*
X59477Y915635D03*
D68*
X97996Y915635D03*
D81*
X27727Y916058D03*
D71*
X59477Y916058D03*
D69*
X97996Y916058D03*
D11*
X59680Y916482D03*
D69*
X97996Y916482D03*
D64*
X59680Y916905D03*
D68*
X97996Y916905D03*
D69*
X59896Y917328D03*
D11*
X98212Y917328D03*
D69*
X59896Y917752D03*
D11*
X98212Y917752D03*
D64*
X60112Y918175D03*
D68*
X98428Y918175D03*
D11*
X60112Y918598D03*
D69*
X98428Y918598D03*
X60328Y919022D03*
X98428Y919022D03*
D68*
X60328Y919445D03*
X98428Y919445D03*
D11*
X60544Y919868D03*
D69*
X98428Y919868D03*
D70*
X111547Y919868D03*
D11*
X60544Y920292D03*
D69*
X98428Y920292D03*
D73*
X111979Y920292D03*
D90*
X33226Y920715D03*
D72*
X60747Y920715D03*
D68*
X98428Y920715D03*
D64*
X112182Y920715D03*
D74*
X33010Y921138D03*
D71*
X60747Y921138D03*
D69*
X98428Y921138D03*
D11*
X112182Y921138D03*
D73*
X32807Y921562D03*
D71*
X60747Y921562D03*
D69*
X98428Y921562D03*
D11*
X112182Y921562D03*
D68*
X32388Y921985D03*
D94*
X59680Y921985D03*
D68*
X98428Y921985D03*
D64*
X111750Y921985D03*
D61*
X32388Y922408D03*
D69*
X98428Y922408D03*
D11*
X111750Y922408D03*
X32604Y922832D03*
D69*
X98428Y922832D03*
D11*
X111344Y922832D03*
D59*
X32807Y923255D03*
D68*
X98428Y923255D03*
D64*
X111344Y923255D03*
D11*
X33010Y923678D03*
D69*
X98428Y923678D03*
D11*
X110912Y923678D03*
D61*
X33226Y924102D03*
D69*
X98428Y924102D03*
D11*
X110912Y924102D03*
D60*
X33658Y924525D03*
D68*
X98428Y924525D03*
D60*
X110696Y924525D03*
D11*
X33874Y924948D03*
D69*
X98428Y924948D03*
D11*
X110480Y924948D03*
D48*
X34077Y925372D03*
D69*
X98428Y925372D03*
D11*
X110480Y925372D03*
D64*
X34280Y925795D03*
D68*
X98428Y925795D03*
D64*
X110074Y925795D03*
D61*
X34496Y926218D03*
D69*
X98428Y926218D03*
D11*
X110074Y926218D03*
X34712Y926642D03*
D69*
X98428Y926642D03*
D11*
X109642Y926642D03*
D60*
X34928Y927065D03*
D68*
X98428Y927065D03*
D64*
X109642Y927065D03*
D48*
X35347Y927488D03*
D69*
X98428Y927488D03*
D11*
X109210Y927488D03*
X35550Y927912D03*
D69*
X98428Y927912D03*
D11*
X109210Y927912D03*
D60*
X35766Y928335D03*
D102*
X63287Y928335D03*
D68*
X98428Y928335D03*
D59*
X109007Y928335D03*
D11*
X35982Y928758D03*
X62652Y928758D03*
D69*
X98428Y928758D03*
D11*
X108804Y928758D03*
D61*
X36198Y929182D03*
D11*
X62652Y929182D03*
D61*
X108588Y929182D03*
D59*
X36617Y929605D03*
D68*
X62868Y929605D03*
D64*
X108372Y929605D03*
D48*
X36617Y930028D03*
D69*
X62868Y930028D03*
D61*
X108156Y930028D03*
X37036Y930452D03*
D11*
X63084Y930452D03*
X107940Y930452D03*
D64*
X37252Y930875D03*
X63084Y930875D03*
D59*
X107737Y930875D03*
D61*
X37468Y931298D03*
D71*
X63287Y931298D03*
D11*
X107534Y931298D03*
D48*
X37887Y931722D03*
D71*
X63287Y931722D03*
D61*
X107318Y931722D03*
D59*
X37887Y932145D03*
D64*
X63490Y932145D03*
X107102Y932145D03*
D61*
X38306Y932568D03*
D11*
X63490Y932568D03*
D69*
X107318Y932568D03*
D11*
X38522Y932992D03*
D69*
X63706Y932992D03*
D77*
X107521Y932992D03*
D68*
X38306Y933415D03*
X63706Y933415D03*
D94*
X107940Y933415D03*
D77*
X38103Y933838D03*
D69*
X63706Y933838D03*
D74*
X38090Y934262D03*
D11*
X63922Y934262D03*
D68*
X64138Y934685D03*
D69*
X64138Y935108D03*
D74*
X96510Y935108D03*
D69*
X64138Y935532D03*
D71*
X97577Y935532D03*
D64*
X64354Y935955D03*
D72*
X97577Y935955D03*
D11*
X64354Y936378D03*
D71*
X97577Y936378D03*
X64557Y936802D03*
D11*
X97374Y936802D03*
D72*
X64557Y937225D03*
D64*
X97374Y937225D03*
D11*
X64760Y937648D03*
D69*
X97158Y937648D03*
D11*
X64760Y938072D03*
D69*
X97158Y938072D03*
D13*
X102238Y938072D03*
D79*
X44021Y938495D03*
D68*
X64976Y938495D03*
X97158Y938495D03*
D102*
X102657Y938495D03*
D74*
X44034Y938918D03*
D69*
X64976Y938918D03*
D11*
X96942Y938918D03*
D84*
X102873Y938918D03*
D73*
X43805Y939342D03*
D11*
X65192Y939342D03*
D69*
X96726Y939342D03*
X103076Y939342D03*
D103*
X43602Y939765D03*
D64*
X65192Y939765D03*
D68*
X96726Y939765D03*
D60*
X103076Y939765D03*
D61*
X43386Y940188D03*
D69*
X65408Y940188D03*
X96726Y940188D03*
D48*
X102657Y940188D03*
D63*
X43602Y940612D03*
D69*
X65408Y940612D03*
D11*
X96510Y940612D03*
D48*
X102657Y940612D03*
D60*
X43818Y941035D03*
D64*
X65624Y941035D03*
X96510Y941035D03*
D60*
X102238Y941035D03*
D48*
X44237Y941458D03*
D11*
X65624Y941458D03*
D71*
X96307Y941458D03*
D11*
X102022Y941458D03*
D14*
X44453Y941882D03*
D71*
X65827Y941882D03*
D11*
X96104Y941882D03*
D61*
X101806Y941882D03*
D60*
X44656Y942305D03*
D72*
X65827Y942305D03*
D64*
X96104Y942305D03*
X101590Y942305D03*
D61*
X45088Y942728D03*
D85*
X64976Y942728D03*
D69*
X95888Y942728D03*
D48*
X101387Y942728D03*
X45507Y943152D03*
D69*
X95888Y943152D03*
D61*
X100968Y943152D03*
D17*
X45723Y943575D03*
D64*
X95672Y943575D03*
X100752Y943575D03*
D61*
X45926Y943998D03*
D11*
X95672Y943998D03*
D61*
X100536Y943998D03*
X46358Y944422D03*
D69*
X95456Y944422D03*
D48*
X100117Y944422D03*
D17*
X46561Y944845D03*
D64*
X95240Y944845D03*
D59*
X100117Y944845D03*
D48*
X46777Y945268D03*
D11*
X95240Y945268D03*
D61*
X99698Y945268D03*
X47196Y945692D03*
D71*
X95037Y945692D03*
D11*
X99482Y945692D03*
D60*
X47628Y946115D03*
D64*
X94834Y946115D03*
D60*
X99266Y946115D03*
D14*
X47831Y946538D03*
D104*
X96942Y946538D03*
D48*
X48047Y946962D03*
D11*
X94402Y946962D03*
D48*
X98847Y946962D03*
D60*
X48466Y947385D03*
D66*
X96523Y947385D03*
D63*
X48682Y947808D03*
D12*
X96307Y947808D03*
D14*
X49101Y948232D03*
D55*
X96091Y948232D03*
D59*
X49317Y948655D03*
D53*
X96307Y948655D03*
D61*
X49736Y949078D03*
D74*
X68570Y949078D03*
D16*
X96739Y949078D03*
D63*
X49952Y949502D03*
D89*
X67732Y949502D03*
D61*
X97158Y949502D03*
D60*
X50168Y949925D03*
D64*
X67732Y949925D03*
X96942Y949925D03*
D11*
X50384Y950348D03*
X67732Y950348D03*
D89*
X96942Y950348D03*
D84*
X50371Y950772D03*
D69*
X67948Y950772D03*
D73*
X97145Y950772D03*
D87*
X49952Y951195D03*
D68*
X67948Y951195D03*
D94*
X97374Y951195D03*
D74*
X49952Y951618D03*
D11*
X68164Y951618D03*
X68164Y952042D03*
D72*
X68367Y952465D03*
D71*
X68367Y952888D03*
D11*
X68570Y953312D03*
D64*
X68570Y953735D03*
D69*
X68786Y954158D03*
D78*
X89741Y954158D03*
D69*
X68786Y954582D03*
D70*
X89957Y954582D03*
D68*
X68786Y955005D03*
D82*
X90389Y955005D03*
D13*
X56518Y955428D03*
D11*
X69002Y955428D03*
X90592Y955428D03*
D85*
X56518Y955852D03*
D69*
X69218Y955852D03*
D11*
X90592Y955852D03*
D103*
X56302Y956275D03*
D68*
X69218Y956275D03*
D62*
X90592Y956275D03*
D69*
X56086Y956698D03*
X69218Y956698D03*
D28*
X90592Y956698D03*
D61*
X56086Y957122D03*
D11*
X69434Y957122D03*
D98*
X90808Y957122D03*
D62*
X56302Y957545D03*
D64*
X69434Y957545D03*
D105*
X90376Y957545D03*
D14*
X56721Y957968D03*
D71*
X69637Y957968D03*
D98*
X90376Y957968D03*
D14*
X57153Y958392D03*
D71*
X69637Y958392D03*
D50*
X89957Y958392D03*
D62*
X57572Y958815D03*
D64*
X69840Y958815D03*
D105*
X89538Y958815D03*
D14*
X57991Y959238D03*
D11*
X69840Y959238D03*
D28*
X89322Y959238D03*
D14*
X57991Y959662D03*
D69*
X70056Y959662D03*
D98*
X89106Y959662D03*
D17*
X58423Y960085D03*
D68*
X70056Y960085D03*
D49*
X88687Y960085D03*
D63*
X58842Y960508D03*
D11*
X70272Y960508D03*
D26*
X88471Y960508D03*
D14*
X59261Y960932D03*
D11*
X70272Y960932D03*
D28*
X88052Y960932D03*
D17*
X59693Y961355D03*
D68*
X70488Y961355D03*
D105*
X87836Y961355D03*
D63*
X60112Y961778D03*
D69*
X70488Y961778D03*
D26*
X87633Y961778D03*
D16*
X60315Y962202D03*
D11*
X70704Y962202D03*
D26*
X87201Y962202D03*
D17*
X60531Y962625D03*
D64*
X70704Y962625D03*
D106*
X86782Y962625D03*
D14*
X60963Y963048D03*
D71*
X70907Y963048D03*
D16*
X86579Y963048D03*
D14*
X15668Y997345D03*
X24126Y997345D03*
D61*
X34921Y997345D03*
D63*
X61382Y963472D03*
D75*
X70272Y963472D03*
D26*
X86363Y963472D03*
D17*
X15668Y997768D03*
X24126Y997768D03*
X34718Y997768D03*
X61801Y963895D03*
D27*
X85931Y963895D03*
D14*
X15668Y998191D03*
X24126Y998191D03*
X34718Y998191D03*
X62233Y964318D03*
D16*
X85715Y964318D03*
D14*
X15668Y998615D03*
X24126Y998615D03*
D16*
X34502Y998615D03*
D63*
X62652Y964742D03*
D16*
X85309Y964742D03*
D17*
X15668Y999038D03*
X24126Y999038D03*
D19*
X34502Y999038D03*
D17*
X63071Y965165D03*
D19*
X84877Y965165D03*
D14*
X15668Y999461D03*
X24126Y999461D03*
D16*
X34502Y999461D03*
X63287Y965588D03*
D14*
X84661Y965588D03*
X15668Y999885D03*
X24126Y999885D03*
D26*
X34286Y999885D03*
D14*
X63503Y966012D03*
X84661Y966012D03*
D17*
X15668Y1000308D03*
X24126Y1000308D03*
D27*
X34286Y1000308D03*
D64*
X63490Y966435D03*
X84674Y966435D03*
D14*
X15668Y1000731D03*
X24126Y1000731D03*
D98*
X34083Y1000731D03*
D84*
X63503Y966858D03*
X84661Y966858D03*
D14*
X15668Y1001155D03*
X24126Y1001155D03*
D98*
X34083Y1001155D03*
D77*
X63503Y967282D03*
X84661Y967282D03*
D17*
X15668Y1001578D03*
X24126Y1001578D03*
D105*
X34083Y1001578D03*
D94*
X63490Y967705D03*
X84674Y967705D03*
D14*
X15668Y1002001D03*
X24126Y1002001D03*
D51*
X33867Y1002001D03*
D78*
X63503Y968128D03*
D14*
X15668Y1002425D03*
X24126Y1002425D03*
D51*
X33867Y1002425D03*
D17*
X15668Y1002848D03*
X24126Y1002848D03*
D96*
X33651Y1002848D03*
D14*
X15668Y1003271D03*
X24126Y1003271D03*
D93*
X33651Y1003271D03*
D14*
X15668Y1003695D03*
X24126Y1003695D03*
D93*
X33651Y1003695D03*
D13*
X73866Y969822D03*
D17*
X15668Y1004118D03*
X24126Y1004118D03*
D91*
X33448Y1004118D03*
D82*
X73015Y970245D03*
D14*
X15668Y1004541D03*
X24126Y1004541D03*
D92*
X33448Y1004541D03*
D69*
X72596Y970668D03*
D14*
X15668Y1004965D03*
X24126Y1004965D03*
D12*
X33232Y1004965D03*
D14*
X72393Y971092D03*
D13*
X78108Y971092D03*
D17*
X15668Y1005388D03*
X24126Y1005388D03*
D54*
X33232Y1005388D03*
D19*
X72177Y971515D03*
D88*
X78108Y971515D03*
D14*
X15668Y1005811D03*
X24126Y1005811D03*
D12*
X33232Y1005811D03*
D26*
X71961Y971938D03*
D73*
X78095Y971938D03*
D14*
X15668Y1006235D03*
X24126Y1006235D03*
D55*
X33016Y1006235D03*
D51*
X71542Y972362D03*
D69*
X78108Y972362D03*
D17*
X15668Y1006658D03*
X24126Y1006658D03*
D66*
X33016Y1006658D03*
D95*
X71542Y972785D03*
D60*
X78108Y972785D03*
D14*
X15668Y1007081D03*
X24126Y1007081D03*
D55*
X33016Y1007081D03*
D99*
X71542Y973208D03*
D63*
X77892Y973208D03*
D14*
X15668Y1007505D03*
X24126Y1007505D03*
D107*
X32813Y1007505D03*
D108*
X74298Y973632D03*
D17*
X15668Y1007928D03*
X24126Y1007928D03*
D100*
X32813Y1007928D03*
D37*
X74298Y974055D03*
D14*
X15668Y1008351D03*
X24126Y1008351D03*
D101*
X32597Y1008351D03*
D15*
X74285Y974478D03*
D14*
X15668Y1008775D03*
X24126Y1008775D03*
D101*
X32597Y1008775D03*
D34*
X74298Y974902D03*
D17*
X15668Y1009198D03*
X24126Y1009198D03*
D109*
X32597Y1009198D03*
D100*
X74298Y975325D03*
D14*
X15668Y1009621D03*
X24126Y1009621D03*
D34*
X32381Y1009621D03*
D12*
X74285Y975748D03*
D14*
X15668Y1010045D03*
X24126Y1010045D03*
D61*
X29841Y1010045D03*
D14*
X34718Y1010045D03*
D93*
X74298Y976172D03*
D17*
X15668Y1010468D03*
X24126Y1010468D03*
X29638Y1010468D03*
X34718Y1010468D03*
D105*
X74298Y976595D03*
D14*
X15668Y1010891D03*
X24126Y1010891D03*
X29638Y1010891D03*
X34718Y1010891D03*
D16*
X74285Y977018D03*
D14*
X15668Y1011315D03*
X24126Y1011315D03*
D48*
X29422Y1011315D03*
D14*
X34718Y1011315D03*
D61*
X74298Y977442D03*
D17*
X15668Y1011738D03*
X24126Y1011738D03*
X29206Y1011738D03*
X34718Y1011738D03*
D68*
X74298Y977865D03*
D14*
X15668Y1012161D03*
X24126Y1012161D03*
D61*
X29003Y1012161D03*
D14*
X34718Y1012161D03*
D71*
X74717Y978288D03*
D14*
X15668Y1012585D03*
D34*
X26463Y1012585D03*
D14*
X34718Y1012585D03*
D84*
X74933Y978712D03*
D17*
X15668Y1013008D03*
D110*
X26463Y1013008D03*
D17*
X34718Y1013008D03*
D82*
X75149Y979135D03*
D14*
X15668Y1013431D03*
D101*
X26247Y1013431D03*
D14*
X34718Y1013431D03*
D75*
X75352Y979558D03*
D14*
X15668Y1013855D03*
D101*
X26247Y1013855D03*
D14*
X34718Y1013855D03*
D77*
X75771Y979982D03*
D17*
X15668Y1014278D03*
D100*
X26031Y1014278D03*
D17*
X34718Y1014278D03*
D102*
X75987Y980405D03*
D14*
X15668Y1014701D03*
D107*
X26031Y1014701D03*
D14*
X34718Y1014701D03*
D74*
X76190Y980828D03*
D14*
X15668Y1015125D03*
D107*
X26031Y1015125D03*
D14*
X34718Y1015125D03*
D13*
X76406Y981252D03*
D17*
X15668Y1015548D03*
D66*
X25828Y1015548D03*
D17*
X34718Y1015548D03*
D90*
X76838Y981675D03*
D14*
X15668Y1015971D03*
D55*
X25828Y1015971D03*
D14*
X34718Y1015971D03*
D78*
X77041Y982098D03*
D14*
X15668Y1016395D03*
D55*
X25828Y1016395D03*
D14*
X34718Y1016395D03*
D17*
X15668Y1016818D03*
D54*
X25612Y1016818D03*
D17*
X34718Y1016818D03*
D14*
X15668Y1017241D03*
D12*
X25612Y1017241D03*
D14*
X34718Y1017241D03*
X15668Y1017665D03*
D92*
X25396Y1017665D03*
D14*
X34718Y1017665D03*
D17*
X15668Y1018088D03*
D91*
X25396Y1018088D03*
D17*
X34718Y1018088D03*
D14*
X15668Y1018511D03*
D92*
X25396Y1018511D03*
D14*
X34718Y1018511D03*
X15668Y1018935D03*
D93*
X25193Y1018935D03*
D14*
X34718Y1018935D03*
D17*
X15668Y1019358D03*
D96*
X25193Y1019358D03*
D17*
X34718Y1019358D03*
D14*
X15668Y1019781D03*
D51*
X24977Y1019781D03*
D14*
X34718Y1019781D03*
X15668Y1020205D03*
D51*
X24977Y1020205D03*
D14*
X34718Y1020205D03*
D17*
X15668Y1020628D03*
D65*
X24977Y1020628D03*
D17*
X34718Y1020628D03*
D14*
X15668Y1021051D03*
D98*
X24761Y1021051D03*
D14*
X34718Y1021051D03*
X15668Y1021475D03*
D98*
X24761Y1021475D03*
D14*
X34718Y1021475D03*
D17*
X15668Y1021898D03*
D27*
X24558Y1021898D03*
D17*
X34718Y1021898D03*
D14*
X15668Y1022321D03*
D26*
X24558Y1022321D03*
D14*
X34718Y1022321D03*
X15668Y1022745D03*
D26*
X24558Y1022745D03*
D14*
X34718Y1022745D03*
D17*
X15668Y1023168D03*
D19*
X24342Y1023168D03*
D17*
X34718Y1023168D03*
D14*
X15668Y1023591D03*
D16*
X24342Y1023591D03*
D14*
X34718Y1023591D03*
X15668Y1024015D03*
D16*
X24342Y1024015D03*
D14*
X34718Y1024015D03*
D17*
X15668Y1024438D03*
X24126Y1024438D03*
X34718Y1024438D03*
D14*
X15668Y1024861D03*
X24126Y1024861D03*
X34718Y1024861D03*
D11*
X15655Y1025285D03*
X24139Y1025285D03*
X34705Y1025285D03*
D64*
X34289Y1048568D03*
D91*
X57568Y1048568D03*
D38*
X75361Y1048568D03*
D17*
X88480Y1048568D03*
D60*
X99275Y1048568D03*
D35*
X110070Y1048568D03*
D63*
X34289Y1048991D03*
D111*
X57568Y1048991D03*
D39*
X75361Y1048991D03*
D14*
X88480Y1048991D03*
D63*
X99059Y1048991D03*
D108*
X110705Y1048991D03*
D63*
X34289Y1049415D03*
D32*
X57568Y1049415D03*
D39*
X75361Y1049415D03*
D14*
X88480Y1049415D03*
D63*
X99059Y1049415D03*
D44*
X110908Y1049415D03*
D62*
X34289Y1049838D03*
D30*
X57581Y1049838D03*
D38*
X75361Y1049838D03*
D17*
X88480Y1049838D03*
D19*
X98856Y1049838D03*
D42*
X111124Y1049838D03*
D63*
X34289Y1050261D03*
D44*
X57568Y1050261D03*
D39*
X75361Y1050261D03*
D14*
X88480Y1050261D03*
D16*
X98856Y1050261D03*
D112*
X111340Y1050261D03*
D63*
X34289Y1050685D03*
D112*
X57568Y1050685D03*
D39*
X75361Y1050685D03*
D14*
X88480Y1050685D03*
D16*
X98856Y1050685D03*
D113*
X111543Y1050685D03*
D62*
X34289Y1051108D03*
D114*
X57568Y1051108D03*
D38*
X75361Y1051108D03*
D17*
X88480Y1051108D03*
D27*
X98640Y1051108D03*
D115*
X111543Y1051108D03*
D63*
X34289Y1051531D03*
D112*
X57568Y1051531D03*
D39*
X75361Y1051531D03*
D14*
X88480Y1051531D03*
D26*
X98640Y1051531D03*
D113*
X111543Y1051531D03*
D63*
X34289Y1051955D03*
D39*
X57581Y1051955D03*
X75361Y1051955D03*
D14*
X88480Y1051955D03*
D50*
X98424Y1051955D03*
D39*
X111759Y1051955D03*
D62*
X34289Y1052378D03*
D38*
X57581Y1052378D03*
X75361Y1052378D03*
D17*
X88480Y1052378D03*
D49*
X98424Y1052378D03*
D38*
X111759Y1052378D03*
D63*
X34289Y1052801D03*
D39*
X57581Y1052801D03*
X75361Y1052801D03*
D14*
X88480Y1052801D03*
D50*
X98424Y1052801D03*
D39*
X111759Y1052801D03*
D63*
X34289Y1053225D03*
D16*
X53136Y1053225D03*
X62026Y1053225D03*
D14*
X70700Y1053225D03*
X88480Y1053225D03*
D51*
X98221Y1053225D03*
D14*
X107098Y1053225D03*
D16*
X116204Y1053225D03*
D62*
X34289Y1053648D03*
D17*
X52920Y1053648D03*
D62*
X62229Y1053648D03*
D17*
X70700Y1053648D03*
X88480Y1053648D03*
D65*
X98221Y1053648D03*
D17*
X107098Y1053648D03*
X116420Y1053648D03*
D63*
X34289Y1054071D03*
D14*
X52920Y1054071D03*
D63*
X62229Y1054071D03*
D14*
X70700Y1054071D03*
X88480Y1054071D03*
D93*
X98005Y1054071D03*
D14*
X107098Y1054071D03*
X116420Y1054071D03*
D63*
X34289Y1054495D03*
D14*
X52920Y1054495D03*
D63*
X62229Y1054495D03*
D14*
X70700Y1054495D03*
X88480Y1054495D03*
D93*
X98005Y1054495D03*
D14*
X107098Y1054495D03*
X116420Y1054495D03*
D62*
X34289Y1054918D03*
D17*
X52920Y1054918D03*
D62*
X62229Y1054918D03*
D17*
X70700Y1054918D03*
X88480Y1054918D03*
D96*
X98005Y1054918D03*
D17*
X107098Y1054918D03*
X116420Y1054918D03*
D63*
X34289Y1055341D03*
D14*
X52920Y1055341D03*
D63*
X62229Y1055341D03*
D14*
X70700Y1055341D03*
X88480Y1055341D03*
D99*
X97789Y1055341D03*
D14*
X107098Y1055341D03*
X116420Y1055341D03*
D63*
X34289Y1055765D03*
D14*
X52920Y1055765D03*
D63*
X62229Y1055765D03*
D14*
X70700Y1055765D03*
X88480Y1055765D03*
D99*
X97789Y1055765D03*
D14*
X107098Y1055765D03*
X116420Y1055765D03*
D62*
X34289Y1056188D03*
D17*
X52920Y1056188D03*
D62*
X62229Y1056188D03*
D17*
X70700Y1056188D03*
X88480Y1056188D03*
D54*
X97586Y1056188D03*
D17*
X107098Y1056188D03*
X116420Y1056188D03*
D63*
X34289Y1056611D03*
D14*
X52920Y1056611D03*
D63*
X62229Y1056611D03*
D14*
X70700Y1056611D03*
X88480Y1056611D03*
D12*
X97586Y1056611D03*
D14*
X107098Y1056611D03*
X116420Y1056611D03*
D116*
X30060Y1057035D03*
D14*
X52920Y1057035D03*
D63*
X62229Y1057035D03*
D14*
X70700Y1057035D03*
X88480Y1057035D03*
D12*
X97586Y1057035D03*
D14*
X107098Y1057035D03*
X116420Y1057035D03*
D117*
X30060Y1057458D03*
D17*
X52920Y1057458D03*
D62*
X62229Y1057458D03*
D17*
X70700Y1057458D03*
X88480Y1057458D03*
D66*
X97370Y1057458D03*
D17*
X107098Y1057458D03*
X116420Y1057458D03*
D116*
X30060Y1057881D03*
D63*
X62229Y1057881D03*
D14*
X70700Y1057881D03*
X88480Y1057881D03*
D55*
X97370Y1057881D03*
D14*
X107098Y1057881D03*
X116420Y1057881D03*
D116*
X30060Y1058305D03*
D63*
X62229Y1058305D03*
D14*
X70700Y1058305D03*
X88480Y1058305D03*
D55*
X97370Y1058305D03*
D14*
X107098Y1058305D03*
X116420Y1058305D03*
D117*
X30060Y1058728D03*
D62*
X62229Y1058728D03*
D17*
X70700Y1058728D03*
X88480Y1058728D03*
D57*
X97154Y1058728D03*
D17*
X107098Y1058728D03*
X116420Y1058728D03*
D116*
X30060Y1059151D03*
D63*
X62229Y1059151D03*
D14*
X70700Y1059151D03*
X88480Y1059151D03*
D56*
X97154Y1059151D03*
D14*
X107098Y1059151D03*
X116420Y1059151D03*
D116*
X30060Y1059575D03*
D50*
X61594Y1059575D03*
D14*
X70700Y1059575D03*
X88480Y1059575D03*
D101*
X96951Y1059575D03*
D14*
X107098Y1059575D03*
X116420Y1059575D03*
D117*
X30060Y1059998D03*
D95*
X60959Y1059998D03*
D17*
X70700Y1059998D03*
X88480Y1059998D03*
D109*
X96951Y1059998D03*
D17*
X107098Y1059998D03*
X116420Y1059998D03*
D116*
X30060Y1060421D03*
D56*
X60324Y1060421D03*
D20*
X74294Y1060421D03*
D14*
X88480Y1060421D03*
D101*
X96951Y1060421D03*
D14*
X107098Y1060421D03*
X116420Y1060421D03*
D116*
X30060Y1060845D03*
D118*
X59689Y1060845D03*
D20*
X74294Y1060845D03*
D14*
X88480Y1060845D03*
D34*
X96735Y1060845D03*
D14*
X107098Y1060845D03*
X116420Y1060845D03*
D106*
X24129Y1061268D03*
D62*
X34289Y1061268D03*
D18*
X59054Y1061268D03*
D119*
X74294Y1061268D03*
D17*
X88480Y1061268D03*
D60*
X94195Y1061268D03*
D62*
X99059Y1061268D03*
D17*
X107098Y1061268D03*
X116420Y1061268D03*
D16*
X24332Y1061691D03*
D63*
X34289Y1061691D03*
D120*
X58419Y1061691D03*
D20*
X74294Y1061691D03*
D14*
X88480Y1061691D03*
D63*
X93979Y1061691D03*
X99059Y1061691D03*
D14*
X107098Y1061691D03*
X116420Y1061691D03*
D26*
X24548Y1062115D03*
D63*
X34289Y1062115D03*
D112*
X58000Y1062115D03*
D20*
X74294Y1062115D03*
D14*
X88480Y1062115D03*
D63*
X93979Y1062115D03*
X99059Y1062115D03*
D14*
X107098Y1062115D03*
X116420Y1062115D03*
D27*
X24980Y1062538D03*
D62*
X34289Y1062538D03*
D114*
X57568Y1062538D03*
D119*
X74294Y1062538D03*
D17*
X88480Y1062538D03*
D60*
X93763Y1062538D03*
D62*
X99059Y1062538D03*
D17*
X107098Y1062538D03*
X116420Y1062538D03*
D26*
X24980Y1062961D03*
D63*
X34289Y1062961D03*
D121*
X57149Y1062961D03*
D20*
X74294Y1062961D03*
D14*
X88480Y1062961D03*
X93560Y1062961D03*
D63*
X99059Y1062961D03*
D14*
X107098Y1062961D03*
X116420Y1062961D03*
D28*
X25399Y1063385D03*
D63*
X34289Y1063385D03*
D20*
X56514Y1063385D03*
X74294Y1063385D03*
D14*
X88480Y1063385D03*
D48*
X93344Y1063385D03*
D63*
X99059Y1063385D03*
D14*
X107098Y1063385D03*
X116420Y1063385D03*
D19*
X25602Y1063808D03*
D62*
X34289Y1063808D03*
D122*
X55879Y1063808D03*
D119*
X74294Y1063808D03*
D58*
X90804Y1063808D03*
D62*
X99059Y1063808D03*
D17*
X107098Y1063808D03*
X116420Y1063808D03*
D26*
X25818Y1064231D03*
D63*
X34289Y1064231D03*
D67*
X55244Y1064231D03*
D20*
X74294Y1064231D03*
D67*
X90804Y1064231D03*
D63*
X99059Y1064231D03*
D14*
X107098Y1064231D03*
X116420Y1064231D03*
D26*
X26250Y1064655D03*
D63*
X34289Y1064655D03*
D104*
X54609Y1064655D03*
D20*
X74294Y1064655D03*
D101*
X90601Y1064655D03*
D63*
X99059Y1064655D03*
D14*
X107098Y1064655D03*
X116420Y1064655D03*
D27*
X26250Y1065078D03*
D62*
X34289Y1065078D03*
D53*
X53974Y1065078D03*
D17*
X70700Y1065078D03*
D109*
X90601Y1065078D03*
D62*
X99059Y1065078D03*
D17*
X107098Y1065078D03*
X116420Y1065078D03*
D28*
X26669Y1065501D03*
D63*
X34289Y1065501D03*
D28*
X53339Y1065501D03*
D14*
X70700Y1065501D03*
D107*
X90385Y1065501D03*
D63*
X99059Y1065501D03*
D14*
X107098Y1065501D03*
X116420Y1065501D03*
D16*
X26872Y1065925D03*
D89*
X34289Y1065925D03*
D14*
X52920Y1065925D03*
X70700Y1065925D03*
D107*
X90385Y1065925D03*
D63*
X99059Y1065925D03*
D14*
X107098Y1065925D03*
X116420Y1065925D03*
D27*
X27088Y1066348D03*
D17*
X52920Y1066348D03*
X70700Y1066348D03*
D100*
X90385Y1066348D03*
D62*
X99059Y1066348D03*
D17*
X107098Y1066348D03*
X116420Y1066348D03*
D26*
X27520Y1066771D03*
D14*
X52920Y1066771D03*
X70700Y1066771D03*
D104*
X90169Y1066771D03*
D63*
X99059Y1066771D03*
D14*
X107098Y1066771D03*
X116420Y1066771D03*
D16*
X27736Y1067195D03*
D14*
X52920Y1067195D03*
X70700Y1067195D03*
D104*
X90169Y1067195D03*
D63*
X99059Y1067195D03*
D14*
X107098Y1067195D03*
X116420Y1067195D03*
D106*
X27939Y1067618D03*
D17*
X52920Y1067618D03*
D62*
X62229Y1067618D03*
D17*
X70700Y1067618D03*
D123*
X90169Y1067618D03*
D62*
X99059Y1067618D03*
D17*
X107098Y1067618D03*
X116420Y1067618D03*
D26*
X28358Y1068041D03*
D14*
X52920Y1068041D03*
D63*
X62229Y1068041D03*
D14*
X70700Y1068041D03*
D12*
X89966Y1068041D03*
D63*
X99059Y1068041D03*
D14*
X107098Y1068041D03*
X116420Y1068041D03*
D26*
X28358Y1068465D03*
D14*
X52920Y1068465D03*
D63*
X62229Y1068465D03*
D14*
X70700Y1068465D03*
D12*
X89966Y1068465D03*
D63*
X99059Y1068465D03*
D14*
X107098Y1068465D03*
X116420Y1068465D03*
D27*
X28790Y1068888D03*
D17*
X52920Y1068888D03*
D62*
X62229Y1068888D03*
D17*
X70700Y1068888D03*
D91*
X89750Y1068888D03*
D62*
X99059Y1068888D03*
D17*
X107098Y1068888D03*
X116420Y1068888D03*
D16*
X29006Y1069311D03*
D14*
X52920Y1069311D03*
D63*
X62229Y1069311D03*
D14*
X70700Y1069311D03*
D92*
X89750Y1069311D03*
D63*
X99059Y1069311D03*
D14*
X107098Y1069311D03*
X116420Y1069311D03*
D28*
X29209Y1069735D03*
D14*
X52920Y1069735D03*
D63*
X62229Y1069735D03*
D14*
X70700Y1069735D03*
D92*
X89750Y1069735D03*
D63*
X99059Y1069735D03*
D14*
X107098Y1069735D03*
X116420Y1069735D03*
D27*
X29628Y1070158D03*
D17*
X52920Y1070158D03*
D62*
X62229Y1070158D03*
D17*
X70700Y1070158D03*
D53*
X89534Y1070158D03*
D62*
X99059Y1070158D03*
D17*
X107098Y1070158D03*
X116420Y1070158D03*
D16*
X29844Y1070581D03*
D14*
X52920Y1070581D03*
D63*
X62229Y1070581D03*
D14*
X70700Y1070581D03*
D52*
X89534Y1070581D03*
D63*
X99059Y1070581D03*
D14*
X107098Y1070581D03*
X116420Y1070581D03*
D26*
X30060Y1071005D03*
D14*
X52920Y1071005D03*
D63*
X62229Y1071005D03*
D14*
X70700Y1071005D03*
D51*
X89331Y1071005D03*
D63*
X99059Y1071005D03*
D14*
X107098Y1071005D03*
X116420Y1071005D03*
D19*
X30276Y1071428D03*
D17*
X52920Y1071428D03*
D62*
X62229Y1071428D03*
D17*
X70700Y1071428D03*
D65*
X89331Y1071428D03*
D62*
X99059Y1071428D03*
D17*
X107098Y1071428D03*
X116420Y1071428D03*
D28*
X30479Y1071851D03*
D16*
X53136Y1071851D03*
X62026Y1071851D03*
D14*
X70700Y1071851D03*
D51*
X89331Y1071851D03*
D63*
X99059Y1071851D03*
D14*
X107098Y1071851D03*
D16*
X116204Y1071851D03*
D26*
X30898Y1072275D03*
D39*
X57581Y1072275D03*
X75361Y1072275D03*
D98*
X89115Y1072275D03*
D63*
X99059Y1072275D03*
D39*
X111759Y1072275D03*
D19*
X31114Y1072698D03*
D38*
X57581Y1072698D03*
X75361Y1072698D03*
D105*
X89115Y1072698D03*
D62*
X99059Y1072698D03*
D38*
X111759Y1072698D03*
D26*
X31330Y1073121D03*
D39*
X57581Y1073121D03*
X75361Y1073121D03*
D28*
X88899Y1073121D03*
D63*
X99059Y1073121D03*
D39*
X111759Y1073121D03*
D16*
X31546Y1073545D03*
D112*
X57568Y1073545D03*
D39*
X75361Y1073545D03*
D28*
X88899Y1073545D03*
D63*
X99059Y1073545D03*
D113*
X111543Y1073545D03*
D106*
X31749Y1073968D03*
D114*
X57568Y1073968D03*
D38*
X75361Y1073968D03*
D106*
X88899Y1073968D03*
D62*
X99059Y1073968D03*
D115*
X111543Y1073968D03*
D26*
X32168Y1074391D03*
D112*
X57568Y1074391D03*
D39*
X75361Y1074391D03*
D16*
X88696Y1074391D03*
D63*
X99059Y1074391D03*
D113*
X111543Y1074391D03*
D16*
X32384Y1074815D03*
D44*
X57568Y1074815D03*
D39*
X75361Y1074815D03*
D16*
X88696Y1074815D03*
D63*
X99059Y1074815D03*
D112*
X111340Y1074815D03*
D27*
X32600Y1075238D03*
D30*
X57581Y1075238D03*
D38*
X75361Y1075238D03*
D19*
X88696Y1075238D03*
D62*
X99059Y1075238D03*
D42*
X111124Y1075238D03*
D16*
X32816Y1075661D03*
D32*
X57568Y1075661D03*
D39*
X75361Y1075661D03*
D14*
X88480Y1075661D03*
D63*
X99059Y1075661D03*
D44*
X110908Y1075661D03*
D16*
X33222Y1076085D03*
D111*
X57568Y1076085D03*
D39*
X75361Y1076085D03*
D14*
X88480Y1076085D03*
D63*
X99059Y1076085D03*
D108*
X110705Y1076085D03*
D60*
X33235Y1076508D03*
D91*
X57568Y1076508D03*
D38*
X75361Y1076508D03*
D64*
X88467Y1076508D03*
X99059Y1076508D03*
D35*
X110070Y1076508D03*
D124*
X87700Y1131000D02*
X62300Y1131000D01*
X62300Y1099000D02*
X87700Y1099000D01*
X88090Y1099005D01*
X88479Y1099019D01*
X88868Y1099043D01*
X89256Y1099076D01*
X89643Y1099118D01*
X90030Y1099171D01*
X90414Y1099232D01*
X90798Y1099303D01*
X91179Y1099383D01*
X91558Y1099472D01*
X91935Y1099571D01*
X92310Y1099678D01*
X92681Y1099795D01*
X93050Y1099921D01*
X93416Y1100056D01*
X93778Y1100199D01*
X94137Y1100352D01*
X94491Y1100513D01*
X94842Y1100682D01*
X95189Y1100861D01*
X95531Y1101047D01*
X95868Y1101242D01*
X96201Y1101445D01*
X96528Y1101656D01*
X96851Y1101875D01*
X97167Y1102102D01*
X97479Y1102336D01*
X97784Y1102578D01*
X98084Y1102827D01*
X98377Y1103084D01*
X98664Y1103347D01*
X98945Y1103618D01*
X99218Y1103895D01*
X99485Y1104179D01*
X99745Y1104469D01*
X99998Y1104765D01*
X100244Y1105068D01*
X100482Y1105376D01*
X100713Y1105690D01*
X100935Y1106010D01*
X101150Y1106335D01*
X101357Y1106665D01*
X101556Y1107000D01*
X101747Y1107340D01*
X101929Y1107684D01*
X102103Y1108033D01*
X102269Y1108386D01*
X102426Y1108742D01*
X102574Y1109103D01*
X102713Y1109467D01*
X102843Y1109834D01*
X102964Y1110204D01*
X103077Y1110577D01*
X103180Y1110953D01*
X103274Y1111331D01*
X103358Y1111712D01*
X103434Y1112094D01*
X103500Y1112478D01*
X103557Y1112863D01*
X103604Y1113250D01*
X103642Y1113638D01*
X103670Y1114026D01*
X103689Y1114416D01*
X103699Y1114805D01*
X103699Y1115195D01*
X103689Y1115584D01*
X103670Y1115974D01*
X103642Y1116362D01*
X103604Y1116750D01*
X103557Y1117137D01*
X103500Y1117522D01*
X103434Y1117906D01*
X103358Y1118288D01*
X103274Y1118669D01*
X103180Y1119047D01*
X103077Y1119423D01*
X102964Y1119796D01*
X102843Y1120166D01*
X102713Y1120533D01*
X102574Y1120897D01*
X102426Y1121258D01*
X102269Y1121614D01*
X102103Y1121967D01*
X101929Y1122316D01*
X101747Y1122660D01*
X101556Y1123000D01*
X101357Y1123335D01*
X101150Y1123665D01*
X100935Y1123990D01*
X100713Y1124310D01*
X100482Y1124624D01*
X100244Y1124932D01*
X99998Y1125235D01*
X99745Y1125531D01*
X99485Y1125821D01*
X99218Y1126105D01*
X98945Y1126382D01*
X98664Y1126653D01*
X98377Y1126916D01*
X98084Y1127173D01*
X97784Y1127422D01*
X97479Y1127664D01*
X97167Y1127898D01*
X96851Y1128125D01*
X96528Y1128344D01*
X96201Y1128555D01*
X95868Y1128758D01*
X95531Y1128953D01*
X95189Y1129139D01*
X94842Y1129318D01*
X94491Y1129487D01*
X94137Y1129648D01*
X93778Y1129801D01*
X93416Y1129944D01*
X93050Y1130079D01*
X92681Y1130205D01*
X92310Y1130322D01*
X91935Y1130429D01*
X91558Y1130528D01*
X91179Y1130617D01*
X90798Y1130697D01*
X90414Y1130768D01*
X90030Y1130829D01*
X89643Y1130882D01*
X89256Y1130924D01*
X88868Y1130957D01*
X88479Y1130981D01*
X88090Y1130995D01*
X87700Y1131000D01*
X62300Y1131000D02*
X61910Y1130995D01*
X61521Y1130981D01*
X61132Y1130957D01*
X60744Y1130924D01*
X60357Y1130882D01*
X59970Y1130829D01*
X59586Y1130768D01*
X59202Y1130697D01*
X58821Y1130617D01*
X58442Y1130528D01*
X58065Y1130429D01*
X57690Y1130322D01*
X57319Y1130205D01*
X56950Y1130079D01*
X56584Y1129944D01*
X56222Y1129801D01*
X55863Y1129648D01*
X55509Y1129487D01*
X55158Y1129318D01*
X54811Y1129139D01*
X54469Y1128953D01*
X54132Y1128758D01*
X53799Y1128555D01*
X53472Y1128344D01*
X53149Y1128125D01*
X52833Y1127898D01*
X52521Y1127664D01*
X52216Y1127422D01*
X51916Y1127173D01*
X51623Y1126916D01*
X51336Y1126653D01*
X51055Y1126382D01*
X50782Y1126105D01*
X50515Y1125821D01*
X50255Y1125531D01*
X50002Y1125235D01*
X49756Y1124932D01*
X49518Y1124624D01*
X49287Y1124310D01*
X49065Y1123990D01*
X48850Y1123665D01*
X48643Y1123335D01*
X48444Y1123000D01*
X48253Y1122660D01*
X48071Y1122316D01*
X47897Y1121967D01*
X47731Y1121614D01*
X47574Y1121258D01*
X47426Y1120897D01*
X47287Y1120533D01*
X47157Y1120166D01*
X47036Y1119796D01*
X46923Y1119423D01*
X46820Y1119047D01*
X46726Y1118669D01*
X46642Y1118288D01*
X46566Y1117906D01*
X46500Y1117522D01*
X46443Y1117137D01*
X46396Y1116750D01*
X46358Y1116362D01*
X46330Y1115974D01*
X46311Y1115584D01*
X46301Y1115195D01*
X46301Y1114805D01*
X46311Y1114416D01*
X46330Y1114026D01*
X46358Y1113638D01*
X46396Y1113250D01*
X46443Y1112863D01*
X46500Y1112478D01*
X46566Y1112094D01*
X46642Y1111712D01*
X46726Y1111331D01*
X46820Y1110953D01*
X46923Y1110577D01*
X47036Y1110204D01*
X47157Y1109834D01*
X47287Y1109467D01*
X47426Y1109103D01*
X47574Y1108742D01*
X47731Y1108386D01*
X47897Y1108033D01*
X48071Y1107684D01*
X48253Y1107340D01*
X48444Y1107000D01*
X48643Y1106665D01*
X48850Y1106335D01*
X49065Y1106010D01*
X49287Y1105690D01*
X49518Y1105376D01*
X49756Y1105068D01*
X50002Y1104765D01*
X50255Y1104469D01*
X50515Y1104179D01*
X50782Y1103895D01*
X51055Y1103618D01*
X51336Y1103347D01*
X51623Y1103084D01*
X51916Y1102827D01*
X52216Y1102578D01*
X52521Y1102336D01*
X52833Y1102102D01*
X53149Y1101875D01*
X53472Y1101656D01*
X53799Y1101445D01*
X54132Y1101242D01*
X54469Y1101047D01*
X54811Y1100861D01*
X55158Y1100682D01*
X55509Y1100513D01*
X55863Y1100352D01*
X56222Y1100199D01*
X56584Y1100056D01*
X56950Y1099921D01*
X57319Y1099795D01*
X57690Y1099678D01*
X58065Y1099571D01*
X58442Y1099472D01*
X58821Y1099383D01*
X59202Y1099303D01*
X59586Y1099232D01*
X59970Y1099171D01*
X60357Y1099118D01*
X60744Y1099076D01*
X61132Y1099043D01*
X61521Y1099019D01*
X61910Y1099005D01*
X62300Y1099000D01*
D125*
X55442Y1117376D02*
X54256Y1118562D01*
X51883Y1118562D01*
X50697Y1117376D01*
X50697Y1112630D01*
X51883Y1111444D01*
X54256Y1111444D01*
X55442Y1112630D01*
X57713Y1112630D02*
X57713Y1118562D01*
X57713Y1112630D02*
X58899Y1111444D01*
X61272Y1111444D01*
X62458Y1112630D01*
X62458Y1118562D01*
X67102Y1118562D02*
X67102Y1111444D01*
X64729Y1118562D02*
X69475Y1118562D01*
X79948Y1118562D02*
X82321Y1118562D01*
X79948Y1118562D02*
X78762Y1117376D01*
X78762Y1112630D01*
X79948Y1111444D01*
X82321Y1111444D01*
X83508Y1112630D01*
X83508Y1117376D01*
X82321Y1118562D01*
X85779Y1118562D02*
X85779Y1112630D01*
X86965Y1111444D01*
X89338Y1111444D01*
X90524Y1112630D01*
X90524Y1118562D01*
X95168Y1118562D02*
X95168Y1111444D01*
X97540Y1118562D02*
X92795Y1118562D01*
D124*
X87700Y-96500D02*
X62300Y-96500D01*
X62300Y-128500D02*
X87700Y-128500D01*
X88090Y-128495D01*
X88479Y-128481D01*
X88868Y-128457D01*
X89256Y-128424D01*
X89643Y-128382D01*
X90030Y-128329D01*
X90414Y-128268D01*
X90798Y-128197D01*
X91179Y-128117D01*
X91558Y-128028D01*
X91935Y-127929D01*
X92310Y-127822D01*
X92681Y-127705D01*
X93050Y-127579D01*
X93416Y-127444D01*
X93778Y-127301D01*
X94137Y-127148D01*
X94491Y-126987D01*
X94842Y-126818D01*
X95189Y-126639D01*
X95531Y-126453D01*
X95868Y-126258D01*
X96201Y-126055D01*
X96528Y-125844D01*
X96851Y-125625D01*
X97167Y-125398D01*
X97479Y-125164D01*
X97784Y-124922D01*
X98084Y-124673D01*
X98377Y-124416D01*
X98664Y-124153D01*
X98945Y-123882D01*
X99218Y-123605D01*
X99485Y-123321D01*
X99745Y-123031D01*
X99998Y-122735D01*
X100244Y-122432D01*
X100482Y-122124D01*
X100713Y-121810D01*
X100935Y-121490D01*
X101150Y-121165D01*
X101357Y-120835D01*
X101556Y-120500D01*
X101747Y-120160D01*
X101929Y-119816D01*
X102103Y-119467D01*
X102269Y-119114D01*
X102426Y-118758D01*
X102574Y-118397D01*
X102713Y-118033D01*
X102843Y-117666D01*
X102964Y-117296D01*
X103077Y-116923D01*
X103180Y-116547D01*
X103274Y-116169D01*
X103358Y-115788D01*
X103434Y-115406D01*
X103500Y-115022D01*
X103557Y-114637D01*
X103604Y-114250D01*
X103642Y-113862D01*
X103670Y-113474D01*
X103689Y-113084D01*
X103699Y-112695D01*
X103699Y-112305D01*
X103689Y-111916D01*
X103670Y-111526D01*
X103642Y-111138D01*
X103604Y-110750D01*
X103557Y-110363D01*
X103500Y-109978D01*
X103434Y-109594D01*
X103358Y-109212D01*
X103274Y-108831D01*
X103180Y-108453D01*
X103077Y-108077D01*
X102964Y-107704D01*
X102843Y-107334D01*
X102713Y-106967D01*
X102574Y-106603D01*
X102426Y-106242D01*
X102269Y-105886D01*
X102103Y-105533D01*
X101929Y-105184D01*
X101747Y-104840D01*
X101556Y-104500D01*
X101357Y-104165D01*
X101150Y-103835D01*
X100935Y-103510D01*
X100713Y-103190D01*
X100482Y-102876D01*
X100244Y-102568D01*
X99998Y-102265D01*
X99745Y-101969D01*
X99485Y-101679D01*
X99218Y-101395D01*
X98945Y-101118D01*
X98664Y-100847D01*
X98377Y-100584D01*
X98084Y-100327D01*
X97784Y-100078D01*
X97479Y-99836D01*
X97167Y-99602D01*
X96851Y-99375D01*
X96528Y-99156D01*
X96201Y-98945D01*
X95868Y-98742D01*
X95531Y-98547D01*
X95189Y-98361D01*
X94842Y-98182D01*
X94491Y-98013D01*
X94137Y-97852D01*
X93778Y-97699D01*
X93416Y-97556D01*
X93050Y-97421D01*
X92681Y-97295D01*
X92310Y-97178D01*
X91935Y-97071D01*
X91558Y-96972D01*
X91179Y-96883D01*
X90798Y-96803D01*
X90414Y-96732D01*
X90030Y-96671D01*
X89643Y-96618D01*
X89256Y-96576D01*
X88868Y-96543D01*
X88479Y-96519D01*
X88090Y-96505D01*
X87700Y-96500D01*
X62300Y-96500D02*
X61910Y-96505D01*
X61521Y-96519D01*
X61132Y-96543D01*
X60744Y-96576D01*
X60357Y-96618D01*
X59970Y-96671D01*
X59586Y-96732D01*
X59202Y-96803D01*
X58821Y-96883D01*
X58442Y-96972D01*
X58065Y-97071D01*
X57690Y-97178D01*
X57319Y-97295D01*
X56950Y-97421D01*
X56584Y-97556D01*
X56222Y-97699D01*
X55863Y-97852D01*
X55509Y-98013D01*
X55158Y-98182D01*
X54811Y-98361D01*
X54469Y-98547D01*
X54132Y-98742D01*
X53799Y-98945D01*
X53472Y-99156D01*
X53149Y-99375D01*
X52833Y-99602D01*
X52521Y-99836D01*
X52216Y-100078D01*
X51916Y-100327D01*
X51623Y-100584D01*
X51336Y-100847D01*
X51055Y-101118D01*
X50782Y-101395D01*
X50515Y-101679D01*
X50255Y-101969D01*
X50002Y-102265D01*
X49756Y-102568D01*
X49518Y-102876D01*
X49287Y-103190D01*
X49065Y-103510D01*
X48850Y-103835D01*
X48643Y-104165D01*
X48444Y-104500D01*
X48253Y-104840D01*
X48071Y-105184D01*
X47897Y-105533D01*
X47731Y-105886D01*
X47574Y-106242D01*
X47426Y-106603D01*
X47287Y-106967D01*
X47157Y-107334D01*
X47036Y-107704D01*
X46923Y-108077D01*
X46820Y-108453D01*
X46726Y-108831D01*
X46642Y-109212D01*
X46566Y-109594D01*
X46500Y-109978D01*
X46443Y-110363D01*
X46396Y-110750D01*
X46358Y-111138D01*
X46330Y-111526D01*
X46311Y-111916D01*
X46301Y-112305D01*
X46301Y-112695D01*
X46311Y-113084D01*
X46330Y-113474D01*
X46358Y-113862D01*
X46396Y-114250D01*
X46443Y-114637D01*
X46500Y-115022D01*
X46566Y-115406D01*
X46642Y-115788D01*
X46726Y-116169D01*
X46820Y-116547D01*
X46923Y-116923D01*
X47036Y-117296D01*
X47157Y-117666D01*
X47287Y-118033D01*
X47426Y-118397D01*
X47574Y-118758D01*
X47731Y-119114D01*
X47897Y-119467D01*
X48071Y-119816D01*
X48253Y-120160D01*
X48444Y-120500D01*
X48643Y-120835D01*
X48850Y-121165D01*
X49065Y-121490D01*
X49287Y-121810D01*
X49518Y-122124D01*
X49756Y-122432D01*
X50002Y-122735D01*
X50255Y-123031D01*
X50515Y-123321D01*
X50782Y-123605D01*
X51055Y-123882D01*
X51336Y-124153D01*
X51623Y-124416D01*
X51916Y-124673D01*
X52216Y-124922D01*
X52521Y-125164D01*
X52833Y-125398D01*
X53149Y-125625D01*
X53472Y-125844D01*
X53799Y-126055D01*
X54132Y-126258D01*
X54469Y-126453D01*
X54811Y-126639D01*
X55158Y-126818D01*
X55509Y-126987D01*
X55863Y-127148D01*
X56222Y-127301D01*
X56584Y-127444D01*
X56950Y-127579D01*
X57319Y-127705D01*
X57690Y-127822D01*
X58065Y-127929D01*
X58442Y-128028D01*
X58821Y-128117D01*
X59202Y-128197D01*
X59586Y-128268D01*
X59970Y-128329D01*
X60357Y-128382D01*
X60744Y-128424D01*
X61132Y-128457D01*
X61521Y-128481D01*
X61910Y-128495D01*
X62300Y-128500D01*
D125*
X55442Y-110124D02*
X54256Y-108938D01*
X51883Y-108938D01*
X50697Y-110124D01*
X50697Y-114870D01*
X51883Y-116056D01*
X54256Y-116056D01*
X55442Y-114870D01*
X57713Y-114870D02*
X57713Y-108938D01*
X57713Y-114870D02*
X58899Y-116056D01*
X61272Y-116056D01*
X62458Y-114870D01*
X62458Y-108938D01*
X67102Y-108938D02*
X67102Y-116056D01*
X64729Y-108938D02*
X69475Y-108938D01*
X79948Y-108938D02*
X82321Y-108938D01*
X79948Y-108938D02*
X78762Y-110124D01*
X78762Y-114870D01*
X79948Y-116056D01*
X82321Y-116056D01*
X83508Y-114870D01*
X83508Y-110124D01*
X82321Y-108938D01*
X85779Y-108938D02*
X85779Y-114870D01*
X86965Y-116056D01*
X89338Y-116056D01*
X90524Y-114870D01*
X90524Y-108938D01*
X95168Y-108938D02*
X95168Y-116056D01*
X97540Y-108938D02*
X92795Y-108938D01*
D126*
X80000Y784000D03*
X60000Y877000D03*
X80000Y970000D03*
X60000Y691000D03*
X80000Y598000D03*
D127*
X80000Y431000D03*
X60000Y293000D03*
X80000Y152900D03*
X60000Y13500D03*
M02*
